<?xml version="1.0" encoding="UTF-8" standalone="no"?>
<!DOCTYPE svg PUBLIC "-//W3C//DTD SVG 1.1//EN" "http://www.w3.org/Graphics/SVG/1.1/DTD/svg11.dtd">
<svg width="100%" height="100%" viewBox="0 0 551 241" version="1.1" xmlns="http://www.w3.org/2000/svg" xmlns:xlink="http://www.w3.org/1999/xlink" xml:space="preserve" xmlns:serif="http://www.serif.com/" style="fill-rule:evenodd;clip-rule:evenodd;stroke-linejoin:round;stroke-miterlimit:2;">
    <g transform="matrix(1,0,0,1,-2240.31,-586.147)">
        <g transform="matrix(4.16667,0,0,4.16667,0,0)">
            <path d="M629.044,167.275C628.927,163.166 629.419,159.026 629.477,154.915C629.499,153.385 628.567,152.47 627.433,152.153C626.953,151.518 626.207,151.069 625.177,151.048C617.225,150.884 609.458,152.465 601.629,153.623C596.404,154.396 590.79,153.603 585.707,155.162C581.03,156.596 579.422,160.15 579.241,164.805C578.972,171.762 579.664,179.151 580.161,186.087C580.28,187.746 581.44,189.03 583.161,189.087C590.932,189.342 598.696,189.164 606.432,188.337C609.844,187.973 613.216,187.413 616.642,187.227C618.95,187.102 621.406,187.095 623.62,186.334C628.111,184.792 629.714,180.882 629.796,176.368C629.85,173.325 629.131,170.313 629.044,167.275Z" style="fill:rgb(244,141,140);fill-rule:nonzero;"/>
        </g>
        <g transform="matrix(4.16667,0,0,4.16667,0,0)">
            <path d="M574.406,173.17C566.986,166.239 553.471,172.185 552.868,182.097C552.748,184.062 554.879,185.485 556.665,184.99C561.921,183.533 566.357,179.913 571.782,179.052C572.724,178.902 573.331,178.434 573.658,177.825C575.237,176.93 576.113,174.765 574.406,173.17Z" style="fill:rgb(252,223,108);fill-rule:nonzero;"/>
        </g>
        <g transform="matrix(4.16667,0,0,4.16667,0,0)">
            <path d="M573.596,188.406C572.948,186.884 571.249,185.844 569.471,187.008C562.685,191.449 553.206,189.7 545.762,188.049C542.971,187.431 540.553,190.909 542.843,193.063C550.927,200.667 566.116,199.819 574.406,193.021C576.273,191.489 575.307,189.265 573.596,188.406Z" style="fill:rgb(252,223,108);fill-rule:nonzero;"/>
        </g>
        <g transform="matrix(4.16667,0,0,4.16667,0,0)">
            <path d="M661.296,158.312C660.858,156.924 659.566,155.83 657.762,156.358C643.959,160.395 638.084,171.604 634.577,184.641C631.776,185.694 632.091,190.557 635.582,190.431C652.068,189.837 660.576,175.651 662.381,160.651C662.509,159.593 662.028,158.799 661.296,158.312Z" style="fill:rgb(192,223,196);fill-rule:nonzero;"/>
        </g>
        <g transform="matrix(4.16667,0,0,4.16667,0,0)">
            <path d="M598.187,150.995C602.05,150.609 605.906,150.224 609.804,149.834C609.25,147.954 608.259,146.947 606.503,146.99C604.353,147.042 602.185,147.318 600.079,147.755C598.414,148.1 598.038,148.93 598.187,150.995ZM623.776,150.127C624.366,153.689 628.325,156.813 631.665,156.146C631.382,154.165 631.132,152.159 630.774,150.172C630.72,149.872 630.142,149.424 629.841,149.448C627.815,149.613 625.799,149.888 623.776,150.127ZM623.767,189.103C625.597,188.729 627.342,188.429 629.05,187.983C629.501,187.866 630.102,187.344 630.176,186.927C630.524,184.953 630.713,182.951 630.965,180.909C626.501,181.389 623.554,184.729 623.767,189.103ZM583.271,190.95C582.639,186.667 579.757,184.068 575.474,183.917L575.474,190.95L583.271,190.95ZM582.628,153.891C580.798,154.182 578.954,154.453 577.123,154.793C576.886,154.837 576.555,155.231 576.539,155.481C576.361,158.24 576.237,161.002 576.098,163.789C580.755,163.355 583.629,158.952 582.628,153.891ZM573.723,179.628C567.254,181.628 560.875,183.64 554.465,185.544C553.24,185.908 553.03,186.55 553.161,187.599C553.339,187.659 553.458,187.726 553.582,187.737C553.886,187.763 554.191,187.762 554.496,187.776C560.973,188.067 567.089,186.471 573.065,184.188C573.343,184.082 573.679,183.686 573.693,183.41C573.759,182.113 573.723,180.811 573.723,179.628ZM596.308,151.07C596.479,147.261 597.282,146.528 601.063,145.605C601.317,145.544 601.57,145.48 601.826,145.43C607.377,144.336 609.633,145.243 611.88,149.55C612.975,149.396 614.108,149.236 615.235,149.078C615.22,144.75 613.251,142.575 609.016,142.551C606.159,142.536 603.285,142.778 600.444,143.118C597.849,143.429 595.49,144.446 593.635,146.397C592.364,147.734 591.791,149.282 592.143,151.07L596.308,151.07ZM553.974,183.833C560.557,182.193 566.831,180.111 572.963,177.61C573.363,177.446 573.82,176.826 573.836,176.404C573.986,172.159 571.126,170.138 567.075,170.68C558.968,171.764 555.964,176.278 553.974,183.833ZM540.334,189.862C540.281,190.026 540.228,190.19 540.177,190.354C542.052,191.32 543.866,192.433 545.813,193.223C550.914,195.291 556.248,195.396 561.611,194.651C565.557,194.104 569.34,192.961 572.788,190.893C573.125,190.69 573.568,190.318 573.591,189.999C573.682,188.679 573.629,187.35 573.629,186.043C570.511,186.937 567.504,187.976 564.416,188.638C560.414,189.497 556.332,190.009 552.233,189.377C548.216,188.757 544.277,189.236 540.334,189.862ZM656.709,156.723C656.227,156.504 655.889,156.309 655.524,156.191C651.685,154.952 647.743,154.709 643.771,155.192C640.621,155.575 637.73,156.811 634.978,158.359C633.908,158.961 633.299,159.726 633.289,161.142C633.257,165.93 633.022,170.718 632.89,175.506C632.848,176.994 632.883,178.483 632.883,180.278C635.853,175.122 638.705,170.244 642.596,166.088C646.523,161.893 651.104,158.669 656.709,156.723ZM631.912,192.127C633.228,192.902 634.176,193.587 635.22,194.055C643.713,197.85 651.82,196.985 659.307,191.586C667.991,185.322 669.804,174.598 666.261,166.544C665.099,163.905 663.274,161.724 660.995,159.644C663.724,181.247 648.175,192.55 631.912,192.127ZM616.273,189.645C618.114,189.505 619.927,189.368 621.827,189.223C622.077,183.265 625.198,179.869 631.102,178.929C631.27,172.008 631.435,165.187 631.599,158.404C625.695,157.086 623.277,155.075 621.815,150.294C619.698,150.507 617.557,150.722 615.673,150.911C615.874,163.879 616.072,176.664 616.273,189.645ZM630.986,189.542C631.982,190.279 632.657,190.572 634.834,190.356C646.006,189.248 654.711,184.071 658.302,173.03C659.725,168.65 659.712,164.296 659.16,159.86C658.967,158.3 658.5,157.949 657.093,158.58C654.483,159.749 651.834,160.928 649.456,162.491C644.44,165.788 640.875,170.487 637.763,175.536C635.615,179.02 633.432,182.487 632.27,186.477C631.969,187.512 631.438,188.481 630.986,189.542ZM594.577,190.682C594.248,178 593.925,165.531 593.597,152.893C590.454,153.164 587.54,153.415 584.568,153.671C584.839,156.637 584.549,159.278 582.917,161.625C581.269,163.994 579.112,165.536 576.016,165.703C575.824,171.191 575.637,176.563 575.447,181.995C580.964,182.71 584.335,185.471 585.107,190.682L594.577,190.682ZM595.352,152.983C595.678,165.368 596.005,177.835 596.334,190.393C602.496,190.164 608.346,189.946 614.162,189.73C614.748,176.832 614.383,164.056 613.614,151.219C607.543,151.805 601.586,152.381 595.352,152.983ZM590.273,151.334C590.397,150.146 590.342,149.022 590.652,148.011C591.512,145.213 593.648,143.472 596.231,142.502C601.125,140.666 606.225,140.306 611.41,141.013C615.198,141.529 616.527,145.024 616.901,147.751C616.948,148.089 616.908,148.439 616.908,148.976C618.269,148.856 619.545,148.765 620.816,148.63C623.631,148.333 626.438,147.977 629.256,147.715C631.604,147.497 632.166,147.834 632.599,150.137C633.025,152.396 633.176,154.707 633.451,157.031C635.069,156.292 636.675,155.421 638.373,154.805C645.057,152.379 651.681,152.6 658.222,155.423C658.6,155.586 659.134,155.542 659.554,155.434C661.921,154.821 663.39,156.116 663.082,158.508C663.035,158.875 663.344,159.374 663.629,159.682C666.335,162.615 668.47,165.862 669.225,169.854C671.398,181.336 665.806,191.23 655.485,195.861C648.694,198.909 641.864,198.777 635.06,195.945C632.368,194.825 630.006,193.212 628.396,190.669C628.241,190.425 627.774,190.227 627.472,190.25C621.483,190.713 615.505,191.338 609.51,191.674C601.157,192.142 592.794,192.41 584.434,192.739C581.734,192.846 579.031,192.912 576.329,192.92C575.555,192.923 574.78,192.662 573.785,192.481C565.835,196.832 557.116,197.76 548.075,195.843C544.508,195.086 541.257,193.426 538.518,190.951C538.039,190.518 537.628,189.704 537.678,189.107C537.706,188.771 538.718,188.326 539.323,188.258C543.248,187.823 547.182,187.478 550.994,187.114C551.992,184.212 552.862,181.058 554.147,178.083C556.739,172.08 561.572,169.171 568.003,168.902C570.174,168.811 572.162,169.638 574.049,171.058C574.182,168.705 574.338,166.507 574.427,164.307C574.544,161.435 574.595,158.559 574.703,155.686C574.776,153.712 575.138,153.234 577.128,152.962C580.878,152.451 584.643,152.047 588.402,151.594C589.007,151.521 589.608,151.427 590.273,151.334Z" style="fill:rgb(35,31,32);fill-rule:nonzero;"/>
        </g>
    </g>
</svg>
