<?xml version="1.0" encoding="UTF-8" standalone="no"?>
<!DOCTYPE svg PUBLIC "-//W3C//DTD SVG 1.1//EN" "http://www.w3.org/Graphics/SVG/1.1/DTD/svg11.dtd">
<svg width="100%" height="100%" viewBox="0 0 427 333" version="1.1" xmlns="http://www.w3.org/2000/svg" xmlns:xlink="http://www.w3.org/1999/xlink" xml:space="preserve" xmlns:serif="http://www.serif.com/" style="fill-rule:evenodd;clip-rule:evenodd;stroke-linejoin:round;stroke-miterlimit:2;">
    <g transform="matrix(1,0,0,1,-50.3669,-115.562)">
        <g transform="matrix(1,0,0,1,88.7741,274.237)">
            <path d="M0,12.063C0,12.063 -2.75,-0.657 -16.53,-3.392C-30.311,-6.127 -30.521,7.616 -27.344,11.648C-24.168,15.68 -7.013,18.19 0,12.063" style="fill:rgb(103,136,0);fill-rule:nonzero;"/>
        </g>
        <g transform="matrix(1,0,0,1,95.5138,265.661)">
            <path d="M0,22.335C0,22.335 -2.611,11.97 5.118,5.984C12.847,0 18.6,2.037 21.096,4.681C23.591,7.324 25.15,19.449 0,22.335" style="fill:rgb(103,136,0);fill-rule:nonzero;"/>
        </g>
        <g transform="matrix(0.892565,0.450918,0.450918,-0.892565,87.825,184.98)">
            <path d="M9.741,-2.005C9.741,-2.005 -1.098,1.719 -4.578,17.703C-8.058,33.687 4.089,38.895 9.741,39.741C15.392,40.588 21.213,33.277 23.1,21.954C24.986,10.63 16.318,0.194 9.741,-2.005" style="fill:rgb(103,136,0);fill-rule:nonzero;"/>
        </g>
        <g transform="matrix(0.428221,0.903674,0.903674,-0.428221,91.8833,196.876)">
            <path d="M19.24,-9.713C19.24,-9.713 8.812,-4.317 8.051,6.74C7.292,17.797 14.562,24.94 19.24,25.645C23.917,26.348 29.28,15.601 27.141,6.826C25.003,-1.948 19.24,-9.713 19.24,-9.713" style="fill:rgb(103,136,0);fill-rule:nonzero;"/>
        </g>
        <g transform="matrix(0.620829,0.783946,0.783946,-0.620829,84.3289,235.516)">
            <path d="M16.389,-5.131C16.389,-5.131 5.432,0.071 3.09,12.605C0.749,25.139 11.418,29.606 16.389,29.225C21.36,28.844 26.809,18.031 25.537,9.571C24.265,1.11 16.389,-5.131 16.389,-5.131" style="fill:rgb(103,136,0);fill-rule:nonzero;"/>
        </g>
        <g transform="matrix(1,0,0,1,87.3908,191.051)">
            <path d="M0,23.542C0,23.542 -7.919,25.372 -19.251,22.406C-30.582,19.441 -30.561,7.808 -25.076,2.989C-19.591,-1.83 2.203,4.823 0,23.542" style="fill:rgb(103,136,0);fill-rule:nonzero;"/>
        </g>
        <g transform="matrix(1,0,0,1,83.7721,232.414)">
            <path d="M0,17.267C0,17.267 -0.199,1.652 -13.622,-1.013C-27.044,-3.677 -30.115,2.158 -29.48,6.939C-28.844,11.72 -12.137,20.944 0,17.267" style="fill:rgb(103,136,0);fill-rule:nonzero;"/>
        </g>
        <g transform="matrix(1,0,0,1,66.4328,290.502)">
            <path d="M0,-10.21C2.377,-10.98 4.964,-11.185 7.52,-10.991C10.079,-10.78 12.623,-10.148 15.001,-9.135L16.763,-8.325L18.453,-7.38L20.068,-6.318L21.588,-5.133C23.547,-3.478 25.244,-1.522 26.464,0.664C26.519,0.762 26.483,0.881 26.384,0.931C26.298,0.975 26.193,0.95 26.131,0.879C24.508,-0.988 22.704,-2.65 20.72,-4.062L19.205,-5.071L17.639,-5.996L16.018,-6.817L14.357,-7.552C12.107,-8.441 9.771,-9.098 7.38,-9.479C4.989,-9.877 2.557,-9.971 0.081,-9.853C-0.023,-9.847 -0.114,-9.925 -0.123,-10.026C-0.13,-10.11 -0.078,-10.185 0,-10.21" style="fill:rgb(67,78,0);fill-rule:nonzero;"/>
        </g>
        <g transform="matrix(1,0,0,1,57.3751,256.464)">
            <path d="M0,-19.409C3.144,-20.001 6.47,-19.846 9.673,-19.129C12.873,-18.383 15.975,-17.068 18.708,-15.204C20.081,-14.282 21.367,-13.238 22.534,-12.083C23.711,-10.938 24.771,-9.685 25.708,-8.357C27.577,-5.702 28.958,-2.734 29.639,0.344C29.663,0.452 29.593,0.555 29.483,0.575C29.384,0.592 29.287,0.537 29.251,0.447C28.082,-2.448 26.514,-5.153 24.567,-7.562C23.596,-8.767 22.531,-9.895 21.394,-10.943C20.248,-11.981 19.029,-12.941 17.74,-13.794C15.149,-15.481 12.306,-16.795 9.316,-17.657C6.33,-18.547 3.214,-18.983 0.044,-19.047C-0.06,-19.049 -0.145,-19.132 -0.146,-19.233C-0.148,-19.321 -0.085,-19.393 0,-19.409" style="fill:rgb(67,78,0);fill-rule:nonzero;"/>
        </g>
        <g transform="matrix(1,0,0,1,66.2638,216.975)">
            <path d="M0,-16.79C2.504,-16.893 5.05,-16.434 7.471,-15.623C9.889,-14.794 12.19,-13.588 14.248,-12.069L15.76,-10.892L17.173,-9.604L18.493,-8.228L19.694,-6.758C21.218,-4.746 22.435,-2.515 23.162,-0.165C23.194,-0.059 23.133,0.05 23.026,0.079C22.932,0.103 22.833,0.059 22.788,-0.023C21.595,-2.149 20.203,-4.126 18.593,-5.914L17.351,-7.217L16.043,-8.455L14.663,-9.61L13.227,-10.696C11.257,-12.07 9.155,-13.255 6.937,-14.207C4.723,-15.177 2.397,-15.884 -0.022,-16.428C-0.124,-16.451 -0.191,-16.549 -0.171,-16.648C-0.154,-16.73 -0.083,-16.786 0,-16.79" style="fill:rgb(67,78,0);fill-rule:nonzero;"/>
        </g>
        <g transform="matrix(1,0,0,1,87.6608,235.392)">
            <path d="M0,23.915C0.254,21.072 1.105,18.297 2.326,15.706C3.575,13.126 5.2,10.716 7.163,8.603L8.676,7.058L10.303,5.627L12.023,4.305L13.84,3.115C16.319,1.615 19.024,0.454 21.859,-0.204C21.967,-0.229 22.08,-0.163 22.109,-0.057C22.135,0.038 22.087,0.133 22,0.17C19.386,1.3 16.924,2.659 14.665,4.272L13.009,5.525L11.425,6.856L9.928,8.276L8.508,9.767C6.692,11.821 5.073,14.04 3.729,16.431C2.357,18.809 1.271,21.346 0.366,23.999C0.334,24.094 0.228,24.144 0.129,24.108C0.044,24.079 -0.007,23.997 0,23.915" style="fill:rgb(67,78,0);fill-rule:nonzero;"/>
        </g>
        <g transform="matrix(1,0,0,1,88.5734,206.099)">
            <path d="M0,14.992C1.496,12.674 3.393,10.613 5.493,8.776C7.611,6.958 9.944,5.361 12.453,4.072L14.351,3.134L16.304,2.308L18.298,1.578L20.335,0.966C23.073,0.223 25.901,-0.237 28.747,-0.301C28.859,-0.304 28.955,-0.217 28.961,-0.108C28.967,-0.011 28.9,0.071 28.807,0.09C26.068,0.659 23.396,1.369 20.812,2.287L18.891,3.011L17.002,3.798L15.155,4.663L13.342,5.589C10.967,6.895 8.676,8.339 6.515,9.963C4.335,11.568 2.298,13.351 0.293,15.227C0.22,15.296 0.101,15.292 0.027,15.218C-0.035,15.155 -0.044,15.061 0,14.992" style="fill:rgb(67,78,0);fill-rule:nonzero;"/>
        </g>
        <g transform="matrix(1,0,0,1,112.642,293.833)">
            <path d="M0,-22.419C-2.24,-21.144 -4.354,-19.763 -6.288,-18.174C-8.237,-16.607 -9.998,-14.843 -11.598,-12.95L-12.742,-11.485L-13.817,-9.969L-14.803,-8.393L-15.713,-6.768C-16.871,-4.566 -17.785,-2.232 -18.497,0.201C-18.527,0.306 -18.64,0.363 -18.748,0.33C-18.843,0.302 -18.903,0.212 -18.896,0.12C-18.694,-2.456 -18.02,-4.989 -17.013,-7.38L-16.193,-9.147L-15.241,-10.85L-14.18,-12.49L-12.998,-14.05C-11.374,-16.096 -9.425,-17.892 -7.269,-19.394C-5.098,-20.872 -2.708,-22.068 -0.155,-22.755C-0.055,-22.782 0.05,-22.725 0.081,-22.627C0.107,-22.544 0.071,-22.46 0,-22.419" style="fill:rgb(67,78,0);fill-rule:nonzero;"/>
        </g>
        <g transform="matrix(1,0,0,1,113.508,303.538)">
            <path d="M0,-148.816L-2.409,-144.655L-4.715,-140.441L-6.896,-136.163L-8.957,-131.83C-11.631,-126.019 -13.999,-120.071 -16.025,-114.008C-20.112,-101.892 -22.868,-89.33 -24.324,-76.587C-25.04,-70.214 -25.417,-63.795 -25.466,-57.36L-25.432,-52.533L-25.269,-47.703L-24.991,-42.873L-24.58,-38.046C-23.95,-31.615 -22.933,-25.208 -21.609,-18.848C-20.296,-12.486 -18.588,-6.189 -16.585,0.033C-16.551,0.138 -16.61,0.246 -16.717,0.276C-16.821,0.305 -16.932,0.247 -16.969,0.147C-19.245,-6.01 -21.091,-12.307 -22.609,-18.669C-24.115,-25.034 -25.207,-31.479 -25.969,-37.949L-26.469,-42.808L-26.835,-47.675L-27.051,-52.546L-27.129,-57.418C-27.152,-63.911 -26.796,-70.395 -26.084,-76.829C-24.684,-89.702 -21.796,-102.376 -17.512,-114.535C-15.353,-120.608 -12.853,-126.557 -9.986,-132.321L-7.767,-136.608L-5.415,-140.822L-2.94,-144.963L-0.32,-149.014C-0.266,-149.098 -0.151,-149.121 -0.063,-149.066C0.022,-149.012 0.051,-148.904 0.003,-148.821L0,-148.816Z" style="fill:rgb(67,78,0);fill-rule:nonzero;"/>
        </g>
        <g transform="matrix(1,0,0,1,424.882,421.988)">
            <path d="M0,-132.672C0,-132.672 -3.341,-92.87 1.671,-84.91L-50.119,-49.088L-98.15,-16.805C-98.15,-16.805 -121.539,0 -122.792,-1.769C-124.046,-3.537 -134.865,-14.139 -135.094,-22.548C-135.322,-30.956 -135.544,-51.634 -129.377,-54.563C-123.21,-57.491 0,-132.672 0,-132.672" style="fill:rgb(249,232,221);fill-rule:nonzero;"/>
        </g>
        <g transform="matrix(1,0,0,1,302.188,255.706)">
            <path d="M0,166.006L-36.879,153.717L-52.371,148.555L-132.352,121.908L-147.665,116.804L-224.801,91.103C-236.076,64.124 -224.382,44.666 -224.382,44.666L-107.854,0L126.414,30.051C126.414,30.051 -1.353,109.674 -3.857,111.887C-6.363,114.097 -11.793,122.06 -11.793,139.304C-11.793,156.553 0,166.006 0,166.006" style="fill:rgb(255,123,146);fill-rule:nonzero;"/>
        </g>
        <g transform="matrix(-0.94872,-0.316118,-0.316118,0.94872,258.83,355.043)">
            <path d="M-23.338,49.543L-7.008,49.543C-0.886,38.84 11.305,13.875 0.233,1.185L-13.845,1.157C-13.845,1.157 -0.901,15.232 -23.338,49.543" style="fill:rgb(255,161,179);fill-rule:nonzero;"/>
        </g>
        <g transform="matrix(-0.947551,-0.319604,-0.319604,0.947551,96.6167,304.63)">
            <path d="M-22.224,45.883L-6.063,45.883C0.377,34.119 11.01,13.347 0.736,1.355L-13.982,1.43C-13.982,1.43 -1.557,12.865 -22.224,45.883" style="fill:rgb(255,161,179);fill-rule:nonzero;"/>
        </g>
        <g transform="matrix(1,0,0,1,77.8585,366.926)">
            <path d="M0,-66.749C71.664,-45.928 144.391,-23.228 215.519,-0.43C215.763,-0.36 215.659,0.078 215.403,-0.007C152.945,-18.386 88.822,-37.93 26.726,-57.678C20.214,-59.746 13.125,-62.064 6.594,-64.164C6.595,-64.164 -0.106,-66.36 -0.106,-66.36C-0.333,-66.424 -0.234,-66.827 0,-66.749" style="fill:rgb(203,48,78);fill-rule:nonzero;"/>
        </g>
        <g transform="matrix(1,0,0,1,302.925,285.326)">
            <path d="M0,136.596C-0.255,136.596 -0.51,136.527 -0.737,136.386C-1.118,136.153 -10.093,130.474 -13.137,114.114C-16.85,94.155 -8.18,82.914 -7.81,82.446C-7.699,82.307 -7.567,82.19 -7.42,82.099L125.676,0.432C126.378,0 127.276,0.254 127.684,0.998C128.091,1.742 127.852,2.694 127.149,3.124L-5.698,84.64C-6.77,86.159 -13.425,96.461 -10.253,113.512C-7.965,125.809 -2.012,131.529 0.038,133.175L128.97,47.045C129.657,46.587 130.563,46.805 130.996,47.531C131.43,48.257 131.225,49.218 130.538,49.677L0.784,136.356C0.545,136.516 0.272,136.596 0,136.596" style="fill:rgb(255,161,179);fill-rule:nonzero;"/>
        </g>
        <g transform="matrix(0.506829,0.862047,0.862047,-0.506829,291.315,307.622)">
            <path d="M65.221,-37.583C63.9,13.38 64.055,64.411 64.788,115.282C64.783,115.535 65.223,115.531 65.221,115.261C66.193,67.498 66.563,19.627 65.817,-28.057C65.641,-29.13 66.02,-39.304 65.221,-37.583" style="fill:rgb(219,193,179);fill-rule:nonzero;"/>
        </g>
        <g transform="matrix(0.494896,0.868952,0.868952,-0.494896,309.493,314.723)">
            <path d="M56.913,-33.348C55.591,10.801 55.746,55.01 56.481,99.07C56.477,99.318 56.915,99.323 56.913,99.05C57.887,57.674 58.257,16.202 57.509,-25.1C57.341,-26.034 57.697,-34.947 56.913,-33.348" style="fill:rgb(219,193,179);fill-rule:nonzero;"/>
        </g>
        <g transform="matrix(0.517156,0.855891,0.855891,-0.517156,292.504,330.756)">
            <path d="M64.193,-36.482C62.873,14.035 63.027,64.622 63.76,115.045C63.756,115.3 64.195,115.295 64.193,115.025C65.165,67.68 65.534,20.225 64.788,-27.041C64.612,-28.107 64.99,-38.185 64.193,-36.482" style="fill:rgb(219,193,179);fill-rule:nonzero;"/>
        </g>
        <g transform="matrix(1,0,0,1,116.983,379.597)">
            <path d="M0,-40.206C40.778,-27.836 81.917,-14.7 121.765,0C83.576,-10.99 45.223,-23.986 7.425,-37.107C6.767,-37.5 -1.708,-39.945 0,-40.206" style="fill:rgb(203,48,78);fill-rule:nonzero;"/>
        </g>
        <g transform="matrix(1,0,0,1,230.53,388.525)">
            <path d="M0,-10.614C0,-10.614 -15.593,2.948 -18.377,-5.307C-21.162,-13.562 0,-10.614 0,-10.614" style="fill:rgb(203,48,78);fill-rule:nonzero;"/>
        </g>
        <g transform="matrix(1,0,0,1,133.076,330.738)">
            <path d="M0,14.153C0,14.153 -24.502,20.049 -21.718,7.077C-18.934,-5.896 0,14.153 0,14.153" style="fill:rgb(203,48,78);fill-rule:nonzero;"/>
        </g>
        <g transform="matrix(1,0,0,1,150.339,360.223)">
            <path d="M0,-10.615C0,-10.615 -15.593,2.948 -18.377,-5.308C-21.162,-13.563 0,-10.615 0,-10.615" style="fill:rgb(203,48,78);fill-rule:nonzero;"/>
        </g>
        <g transform="matrix(1,0,0,1,149.027,328.71)">
            <path d="M0,21.263C0,21.263 -1.988,0 -9.466,3.76C-16.945,7.521 0,21.263 0,21.263" style="fill:rgb(203,48,78);fill-rule:nonzero;"/>
        </g>
        <g transform="matrix(1,0,0,1,169.632,335.196)">
            <path d="M0,21.263C0,21.263 -1.988,0 -9.466,3.76C-16.945,7.521 0,21.263 0,21.263" style="fill:rgb(203,48,78);fill-rule:nonzero;"/>
        </g>
        <g transform="matrix(1,0,0,1,211.955,348.169)">
            <path d="M0,21.262C0,21.262 -1.988,0 -9.466,3.76C-16.944,7.52 0,21.262 0,21.262" style="fill:rgb(203,48,78);fill-rule:nonzero;"/>
        </g>
        <g transform="matrix(1,0,0,1,230.889,357.014)">
            <path d="M0,21.263C0,21.263 -1.988,0 -9.466,3.76C-16.945,7.52 0,21.263 0,21.263" style="fill:rgb(203,48,78);fill-rule:nonzero;"/>
        </g>
        <g transform="matrix(1,0,0,1,189.123,341.683)">
            <path d="M0,21.263C0,21.263 -1.988,0 -9.466,3.76C-16.945,7.52 0,21.263 0,21.263" style="fill:rgb(203,48,78);fill-rule:nonzero;"/>
        </g>
        <g transform="matrix(1,0,0,1,170.387,368.478)">
            <path d="M0,-10.615C0,-10.615 -15.593,2.948 -18.377,-5.307C-21.162,-13.563 0,-10.615 0,-10.615" style="fill:rgb(203,48,78);fill-rule:nonzero;"/>
        </g>
        <g transform="matrix(1,0,0,1,190.992,374.374)">
            <path d="M0,-10.614C0,-10.614 -15.593,2.948 -18.377,-5.307C-21.162,-13.562 0,-10.614 0,-10.614" style="fill:rgb(203,48,78);fill-rule:nonzero;"/>
        </g>
        <g transform="matrix(1,0,0,1,212.71,380.86)">
            <path d="M0,-10.615C0,-10.615 -15.593,2.948 -18.377,-5.307C-21.162,-13.563 0,-10.615 0,-10.615" style="fill:rgb(203,48,78);fill-rule:nonzero;"/>
        </g>
        <g transform="matrix(1,0,0,1,389.382,194.019)">
            <path d="M0,9.673C0,9.673 2.45,-1.008 13.317,-4.926C24.185,-8.845 30.471,-5.421 31.957,0.208C33.443,5.836 12.56,18.518 0,9.673" style="fill:rgb(103,136,0);fill-rule:nonzero;"/>
        </g>
        <g transform="matrix(1,0,0,1,383.878,196.407)">
            <path d="M0,14.447C0.988,12.109 2.445,9.998 4.134,8.135C5.838,6.285 7.803,4.692 9.941,3.435L11.563,2.531L13.244,1.757L14.964,1.095L16.724,0.571C19.089,-0.04 21.532,-0.312 23.936,-0.116C24.051,-0.106 24.136,0 24.127,0.122C24.12,0.226 24.044,0.308 23.949,0.323C21.605,0.693 19.327,1.25 17.134,2.052L15.507,2.695L13.912,3.412L12.359,4.22L10.843,5.098C8.861,6.344 6.982,7.764 5.234,9.368C3.473,10.96 1.871,12.748 0.323,14.663C0.254,14.749 0.132,14.759 0.051,14.686C-0.016,14.626 -0.034,14.528 0,14.447" style="fill:rgb(67,78,0);fill-rule:nonzero;"/>
        </g>
        <g transform="matrix(1,0,0,1,383.637,248.931)">
            <path d="M0,19.723C0,19.723 -3.409,9.419 5.114,1.583C13.638,-6.255 22.408,-3.827 25.522,2.514C28.636,8.854 17.82,25.978 0,19.723" style="fill:rgb(103,136,0);fill-rule:nonzero;"/>
        </g>
        <g transform="matrix(1,0,0,1,381.65,217.016)">
            <path d="M0,19.963C0,19.963 -1.299,3.118 12.227,-1.588C25.752,-6.293 27.872,-1.8 30.112,3.687C32.353,9.174 20.981,26.256 0,19.963" style="fill:rgb(103,136,0);fill-rule:nonzero;"/>
        </g>
        <g transform="matrix(1,0,0,1,402.984,166.065)">
            <path d="M0,1.966C0,1.966 0.668,-5.275 10.889,-7.862C21.109,-10.45 27.063,-7.641 28.762,-2.391C30.459,2.858 10.656,12.416 0,1.966" style="fill:rgb(103,136,0);fill-rule:nonzero;"/>
        </g>
        <g transform="matrix(1,0,0,1,395.256,146.762)">
            <path d="M0,17.146C0,17.146 -4.89,-7.257 -19.56,3.471C-34.229,14.199 -3.088,24.403 0,17.146" style="fill:rgb(103,136,0);fill-rule:nonzero;"/>
        </g>
        <g transform="matrix(1,0,0,1,384.877,168.278)">
            <path d="M0,25.79C0,25.79 3.497,17.973 -3.521,8.779C-10.539,-0.414 -19.116,5.449 -21.401,9.022C-23.686,12.596 -20.869,26.204 0,25.79" style="fill:rgb(103,136,0);fill-rule:nonzero;"/>
        </g>
        <g transform="matrix(1,0,0,1,376.278,215.314)">
            <path d="M0,18.506C0,18.506 0.795,6.546 -6.775,0.07C-14.347,-6.406 -24.236,-3.202 -27.444,3.061C-30.652,9.323 -19.779,24.912 0,18.506" style="fill:rgb(103,136,0);fill-rule:nonzero;"/>
        </g>
        <g transform="matrix(0.97782,-0.209446,-0.209446,-0.97782,405.725,153.952)">
            <path d="M-4.339,0.15C-4.339,0.15 -12.239,9.021 -12.969,18.656C-13.701,28.29 -11.081,38.169 -4.339,39.468C2.401,40.766 9.823,34.288 9.296,18.878C8.769,3.471 -4.339,0.15 -4.339,0.15" style="fill:rgb(103,136,0);fill-rule:nonzero;"/>
        </g>
        <g transform="matrix(1,0,0,1,377.096,247.63)">
            <path d="M0,13.048C0,13.048 -11.569,-11.656 -23.988,1.604C-36.408,14.865 -4.869,24.704 0,13.048" style="fill:rgb(103,136,0);fill-rule:nonzero;"/>
        </g>
        <g transform="matrix(1,0,0,1,395.776,163.462)">
            <path d="M0,12.33C1.116,10.039 2.72,8.018 4.554,6.288C6.403,4.57 8.511,3.152 10.771,2.111L12.481,1.375L14.241,0.783L16.032,0.317L17.85,0.003C20.282,-0.32 22.762,-0.266 25.132,0.28C25.244,0.306 25.315,0.424 25.291,0.543C25.271,0.646 25.185,0.716 25.089,0.717C22.707,0.741 20.37,0.993 18.096,1.524L16.405,1.971L14.741,2.503L13.112,3.14L11.516,3.857C9.424,4.9 7.427,6.146 5.562,7.607C3.682,9.055 1.963,10.732 0.312,12.564C0.238,12.646 0.116,12.65 0.038,12.572C-0.025,12.508 -0.038,12.409 0,12.33" style="fill:rgb(67,78,0);fill-rule:nonzero;"/>
        </g>
        <g transform="matrix(1,0,0,1,381.017,171.181)">
            <path d="M0,-17.856C2.109,-17.909 4.229,-17.325 6.167,-16.369C8.104,-15.398 9.86,-14.019 11.332,-12.366L12.386,-11.08L13.325,-9.699L14.153,-8.244L14.844,-6.713C15.675,-4.634 16.146,-2.388 16.088,-0.166C16.085,-0.044 15.989,0.053 15.874,0.05C15.777,0.047 15.697,-0.026 15.676,-0.121C15.203,-2.225 14.492,-4.21 13.532,-6.04L12.77,-7.381L11.933,-8.667L11.009,-9.879L10.017,-11.027C8.644,-12.506 7.098,-13.797 5.413,-14.873C3.731,-15.964 1.904,-16.794 -0.053,-17.455C-0.155,-17.489 -0.212,-17.605 -0.18,-17.712C-0.154,-17.798 -0.08,-17.854 0,-17.856" style="fill:rgb(67,78,0);fill-rule:nonzero;"/>
        </g>
        <g transform="matrix(1,0,0,1,369.186,201.911)">
            <path d="M0,-22.318C2.425,-21.991 4.772,-21.022 6.898,-19.688C9.021,-18.336 10.926,-16.589 12.498,-14.558L13.636,-13.001L14.642,-11.347L15.527,-9.62L16.266,-7.82C17.154,-5.384 17.665,-2.788 17.636,-0.209C17.635,-0.087 17.54,0.011 17.425,0.01C17.326,0.008 17.243,-0.067 17.224,-0.165C16.723,-2.634 15.965,-4.994 14.931,-7.2L14.107,-8.825L13.2,-10.392L12.195,-11.889L11.115,-13.322C9.599,-15.166 7.897,-16.835 6.019,-18.271C4.146,-19.725 2.093,-20.913 -0.102,-21.928C-0.199,-21.973 -0.244,-22.093 -0.202,-22.196C-0.167,-22.282 -0.083,-22.329 0,-22.318" style="fill:rgb(67,78,0);fill-rule:nonzero;"/>
        </g>
        <g transform="matrix(1,0,0,1,359.789,239.003)">
            <path d="M0,-17.922C2.186,-17.715 4.321,-16.999 6.319,-15.998C8.314,-14.981 10.165,-13.637 11.803,-12.054L12.995,-10.827L14.1,-9.513L15.125,-8.131L16.048,-6.673C17.211,-4.688 18.119,-2.533 18.623,-0.283C18.649,-0.165 18.58,-0.046 18.468,-0.017C18.373,0.007 18.277,-0.043 18.234,-0.13C17.241,-2.143 16.13,-4.042 14.85,-5.795L13.861,-7.082L12.826,-8.321L11.729,-9.495L10.586,-10.615C9.024,-12.066 7.342,-13.362 5.559,-14.505C3.778,-15.665 1.888,-16.628 -0.093,-17.529C-0.191,-17.574 -0.237,-17.694 -0.195,-17.798C-0.161,-17.882 -0.081,-17.929 0,-17.922" style="fill:rgb(67,78,0);fill-rule:nonzero;"/>
        </g>
        <g transform="matrix(1,0,0,1,362.826,263.655)">
            <path d="M0,-7.602C0.407,-7.693 0.817,-7.756 1.231,-7.821C1.644,-7.851 2.06,-7.891 2.477,-7.908C2.892,-7.902 3.31,-7.906 3.728,-7.89C4.143,-7.858 4.558,-7.814 4.975,-7.771C6.633,-7.543 8.263,-7.066 9.808,-6.381C11.354,-5.701 12.824,-4.826 14.16,-3.767C15.488,-2.702 16.706,-1.48 17.679,-0.062C17.747,0.037 17.726,0.176 17.632,0.249C17.558,0.306 17.459,0.303 17.387,0.251C16.059,-0.737 14.74,-1.665 13.36,-2.468C11.987,-3.278 10.576,-3.989 9.125,-4.59C7.673,-5.187 6.188,-5.686 4.672,-6.105C4.292,-6.203 3.91,-6.299 3.529,-6.408C3.145,-6.492 2.76,-6.594 2.372,-6.687C1.982,-6.759 1.592,-6.856 1.198,-6.942C0.804,-7.019 0.406,-7.095 0.005,-7.198L-0.005,-7.201C-0.109,-7.227 -0.174,-7.338 -0.148,-7.449C-0.131,-7.529 -0.07,-7.586 0,-7.602" style="fill:rgb(67,78,0);fill-rule:nonzero;"/>
        </g>
        <g transform="matrix(1,0,0,1,381.589,255.694)">
            <path d="M0,17.396C0.702,14.997 1.873,12.758 3.288,10.72C4.72,8.693 6.426,6.872 8.337,5.342L9.793,4.228L11.318,3.226L12.896,2.324L14.528,1.544C16.733,0.584 19.058,-0.072 21.412,-0.284C21.526,-0.293 21.628,-0.204 21.638,-0.082C21.646,0.022 21.584,0.116 21.494,0.147C19.282,0.908 17.158,1.82 15.145,2.944L13.656,3.822L12.206,4.761L10.808,5.779L9.449,6.854C7.688,8.354 6.039,9.998 4.53,11.792C3.006,13.576 1.65,15.52 0.345,17.57C0.285,17.664 0.165,17.689 0.077,17.626C0.005,17.575 -0.024,17.48 0,17.396" style="fill:rgb(67,78,0);fill-rule:nonzero;"/>
        </g>
        <g transform="matrix(1,0,0,1,378.583,227.21)">
            <path d="M0,16.904C0.24,14.531 1.063,12.229 2.215,10.145C3.381,8.065 4.909,6.21 6.676,4.672L8.041,3.573L9.487,2.601L10.998,1.75L12.573,1.047C14.703,0.206 16.973,-0.255 19.215,-0.17C19.33,-0.166 19.42,-0.063 19.416,0.059C19.412,0.162 19.341,0.247 19.25,0.267C17.104,0.745 15.06,1.47 13.147,2.466L11.739,3.258L10.381,4.133L9.086,5.104L7.848,6.152C6.242,7.607 4.803,9.259 3.555,11.076C2.292,12.887 1.261,14.875 0.369,17.008C0.326,17.112 0.212,17.159 0.114,17.113C0.035,17.076 -0.009,16.99 0,16.904" style="fill:rgb(67,78,0);fill-rule:nonzero;"/>
        </g>
        <g transform="matrix(1,0,0,1,394.145,285.321)">
            <path d="M0,-165.449L1.546,-163.299C1.681,-163.123 1.799,-162.936 1.909,-162.743L2.252,-162.173L2.937,-161.029C3.047,-160.836 3.167,-160.648 3.271,-160.451L4.156,-158.648C4.576,-157.858 4.873,-157.009 5.216,-156.18C6.519,-152.838 7.412,-149.314 7.917,-145.733C8.021,-144.835 8.157,-143.939 8.232,-143.038L8.422,-140.329L8.479,-137.615C8.491,-136.709 8.437,-135.806 8.418,-134.901C8.265,-131.285 7.839,-127.686 7.188,-124.136C6.534,-120.582 5.614,-117.093 4.563,-113.668C3.521,-110.237 2.33,-106.865 1.077,-103.529C-0.174,-100.191 -1.485,-96.886 -2.787,-93.586C-4.095,-90.288 -5.396,-86.995 -6.615,-83.675C-7.835,-80.355 -8.977,-77.009 -9.967,-73.618L-10.661,-71.061C-10.885,-70.206 -11.148,-69.363 -11.33,-68.496L-11.924,-65.91L-12.219,-64.616L-12.465,-63.31L-12.956,-60.699C-13.044,-60.265 -13.112,-59.827 -13.173,-59.388L-13.367,-58.073L-13.754,-55.441L-14.043,-52.795C-14.452,-49.269 -14.638,-45.718 -14.735,-42.164C-14.909,-35.053 -14.355,-27.932 -13.288,-20.904C-12.221,-13.87 -10.505,-6.946 -8.243,-0.216C-8.204,-0.102 -8.259,0.024 -8.366,0.066C-8.472,0.106 -8.588,0.05 -8.63,-0.059C-13.678,-13.373 -16.237,-27.777 -16.163,-42.183C-16.124,-45.783 -15.994,-49.389 -15.637,-52.974L-15.373,-55.664L-15.004,-58.34L-14.817,-59.678C-14.759,-60.125 -14.693,-60.57 -14.607,-61.011L-14.131,-63.669L-13.892,-64.998L-13.604,-66.316L-13.021,-68.951C-12.844,-69.834 -12.582,-70.694 -12.362,-71.565L-11.671,-74.171C-10.673,-77.621 -9.525,-81.014 -8.304,-84.367C-7.081,-87.72 -5.786,-91.036 -4.479,-94.338C-3.163,-97.636 -1.844,-100.924 -0.59,-104.233C0.663,-107.543 1.854,-110.872 2.93,-114.238C4.003,-117.606 4.939,-121.013 5.619,-124.477C6.317,-127.937 6.797,-131.449 7.011,-134.979C7.046,-135.862 7.109,-136.745 7.121,-137.629L7.133,-140.282L7.013,-142.931C6.961,-143.813 6.849,-144.689 6.77,-145.569C6.359,-149.075 5.634,-152.55 4.463,-155.866C3.296,-159.181 1.703,-162.337 -0.3,-165.198L-0.305,-165.206C-0.368,-165.296 -0.351,-165.423 -0.266,-165.489C-0.182,-165.555 -0.062,-165.537 0,-165.449" style="fill:rgb(67,78,0);fill-rule:nonzero;"/>
        </g>
        <g transform="matrix(1,0,0,1,386.034,347.622)">
            <path d="M0,-93.58C0,-93.58 -5.137,-69.35 2.996,-66.007L-56.078,-27.154C-56.078,-27.154 -97.602,0 -100.599,-3.342C-103.595,-6.684 -107.447,-10.861 -107.02,-20.053C-106.592,-29.243 -103.167,-36.764 -100.17,-38.852C-97.174,-40.941 0,-93.58 0,-93.58" style="fill:rgb(249,232,221);fill-rule:nonzero;"/>
        </g>
        <g transform="matrix(1,0,0,1,387.748,317.518)">
            <path d="M0,-65.981L-77.886,-22.06L-77.949,-22.023L-102.678,-8.078L-104.451,-7.078C-104.451,-7.078 -111.26,1.749 -109.162,15.063C-108.27,20.711 -105.683,23.838 -103.404,25.533C-103.4,25.54 -103.4,25.54 -103.397,25.54C-102.444,26.249 -101.548,26.708 -100.852,26.999C-100.008,27.352 -99.458,27.458 -99.458,27.458C-99.458,27.458 -98.482,28.411 -101.97,28.219C-106.247,27.98 -117.269,26.006 -145.119,18.408C-162.956,13.539 -183.998,7.68 -203.751,2.139C-206.361,1.408 -208.948,0.68 -211.5,-0.037C-225.651,-4.013 -238.8,-7.728 -249.186,-10.671C-251.972,-11.461 -254.559,-12.193 -256.913,-12.862C-266.172,-15.49 -271.832,-17.103 -271.832,-17.103C-271.832,-17.103 -276.113,-28.384 -276.113,-37.994C-276.113,-47.6 -273.545,-53.031 -271.402,-53.45C-269.263,-53.869 -160.102,-94.392 -160.102,-94.392L-1.367,-66.224L0,-65.981Z" style="fill:rgb(253,177,96);fill-rule:nonzero;"/>
        </g>
        <g transform="matrix(1,0,0,1,394.295,318.092)">
            <path d="M0,-39.078C-0.448,-39.762 -1.378,-39.964 -2.078,-39.526L-6.179,-36.976L-106.288,25.316C-107.911,24.863 -113.066,22.735 -113.925,13.935C-114.893,3.998 -110.189,-5.046 -109.181,-6.853C-105.938,-8.643 -81.764,-22.009 -57.849,-35.305C-42.832,-43.653 -30.854,-50.342 -22.246,-55.182C-14.919,-59.301 -10.799,-61.631 -8.465,-63.009C-5.475,-64.772 -5.407,-64.978 -5.264,-65.393C-5,-66.165 -5.426,-67 -6.217,-67.253C-6.771,-67.433 -7.354,-67.283 -7.745,-66.911C-7.791,-66.882 -7.847,-66.842 -7.915,-66.798C-13.01,-63.49 -83.685,-24.32 -111.029,-9.21C-111.259,-9.081 -111.447,-8.9 -111.583,-8.681C-111.851,-8.243 -118.097,2.175 -116.922,14.214C-116.06,23.052 -111.402,26.407 -108.518,27.646C-107.253,28.186 -106.33,28.325 -106.213,28.34C-106.142,28.351 -106.074,28.355 -106.006,28.355C-105.72,28.355 -105.438,28.274 -105.196,28.123L-0.459,-37.046C0.241,-37.483 0.448,-38.394 0,-39.078" style="fill:rgb(255,210,161);fill-rule:nonzero;"/>
        </g>
        <g transform="matrix(1,0,0,1,119.394,308.973)">
            <path d="M0,-44.671L5.09,-43.403L10.172,-42.108L20.334,-39.508C27.104,-37.758 33.863,-35.973 40.623,-34.188C54.131,-30.581 67.63,-26.941 81.104,-23.217L101.316,-17.628L111.416,-14.814L121.505,-11.962C128.229,-10.054 134.962,-8.175 141.679,-6.242C148.393,-4.298 155.115,-2.387 161.818,-0.402C161.931,-0.369 161.994,-0.254 161.96,-0.144C161.927,-0.037 161.812,0.024 161.703,-0.003C154.921,-1.709 148.16,-3.488 141.39,-5.234C134.622,-6.992 127.87,-8.804 121.109,-10.586L110.972,-13.27L100.845,-15.99L80.604,-21.473C67.109,-25.129 53.639,-28.87 40.179,-32.645C33.454,-34.549 26.729,-36.453 20.014,-38.394L9.949,-41.329L4.917,-42.802L-0.105,-44.303C-0.209,-44.333 -0.268,-44.441 -0.236,-44.541C-0.205,-44.64 -0.101,-44.695 0,-44.671" style="fill:rgb(223,148,54);fill-rule:nonzero;"/>
        </g>
        <g transform="matrix(1,0,0,1,251.483,334.892)">
            <path d="M0,-33.132C-1.619,-29.747 -7.5,-15.692 -3.445,2.455C-6.055,1.723 -8.642,0.996 -11.194,0.279C-12.2,-7.298 -13.947,-27.187 -5.795,-34.727C-5.459,-35.035 -5.109,-35.322 -4.744,-35.587L0.392,-33.915C0.392,-33.915 0.245,-33.647 0,-33.132" style="fill:rgb(203,111,38);fill-rule:nonzero;"/>
        </g>
        <g transform="matrix(1,0,0,1,142.147,304.561)">
            <path d="M0,-33.194C-1.48,-30.151 -7.587,-16.048 -3.585,2.286C-6.371,1.496 -8.958,0.765 -11.312,0.096C-12.332,-7.757 -13.955,-27.543 -5.645,-34.83C-5.381,-35.057 -5.11,-35.274 -4.828,-35.48L0.312,-33.808C0.312,-33.808 0.196,-33.598 0,-33.194" style="fill:rgb(203,111,38);fill-rule:nonzero;"/>
        </g>
        <g transform="matrix(1,0,0,1,159.749,311.206)">
            <path d="M0,-34.793C-3.771,-23.579 -5.629,-11.736 -4.24,0.041C-4.213,0.277 -4.6,0.355 -4.658,0.111C-6.318,-5.689 -6.681,-11.848 -5.911,-17.822C-5.177,-23.797 -3.481,-29.748 -0.352,-34.962C-0.236,-35.148 0.087,-35.007 0,-34.793" style="fill:rgb(223,148,54);fill-rule:nonzero;"/>
        </g>
        <g transform="matrix(1,0,0,1,154.587,299.58)">
            <path d="M0,8.355C0,8.355 -6.421,6.962 -7.277,0.138C-7.277,0.138 -3.996,0 0,8.355" style="fill:rgb(223,148,54);fill-rule:nonzero;"/>
        </g>
        <g transform="matrix(1,0,0,1,154.301,288.996)">
            <path d="M0,8.355C0,8.355 -6.421,6.962 -7.277,0.139C-7.277,0.139 -3.995,0 0,8.355" style="fill:rgb(223,148,54);fill-rule:nonzero;"/>
        </g>
        <g transform="matrix(1,0,0,1,155.543,277.016)">
            <path d="M0,9.783C0,9.783 -5.827,6.804 -4.831,0C-4.831,0 -1.625,0.7 0,9.783" style="fill:rgb(223,148,54);fill-rule:nonzero;"/>
        </g>
        <g transform="matrix(1,0,0,1,156.023,279.378)">
            <path d="M0,7.862C0,7.862 6.542,7.185 8.182,0.501C8.182,0.501 4.937,0 0,7.862" style="fill:rgb(223,148,54);fill-rule:nonzero;"/>
        </g>
        <g transform="matrix(1,0,0,1,154.548,290.373)">
            <path d="M0,6.686C0,6.686 6.569,7.014 9.258,0.661C9.258,0.661 6.133,-0.328 0,6.686" style="fill:rgb(223,148,54);fill-rule:nonzero;"/>
        </g>
        <g transform="matrix(1,0,0,1,154.834,300.817)">
            <path d="M0,6.686C0,6.686 6.569,7.014 9.258,0.66C9.258,0.66 6.133,-0.328 0,6.686" style="fill:rgb(223,148,54);fill-rule:nonzero;"/>
        </g>
        <g transform="matrix(0.970279,0.241988,0.241988,-0.970279,158.12,235.95)">
            <path d="M2.541,-23.61L121.662,-23.61L189.808,30.414L73.529,20.789L2.541,-23.61Z" style="fill:rgb(223,148,54);fill-rule:nonzero;"/>
        </g>
        <g transform="matrix(1,0,0,1,281.485,264.215)">
            <path d="M0,57.34L3.136,55.434L6.285,53.553C8.388,52.302 10.48,51.035 12.59,49.798C16.803,47.311 21.034,44.855 25.265,42.399C33.746,37.52 42.245,32.67 50.789,27.896C55.055,25.498 59.324,23.107 63.606,20.737C67.881,18.355 72.167,15.991 76.457,13.636C85.037,8.921 93.647,4.262 102.303,-0.326C102.405,-0.381 102.534,-0.344 102.591,-0.243C102.645,-0.145 102.61,-0.024 102.515,0.033C94.117,5.055 85.677,10.003 77.204,14.898C72.969,17.347 68.729,19.788 64.478,22.21C60.233,24.644 55.978,27.057 51.717,29.464C43.209,34.299 34.656,39.058 26.086,43.787C21.791,46.135 17.497,48.484 13.184,50.801C11.03,51.966 8.86,53.101 6.699,54.253L3.455,55.975L0.196,57.671C0.101,57.721 -0.019,57.686 -0.069,57.593C-0.118,57.504 -0.087,57.393 0,57.34" style="fill:rgb(219,193,179);fill-rule:nonzero;"/>
        </g>
        <g transform="matrix(1,0,0,1,281.484,277.584)">
            <path d="M0,59.011L3.202,57.053L6.419,55.119C8.565,53.834 10.702,52.533 12.856,51.261C17.158,48.703 21.479,46.179 25.799,43.654C34.458,38.634 43.136,33.646 51.857,28.733C56.213,26.266 60.571,23.804 64.942,21.365C69.306,18.912 73.682,16.48 78.062,14.054C86.819,9.2 95.609,4.402 104.442,-0.326C104.546,-0.381 104.675,-0.344 104.731,-0.244C104.786,-0.146 104.752,-0.025 104.656,0.032C96.082,5.193 87.463,10.281 78.813,15.314C74.488,17.832 70.159,20.343 65.819,22.834C61.486,25.338 57.141,27.821 52.791,30.297C44.104,35.272 35.374,40.17 26.625,45.038C22.24,47.456 17.856,49.875 13.453,52.261C11.256,53.461 9.041,54.632 6.835,55.819L3.523,57.593L0.197,59.342C0.103,59.392 -0.017,59.358 -0.068,59.264C-0.117,59.175 -0.086,59.065 0,59.011" style="fill:rgb(219,193,179);fill-rule:nonzero;"/>
        </g>
        <g transform="matrix(1,0,0,1,280.272,272.57)">
            <path d="M0,59.292L3.186,57.325L6.387,55.383C8.522,54.092 10.648,52.785 12.793,51.507C17.072,48.938 21.372,46.402 25.671,43.865C34.288,38.823 42.924,33.812 51.604,28.875C55.938,26.396 60.276,23.924 64.627,21.472C68.97,19.008 73.324,16.563 77.684,14.127C86.4,9.25 95.149,4.427 103.941,-0.324C104.045,-0.38 104.174,-0.344 104.23,-0.243C104.286,-0.146 104.252,-0.024 104.157,0.033C95.625,5.216 87.049,10.327 78.44,15.384C74.137,17.913 69.829,20.436 65.51,22.938C61.197,25.454 56.873,27.948 52.544,30.437C43.9,35.434 35.21,40.355 26.503,45.247C22.14,47.677 17.776,50.107 13.394,52.505C11.206,53.711 9.001,54.888 6.806,56.08L3.51,57.863L0.198,59.621C0.104,59.672 -0.016,59.638 -0.067,59.545C-0.117,59.456 -0.086,59.345 0,59.292" style="fill:rgb(219,193,179);fill-rule:nonzero;"/>
        </g>
        <g transform="matrix(1,0,0,1,130.543,276.524)">
            <path d="M0,-21.127L-3.65,-36.928L54.293,-4.242L59.309,-0.47C59.309,-0.47 62.067,15.801 59.699,15.597C57.33,15.394 0,-21.127 0,-21.127" style="fill:rgb(249,232,221);fill-rule:nonzero;"/>
        </g>
        <g transform="matrix(1,0,0,1,129.176,266.642)">
            <path d="M0,-27.517L171.09,-54.379L256.458,-30.665C256.458,-30.665 259.227,-27.533 259.092,-21.587C258.97,-16.203 255.791,-12.24 255.791,-12.24L60.986,26.862C60.986,26.862 65.094,17.336 61.23,12.327C57.366,7.317 58.276,6.951 54.092,5.645C49.908,4.338 0,-27.517 0,-27.517" style="fill:rgb(159,176,32);fill-rule:nonzero;"/>
        </g>
        <g transform="matrix(1,0,0,1,192,237.074)">
            <path d="M0,38.729L5.997,37.388L12,36.076C16.003,35.207 20,34.312 24.008,33.464L48.051,28.355C64.093,25.011 80.143,21.703 96.211,18.48L120.313,13.648L132.37,11.253L144.435,8.896C152.479,7.333 160.517,5.738 168.567,4.199C176.62,2.673 184.665,1.111 192.727,-0.375C192.853,-0.398 192.974,-0.325 192.995,-0.211C193.018,-0.101 192.937,0.008 192.816,0.035C184.816,1.806 176.801,3.502 168.793,5.232C160.782,6.951 152.759,8.614 144.743,10.307L132.716,12.836L120.681,15.328L96.602,20.267C80.549,23.559 64.477,26.765 48.396,29.936L24.256,34.599C20.234,35.379 16.201,36.114 12.174,36.874L6.131,38.004L0.083,39.106C-0.034,39.127 -0.145,39.06 -0.165,38.956C-0.185,38.853 -0.111,38.753 0,38.729" style="fill:rgb(141,148,7);fill-rule:nonzero;"/>
        </g>
        <g transform="matrix(1,0,0,1,190.162,238.772)">
            <path d="M0,54.732C-0.903,54.816 -1.823,54.627 -2.605,54.161L-61.485,19.124C-62.235,18.677 -62.425,17.756 -61.91,17.066C-61.395,16.377 -60.37,16.179 -59.62,16.625L-0.739,51.663C-0.356,51.891 -0.013,51.732 0.117,51.652C0.248,51.573 0.541,51.345 0.459,50.934L-1.613,40.534C-1.957,38.805 -3.087,37.277 -4.714,36.339L-62.812,2.874C-63.569,2.438 -63.774,1.52 -63.27,0.824C-62.766,0.128 -61.744,-0.084 -60.986,0.353L-2.888,33.818C-0.519,35.183 1.128,37.41 1.629,39.927L3.701,50.329C3.991,51.783 3.285,53.265 1.903,54.106C1.318,54.461 0.663,54.67 0,54.732" style="fill:rgb(202,210,68);fill-rule:nonzero;"/>
        </g>
        <g transform="matrix(1,0,0,1,128.224,278.399)">
            <path d="M0,-35.033C5.249,-32.465 10.406,-29.715 15.549,-26.938C20.677,-24.132 25.789,-21.292 30.859,-18.371C33.4,-16.922 35.938,-15.467 38.463,-13.988C40.996,-12.523 43.518,-11.037 46.036,-9.543C51.07,-6.551 56.09,-3.53 61.05,-0.391C61.149,-0.33 61.181,-0.194 61.122,-0.091C61.067,0.008 60.95,0.043 60.854,-0.005C55.641,-2.642 50.487,-5.398 45.348,-8.182C42.779,-9.576 40.214,-10.978 37.66,-12.401C35.099,-13.81 32.549,-15.243 30.003,-16.681C24.9,-19.537 19.838,-22.473 14.792,-25.443C9.761,-28.442 4.745,-31.469 -0.181,-34.677C-0.271,-34.735 -0.299,-34.86 -0.243,-34.955C-0.192,-35.044 -0.086,-35.076 0,-35.033" style="fill:rgb(219,193,179);fill-rule:nonzero;"/>
        </g>
        <g transform="matrix(1,0,0,1,129.689,284.648)">
            <path d="M0,-35.753C5.145,-33.122 10.194,-30.31 15.229,-27.472C20.249,-24.604 25.251,-21.704 30.212,-18.723C32.698,-17.244 35.18,-15.758 37.65,-14.25C40.128,-12.755 42.595,-11.239 45.057,-9.715C49.98,-6.665 54.888,-3.585 59.734,-0.389C59.831,-0.325 59.861,-0.189 59.8,-0.086C59.743,0.011 59.626,0.044 59.531,-0.005C54.423,-2.707 49.377,-5.523 44.345,-8.369C41.831,-9.794 39.32,-11.225 36.82,-12.679C34.313,-14.119 31.819,-15.582 29.328,-17.05C24.333,-19.966 19.382,-22.962 14.447,-25.992C9.528,-29.049 4.624,-32.135 -0.187,-35.4C-0.275,-35.461 -0.301,-35.586 -0.244,-35.68C-0.191,-35.768 -0.086,-35.797 0,-35.753" style="fill:rgb(219,193,179);fill-rule:nonzero;"/>
        </g>
        <g transform="matrix(1,0,0,1,144.34,241.609)">
            <path d="M0,-11.752L0.004,-33.374L70.93,-9.669C70.93,-9.669 89.358,-3.75 91.419,-1.41C93.481,0.929 95.018,7.008 94.855,9.761C94.692,12.515 91.421,20.801 89.568,21.212C87.715,21.622 0,-11.752 0,-11.752" style="fill:rgb(249,232,221);fill-rule:nonzero;"/>
        </g>
        <g transform="matrix(1,0,0,1,142.093,248.554)">
            <path d="M0,-43.049L140.761,-59.168L220.03,-36.771C220.03,-36.771 231.982,-22.731 219.132,-11.112L91.551,16.119C91.551,16.119 99.781,7.456 96.706,-0.129C91.462,-13.058 92.239,-10.633 92.723,-10.115L0,-43.049Z" style="fill:rgb(151,162,219);fill-rule:nonzero;"/>
        </g>
        <g transform="matrix(1,0,0,1,233.645,205.037)">
            <path d="M0,59.636C-0.165,59.638 -0.329,59.61 -0.485,59.554L-92.374,26.514C-93.143,26.238 -93.554,25.354 -93.293,24.54C-93.032,23.726 -92.199,23.291 -91.429,23.567L0.112,56.482C0.857,56.248 3.58,54.823 3.711,46.507C3.855,37.423 -0.167,34.561 -0.809,34.162L-91.712,3.224C-92.485,2.961 -92.91,2.084 -92.661,1.266C-92.412,0.448 -91.583,-0.002 -90.813,0.261L0.224,31.245C0.291,31.268 0.357,31.296 0.42,31.329C0.683,31.465 6.836,34.795 6.65,46.559C6.447,59.428 0.263,59.634 0,59.636" style="fill:rgb(195,207,251);fill-rule:nonzero;"/>
        </g>
        <g transform="matrix(1,0,0,1,144.447,246.358)">
            <path d="M0,-33.303C30.982,-23.232 62.299,-12.378 92.294,0C63.269,-8.851 34.147,-19.677 5.569,-30.64C5.063,-30.982 -1.533,-33.06 0,-33.303" style="fill:rgb(219,193,179);fill-rule:nonzero;"/>
        </g>
        <g transform="matrix(1,0,0,1,144.219,252.842)">
            <path d="M0,-33.888C31.173,-23.62 62.677,-12.57 92.856,0C63.65,-9.034 34.354,-20.044 5.603,-31.19C5.1,-31.531 -1.553,-33.66 0,-33.888" style="fill:rgb(219,193,179);fill-rule:nonzero;"/>
        </g>
        <g transform="matrix(1,0,0,1,164.094,257.861)">
            <path d="M0,-26.416C24.373,-18.644 49.088,-10.082 72.462,0C60.274,-3.216 47.939,-8.113 35.815,-12.243C24.237,-16.811 10.063,-20.846 0,-26.416" style="fill:rgb(219,193,179);fill-rule:nonzero;"/>
        </g>
        <g transform="matrix(1,0,0,1,236.443,213.13)">
            <path d="M0,24.111C41.484,14.708 83.627,5.801 125.326,-1.083C86.739,8.248 47.117,15.89 7.93,23.146C7.183,23.128 -1.412,25.194 0,24.111" style="fill:rgb(112,130,189);fill-rule:nonzero;"/>
        </g>
        <g transform="matrix(1,0,0,1,252.758,259.372)">
            <path d="M0,-24.86C5.647,-18.528 7.357,-6.866 2.466,0.168C4.538,-8.136 3.495,-16.826 -0.306,-24.616C-0.413,-24.809 -0.15,-25.028 0,-24.86" style="fill:rgb(112,130,189);fill-rule:nonzero;"/>
        </g>
        <g transform="matrix(1,0,0,1,292.78,250.445)">
            <path d="M0,-24.861C5.648,-18.528 7.358,-6.866 2.467,0.168C4.539,-8.137 3.496,-16.827 -0.305,-24.616C-0.413,-24.81 -0.149,-25.029 0,-24.861" style="fill:rgb(112,130,189);fill-rule:nonzero;"/>
        </g>
        <g transform="matrix(1,0,0,1,348.1,239.602)">
            <path d="M0,-24.859C5.649,-18.527 7.359,-6.865 2.467,0.169C4.54,-8.136 3.496,-16.825 -0.305,-24.615C-0.413,-24.808 -0.148,-25.028 0,-24.859" style="fill:rgb(112,130,189);fill-rule:nonzero;"/>
        </g>
        <g transform="matrix(0.224542,0.974464,0.974464,-0.224542,272.731,230.974)">
            <path d="M12.912,-10.957C12.912,-10.957 10.526,0.125 6.112,3.384C6.112,3.384 12.168,10.313 12.912,16.423C12.912,16.423 13.967,4.78 20.696,2.434C20.696,2.434 14.248,-0.705 12.912,-10.957" style="fill:white;fill-rule:nonzero;"/>
        </g>
        <g transform="matrix(-0.106885,-0.994271,-0.994271,0.106885,248.292,246.224)">
            <path d="M-2.494,-2.776C-3.389,-2.765 -4.114,-1.634 -4.114,-0.25C-4.114,1.136 -3.389,2.25 -2.494,2.239C-1.598,2.229 -0.873,1.097 -0.873,-0.288C-0.873,-1.672 -1.599,-2.787 -2.494,-2.776" style="fill:rgb(249,232,221);fill-rule:nonzero;"/>
        </g>
        <g transform="matrix(-0.154243,-0.988033,-0.988033,0.154243,358.413,223.425)">
            <path d="M-2.48,-2.897C-3.374,-2.881 -4.098,-1.746 -4.099,-0.36C-4.099,1.025 -3.374,2.137 -2.48,2.122C-1.585,2.107 -0.861,0.972 -0.86,-0.414C-0.86,-1.8 -1.585,-2.912 -2.48,-2.897" style="fill:rgb(249,232,221);fill-rule:nonzero;"/>
        </g>
        <g transform="matrix(-0.463928,-0.885873,-0.885873,0.463928,246.038,165.972)">
            <path d="M-56.709,-89.294C-56.709,-89.294 -66.423,-73.756 -85.926,-72.189L-56.709,29.21C-56.709,29.21 -37.693,25.759 -28.937,9.52L-56.709,-89.294Z" style="fill:rgb(249,232,221);fill-rule:nonzero;"/>
        </g>
        <g transform="matrix(1,0,0,1,353.089,211.137)">
            <path d="M0,-37.299C-0.466,-34.716 -101.515,-15.347 -101.515,-15.347C-101.515,-15.347 -104.748,-12.634 -107.492,-1.666C-111.058,12.57 -106.383,20.113 -106.383,20.113C-106.383,20.113 -115.39,17.565 -127.884,14.026C-130.684,13.232 -133.656,12.388 -136.745,11.511C-153.822,6.666 -174.354,0.824 -187.842,-3.066C-190.899,-3.945 -193.597,-4.726 -195.806,-5.373C-199.675,-6.502 -202.06,-7.219 -202.303,-7.34C-203.901,-8.124 -208.931,-17.529 -208.322,-26.412C-207.709,-35.292 -201.946,-39.955 -201.111,-41.045C-200.278,-42.134 -112.687,-56.061 -110.247,-56.738C-107.808,-57.412 0,-37.299 0,-37.299" style="fill:rgb(253,177,96);fill-rule:nonzero;"/>
        </g>
        <g transform="matrix(-0.974879,-0.222734,-0.222734,0.974879,254.905,163.477)">
            <path d="M2.012,23.232L58.074,23.232L7.794,0.955L-52.924,-2.494L2.012,23.232Z" style="fill:rgb(223,148,54);fill-rule:nonzero;"/>
        </g>
        <g transform="matrix(1,0,0,1,246.693,185.426)">
            <path d="M0,19.361C18.495,14.596 37.562,10.733 56.36,7.048C70.992,4.537 86.495,0.785 100.987,-0.583C82.973,4.659 63.071,8.033 44.401,12.078C34.062,14.126 23.242,16.172 12.841,17.909C8.614,18.611 4.385,19.3 0.131,19.891C-0.2,19.944 -0.364,19.448 0,19.361" style="fill:rgb(219,193,179);fill-rule:nonzero;"/>
        </g>
        <g transform="matrix(1,0,0,1,246.577,190.86)">
            <path d="M0,19.362C18.495,14.597 37.562,10.734 56.36,7.049C70.992,4.537 86.495,0.786 100.987,-0.582C82.973,4.66 63.071,8.034 44.401,12.079C34.062,14.127 23.242,16.173 12.841,17.91C8.614,18.612 4.385,19.301 0.131,19.892C-0.2,19.944 -0.364,19.448 0,19.362" style="fill:rgb(219,193,179);fill-rule:nonzero;"/>
        </g>
        <g transform="matrix(1,0,0,1,246.334,202.224)">
            <path d="M0,19.361C18.495,14.596 37.561,10.733 56.36,7.048C70.992,4.537 86.495,0.785 100.987,-0.583C82.972,4.659 63.071,8.034 44.401,12.078C34.062,14.126 23.242,16.172 12.84,17.909C8.614,18.611 4.384,19.3 0.13,19.891C-0.201,19.944 -0.365,19.447 0,19.361" style="fill:rgb(219,193,179);fill-rule:nonzero;"/>
        </g>
        <g transform="matrix(1,0,0,1,246.307,173.034)">
            <path d="M0,57.958C-2.436,57.033 -3.365,53.876 -3.027,40.184C-2.379,30.164 3.428,21.911 3.675,21.564C4.293,20.345 104.615,0.718 105.631,0.128C106.392,-0.029 107.159,0.402 107.342,1.091C107.523,1.779 107.053,2.466 106.289,2.624L5.783,23.389C0.414,29.535 -2.141,48.035 0.888,55.181L103.227,33.524C103.986,33.363 104.758,33.789 104.944,34.478C105.131,35.165 104.663,35.854 103.9,36.015C103.342,36.084 0.493,57.987 0,57.958" style="fill:rgb(255,210,161);fill-rule:nonzero;"/>
        </g>
        <g transform="matrix(0.999852,-0.0171878,-0.0171878,-0.999852,225.528,225.095)">
            <path d="M-0.323,-0.061C-3.109,0.781 -6.066,1.676 -9.139,2.606C-9.988,8.343 -11.505,26.075 -0.323,37.465L4.459,35.772C4.459,35.772 -7.272,16.21 -0.323,-0.061" style="fill:rgb(203,111,38);fill-rule:nonzero;"/>
        </g>
        <g transform="matrix(0.996735,-0.0807363,-0.0807363,-0.996735,166.642,207.594)">
            <path d="M-1.429,-0.363C-4.405,0.76 -7.03,1.756 -9.181,2.58C-10.623,10.334 -11.752,25.472 -1.429,34.727L3.234,32.732C3.234,32.732 -6.726,15.844 -1.429,-0.363" style="fill:rgb(203,111,38);fill-rule:nonzero;"/>
        </g>
        <g transform="matrix(1,0,0,1,152.055,195.077)">
            <path d="M0,-25.247C18.546,-21.589 37.136,-16.894 55.403,-12.155C69.44,-8.153 84.876,-4.869 98.207,0.08C79.843,-2.954 60.761,-8.435 42.426,-12.803C32.369,-15.39 21.894,-18.184 11.939,-21.072C7.896,-22.248 3.857,-23.438 -0.154,-24.724C-0.475,-24.821 -0.367,-25.327 0,-25.247" style="fill:rgb(223,148,54);fill-rule:nonzero;"/>
        </g>
        <g transform="matrix(1,0,0,1,210.673,193.966)">
            <path d="M0,9.774C-9.582,8.219 -18.939,5.748 -28.249,3.166C-31.345,2.285 -34.434,1.378 -37.491,0.363C-37.712,0.295 -37.629,-0.04 -37.388,0.008C-27.851,1.744 -18.442,4.01 -9.125,6.568C-6.031,7.456 -2.943,8.368 0.095,9.447C0.292,9.512 0.22,9.814 0,9.774" style="fill:rgb(203,111,38);fill-rule:nonzero;"/>
        </g>
        <g transform="matrix(1,0,0,1,210.673,190.982)">
            <path d="M0,12.758C0,12.758 -8.638,7.744 -8.636,0C-8.636,0 -1.084,3.501 0,12.758" style="fill:rgb(203,111,38);fill-rule:nonzero;"/>
        </g>
        <g transform="matrix(1,0,0,1,197.647,188.842)">
            <path d="M0,11.412C0,11.412 -7.592,7.745 -7.59,0C-7.59,0 -1.084,2.155 0,11.412" style="fill:rgb(203,111,38);fill-rule:nonzero;"/>
        </g>
        <g transform="matrix(1,0,0,1,184.799,185.361)">
            <path d="M0,11.412C0,11.412 -7.592,7.745 -7.59,0C-7.59,0 -1.084,2.155 0,11.412" style="fill:rgb(203,111,38);fill-rule:nonzero;"/>
        </g>
        <g transform="matrix(1,0,0,1,180.748,192.047)">
            <path d="M0,4.106C0,4.106 -8.237,6.149 -13.984,0.436C-13.984,0.436 -7.659,-2.043 0,4.106" style="fill:rgb(203,111,38);fill-rule:nonzero;"/>
        </g>
        <g transform="matrix(1,0,0,1,184.866,203.546)">
            <path d="M0,-6.551C0,-6.551 -4.649,0 -13.047,-0.814C-13.047,-0.814 -10.135,-6.532 0,-6.551" style="fill:rgb(203,111,38);fill-rule:nonzero;"/>
        </g>
        <g transform="matrix(1,0,0,1,196.995,207.007)">
            <path d="M0,-6.551C0,-6.551 -4.648,0 -13.047,-0.814C-13.047,-0.814 -10.134,-6.532 0,-6.551" style="fill:rgb(203,111,38);fill-rule:nonzero;"/>
        </g>
        <g transform="matrix(1,0,0,1,210.205,210.333)">
            <path d="M0,-6.551C0,-6.551 -4.649,0 -13.047,-0.814C-13.047,-0.814 -10.134,-6.531 0,-6.551" style="fill:rgb(203,111,38);fill-rule:nonzero;"/>
        </g>
        <g transform="matrix(0.205055,-0.97875,-0.97875,-0.205055,152.041,184.739)">
            <path d="M-2.892,-2.349C-3.712,-2.326 -4.378,-0.982 -4.377,0.649C-4.378,2.282 -3.712,3.585 -2.892,3.562C-2.072,3.538 -1.406,2.195 -1.407,0.563C-1.406,-1.069 -2.072,-2.373 -2.892,-2.349" style="fill:rgb(249,232,221);fill-rule:nonzero;"/>
        </g>
        <g transform="matrix(0.204893,-0.978784,-0.978784,-0.204893,233.006,208.529)">
            <path d="M-2.893,-2.349C-3.713,-2.325 -4.378,-0.982 -4.378,0.649C-4.378,2.281 -3.713,3.585 -2.893,3.562C-2.071,3.537 -1.406,2.195 -1.407,0.562C-1.407,-1.069 -2.072,-2.373 -2.893,-2.349" style="fill:rgb(249,232,221);fill-rule:nonzero;"/>
        </g>
        <g transform="matrix(1,0,0,1,426.275,304.942)">
            <path d="M0,25.797C0,25.797 -10.303,24.028 -14.618,17.985C-18.935,11.941 -18.377,6.781 -13.227,3.391C-8.075,0 6.961,11.941 0,25.797" style="fill:rgb(103,136,0);fill-rule:nonzero;"/>
        </g>
        <g transform="matrix(1,0,0,1,435.881,323.811)">
            <path d="M0,5.159C0,5.159 5.43,-6.487 16.567,-7.814C27.704,-9.14 30.35,-3.686 30.628,2.506C30.906,8.697 5.986,14.299 0,5.159" style="fill:rgb(103,136,0);fill-rule:nonzero;"/>
        </g>
        <g transform="matrix(1,0,0,1,414.025,336.656)">
            <path d="M0,-18.749C1.897,-18.395 3.733,-17.621 5.41,-16.564C7.082,-15.496 8.604,-14.143 9.888,-12.56C11.184,-10.987 12.234,-9.184 13.012,-7.249C13.791,-5.314 14.247,-3.226 14.372,-1.11L12.825,-1.754C14.746,-3.707 16.96,-5.262 19.277,-6.547C21.614,-7.797 24.062,-8.798 26.592,-9.467C29.116,-10.146 31.711,-10.527 34.312,-10.558C36.907,-10.566 39.528,-10.238 41.971,-9.323C42.079,-9.282 42.135,-9.157 42.097,-9.042C42.062,-8.936 41.958,-8.878 41.857,-8.9L41.855,-8.901C39.383,-9.464 36.854,-9.578 34.36,-9.361C33.736,-9.29 33.112,-9.251 32.494,-9.153C31.876,-9.043 31.256,-8.957 30.644,-8.828C30.033,-8.681 29.419,-8.561 28.811,-8.408L27.003,-7.89C24.613,-7.122 22.285,-6.14 20.105,-4.88C17.915,-3.648 15.863,-2.145 14.095,-0.361L14.084,-0.351C13.72,0.017 13.145,0.002 12.798,-0.384C12.641,-0.559 12.557,-0.781 12.547,-1.005C12.467,-2.9 12.049,-4.775 11.404,-6.56C10.757,-8.347 9.839,-10.026 8.735,-11.562C7.619,-13.087 6.309,-14.47 4.818,-15.618C3.337,-16.779 1.678,-17.699 -0.096,-18.356C-0.196,-18.394 -0.249,-18.51 -0.214,-18.615C-0.183,-18.711 -0.091,-18.766 0,-18.749" style="fill:rgb(67,78,0);fill-rule:nonzero;"/>
        </g>
        <g transform="matrix(1,0,0,1,436.995,266.32)">
            <path d="M0,36.411C0,36.411 -36.337,35.084 -27.148,17.542C-17.959,0 7.379,11.793 0,36.411" style="fill:rgb(103,136,0);fill-rule:nonzero;"/>
        </g>
        <g transform="matrix(1,0,0,1,443.677,271.774)">
            <path d="M0,27.861C0,27.861 -2.784,17.394 8.492,8.697C19.77,0 31.742,7.665 33.553,15.626C35.362,23.586 0,27.861 0,27.861" style="fill:rgb(103,136,0);fill-rule:nonzero;"/>
        </g>
        <g transform="matrix(0.855299,0.518135,0.518135,-0.855299,433.03,269.921)">
            <path d="M12.236,-2.337C12.236,-2.337 -0.169,2.557 -1.887,19.096C-3.606,35.636 4.833,41.672 12.236,40.923C20.039,40.135 26.477,26.284 23.821,13.472C21.808,3.764 12.236,-2.337 12.236,-2.337" style="fill:rgb(103,136,0);fill-rule:nonzero;"/>
        </g>
        <g transform="matrix(1,0,0,1,419.034,308.379)">
            <path d="M0,-21.856C2.595,-21.592 5.146,-20.771 7.51,-19.545C9.87,-18.309 12.054,-16.67 13.944,-14.703C15.846,-12.748 17.449,-10.459 18.692,-7.96C19.938,-5.462 20.773,-2.726 21.155,0.087L19.479,-0.301C21.275,-3.352 22.91,-6.62 24.726,-9.775C25.637,-11.353 26.603,-12.909 27.648,-14.417C28.698,-15.919 29.83,-17.385 31.19,-18.665C31.549,-18.968 31.876,-19.299 32.259,-19.577L32.836,-19.989L33.124,-20.194L33.419,-20.368C33.813,-20.596 34.201,-20.837 34.612,-21.031L35.22,-21.336C35.424,-21.434 35.636,-21.515 35.843,-21.605C37.509,-22.305 39.256,-22.779 41.032,-22.987C42.81,-23.182 44.62,-23.092 46.357,-22.664C48.094,-22.238 49.752,-21.454 51.165,-20.332C51.257,-20.259 51.275,-20.122 51.206,-20.024C51.142,-19.933 51.022,-19.91 50.933,-19.968L50.93,-19.97C48.011,-21.872 44.482,-22.37 41.179,-21.799C39.52,-21.523 37.9,-21 36.377,-20.271C36.187,-20.178 35.994,-20.092 35.807,-19.995L35.25,-19.69C34.873,-19.499 34.521,-19.26 34.161,-19.037L33.895,-18.867L33.649,-18.678L33.16,-18.303C32.835,-18.053 32.543,-17.735 32.232,-17.457C31.04,-16.249 29.99,-14.838 29.007,-13.376C28.028,-11.907 27.116,-10.374 26.249,-8.803C25.369,-7.241 24.52,-5.652 23.669,-4.053C22.814,-2.458 21.978,-0.842 21.021,0.739L21.017,0.747C20.745,1.195 20.181,1.326 19.757,1.039C19.522,0.879 19.38,0.622 19.345,0.351C19.025,-2.244 18.245,-4.767 17.147,-7.126C16.048,-9.487 14.588,-11.662 12.882,-13.599C11.163,-15.524 9.188,-17.21 7.005,-18.545C4.826,-19.892 2.44,-20.878 -0.059,-21.457C-0.162,-21.48 -0.228,-21.588 -0.205,-21.698C-0.185,-21.799 -0.095,-21.867 0,-21.856" style="fill:rgb(67,78,0);fill-rule:nonzero;"/>
        </g>
        <g transform="matrix(1,0,0,1,462.501,342.513)">
            <path d="M0,-100.216C-0.944,-99.604 -1.873,-98.971 -2.746,-98.258C-3.635,-97.569 -4.47,-96.807 -5.276,-96.019C-6.875,-94.421 -8.312,-92.654 -9.585,-90.765C-10.867,-88.883 -11.983,-86.879 -12.969,-84.805C-13.959,-82.733 -14.812,-80.588 -15.542,-78.394C-17.04,-74.019 -18.055,-69.466 -18.811,-64.871C-19.18,-62.573 -19.469,-60.249 -19.727,-57.918C-19.995,-55.589 -20.23,-53.25 -20.461,-50.907C-20.691,-48.563 -20.918,-46.215 -21.175,-43.865C-21.438,-41.516 -21.731,-39.168 -22.088,-36.824C-22.788,-32.137 -23.763,-27.466 -25.248,-22.956C-25.984,-20.699 -26.848,-18.491 -27.902,-16.36C-28.952,-14.235 -30.175,-12.225 -31.51,-10.312C-34.174,-6.481 -37.189,-2.966 -40.393,0.32C-40.476,0.405 -40.606,0.403 -40.687,0.315C-40.763,0.232 -40.763,0.099 -40.69,0.014C-37.697,-3.465 -34.809,-7.049 -32.349,-10.936C-31.121,-12.878 -29.978,-14.876 -29.021,-16.961C-28.062,-19.036 -27.293,-21.227 -26.614,-23.44C-25.937,-25.655 -25.384,-27.913 -24.925,-30.195C-24.463,-32.476 -24.077,-34.778 -23.76,-37.095C-23.437,-39.411 -23.179,-41.741 -22.943,-44.077C-22.698,-46.412 -22.481,-48.755 -22.26,-51.101C-22.039,-53.448 -21.812,-55.799 -21.55,-58.15C-21.277,-60.5 -20.971,-62.848 -20.58,-65.197C-19.807,-69.886 -18.654,-74.52 -17.05,-78.987C-15.425,-83.438 -13.315,-87.735 -10.515,-91.506C-7.723,-95.265 -4.216,-98.475 -0.182,-100.572C-0.087,-100.621 0.027,-100.58 0.074,-100.479C0.118,-100.385 0.086,-100.272 0.003,-100.218L0,-100.216Z" style="fill:rgb(67,78,0);fill-rule:nonzero;"/>
        </g>
        <g transform="matrix(1,0,0,1,90.6198,405.069)">
            <path d="M0,-27.356C-6.469,-39.314 -21.656,-48.234 -32.769,-38.671C-43.635,-28.229 -41.586,-8.287 -33.525,3.473C-24.73,16.86 -7.973,20.878 5.363,14.944C5.437,14.968 6.189,14.523 6.237,14.542C6.569,14.383 6.053,12.757 5.688,12.798C-6.926,14.373 -20.837,11.708 -28.379,-0.686C-35.229,-11.071 -37.458,-33.076 -23.492,-36.983C-17.141,-38.567 -10.608,-34.143 -5.401,-30.201C-4.603,-30.07 0.688,-25.009 0,-27.356" style="fill:rgb(100,172,143);fill-rule:nonzero;"/>
        </g>
        <g transform="matrix(1,0,0,1,203.252,449.375)">
            <path d="M0,-92.481C0,-92.481 4.497,-1.613 -57.006,-0.848C-125.265,0 -120.014,-92.481 -120.014,-92.481L0,-92.481Z" style="fill:rgb(138,199,175);fill-rule:nonzero;"/>
        </g>
        <g transform="matrix(0,1,1,0,143.245,296.886)">
            <path d="M60.008,-60.007C67.036,-60.007 72.735,-33.141 72.735,0C72.735,33.141 67.036,60.008 60.008,60.008C52.979,60.008 47.28,33.141 47.28,0C47.28,-33.141 52.979,-60.007 60.008,-60.007" style="fill:white;fill-rule:nonzero;"/>
        </g>
        <g transform="matrix(1,0,0,1,89.0934,361.982)">
            <path d="M0,1.663C8.812,6.033 26.864,9.295 54.153,9.13C80.516,9.291 98.257,6.25 107.376,2.107C106.564,1.435 105.545,0.79 104.337,0.171C95.351,-4.441 75.92,-7.632 53.401,-7.632C31.41,-7.632 12.368,-4.587 3.118,-0.15C1.903,0.432 0.861,1.036 0,1.663" style="fill:rgb(133,58,41);fill-rule:nonzero;"/>
        </g>
        <g transform="matrix(1,0,0,1,84.5573,356.731)">
            <path d="M0,0.164C8.937,-10.352 40.116,-10.431 58.689,-11.072C76.985,-10.397 108.814,-10.374 117.375,0.16C115.9,2.183 112.935,3.936 108.874,5.422C86.213,13.717 29.466,13.631 7.654,5.101C4.038,3.686 1.382,2.041 0,0.164M4.536,6.914C13.348,11.284 31.4,14.546 58.689,14.381C85.052,14.542 102.793,11.501 111.912,7.358C111.912,7.354 111.915,7.358 111.915,7.358C130.664,-1.176 112.921,-14.382 58.686,-14.058C5.374,-14.378 -12.675,-1.62 4.536,6.914" style="fill:rgb(207,236,224);fill-rule:nonzero;"/>
        </g>
        <g transform="matrix(0,1,1,0,96.7394,379.396)">
            <path d="M3.376,-3.375C5.484,-3.375 7.193,-1.864 7.193,-0C7.193,1.864 5.484,3.376 3.376,3.376C1.267,3.376 -0.442,1.864 -0.442,-0C-0.442,-1.864 1.267,-3.375 3.376,-3.375" style="fill:white;fill-rule:nonzero;"/>
        </g>
        <g transform="matrix(0,1,1,0,188.251,376.427)">
            <path d="M3.376,-3.376C5.484,-3.376 7.194,-1.865 7.194,-0.001C7.194,1.865 5.484,3.376 3.376,3.376C1.268,3.376 -0.442,1.865 -0.442,-0.001C-0.442,-1.865 1.268,-3.376 3.376,-3.376" style="fill:white;fill-rule:nonzero;"/>
        </g>
        <g transform="matrix(0,1,1,0,145.495,380.245)">
            <path d="M3.376,-3.374C5.484,-3.374 7.193,-1.864 7.193,0C7.193,1.865 5.484,3.376 3.376,3.376C1.267,3.376 -0.442,1.865 -0.442,0C-0.442,-1.864 1.267,-3.374 3.376,-3.374" style="fill:white;fill-rule:nonzero;"/>
        </g>
        <g transform="matrix(0,1,1,0,144.745,433.273)">
            <path d="M3.376,-3.375C5.484,-3.375 7.193,-1.864 7.193,-0C7.193,1.865 5.484,3.376 3.376,3.376C1.267,3.376 -0.442,1.865 -0.442,-0C-0.442,-1.864 1.267,-3.375 3.376,-3.375" style="fill:white;fill-rule:nonzero;"/>
        </g>
        <g transform="matrix(0,1,1,0,170.998,406.547)">
            <path d="M3.375,-3.375C5.483,-3.375 7.193,-1.864 7.193,-0C7.193,1.865 5.483,3.375 3.375,3.375C1.267,3.375 -0.443,1.865 -0.443,-0C-0.443,-1.864 1.267,-3.375 3.375,-3.375" style="fill:white;fill-rule:nonzero;"/>
        </g>
        <g transform="matrix(0,1,1,0,120.367,404.426)">
            <path d="M3.376,-3.374C5.484,-3.374 7.193,-1.864 7.193,0C7.193,1.865 5.484,3.376 3.376,3.376C1.268,3.376 -0.442,1.865 -0.442,0C-0.442,-1.864 1.268,-3.374 3.376,-3.374" style="fill:white;fill-rule:nonzero;"/>
        </g>
    </g>
</svg>
