<?xml version="1.0" encoding="UTF-8" standalone="no"?>
<!DOCTYPE svg PUBLIC "-//W3C//DTD SVG 1.1//EN" "http://www.w3.org/Graphics/SVG/1.1/DTD/svg11.dtd">
<svg width="100%" height="100%" viewBox="0 0 514 265" version="1.1" xmlns="http://www.w3.org/2000/svg" xmlns:xlink="http://www.w3.org/1999/xlink" xml:space="preserve" xmlns:serif="http://www.serif.com/" style="fill-rule:evenodd;clip-rule:evenodd;stroke-linejoin:round;stroke-miterlimit:2;">
    <g transform="matrix(1,0,0,1,-40.7239,-374.67)">
        <g transform="matrix(-0.999287,0.037756,0.037756,0.999287,406.781,456.916)">
            <path d="M2.472,-76.499C-24.069,-76.055 -37.171,-59.077 -37.244,-38.06C-37.328,-13.92 -18.48,0.475 2.472,0.125C23.426,-0.224 41.052,-14.881 41.45,-36.197C41.711,-50.21 35.997,-77.059 2.472,-76.499" style="fill:rgb(247,233,99);fill-rule:nonzero;"/>
        </g>
        <g opacity="0.28">
            <g transform="matrix(1,0,0,1,304.41,499.686)">
                <path d="M0,58.735L163.113,58.735C163.113,58.735 164.062,42.093 150.785,37.199C137.508,32.304 131.818,43.072 131.818,43.072C131.818,43.072 132.767,26.431 115.697,21.536C98.627,16.641 92.937,28.388 92.937,28.388C92.937,28.388 85.35,0 54.055,3.915C22.76,7.831 23.708,34.262 23.708,34.262C23.708,34.262 14.225,27.409 3.793,37.199C-5.083,45.528 0,58.735 0,58.735" style="fill:rgb(255,252,196);fill-rule:nonzero;"/>
            </g>
        </g>
        <g transform="matrix(1,0,0,1,337.308,383.575)">
            <path d="M0,20.103L57.63,20.103C57.63,20.103 57.965,14.407 53.274,12.732C48.583,11.057 46.573,14.742 46.573,14.742C46.573,14.742 46.908,9.046 40.877,7.371C34.846,5.696 32.835,9.716 32.835,9.716C32.835,9.716 30.155,0 19.098,1.34C8.041,2.68 8.376,11.727 8.376,11.727C8.376,11.727 5.026,9.381 1.34,12.732C-1.796,15.583 0,20.103 0,20.103" style="fill:rgb(255,252,196);fill-rule:nonzero;"/>
        </g>
        <g opacity="0.4">
            <g transform="matrix(1,0,0,1,430.973,457.502)">
                <path d="M0,31.762L100.408,31.762C100.408,31.762 101.433,23.053 92.724,21.516C84.015,19.979 81.966,24.078 81.966,24.078C81.966,24.078 85.552,16.906 76.331,11.271C67.109,5.635 55.839,12.807 55.839,12.807C55.839,12.807 51.229,0 36.372,3.586C21.516,7.172 22.028,20.492 22.028,20.492C22.028,20.492 18.442,17.418 13.832,18.955C9.221,20.492 10.758,25.615 10.758,25.615C10.758,25.615 -1.025,22.541 0,31.762" style="fill:rgb(255,252,196);fill-rule:nonzero;"/>
            </g>
        </g>
        <g opacity="0.4">
            <g transform="matrix(1,0,0,1,45.4415,410.82)">
                <path d="M0,36.626L92.635,36.626C92.635,36.626 93.58,26.583 85.546,24.811C77.511,23.039 75.62,27.765 75.62,27.765C75.62,27.765 78.929,19.494 70.422,12.996C61.914,6.498 51.516,14.768 51.516,14.768C51.516,14.768 47.263,0 33.557,4.135C19.85,8.27 20.323,23.629 20.323,23.629C20.323,23.629 17.015,20.085 12.761,21.857C8.507,23.629 9.925,29.537 9.925,29.537C9.925,29.537 -0.945,25.992 0,36.626" style="fill:rgb(255,252,196);fill-rule:nonzero;"/>
            </g>
        </g>
        <g transform="matrix(1,0,0,1,419.106,423.662)">
            <path d="M0,16.746L52.94,16.746C52.94,16.746 53.481,12.154 48.889,11.344C44.297,10.534 43.217,12.694 43.217,12.694C43.217,12.694 45.107,8.913 40.246,5.942C35.384,2.971 29.441,6.752 29.441,6.752C29.441,6.752 27.01,0 19.177,1.89C11.344,3.781 11.615,10.804 11.615,10.804C11.615,10.804 9.724,9.183 7.293,9.993C4.862,10.804 5.672,13.505 5.672,13.505C5.672,13.505 -0.54,11.884 0,16.746" style="fill:rgb(255,252,196);fill-rule:nonzero;"/>
        </g>
        <g opacity="0.4">
            <g transform="matrix(1,0,0,1,302.531,385.758)">
                <path d="M0,34.275L-88.411,34.275C-88.411,34.275 -89.313,24.877 -81.645,23.218C-73.976,21.56 -72.172,25.983 -72.172,25.983C-72.172,25.983 -75.329,18.243 -67.21,12.162C-59.091,6.081 -49.167,13.82 -49.167,13.82C-49.167,13.82 -45.107,0 -32.026,3.869C-18.945,7.739 -19.396,22.113 -19.396,22.113C-19.396,22.113 -16.239,18.796 -12.179,20.454C-8.119,22.113 -9.473,27.641 -9.473,27.641C-9.473,27.641 0.902,24.324 0,34.275" style="fill:rgb(255,252,196);fill-rule:nonzero;"/>
            </g>
        </g>
        <g transform="matrix(1,0,0,1,118.918,374.671)">
            <path d="M0,133.807C0,133.807 1.158,88.899 2.315,82.484C3.473,76.068 6.946,76.068 8.104,73.319C9.261,70.569 13.892,49.49 15.049,44.908C16.207,40.325 24.31,24.745 26.626,21.079C28.941,17.413 54.409,16.496 57.882,10.997C61.355,5.498 64.828,0 69.458,0C74.089,0 92.611,10.081 92.611,14.663C92.611,19.246 94.926,25.661 99.557,26.578C104.188,27.494 106.503,33.91 109.976,33.91C113.449,33.91 129.656,48.574 133.129,48.574C136.601,48.574 143.547,54.072 148.178,56.822C152.808,59.571 159.754,71.486 162.069,76.985C164.385,82.484 175.045,94.769 180.133,100.083C185.222,105.396 210.69,129.225 210.69,129.225L0,133.807Z" style="fill:rgb(79,133,125);fill-rule:nonzero;"/>
        </g>
        <g opacity="0.2">
            <g transform="matrix(1,0,0,1,329.608,378.675)">
                <path d="M0,125.22C0,125.22 -25.468,101.391 -30.557,96.078C-35.646,90.765 -46.306,78.479 -48.621,72.98C-50.936,67.481 -57.882,55.567 -62.513,52.817C-67.143,50.068 -74.089,44.569 -77.562,44.569C-81.035,44.569 -97.242,29.905 -100.715,29.905C-104.188,29.905 -106.503,23.49 -111.133,22.573C-115.764,21.657 -118.079,15.241 -118.079,10.659C-118.079,6.076 -136.601,-4.005 -141.232,-4.005C-141.262,-4.005 -141.291,-3.999 -141.321,-3.998C-138.706,0.312 -135.541,6.184 -135.169,9.912C-134.522,16.381 -133.875,20.909 -137.109,22.85C-140.344,24.79 -142.284,27.378 -140.344,29.965C-138.403,32.553 -135.169,36.434 -133.875,38.375C-132.581,40.315 -133.228,46.137 -135.815,48.078C-138.403,50.018 -140.344,48.725 -145.519,51.312C-150.693,53.899 -153.281,55.193 -154.575,58.427C-155.868,61.662 -155.222,64.249 -155.868,70.071C-156.515,75.893 -159.75,83.656 -161.043,86.243C-162.337,88.831 -165.572,94.005 -168.159,95.946C-170.747,97.887 -173.981,104.355 -173.981,104.355L-184.155,129.225L0,125.22Z" style="fill:rgb(105,176,165);fill-rule:nonzero;"/>
            </g>
        </g>
        <g transform="matrix(1,0,0,1,206.238,451.903)">
            <path d="M0,-61.787C0,-61.787 0.363,-50.52 2.908,-49.066C5.452,-47.612 7.996,-45.795 10.903,-44.341C13.811,-42.888 19.626,-38.163 22.17,-35.982C24.715,-33.801 26.895,-30.894 29.44,-30.53C31.984,-30.167 40.706,-25.805 41.433,-24.352C42.16,-22.898 45.431,-18.173 45.431,-18.173L60.696,-11.994L67.238,0L52.7,-0.727L32.711,-5.816C32.711,-5.816 32.347,-18.9 30.893,-22.171C29.44,-25.442 28.713,-27.986 26.168,-29.076C23.624,-30.167 19.99,-31.257 17.082,-33.074C14.175,-34.892 9.45,-40.707 7.269,-41.434C5.088,-42.161 -0.727,-44.341 -1.09,-46.886C-1.454,-49.43 -2.181,-52.701 -1.817,-54.518C-1.454,-56.335 0,-61.787 0,-61.787" style="fill:rgb(79,133,125);fill-rule:nonzero;"/>
        </g>
        <g opacity="0.2">
            <g transform="matrix(1,0,0,1,184.067,433.366)">
                <path d="M0,-50.156C0,-50.156 -4.725,-39.979 -10.54,-39.979C-16.355,-39.979 -19.99,-39.616 -25.078,-37.799C-30.167,-35.981 -35.982,-34.164 -35.255,-31.256C-34.528,-28.349 -33.438,-26.895 -34.165,-24.714C-34.891,-22.534 -42.16,-15.265 -43.251,-13.811C-44.341,-12.357 -47.249,-7.269 -47.249,-5.452L-47.249,0C-47.249,0 -43.978,-10.903 -42.16,-11.63C-40.343,-12.357 -34.528,-13.447 -34.165,-16.718C-33.801,-19.99 -30.893,-26.895 -29.803,-27.259C-28.713,-27.622 -26.895,-29.439 -24.351,-29.439C-21.807,-29.439 -13.084,-32.347 -12.357,-33.437C-11.631,-34.528 -5.815,-36.708 -4.725,-37.799C-3.635,-38.889 -1.817,-38.889 -1.09,-41.07C-0.364,-43.25 0,-50.156 0,-50.156" style="fill:rgb(105,176,165);fill-rule:nonzero;"/>
            </g>
        </g>
        <g opacity="0.2">
            <g transform="matrix(1,0,0,1,182.977,485.703)">
                <path d="M0,-84.684C0,-84.684 -5.452,-73.417 -3.998,-71.236C-2.544,-69.056 -2.544,-62.877 -5.088,-62.15C-7.632,-61.423 -10.903,-59.969 -13.084,-57.789C-15.265,-55.608 -17.809,-49.793 -18.536,-47.612C-19.263,-45.431 -21.444,-38.162 -21.08,-36.345C-20.717,-34.528 -22.534,-29.439 -24.715,-27.622C-26.895,-25.805 -34.891,-7.996 -34.891,-7.996L-60.696,0C-60.696,0 -61.06,-11.267 -60.696,-14.174C-60.333,-17.082 -58.152,-23.988 -54.518,-24.714C-50.883,-25.441 -45.068,-26.168 -44.704,-30.53C-44.341,-34.891 -45.431,-43.614 -44.704,-45.068C-43.978,-46.522 -33.074,-49.793 -31.984,-51.973C-30.893,-54.154 -26.532,-58.879 -26.895,-62.513C-27.259,-66.148 -25.442,-71.236 -23.988,-71.963C-22.534,-72.69 -13.811,-73.054 -12.357,-75.961C-10.903,-78.869 -8.359,-81.776 -6.179,-83.23C-3.998,-84.684 -1.09,-84.321 0,-84.684" style="fill:rgb(105,176,165);fill-rule:nonzero;"/>
            </g>
        </g>
        <g transform="matrix(1,0,0,1,122.073,393.983)">
            <path d="M0,13.442L38.533,13.442C38.533,13.442 38.757,9.633 35.621,8.513C32.484,7.393 31.14,9.857 31.14,9.857C31.14,9.857 31.364,6.049 27.332,4.929C23.299,3.809 21.955,6.497 21.955,6.497C21.955,6.497 20.163,0 12.77,0.896C5.377,1.792 5.601,7.841 5.601,7.841C5.601,7.841 3.36,6.273 0.896,8.513C-1.201,10.42 0,13.442 0,13.442" style="fill:rgb(255,252,196);fill-rule:nonzero;"/>
        </g>
        <g transform="matrix(1,0,0,1,201.335,488.054)">
            <path d="M0,-76.35C0,-76.35 8.551,-62.302 6.719,-58.026C4.886,-53.75 3.054,-48.253 0.611,-44.588C-1.832,-40.924 -3.665,-32.983 -3.054,-29.929C-2.443,-26.875 -1.832,-10.995 -1.832,-10.995L34.205,0C34.205,0 50.696,-4.886 50.085,-6.719C49.475,-8.551 39.702,-24.432 37.87,-26.875C36.037,-29.318 24.432,-41.534 22.6,-48.253C20.767,-54.972 20.156,-64.745 15.881,-67.188C11.605,-69.631 0,-76.35 0,-76.35" style="fill:rgb(79,133,125);fill-rule:nonzero;"/>
        </g>
        <g transform="matrix(1,0,0,1,224.169,376.471)">
            <path d="M0,12.038L-27.915,12.038C-27.915,12.038 -28.077,8.627 -25.805,7.624C-23.533,6.621 -22.559,8.828 -22.559,8.828C-22.559,8.828 -22.721,5.417 -19.8,4.414C-16.879,3.411 -15.905,5.818 -15.905,5.818C-15.905,5.818 -14.606,0 -9.251,0.803C-3.895,1.605 -4.057,7.022 -4.057,7.022C-4.057,7.022 -2.434,5.618 -0.649,7.624C0.87,9.331 0,12.038 0,12.038" style="fill:rgb(255,252,196);fill-rule:nonzero;"/>
        </g>
        <g transform="matrix(1,0,0,1,527.472,400.083)">
            <path d="M0,17.025L-39.48,17.025C-39.48,17.025 -39.71,12.201 -36.496,10.782C-33.283,9.364 -31.906,12.485 -31.906,12.485C-31.906,12.485 -32.135,7.661 -28.003,6.242C-23.872,4.823 -22.495,8.228 -22.495,8.228C-22.495,8.228 -20.658,0 -13.084,1.134C-5.509,2.27 -5.738,9.931 -5.738,9.931C-5.738,9.931 -3.443,7.945 -0.918,10.782C1.23,13.197 0,17.025 0,17.025" style="fill:rgb(255,252,196);fill-rule:nonzero;"/>
        </g>
        <g transform="matrix(-1,0,0,1,575.947,49.966)">
            <rect x="277.56" y="385.164" width="29.331" height="30.1" style="fill:rgb(255,252,196);"/>
        </g>
        <g transform="matrix(-0.52464,0.851324,0.851324,0.52464,293.185,422.921)">
            <path d="M21.018,-15.331L25.337,-15.331L7.531,13.763L5.046,10.229L21.018,-15.331Z" style="fill:rgb(201,88,49);fill-rule:nonzero;"/>
        </g>
        <g transform="matrix(0,-1,-1,0,298.595,445.278)">
            <rect x="-3.252" y="3.274" width="10.04" height="3.514" style="fill:rgb(41,63,92);"/>
        </g>
        <g transform="matrix(0,-1,-1,0,291.339,445.278)">
            <rect x="-3.252" y="3.274" width="10.04" height="3.514" style="fill:rgb(41,63,92);"/>
        </g>
        <g transform="matrix(1,0,0,1,305.781,511.562)">
            <path d="M0,13.376L49.874,13.292C49.874,13.292 49.71,11.516 48.119,11.604C48.119,11.604 47.74,10.211 46.874,10.09C46.008,9.97 45.618,10.328 45.618,10.328C45.618,10.328 45.238,8.11 44.459,8.001C43.679,7.893 43.117,8.227 43.117,8.227C43.117,8.227 41.437,5.003 39.402,5.133C37.368,5.262 36.719,6.41 36.719,6.41C36.719,6.41 35.841,4.741 33.536,4.936C31.231,5.131 30.734,6.506 30.734,6.506C30.734,6.506 28.655,5.392 27.508,5.439C26.361,5.486 25.517,6.813 25.517,6.813C25.517,6.813 25.166,3.558 22.438,3.36C19.709,3.162 19.405,4.744 19.405,4.744C19.405,4.744 18.496,2.174 17.435,1.976C16.373,1.779 15.464,3.36 15.464,3.36C15.464,3.36 11.674,0 9.703,0.593C7.732,1.186 7.58,4.744 7.58,4.744C7.58,4.744 5.913,3.755 4.548,4.941C3.184,6.127 3.79,8.499 3.79,8.499C3.79,8.499 2.122,7.906 0.91,8.894C-0.303,9.882 0,13.376 0,13.376" style="fill:rgb(79,133,125);fill-rule:nonzero;"/>
        </g>
        <g transform="matrix(-1,0,0,1,338.843,63.3)">
            <rect x="154.557" y="377.588" width="38.233" height="31.918" style="fill:rgb(255,252,196);"/>
        </g>
        <g transform="matrix(0,-1,-1,0,154.835,451.701)">
            <rect x="-2.853" y="2.869" width="8.259" height="2.538" style="fill:rgb(41,63,92);"/>
        </g>
        <g transform="matrix(0,-1,-1,0,161.835,451.701)">
            <rect x="-2.853" y="2.869" width="8.259" height="2.538" style="fill:rgb(41,63,92);"/>
        </g>
        <g transform="matrix(0,-1,-1,0,168.835,451.701)">
            <rect x="-2.853" y="2.869" width="8.259" height="2.538" style="fill:rgb(41,63,92);"/>
        </g>
        <g transform="matrix(0,-1,-1,0,175.835,451.701)">
            <rect x="-2.853" y="2.869" width="8.259" height="2.538" style="fill:rgb(41,63,92);"/>
        </g>
        <g transform="matrix(0,-1,-1,0,182.835,451.701)">
            <rect x="-2.853" y="2.869" width="8.259" height="2.538" style="fill:rgb(41,63,92);"/>
        </g>
        <g transform="matrix(-1,0,0,1,451.186,36.074)">
            <rect x="207.4" y="394.561" width="44.89" height="25.198" style="fill:rgb(255,252,196);"/>
        </g>
        <g transform="matrix(-1,0,0,1,320.941,110.032)">
            <rect x="140.577" y="353.103" width="48.291" height="34.156" style="fill:rgb(255,252,196);"/>
        </g>
        <g transform="matrix(-0.0272851,0.999628,0.999628,0.0272851,155.91,491.465)">
            <path d="M-31.372,24.723L-25.728,24.723L-24.057,-30.527L-29.821,-26.862L-31.372,24.723Z" style="fill:rgb(201,88,49);fill-rule:nonzero;"/>
        </g>
        <g transform="matrix(-1,0,0,1,402.347,81.842)">
            <rect x="187.424" y="368.061" width="36.003" height="32.43" style="fill:rgb(245,242,181);"/>
        </g>
        <g transform="matrix(-1,0,0,1,535.015,72.515)">
            <rect x="248.758" y="372.556" width="46.003" height="32.767" style="fill:rgb(245,242,181);"/>
        </g>
        <g transform="matrix(-1,0,0,1,624.183,86.946)">
            <rect x="302.807" y="368.648" width="27.073" height="26.152" style="fill:rgb(245,242,181);"/>
        </g>
        <g transform="matrix(-1,0,0,1,573.923,107.249)">
            <rect x="271.49" y="358.796" width="39.447" height="25.553" style="fill:rgb(255,252,196);"/>
        </g>
        <g transform="matrix(1,0,0,1,-8.50389,157.526)">
            <rect x="310.593" y="324.727" width="24.325" height="43.414" style="fill:rgb(245,242,181);"/>
        </g>
        <g transform="matrix(-1,0,0,1,580.521,169.862)">
            <rect x="276.511" y="324.339" width="36.003" height="31.854" style="fill:rgb(255,252,196);"/>
        </g>
        <g transform="matrix(-1,0,0,1,469.258,97.821)">
            <rect x="212.095" y="358.41" width="53.572" height="35.753" style="fill:rgb(255,252,196);"/>
        </g>
        <g transform="matrix(0.059746,0.998214,0.998214,-0.059746,288.557,474.626)">
            <path d="M14.812,-19.781L18.762,-19.781L21,15.725L16.919,13.745L14.812,-19.781Z" style="fill:rgb(201,88,49);fill-rule:nonzero;"/>
        </g>
        <g transform="matrix(-1,0,0,1,671.403,176.853)">
            <rect x="328.72" y="324.339" width="22.467" height="24.863" style="fill:rgb(255,252,196);"/>
        </g>
        <g transform="matrix(1,0,0,1,-8.50389,154.219)">
            <rect x="242.183" y="324.339" width="37.253" height="47.497" style="fill:rgb(245,242,181);"/>
        </g>
        <g transform="matrix(-1,0,0,1,455.855,169.862)">
            <rect x="221.178" y="324.339" width="22.003" height="31.854" style="fill:rgb(255,252,196);"/>
        </g>
        <g transform="matrix(0.0479128,0.998852,0.998852,-0.0479128,254.724,457.767)">
            <path d="M17.003,-22.191L21.24,-22.191L23.281,17.838L18.798,12.997L17.003,-22.191Z" style="fill:rgb(201,88,49);fill-rule:nonzero;"/>
        </g>
        <g transform="matrix(0.0479128,0.998852,0.998852,-0.0479128,286.676,442.311)">
            <path d="M19.954,-25.288L24.191,-25.288L26.53,20.935L22.047,16.094L19.954,-25.288Z" style="fill:rgb(201,88,49);fill-rule:nonzero;"/>
        </g>
        <g transform="matrix(0.0479128,0.998852,0.998852,-0.0479128,310.852,440.372)">
            <path d="M12.562,-17.532L16.799,-17.532L18.393,13.179L13.91,8.338L12.562,-17.532Z" style="fill:rgb(201,88,49);fill-rule:nonzero;"/>
        </g>
        <g transform="matrix(1,0,0,1,-8.50389,163.884)">
            <rect x="123.701" y="324.339" width="26.417" height="37.832" style="fill:rgb(245,242,181);"/>
        </g>
        <g transform="matrix(-1,0,0,1,308.77,175.855)">
            <rect x="133.133" y="324.339" width="51.008" height="25.861" style="fill:rgb(255,252,196);"/>
        </g>
        <g transform="matrix(-0.374769,0.927118,0.927118,0.374769,337.932,490.007)">
            <path d="M13.999,-13.599L18.588,-13.599L8.728,11.116L5.528,6.778L13.999,-13.599Z" style="fill:rgb(201,88,49);fill-rule:nonzero;"/>
        </g>
        <g transform="matrix(-1,0,0,1,512.429,176.853)">
            <rect x="246.465" y="324.339" width="28.003" height="24.863" style="fill:rgb(255,252,196);"/>
        </g>
        <g transform="matrix(-0.449982,0.893038,0.893038,0.449982,260.582,488.009)">
            <path d="M19.08,-15.91L23.845,-15.91L9.028,13.764L6.51,8.554L19.08,-15.91Z" style="fill:rgb(201,88,49);fill-rule:nonzero;"/>
        </g>
        <g transform="matrix(-0.59589,0.803066,0.803066,0.59589,322.349,473.066)">
            <path d="M16.94,-11.287L20.295,-11.287L4.489,10.13L3.547,6.762L16.94,-11.287Z" style="fill:rgb(201,88,49);fill-rule:nonzero;"/>
        </g>
        <g transform="matrix(0.0442866,0.999019,0.999019,-0.0442866,266.594,418.921)">
            <path d="M21.904,-28.094L26.962,-28.094L29.367,22.896L24.055,17.549L21.904,-28.094Z" style="fill:rgb(201,88,49);fill-rule:nonzero;"/>
        </g>
        <g transform="matrix(-0.0272851,0.999628,0.999628,0.0272851,129.953,501.433)">
            <path d="M-18.558,12.254L-12.914,12.254L-11.924,-18.058L-17.687,-14.393L-18.558,12.254Z" style="fill:rgb(201,88,49);fill-rule:nonzero;"/>
        </g>
        <g transform="matrix(-0.0340332,0.999421,0.999421,0.0340332,197.677,468.782)">
            <path d="M-22.799,17.414L-18.303,17.414L-16.831,-22.035L-21.465,-18.385L-22.799,17.414Z" style="fill:rgb(201,88,49);fill-rule:nonzero;"/>
        </g>
        <g transform="matrix(-0.0366991,0.999326,0.999326,0.0366991,165.402,462.223)">
            <path d="M-24.454,18.952L-19.958,18.952L-18.269,-23.573L-22.923,-19.638L-24.454,18.952Z" style="fill:rgb(201,88,49);fill-rule:nonzero;"/>
        </g>
        <g transform="matrix(0,-1,-1,0,326.604,507.329)">
            <rect x="-0.155" y="0.172" width="3.07" height="2.743" style="fill:rgb(41,63,92);"/>
        </g>
        <g transform="matrix(0,-1,-1,0,243.749,506.698)">
            <rect x="0.143" y="-0.127" width="2.356" height="2.625" style="fill:rgb(41,63,92);"/>
        </g>
        <g transform="matrix(0,-1,-1,0,313.334,463.798)">
            <rect x="-0.079" y="0.095" width="2.798" height="2.625" style="fill:rgb(41,63,92);"/>
        </g>
        <g transform="matrix(0,-1,-1,0,317.946,463.798)">
            <rect x="-0.079" y="0.095" width="2.798" height="2.625" style="fill:rgb(41,63,92);"/>
        </g>
        <g transform="matrix(0,-1,-1,0,313.334,468.802)">
            <rect x="-0.079" y="0.095" width="2.798" height="2.625" style="fill:rgb(41,63,92);"/>
        </g>
        <g transform="matrix(0,-1,-1,0,317.946,468.802)">
            <rect x="-0.079" y="0.095" width="2.798" height="2.625" style="fill:rgb(41,63,92);"/>
        </g>
        <g transform="matrix(0,-1,-1,0,249.146,506.698)">
            <rect x="0.143" y="-0.127" width="2.356" height="2.625" style="fill:rgb(41,63,92);"/>
        </g>
        <g transform="matrix(0,-1,-1,0,208.688,441.622)">
            <rect x="-2.162" y="2.185" width="8.008" height="3.66" style="fill:rgb(41,63,92);"/>
        </g>
        <g transform="matrix(0,-1,-1,0,217.678,441.622)">
            <rect x="-2.162" y="2.184" width="8.008" height="3.661" style="fill:rgb(41,63,92);"/>
        </g>
        <g transform="matrix(0,-1,-1,0,226.668,441.622)">
            <rect x="-2.162" y="2.185" width="8.008" height="3.66" style="fill:rgb(41,63,92);"/>
        </g>
        <g transform="matrix(0,-1,-1,0,254.543,506.698)">
            <rect x="0.143" y="-0.127" width="2.356" height="2.625" style="fill:rgb(41,63,92);"/>
        </g>
        <g transform="matrix(0,-1,-1,0,259.94,506.698)">
            <rect x="0.143" y="-0.127" width="2.356" height="2.625" style="fill:rgb(41,63,92);"/>
        </g>
        <g transform="matrix(0,-1,-1,0,251.923,486.089)">
            <rect x="-0.327" y="0.348" width="4.095" height="3.42" style="fill:rgb(41,63,92);"/>
        </g>
        <g transform="matrix(0,-1,-1,0,258.871,486.089)">
            <rect x="-0.327" y="0.349" width="4.095" height="3.419" style="fill:rgb(41,63,92);"/>
        </g>
        <g transform="matrix(0,-1,-1,0,265.819,486.089)">
            <rect x="-0.327" y="0.348" width="4.095" height="3.42" style="fill:rgb(41,63,92);"/>
        </g>
        <g transform="matrix(0,-1,-1,0,258.871,494.09)">
            <rect x="-0.327" y="0.349" width="4.095" height="3.419" style="fill:rgb(41,63,92);"/>
        </g>
        <g transform="matrix(0,-1,-1,0,265.819,494.09)">
            <rect x="-0.327" y="0.348" width="4.095" height="3.42" style="fill:rgb(41,63,92);"/>
        </g>
        <g transform="matrix(0,-1,-1,0,282.009,455.961)">
            <rect x="0.022" y="0.013" width="5.62" height="5.628" style="fill:rgb(41,63,92);"/>
        </g>
        <g transform="matrix(0,-1,-1,0,270.64,455.961)">
            <rect x="0.022" y="0.013" width="5.62" height="5.628" style="fill:rgb(41,63,92);"/>
        </g>
        <g transform="matrix(0,-1,-1,0,260.534,455.961)">
            <rect x="0.022" y="0.013" width="5.62" height="5.628" style="fill:rgb(41,63,92);"/>
        </g>
        <g transform="matrix(0,-1,-1,0,331.099,507.329)">
            <rect x="-0.155" y="0.172" width="3.07" height="2.743" style="fill:rgb(41,63,92);"/>
        </g>
        <g transform="matrix(0,-1,-1,0,335.594,507.329)">
            <rect x="-0.155" y="0.172" width="3.07" height="2.743" style="fill:rgb(41,63,92);"/>
        </g>
        <g transform="matrix(0,-1,-1,0,340.089,507.329)">
            <rect x="-0.155" y="0.172" width="3.07" height="2.743" style="fill:rgb(41,63,92);"/>
        </g>
        <g transform="matrix(0,-1,-1,0,279.42,503.55)">
            <rect x="-0.739" y="0.764" width="5.564" height="4.061" style="fill:rgb(41,63,92);"/>
        </g>
        <g transform="matrix(0,-1,-1,0,288.572,503.55)">
            <rect x="-0.739" y="0.764" width="5.564" height="4.061" style="fill:rgb(41,63,92);"/>
        </g>
        <g transform="matrix(0,-1,-1,0,297.725,503.55)">
            <rect x="-0.739" y="0.764" width="5.564" height="4.061" style="fill:rgb(41,63,92);"/>
        </g>
        <g transform="matrix(0,-1,-1,0,217.901,467.477)">
            <rect x="-2.951" y="2.978" width="10.203" height="4.274" style="fill:rgb(41,63,92);"/>
        </g>
        <g transform="matrix(0,-1,-1,0,228.26,467.477)">
            <rect x="-2.951" y="2.978" width="10.203" height="4.274" style="fill:rgb(41,63,92);"/>
        </g>
        <g transform="matrix(0,-1,-1,0,237.625,467.477)">
            <rect x="-2.951" y="2.978" width="10.203" height="4.274" style="fill:rgb(41,63,92);"/>
        </g>
        <g transform="matrix(0,-1,-1,0,135.038,510.986)">
            <rect x="-2.672" y="2.697" width="9.43" height="4.061" style="fill:rgb(41,63,92);"/>
        </g>
        <g transform="matrix(0,-1,-1,0,146.638,510.986)">
            <rect x="-2.672" y="2.697" width="9.43" height="4.061" style="fill:rgb(41,63,92);"/>
        </g>
        <g transform="matrix(0,-1,-1,0,158.237,510.986)">
            <rect x="-2.672" y="2.697" width="9.43" height="4.061" style="fill:rgb(41,63,92);"/>
        </g>
        <g transform="matrix(0,-1,-1,0,123.413,496.847)">
            <rect x="-0.839" y="0.864" width="5.765" height="4.061" style="fill:rgb(41,63,92);"/>
        </g>
        <g transform="matrix(0,-1,-1,0,130.744,496.847)">
            <rect x="-0.839" y="0.864" width="5.765" height="4.061" style="fill:rgb(41,63,92);"/>
        </g>
        <g transform="matrix(0,-1,-1,0,138.076,496.847)">
            <rect x="-0.839" y="0.864" width="5.765" height="4.061" style="fill:rgb(41,63,92);"/>
        </g>
        <g transform="matrix(0,-1,-1,0,169.836,510.986)">
            <rect x="-2.672" y="2.697" width="9.43" height="4.061" style="fill:rgb(41,63,92);"/>
        </g>
        <g transform="matrix(0,-1,-1,0,144.498,477.068)">
            <rect x="-2.388" y="2.417" width="9.563" height="4.759" style="fill:rgb(41,63,92);"/>
        </g>
        <g transform="matrix(0,-1,-1,0,155.498,477.068)">
            <rect x="-2.388" y="2.417" width="9.563" height="4.759" style="fill:rgb(41,63,92);"/>
        </g>
        <g transform="matrix(0,-1,-1,0,186.879,457.557)">
            <rect x="-0.577" y="0.598" width="4.347" height="3.172" style="fill:rgb(41,63,92);"/>
        </g>
        <g transform="matrix(0,-1,-1,0,186.879,464.557)">
            <rect x="-0.577" y="0.598" width="4.347" height="3.172" style="fill:rgb(41,63,92);"/>
        </g>
        <g transform="matrix(0,-1,-1,0,193.129,457.557)">
            <rect x="-0.577" y="0.598" width="4.347" height="3.172" style="fill:rgb(41,63,92);"/>
        </g>
        <g transform="matrix(0,-1,-1,0,313.692,491.331)">
            <rect x="-3.19" y="3.206" width="8.947" height="2.551" style="fill:rgb(41,63,92);"/>
        </g>
        <g transform="matrix(0,-1,-1,0,317.401,491.331)">
            <rect x="-3.19" y="3.206" width="8.947" height="2.551" style="fill:rgb(41,63,92);"/>
        </g>
        <g transform="matrix(0,-1,-1,0,323.404,491.331)">
            <rect x="-3.19" y="3.206" width="8.947" height="2.551" style="fill:rgb(41,63,92);"/>
        </g>
        <g transform="matrix(0,-1,-1,0,327.113,491.331)">
            <rect x="-3.19" y="3.206" width="8.947" height="2.551" style="fill:rgb(41,63,92);"/>
        </g>
        <g transform="matrix(1,0,0,1,157.165,509.981)">
            <path d="M0,14.871L-53.754,14.778C-53.754,14.778 -53.577,12.803 -51.863,12.901C-51.863,12.901 -51.453,11.352 -50.52,11.218C-49.587,11.084 -49.167,11.483 -49.167,11.483C-49.167,11.483 -48.757,9.016 -47.917,8.896C-47.077,8.775 -46.471,9.147 -46.471,9.147C-46.471,9.147 -44.66,5.562 -42.468,5.706C-40.275,5.85 -39.575,7.126 -39.575,7.126C-39.575,7.126 -38.629,5.271 -36.145,5.488C-33.66,5.705 -33.125,7.233 -33.125,7.233C-33.125,7.233 -30.884,5.995 -29.648,6.047C-28.411,6.099 -27.503,7.574 -27.503,7.574C-27.503,7.574 -27.124,3.955 -24.183,3.736C-21.242,3.516 -20.915,5.274 -20.915,5.274C-20.915,5.274 -19.935,2.417 -18.791,2.197C-17.647,1.978 -16.667,3.736 -16.667,3.736C-16.667,3.736 -12.582,0 -10.457,0.659C-8.333,1.318 -8.17,5.274 -8.17,5.274C-8.17,5.274 -6.372,4.175 -4.902,5.493C-3.431,6.812 -4.085,9.449 -4.085,9.449C-4.085,9.449 -2.287,8.79 -0.98,9.888C0.327,10.987 0,14.871 0,14.871" style="fill:rgb(79,133,125);fill-rule:nonzero;"/>
        </g>
        <g transform="matrix(-0.719372,0.694625,0.694625,0.719372,249.357,439.686)">
            <path d="M41.47,-20.349L46.764,-20.349L5.611,19.534L4.915,14.689L41.47,-20.349Z" style="fill:rgb(201,88,49);fill-rule:nonzero;"/>
        </g>
        <g transform="matrix(-0.695685,0.718347,0.718347,0.695685,238.414,415.345)">
            <path d="M38.111,-19.74L43.23,-19.74L6.02,18.833L5.032,14.148L38.111,-19.74Z" style="fill:rgb(201,88,49);fill-rule:nonzero;"/>
        </g>
        <g transform="matrix(1,0,0,1,329.814,508.382)">
            <path d="M0,14.546C0,14.546 -0.62,12.893 -2.033,12.75C-3.446,12.607 -4.081,13.033 -4.081,13.033C-4.081,13.033 -4.702,10.4 -5.973,10.272C-7.245,10.143 -8.163,10.54 -8.163,10.54C-8.163,10.54 -10.904,6.715 -14.224,6.869C-17.544,7.023 -18.603,8.384 -18.603,8.384C-18.603,8.384 -20.035,6.404 -23.796,6.636C-27.558,6.867 -28.369,8.498 -28.369,8.498C-28.369,8.498 -31.761,7.177 -33.633,7.232C-35.505,7.288 -36.881,8.862 -36.881,8.862C-36.881,8.862 -39.39,7.385 -40.167,7.796C-40.944,8.207 -41.49,9.008 -41.49,9.008C-41.49,9.008 -43.276,6.503 -46.331,6.806C-49.386,7.109 -51.274,9.243 -51.274,9.243C-51.274,9.243 -53.766,7.645 -55.231,7.864C-55.231,7.864 -56.487,5.657 -60.214,5.648C-63.94,5.638 -64.98,7.858 -64.98,7.858C-64.98,7.858 -65.336,5.375 -66.59,5.126C-67.844,4.877 -69.15,5.968 -69.15,5.968C-69.15,5.968 -70.23,2.556 -74.346,2.262C-78.461,1.969 -80.985,3.549 -80.985,3.549C-80.985,3.549 -82.559,0.576 -83.743,0.823C-84.926,1.071 -86.849,2.467 -86.849,2.467C-86.849,2.467 -89.574,-2.102 -95.56,-0.382L-95.56,16.648L2.863,16.548C2.863,16.548 2.596,14.441 0,14.546" style="fill:rgb(79,133,125);fill-rule:nonzero;"/>
        </g>
        <g transform="matrix(0.059746,0.998214,0.998214,-0.059746,225.693,480.851)">
            <path d="M8.948,-13.555L12.898,-13.555L14.391,9.499L10.31,7.52L8.948,-13.555Z" style="fill:rgb(201,88,49);fill-rule:nonzero;"/>
        </g>
        <g transform="matrix(1,0,0,1,-8.50389,159.389)">
            <rect x="181.13" y="324.339" width="41.218" height="42.327" style="fill:rgb(245,242,181);"/>
        </g>
        <g transform="matrix(0.0419694,0.999119,0.999119,-0.0419694,196.909,458.051)">
            <path d="M19.587,-26.232L25.234,-26.232L27.357,20.428L21.454,14.785L19.587,-26.232Z" style="fill:rgb(201,88,49);fill-rule:nonzero;"/>
        </g>
        <g transform="matrix(0,-1,-1,0,219.705,500.238)">
            <rect x="-0.462" y="0.478" width="3.477" height="2.538" style="fill:rgb(41,63,92);"/>
        </g>
        <g transform="matrix(0,-1,-1,0,219.705,505.951)">
            <rect x="-0.462" y="0.478" width="3.477" height="2.538" style="fill:rgb(41,63,92);"/>
        </g>
        <g transform="matrix(0,-1,-1,0,225.444,500.238)">
            <rect x="-0.462" y="0.478" width="3.477" height="2.538" style="fill:rgb(41,63,92);"/>
        </g>
        <g transform="matrix(0,-1,-1,0,225.444,505.951)">
            <rect x="-0.462" y="0.478" width="3.477" height="2.538" style="fill:rgb(41,63,92);"/>
        </g>
        <g transform="matrix(0,-1,-1,0,231.183,500.238)">
            <rect x="-0.462" y="0.478" width="3.477" height="2.538" style="fill:rgb(41,63,92);"/>
        </g>
        <g transform="matrix(0,-1,-1,0,297.503,475.109)">
            <rect x="-1.201" y="1.219" width="5.433" height="3.014" style="fill:rgb(41,63,92);"/>
        </g>
        <g transform="matrix(0,-1,-1,0,291.66,475.109)">
            <rect x="-1.201" y="1.219" width="5.433" height="3.014" style="fill:rgb(41,63,92);"/>
        </g>
        <g transform="matrix(0,-1,-1,0,284.896,475.109)">
            <rect x="-1.2" y="1.219" width="5.433" height="3.014" style="fill:rgb(41,63,92);"/>
        </g>
        <g transform="matrix(0,-1,-1,0,231.183,505.951)">
            <rect x="-0.462" y="0.478" width="3.477" height="2.538" style="fill:rgb(41,63,92);"/>
        </g>
        <g transform="matrix(0,-1,-1,0,184,494.382)">
            <rect x="-3.19" y="3.206" width="8.947" height="2.551" style="fill:rgb(41,63,92);"/>
        </g>
        <g transform="matrix(0,-1,-1,0,187.56,494.382)">
            <rect x="-3.19" y="3.206" width="8.947" height="2.551" style="fill:rgb(41,63,92);"/>
        </g>
        <g transform="matrix(0,-1,-1,0,195.252,494.382)">
            <rect x="-3.19" y="3.206" width="8.947" height="2.551" style="fill:rgb(41,63,92);"/>
        </g>
        <g transform="matrix(0,-1,-1,0,198.812,494.382)">
            <rect x="-3.19" y="3.206" width="8.947" height="2.551" style="fill:rgb(41,63,92);"/>
        </g>
        <g transform="matrix(0,-1,-1,0,206.504,494.382)">
            <rect x="-3.19" y="3.206" width="8.947" height="2.551" style="fill:rgb(41,63,92);"/>
        </g>
        <g transform="matrix(0,-1,-1,0,210.064,494.382)">
            <rect x="-3.19" y="3.206" width="8.947" height="2.551" style="fill:rgb(41,63,92);"/>
        </g>
        <g transform="matrix(-0.778585,0.627539,0.627539,0.778585,167.993,487.097)">
            <path d="M35.175,-17.927L44.166,-17.927L1.056,17.028L1.515,8.833L35.175,-17.927Z" style="fill:rgb(201,88,49);fill-rule:nonzero;"/>
        </g>
        <g transform="matrix(0.975654,0.219317,0.219317,-0.975654,308.835,501.178)">
            <path d="M-2.155,0.347L-1.668,0.347C-1.668,0.347 -3.679,-5.674 -2.011,-19.167L-3.625,-19.366C-3.625,-19.366 -5.025,-5.758 -2.155,0.347" style="fill:rgb(79,133,125);fill-rule:nonzero;"/>
        </g>
        <g transform="matrix(1,0,0,1,299.653,503.398)">
            <path d="M0,-2.887L-0.673,-2.979C-0.673,-2.979 1.067,-4.077 2.611,-4.5C4.156,-4.923 6.767,-3.821 7.165,-3.646C7.165,-3.646 6.398,-4.66 4.871,-5.165L5.414,-5.528C5.414,-5.528 3.94,-6.103 2.555,-5.888L3.192,-6.654C3.192,-6.654 1.896,-6.974 0.686,-6.571C0.686,-6.571 1.516,-8.078 3.767,-7.616L3.239,-8.247C3.239,-8.247 6.605,-7.785 7.607,-3.738C7.607,-3.738 7.639,-5.177 7.315,-5.992L7.549,-5.861C7.549,-5.861 7.622,-6.699 7.134,-7.414C7.134,-7.414 7.703,-7.321 8.026,-6.905C8.349,-6.489 8.423,-5.405 8.423,-5.405L8.582,-5.632C8.582,-5.632 8.281,-4.417 8.1,-3.971C8.1,-3.971 9.332,-6.348 13.053,-5.373L12.807,-5.05C12.807,-5.05 14.525,-4.862 14.898,-2.853C14.898,-2.853 14.075,-3.548 12.405,-3.666L12.569,-3.022C12.569,-3.022 11.552,-3.615 10.717,-3.855L10.918,-3.432C10.918,-3.432 10.13,-4.019 9.054,-3.447C9.054,-3.447 12.534,-3.51 14.357,0.353L14.082,0.333C14.082,0.333 14.427,1.292 14.469,1.943L14.266,1.846C14.266,1.846 14.344,3.002 14.091,3.906C14.091,3.906 14.183,2.794 13.356,1.628L13.13,2.077C13.13,2.077 12.7,0.906 12.097,-0.02L11.913,0.354C11.913,0.354 10.9,-1.272 10.252,-1.796L10.308,-1.183C10.308,-1.183 9.169,-2.511 8.038,-2.897C8.038,-2.897 10.003,-0.421 9.775,2.948L9.454,2.586C9.454,2.586 9.605,4.391 8.56,5.36C8.56,5.36 8.755,3.426 8.456,2.084L8.173,2.627C8.173,2.627 8.313,1.947 8.22,0.81L7.949,1.262C7.949,1.262 8.104,0.2 8.009,-0.628L7.785,-0.488C7.785,-0.488 7.918,-2.145 7.41,-2.932C7.41,-2.932 5.837,-3.368 3.87,-2.389L4.396,-3.149C4.396,-3.149 2.966,-2.667 2.269,-1.963L1.699,-2.26C1.699,-2.26 -0.385,-1.407 -1.322,0.239C-1.322,0.239 -1.549,-1.205 0,-2.887" style="fill:rgb(79,133,125);fill-rule:nonzero;"/>
        </g>
        <g transform="matrix(-0.949298,-0.314378,-0.314378,0.949298,345.26,519.164)">
            <path d="M-1.543,-12.913L-1.219,-12.913C-1.219,-12.913 -2.561,-8.907 -1.457,0.076L-2.531,0.208C-2.531,0.208 -3.457,-8.85 -1.543,-12.913" style="fill:rgb(79,133,125);fill-rule:nonzero;"/>
        </g>
        <g transform="matrix(1,0,0,1,354.82,506.059)">
            <path d="M0,3.863L0.416,4.041C0.416,4.041 -0.202,2.819 -0.938,2.048C-1.675,1.278 -3.543,1.013 -3.83,0.977C-3.83,0.977 -3.046,0.661 -2.001,0.895L-2.186,0.502C-2.186,0.502 -1.148,0.678 -0.431,1.276L-0.533,0.62C-0.533,0.62 0.317,0.881 0.87,1.525C0.87,1.525 0.911,0.381 -0.531,-0.126L-0.014,-0.305C-0.014,-0.305 -2.093,-1.194 -4.051,0.773C-4.051,0.773 -3.577,-0.059 -3.113,-0.413L-3.292,-0.419C-3.292,-0.419 -3.046,-0.922 -2.523,-1.163C-2.523,-1.163 -2.88,-1.305 -3.206,-1.178C-3.533,-1.051 -3.947,-0.458 -3.947,-0.458L-3.959,-0.642C-3.959,-0.642 -4.203,0.155 -4.253,0.471C-4.253,0.471 -4.142,-1.307 -6.6,-2.024L-6.57,-1.756C-6.57,-1.756 -7.616,-2.237 -8.516,-1.218C-8.516,-1.218 -7.809,-1.332 -6.815,-0.828L-7.129,-0.517C-7.129,-0.517 -6.345,-0.507 -5.786,-0.358L-6.046,-0.185C-6.046,-0.185 -5.395,-0.251 -4.977,0.444C-4.977,0.444 -6.942,-0.783 -9.305,0.798L-9.141,0.881C-9.141,0.881 -9.666,1.31 -9.913,1.667L-9.764,1.681C-9.764,1.681 -10.204,2.314 -10.369,2.917C-10.369,2.917 -10.041,2.251 -9.17,1.868L-9.194,2.202C-9.194,2.202 -8.548,1.68 -7.887,1.359L-7.91,1.635C-7.91,1.635 -6.775,1.054 -6.226,0.976L-6.467,1.307C-6.467,1.307 -5.362,0.939 -4.585,1.106C-4.585,1.106 -6.554,1.847 -7.577,3.848L-7.27,3.751C-7.27,3.751 -7.974,4.73 -7.71,5.641C-7.71,5.641 -7.159,4.47 -6.529,3.806L-6.553,4.213C-6.553,4.213 -6.4,3.777 -5.958,3.159L-5.958,3.51C-5.958,3.51 -5.683,2.851 -5.345,2.411L-5.265,2.567C-5.265,2.567 -4.774,1.576 -4.214,1.301C-4.214,1.301 -3.168,1.59 -2.379,2.823L-2.42,2.208C-2.42,2.208 -1.768,2.974 -1.612,3.614L-1.185,3.639C-1.185,3.639 -0.287,4.84 -0.315,6.1C-0.315,6.1 0.308,5.353 0,3.863" style="fill:rgb(79,133,125);fill-rule:nonzero;"/>
        </g>
        <g transform="matrix(0.986115,0.166061,0.166061,-0.986115,125.203,500.182)">
            <path d="M-1.629,0.22L-1.141,0.22C-1.141,0.22 -3.158,-5.8 -1.5,-19.294L-3.113,-19.492C-3.113,-19.492 -4.503,-5.883 -1.629,0.22" style="fill:rgb(79,133,125);fill-rule:nonzero;"/>
        </g>
        <g transform="matrix(1,0,0,1,116.496,502.474)">
            <path d="M0,-2.253L-0.677,-2.309C-0.677,-2.309 1.002,-3.498 2.521,-4.003C4.041,-4.509 6.708,-3.547 7.114,-3.394C7.114,-3.394 6.294,-4.365 4.742,-4.788L5.265,-5.18C5.265,-5.18 3.763,-5.675 2.39,-5.386L2.986,-6.185C2.986,-6.185 1.675,-6.436 0.488,-5.968C0.488,-5.968 1.236,-7.517 3.508,-7.176L2.947,-7.778C2.947,-7.778 6.333,-7.497 7.551,-3.51C7.551,-3.51 7.505,-4.948 7.138,-5.744L7.38,-5.626C7.38,-5.626 7.407,-6.467 6.882,-7.155C6.882,-7.155 7.455,-7.092 7.8,-6.694C8.144,-6.296 8.277,-5.218 8.277,-5.218L8.423,-5.453C8.423,-5.453 8.187,-4.224 8.031,-3.769C8.031,-3.769 9.133,-6.208 12.902,-5.433L12.673,-5.098C12.673,-5.098 14.399,-5.002 14.879,-3.016C14.879,-3.016 14.02,-3.665 12.346,-3.694L12.544,-3.06C12.544,-3.06 11.497,-3.598 10.65,-3.793L10.873,-3.381C10.873,-3.381 10.055,-3.926 9.011,-3.297C9.011,-3.297 12.483,-3.546 14.51,0.215L14.234,0.21C14.234,0.21 14.629,1.149 14.706,1.796L14.499,1.71C14.499,1.71 14.638,2.86 14.434,3.776C14.434,3.776 14.466,2.661 13.578,1.541L13.377,2.002C13.377,2.002 12.885,0.855 12.233,-0.037L12.07,0.346C12.07,0.346 10.97,-1.224 10.296,-1.712L10.384,-1.102C10.384,-1.102 9.176,-2.368 8.026,-2.693C8.026,-2.693 10.12,-0.325 10.073,3.051L9.733,2.707C9.733,2.707 9.98,4.501 8.989,5.525C8.989,5.525 9.081,3.583 8.71,2.258L8.456,2.816C8.456,2.816 8.559,2.13 8.406,0.999L8.159,1.465C8.159,1.465 8.257,0.397 8.118,-0.426L7.902,-0.274C7.902,-0.274 7.947,-1.936 7.397,-2.694C7.397,-2.694 5.803,-3.045 3.891,-1.963L4.376,-2.75C4.376,-2.75 2.973,-2.192 2.315,-1.451L1.73,-1.718C1.73,-1.718 -0.306,-0.754 -1.153,0.939C-1.153,0.939 -1.456,-0.491 0,-2.253" style="fill:rgb(79,133,125);fill-rule:nonzero;"/>
        </g>
        <g transform="matrix(-0.932703,-0.360645,-0.360645,0.932703,317.048,520.129)">
            <path d="M-2.946,-11.121L-2.705,-11.121C-2.705,-11.121 -3.42,-7.608 -1.965,0.264L-2.755,0.38C-2.755,0.38 -4.083,-7.558 -2.946,-11.121" style="fill:rgb(79,133,125);fill-rule:nonzero;"/>
        </g>
        <g transform="matrix(1,0,0,1,326.583,509.68)">
            <path d="M0,3.282L0.298,3.433C0.298,3.433 -0.006,2.407 -0.469,1.758C-0.931,1.109 -2.347,0.876 -2.565,0.843C-2.565,0.843 -1.909,0.584 -1.129,0.787L-1.217,0.456C-1.217,0.456 -0.434,0.611 0.038,1.115L0.054,0.566C0.054,0.566 0.677,0.789 1.015,1.332C1.015,1.332 1.213,0.375 0.163,-0.058L0.591,-0.205C0.591,-0.205 -0.899,-0.962 -2.708,0.671C-2.708,0.671 -2.218,-0.022 -1.806,-0.315L-1.944,-0.321C-1.944,-0.321 -1.68,-0.74 -1.238,-0.939C-1.238,-0.939 -1.495,-1.06 -1.768,-0.955C-2.041,-0.851 -2.449,-0.358 -2.449,-0.358L-2.432,-0.512C-2.432,-0.512 -2.737,0.153 -2.821,0.417C-2.821,0.417 -2.478,-1.069 -4.288,-1.685L-4.304,-1.46C-4.304,-1.46 -5.048,-1.869 -5.897,-1.023C-5.897,-1.023 -5.329,-1.114 -4.628,-0.686L-4.918,-0.428C-4.918,-0.428 -4.309,-0.414 -3.895,-0.286L-4.123,-0.143C-4.123,-0.143 -3.606,-0.194 -3.381,0.39C-3.381,0.39 -4.733,-0.649 -6.802,0.658L-6.686,0.729C-6.686,0.729 -7.157,1.085 -7.401,1.382L-7.287,1.394C-7.287,1.394 -7.721,1.921 -7.937,2.424C-7.937,2.424 -7.585,1.869 -6.851,1.555L-6.919,1.834C-6.919,1.834 -6.34,1.402 -5.779,1.137L-5.837,1.368C-5.837,1.368 -4.869,0.889 -4.43,0.827L-4.666,1.103C-4.666,1.103 -3.753,0.802 -3.171,0.946C-3.171,0.946 -4.812,1.553 -5.897,3.221L-5.645,3.142C-5.645,3.142 -6.334,3.956 -6.259,4.72C-6.259,4.72 -5.662,3.744 -5.075,3.192L-5.152,3.533C-5.152,3.533 -4.971,3.169 -4.537,2.655L-4.588,2.949C-4.588,2.949 -4.278,2.399 -3.952,2.033L-3.912,2.165C-3.912,2.165 -3.387,1.338 -2.911,1.112C-2.911,1.112 -2.138,1.36 -1.702,2.396L-1.645,1.882C-1.645,1.882 -1.248,2.527 -1.219,3.063L-0.89,3.087C-0.89,3.087 -0.364,4.097 -0.569,5.151C-0.569,5.151 0.025,4.531 0,3.282" style="fill:rgb(79,133,125);fill-rule:nonzero;"/>
        </g>
        <g transform="matrix(-0.883195,-0.469007,-0.469007,0.883195,348.306,519.766)">
            <path d="M-2.391,-7.376L-2.227,-7.376C-2.227,-7.376 -2.714,-4.983 -1.722,0.378L-2.26,0.458C-2.26,0.458 -3.165,-4.95 -2.391,-7.376" style="fill:rgb(79,133,125);fill-rule:nonzero;"/>
        </g>
        <g transform="matrix(1,0,0,1,355.581,513.372)">
            <path d="M0,2.676L0.189,2.802C0.189,2.802 0.067,2.084 -0.193,1.607C-0.453,1.131 -1.392,0.858 -1.537,0.818C-1.537,0.818 -1.072,0.696 -0.561,0.897L-0.594,0.666C-0.594,0.666 -0.077,0.834 0.202,1.213L0.257,0.843C0.257,0.843 0.66,1.045 0.844,1.439C0.844,1.439 1.056,0.808 0.381,0.43L0.683,0.366C0.683,0.366 -0.264,-0.267 -1.62,0.69C-1.62,0.69 -1.232,0.262 -0.93,0.097L-1.023,0.081C-1.023,0.081 -0.81,-0.181 -0.495,-0.279C-0.495,-0.279 -0.659,-0.382 -0.852,-0.333C-1.045,-0.285 -1.361,0.016 -1.361,0.016L-1.337,-0.087C-1.337,-0.087 -1.597,0.338 -1.676,0.51C-1.676,0.51 -1.323,-0.468 -2.498,-1.031L-2.526,-0.88C-2.526,-0.88 -2.996,-1.218 -3.639,-0.714C-3.639,-0.714 -3.248,-0.729 -2.809,-0.383L-3.025,-0.232C-3.025,-0.232 -2.615,-0.173 -2.345,-0.053L-2.51,0.025C-2.51,0.025 -2.157,0.032 -2.052,0.446C-2.052,0.446 -2.883,-0.367 -4.388,0.35L-4.315,0.407C-4.315,0.407 -4.662,0.609 -4.851,0.79L-4.775,0.808C-4.775,0.808 -5.112,1.129 -5.298,1.452C-5.298,1.452 -5.015,1.105 -4.494,0.952L-4.562,1.135C-4.562,1.135 -4.136,0.89 -3.734,0.756L-3.792,0.908C-3.792,0.908 -3.099,0.662 -2.797,0.656L-2.979,0.824C-2.979,0.824 -2.337,0.694 -1.955,0.839C-1.955,0.839 -3.114,1.116 -3.984,2.156L-3.806,2.123C-3.806,2.123 -4.339,2.618 -4.35,3.141C-4.35,3.141 -3.867,2.529 -3.425,2.204L-3.505,2.427C-3.505,2.427 -3.353,2.196 -3.018,1.884L-3.076,2.078C-3.076,2.078 -2.822,1.732 -2.571,1.511L-2.556,1.603C-2.556,1.603 -2.133,1.086 -1.793,0.972C-1.793,0.972 -1.29,1.203 -1.079,1.939L-0.999,1.596C-0.999,1.596 -0.783,2.064 -0.807,2.429L-0.586,2.472C-0.586,2.472 -0.313,3.198 -0.536,3.894C-0.536,3.894 -0.085,3.522 0,2.676" style="fill:rgb(79,133,125);fill-rule:nonzero;"/>
        </g>
        <g transform="matrix(-0.977674,0.210127,0.210127,0.977674,296.989,518.525)">
            <path d="M2.328,-13.07L2.671,-13.07C2.671,-13.07 1.18,-9.014 2.175,0.078L1.039,0.213C1.039,0.213 0.233,-8.956 2.328,-13.07" style="fill:rgb(79,133,125);fill-rule:nonzero;"/>
        </g>
        <g transform="matrix(1,0,0,1,297.002,508.274)">
            <path d="M0,-1.942L0.474,-2.004C0.474,-2.004 -0.751,-2.742 -1.838,-3.027C-2.925,-3.311 -4.763,-2.57 -5.043,-2.452C-5.043,-2.452 -4.503,-3.134 -3.428,-3.474L-3.81,-3.718C-3.81,-3.718 -2.773,-4.104 -1.798,-3.96L-2.247,-4.475C-2.247,-4.475 -1.335,-4.69 -0.482,-4.419C-0.482,-4.419 -1.067,-5.432 -2.651,-5.122L-2.279,-5.546C-2.279,-5.546 -4.648,-5.236 -5.354,-2.515C-5.354,-2.515 -5.376,-3.482 -5.148,-4.03L-5.313,-3.941C-5.313,-3.941 -5.364,-4.505 -5.021,-4.986C-5.021,-4.986 -5.422,-4.923 -5.649,-4.644C-5.876,-4.364 -5.928,-3.635 -5.928,-3.635L-6.04,-3.788C-6.04,-3.788 -5.828,-2.971 -5.701,-2.671C-5.701,-2.671 -6.568,-4.269 -9.187,-3.614L-9.013,-3.396C-9.013,-3.396 -10.223,-3.27 -10.485,-1.919C-10.485,-1.919 -9.906,-2.386 -8.731,-2.465L-8.846,-2.033C-8.846,-2.033 -8.13,-2.431 -7.543,-2.593L-7.684,-2.308C-7.684,-2.308 -7.13,-2.704 -6.372,-2.319C-6.372,-2.319 -8.821,-2.361 -10.105,0.237L-9.911,0.223C-9.911,0.223 -10.154,0.868 -10.183,1.305L-10.04,1.24C-10.04,1.24 -10.095,2.018 -9.917,2.626C-9.917,2.626 -9.982,1.878 -9.4,1.094L-9.241,1.396C-9.241,1.396 -8.938,0.608 -8.514,-0.014L-8.385,0.237C-8.385,0.237 -7.671,-0.856 -7.215,-1.208L-7.255,-0.796C-7.255,-0.796 -6.453,-1.689 -5.657,-1.949C-5.657,-1.949 -7.04,-0.284 -6.879,1.982L-6.654,1.738C-6.654,1.738 -6.76,2.952 -6.024,3.604C-6.024,3.604 -6.162,2.303 -5.951,1.4L-5.752,1.765C-5.752,1.765 -5.851,1.309 -5.785,0.544L-5.594,0.848C-5.594,0.848 -5.703,0.134 -5.636,-0.423L-5.479,-0.329C-5.479,-0.329 -5.573,-1.443 -5.215,-1.972C-5.215,-1.972 -4.108,-2.265 -2.723,-1.607L-3.094,-2.118C-3.094,-2.118 -2.087,-1.794 -1.597,-1.32L-1.196,-1.52C-1.196,-1.52 0.271,-0.947 0.931,0.16C0.931,0.16 1.09,-0.811 0,-1.942" style="fill:rgb(79,133,125);fill-rule:nonzero;"/>
        </g>
        <g transform="matrix(-0.86261,0.50587,0.50587,0.86261,121.069,516.416)">
            <path d="M4.069,-12.962L4.411,-12.962C4.411,-12.962 3,-8.739 4.168,0.725L3.037,0.863C3.037,0.863 2.055,-8.68 4.069,-12.962" style="fill:rgb(79,133,125);fill-rule:nonzero;"/>
        </g>
        <g transform="matrix(1,0,0,1,115.813,510.264)">
            <path d="M0,-4.403L0.43,-4.608C0.43,-4.608 -0.967,-4.97 -2.089,-4.923C-3.211,-4.876 -4.72,-3.582 -4.949,-3.38C-4.949,-3.38 -4.653,-4.221 -3.741,-4.885L-4.181,-5.011C-4.181,-5.011 -3.319,-5.71 -2.347,-5.862L-2.937,-6.238C-2.937,-6.238 -2.14,-6.729 -1.245,-6.718C-1.245,-6.718 -2.121,-7.547 -3.526,-6.758L-3.308,-7.292C-3.308,-7.292 -5.458,-6.265 -5.264,-3.347C-5.264,-3.347 -5.592,-4.301 -5.55,-4.915L-5.679,-4.777C-5.679,-4.777 -5.906,-5.322 -5.733,-5.904C-5.733,-5.904 -6.093,-5.72 -6.22,-5.373C-6.346,-5.026 -6.165,-4.286 -6.165,-4.286L-6.32,-4.404C-6.32,-4.404 -5.859,-3.657 -5.643,-3.397C-5.643,-3.397 -6.973,-4.722 -9.251,-3.276L-9.018,-3.113C-9.018,-3.113 -10.126,-2.621 -9.946,-1.199C-9.946,-1.199 -9.544,-1.839 -8.454,-2.274L-8.426,-1.809C-8.426,-1.809 -7.873,-2.422 -7.367,-2.761L-7.41,-2.435C-7.41,-2.435 -7.009,-2.996 -6.168,-2.844C-6.168,-2.844 -8.507,-2.143 -8.9,0.828L-8.72,0.756C-8.72,0.756 -8.746,1.47 -8.635,1.913L-8.52,1.805C-8.52,1.805 -8.325,2.594 -7.963,3.144C-7.963,3.144 -8.262,2.421 -7.958,1.465L-7.712,1.717C-7.712,1.717 -7.675,0.843 -7.469,0.096L-7.267,0.306C-7.267,0.306 -6.937,-0.997 -6.616,-1.485L-6.522,-1.063C-6.522,-1.063 -6.045,-2.194 -5.372,-2.693C-5.372,-2.693 -6.156,-0.619 -5.284,1.583L-5.147,1.273C-5.147,1.273 -4.862,2.51 -3.957,2.935C-3.957,2.935 -4.501,1.684 -4.588,0.724L-4.283,1.026C-4.283,1.026 -4.521,0.602 -4.702,-0.178L-4.424,0.066C-4.424,0.066 -4.755,-0.61 -4.868,-1.184L-4.689,-1.138C-4.689,-1.138 -5.132,-2.217 -4.96,-2.851C-4.96,-2.851 -4.003,-3.478 -2.479,-3.244L-2.993,-3.64C-2.993,-3.64 -1.934,-3.623 -1.319,-3.301L-1.001,-3.621C-1.001,-3.621 0.574,-3.497 1.551,-2.597C1.551,-2.597 1.394,-3.61 0,-4.403" style="fill:rgb(79,133,125);fill-rule:nonzero;"/>
        </g>
        <g transform="matrix(1,0,0,1,440.889,523.591)">
            <path d="M0,37.132C0,37.132 3.58,25.154 3.58,22.758C3.58,20.363 5.37,18.766 6.712,17.568C8.055,16.37 14.767,13.176 14.767,11.978C14.767,10.78 18.346,4.791 19.241,3.593C20.136,2.395 23.268,0.799 25.058,0.399C26.848,0 29.085,4.791 30.428,4.791C31.77,4.791 34.455,9.582 34.455,9.582C34.455,9.582 36.692,18.366 38.035,20.363C39.377,22.359 43.404,37.132 43.404,37.132L0,37.132Z" style="fill:rgb(173,103,78);fill-rule:nonzero;"/>
        </g>
        <g opacity="0.28">
            <g transform="matrix(1,0,0,1,447.601,559.827)">
                <path d="M0,-18.668C-1.342,-17.47 -3.132,-15.873 -3.132,-13.477C-3.132,-11.082 -6.712,0.896 -6.712,0.896L-1.83,0.896C-1.839,0.674 -1.866,0.48 -1.918,0.34C-2.187,-0.38 -1.649,-2.898 -2.187,-4.576C-2.724,-6.255 -1.918,-6.735 -2.052,-7.694C-2.187,-8.654 -1.38,-9.253 -0.977,-9.613C-0.574,-9.973 -0.171,-9.133 0.501,-8.773C1.173,-8.414 2.786,-8.294 2.651,-8.773C2.517,-9.253 2.517,-11.172 3.189,-11.531C3.861,-11.891 3.995,-13.57 3.458,-14.409C2.92,-15.249 3.592,-16.208 3.995,-17.047C4.398,-17.887 3.861,-18.846 3.323,-18.726C2.786,-18.606 2.114,-17.887 1.576,-18.247C1.259,-18.459 1.226,-18.965 1.304,-19.564C0.727,-19.21 0.261,-18.901 0,-18.668" style="fill:rgb(41,63,92);fill-rule:nonzero;"/>
            </g>
            <g transform="matrix(1,0,0,1,461.944,536.304)">
                <path d="M0,-6.955C-0.301,-6.687 -0.403,-5.516 0.134,-5.276C0.672,-5.036 0.941,-3.717 1.075,-3.118C1.21,-2.518 2.15,-1.799 2.15,-1.799C2.15,-1.799 2.15,0.36 2.553,0.36C2.956,0.36 3.225,-1.679 3.091,-2.278C2.956,-2.878 2.285,-3.717 2.15,-4.077C2.016,-4.437 2.285,-5.396 1.881,-6.236C1.478,-7.075 0.403,-7.315 0,-6.955" style="fill:rgb(41,63,92);fill-rule:nonzero;"/>
            </g>
            <g transform="matrix(1,0,0,1,460.869,549.015)">
                <path d="M0,-11.032C-0.403,-10.432 -1.21,-9.593 -0.403,-8.993C0.403,-8.394 0.806,-7.075 0.806,-6.355C0.806,-5.636 0,-3.238 0,-3.238C0,-3.238 1.344,-0.959 1.613,-0.48C1.881,0 2.553,-1.319 2.553,-1.919C2.553,-2.518 2.15,-3.717 2.285,-4.317C2.419,-4.916 3.494,-6.835 3.225,-7.554C2.957,-8.274 1.747,-9.593 1.478,-10.312C1.21,-11.032 0,-11.032 0,-11.032" style="fill:rgb(41,63,92);fill-rule:nonzero;"/>
            </g>
            <g transform="matrix(1,0,0,1,454.687,553.932)">
                <path d="M0,-0.6C-0.608,-0.193 -1.209,0.959 -0.403,1.199C0.403,1.438 1.613,1.438 2.285,1.918C2.957,2.398 4.972,2.398 4.569,1.678C4.166,0.959 5.107,-0.36 4.435,-0.84C3.763,-1.32 3.36,-2.998 3.091,-2.159C2.822,-1.32 2.822,0.119 2.15,-0.12C1.478,-0.36 0.538,-0.96 0,-0.6" style="fill:rgb(41,63,92);fill-rule:nonzero;"/>
            </g>
        </g>
        <g transform="matrix(1,0,0,1,493.423,536.882)">
            <path d="M0,23.272C0,23.272 9.051,24.844 10.803,24.844C12.555,24.844 16.642,24.53 16.642,24.53L20.146,24.215L30.657,23.901C30.657,23.901 28.321,11.636 27.737,8.806C27.153,5.975 25.693,2.201 24.817,1.572C23.941,0.944 19.562,-1.572 18.102,-1.572C16.642,-1.572 15.766,0.944 14.014,1.572C12.263,2.201 9.343,4.403 9.635,5.661C9.927,6.919 7.299,10.378 5.839,10.378C4.38,10.378 2.92,14.466 2.92,15.41C2.92,16.353 0,23.272 0,23.272" style="fill:rgb(173,103,78);fill-rule:nonzero;"/>
        </g>
        <g opacity="0.28">
            <g transform="matrix(1,0,0,1,497.467,548.967)">
                <path d="M0,9.965C-0.088,9.21 -0.175,7.604 0,7.132C0.175,6.659 0.526,6.376 1.052,6.187C1.578,5.998 2.806,4.581 2.718,3.92C2.631,3.259 2.543,2.787 2.718,2.22C2.894,1.654 3.508,0.992 3.683,0.709C3.858,0.426 4.998,-0.897 4.472,-1.086C3.946,-1.275 3.683,-1.086 3.332,-0.613C2.981,-0.141 2.28,0.992 2.104,1.465C1.929,1.937 0.965,3.542 0.614,2.976C0.263,2.409 0.526,1.465 0.877,0.898C1.228,0.331 0.789,-0.708 1.315,-0.991C1.841,-1.275 2.28,-1.463 2.367,-1.841C2.368,-1.844 2.371,-1.848 2.371,-1.851C2.167,-1.76 1.973,-1.707 1.796,-1.707C0.336,-1.707 -1.124,2.381 -1.124,3.325C-1.124,4.268 -4.044,11.187 -4.044,11.187C-4.044,11.187 -2.347,11.482 -0.282,11.816C-0.21,11.302 0.065,10.529 0,9.965" style="fill:rgb(41,63,92);fill-rule:nonzero;"/>
            </g>
            <g transform="matrix(1,0,0,1,513.952,553.08)">
                <path d="M0,6.608C-0.438,6.23 0,5.852 0.351,5.758C0.701,5.663 1.14,4.908 1.315,4.53C1.491,4.152 0.701,3.775 0,3.775C-0.701,3.775 -1.14,2.924 -1.841,2.358C-2.543,1.791 -1.754,1.224 -1.228,1.035C-0.701,0.846 0.351,1.697 0.877,2.263C1.403,2.83 1.666,3.113 2.28,3.302C2.894,3.491 2.718,2.547 2.455,2.074C2.192,1.602 1.491,0.658 1.403,-0.004C1.315,-0.665 1.052,-1.137 0.701,-1.42C0.351,-1.704 0.263,-1.043 0.175,-0.476C0.088,0.091 -0.438,-0.476 -0.965,-0.759C-1.491,-1.043 -1.841,-1.704 -2.28,-1.704C-2.718,-1.704 -2.631,-0.948 -2.718,-0.381C-2.806,0.185 -3.946,-0.57 -4.56,-0.759C-5.174,-0.948 -5.437,-0.381 -5.349,0.091C-5.261,0.563 -4.998,0.941 -4.472,1.508C-3.946,2.074 -4.034,3.869 -4.121,4.719C-4.209,5.569 -3.858,7.175 -3.683,8.119C-3.67,8.19 -3.666,8.253 -3.666,8.312L-0.383,8.018L0.424,7.993C0.442,7.866 0.473,7.747 0.526,7.647C0.877,6.986 0.438,6.986 0,6.608" style="fill:rgb(41,63,92);fill-rule:nonzero;"/>
            </g>
            <g transform="matrix(1,0,0,1,512.988,538.059)">
                <path d="M0,9.35C-0.526,9.067 -1.929,8.405 -1.666,8.122C-1.403,7.839 -0.263,6.611 -0.263,6.139C-0.263,5.666 -0.789,4.627 -0.789,4.061C-0.789,3.494 -0.877,2.077 -1.14,2.361C-1.403,2.644 -1.841,3.777 -1.666,4.344C-1.491,4.911 -1.315,5.666 -1.841,6.139C-2.367,6.611 -2.455,8.028 -3.069,7.178C-3.683,6.328 -4.121,4.911 -3.946,4.533C-3.771,4.155 -3.157,3.588 -3.069,3.116C-2.981,2.644 -2.894,2.172 -2.718,1.605C-2.543,1.038 -2.367,0.094 -2.718,0.377C-3.069,0.661 -3.332,1.511 -3.595,1.888C-3.858,2.266 -4.647,3.588 -5.086,3.305C-5.524,3.022 -5.875,2.455 -5.437,2.172C-4.998,1.888 -4.209,1.416 -3.946,0.661C-3.732,0.048 -3.635,-0.746 -3.559,-1.228C-3.941,-0.791 -4.344,-0.347 -4.806,-0.012C-5.105,0.404 -5.423,0.779 -5.7,0.944C-6.489,1.416 -6.752,1.794 -7.103,2.361C-7.453,2.927 -8.067,3.305 -7.629,3.588C-7.19,3.872 -6.576,4.439 -6.576,4.816C-6.576,5.194 -6.401,6.611 -6.664,6.989C-6.927,7.366 -6.489,7.461 -6.226,8.311C-5.963,9.161 -6.313,10.011 -5.612,10.294C-4.91,10.578 -4.472,9.444 -4.034,9.35C-3.595,9.255 -2.192,9.728 -1.666,9.917C-1.14,10.106 0.526,9.633 0,9.35" style="fill:rgb(41,63,92);fill-rule:nonzero;"/>
            </g>
            <g transform="matrix(1,0,0,1,517.723,544.576)">
                <path d="M0,-5.573C-0.351,-5.479 -0.702,-4.912 -0.526,-4.534C-0.351,-4.156 -0.088,-3.212 -0.088,-2.834C-0.088,-2.456 -0.175,-1.889 -0.175,-1.512C-0.175,-1.134 -0.175,-0.378 0.088,-0.189C0.351,0 1.403,-0.851 1.052,-1.417C0.701,-1.984 0.526,-2.173 0.701,-2.834C0.877,-3.495 0,-5.573 0,-5.573" style="fill:rgb(41,63,92);fill-rule:nonzero;"/>
            </g>
            <g transform="matrix(1,0,0,1,515.53,548.825)">
                <path d="M0,-7.083C-0.056,-6.605 0.263,-5.855 0.175,-5.383C0.088,-4.911 -0.263,-4.438 -0.263,-3.966C-0.263,-3.494 -0.088,-3.211 0.088,-2.455C0.263,-1.699 0.701,0.756 0.789,0.284C0.877,-0.188 1.228,-0.66 0.965,-1.416C0.701,-2.172 0.701,-3.022 0.789,-3.872C0.877,-4.722 1.14,-5.95 0.877,-6.611C0.614,-7.272 0.088,-7.839 0,-7.083" style="fill:rgb(41,63,92);fill-rule:nonzero;"/>
            </g>
        </g>
        <g transform="matrix(1,0,0,1,78.1717,522.874)">
            <path d="M0,42.309C0,42.309 -1.268,31.43 0,26.594C1.268,21.759 8.875,18.133 8.875,18.133L11.411,8.462C11.411,8.462 21.555,1.209 25.358,1.209C29.162,1.209 40.573,0 40.573,0L256.118,0C256.118,0 275.136,1.209 278.94,2.418C282.744,3.627 284.012,8.462 284.012,8.462C284.012,8.462 292.887,13.297 296.691,14.506C300.495,15.715 311.906,22.968 311.906,22.968L323.317,41.1L0,42.309Z" style="fill:rgb(173,103,78);fill-rule:nonzero;"/>
        </g>
        <g opacity="0.28">
            <g transform="matrix(1,0,0,1,109.846,549.338)">
                <path d="M0,-7.802C-0.94,-7.67 1.764,-6.415 1.764,-5.548C1.764,-4.681 1.587,-2.427 1.764,-1.733C1.94,-1.04 2.646,0.347 2.646,0.347C2.646,0.347 3.704,-3.12 3.351,-3.987C2.998,-4.854 3.528,-6.068 2.998,-7.109C2.469,-8.149 1.235,-7.975 0,-7.802" style="fill:rgb(41,63,92);fill-rule:nonzero;"/>
            </g>
        </g>
        <g opacity="0.28">
            <g transform="matrix(1,0,0,1,191.095,558.226)">
                <path d="M0,-22.845C2.362,-21.259 3.15,-19.989 5.906,-20.307C8.662,-20.624 10.237,-20.307 12.206,-19.672C14.175,-19.037 16.144,-18.72 16.537,-16.499C16.931,-14.278 18.506,-13.009 21.262,-12.374C24.019,-11.739 25.2,-10.788 27.168,-10.47C29.137,-10.153 30.318,-9.201 31.5,-7.932C32.681,-6.663 32.287,-6.345 33.075,-4.759C33.862,-3.172 36.618,1.587 36.618,1.587L24.019,1.587C24.019,1.587 29.137,-7.614 27.562,-8.249C25.987,-8.884 23.231,-8.249 20.475,-9.201C17.719,-10.153 15.356,-11.422 14.569,-12.374C13.781,-13.326 14.175,-13.643 12.206,-14.912C10.237,-16.182 9.844,-16.816 8.269,-17.134C6.694,-17.451 3.938,-18.086 2.362,-18.72C0.787,-19.355 -3.15,-22.528 -5.119,-23.48C-7.087,-24.432 0,-22.845 0,-22.845" style="fill:rgb(41,63,92);fill-rule:nonzero;"/>
            </g>
        </g>
        <g opacity="0.28">
            <g transform="matrix(1,0,0,1,100.537,557.656)">
                <path d="M0,-22.845C-0.904,-21.259 -1.205,-19.989 -2.26,-20.307C-3.315,-20.624 -3.917,-20.307 -4.671,-19.672C-5.424,-19.037 -6.177,-18.72 -6.328,-16.499C-6.479,-14.278 -7.081,-13.009 -8.136,-12.374C-9.191,-11.739 -9.643,-10.787 -10.396,-10.47C-11.15,-10.153 -11.602,-9.201 -12.054,-7.932C-12.506,-6.663 -12.355,-6.345 -12.656,-4.759C-12.958,-3.172 -14.012,1.587 -14.012,1.587L-9.191,1.587C-9.191,1.587 -11.15,-7.614 -10.547,-8.249C-9.944,-8.884 -8.89,-8.249 -7.835,-9.201C-6.78,-10.153 -5.876,-11.422 -5.575,-12.374C-5.273,-13.326 -5.424,-13.643 -4.671,-14.912C-3.917,-16.182 -3.767,-16.816 -3.164,-17.134C-2.561,-17.451 -1.507,-18.085 -0.904,-18.72C-0.301,-19.355 1.205,-22.528 1.959,-23.48C2.712,-24.432 0,-22.845 0,-22.845" style="fill:rgb(41,63,92);fill-rule:nonzero;"/>
            </g>
        </g>
        <g opacity="0.28">
            <g transform="matrix(1,0,0,1,211.196,530.713)">
                <path d="M0,-2.749C-0.463,-1.324 3.569,-1.363 2.78,0.457C2.317,1.526 2.78,4.376 4.633,4.732C6.487,5.089 10.193,4.02 10.193,4.02L10.193,0.101C10.193,0.101 9.266,-4.174 6.95,-4.174C4.633,-4.174 4.633,-4.53 3.243,-5.955C2.331,-6.891 -0.371,-7.517 -2.125,-7.838L-3.098,-7.838C-1.078,-6.814 0.422,-4.046 0,-2.749" style="fill:rgb(41,63,92);fill-rule:nonzero;"/>
            </g>
        </g>
        <g opacity="0.28">
            <g transform="matrix(1,0,0,1,267.998,546.122)">
                <path d="M0,12.543C0,12.543 -1.003,7.412 -3.345,6.271C-5.686,5.131 -6.355,4.561 -6.689,3.421C-7.024,2.28 -7.693,-0.285 -7.693,-0.285C-7.693,-0.285 -5.351,3.706 -4.014,4.276C-2.676,4.846 -1.003,5.131 0,6.271C1.003,7.412 1.338,9.122 2.341,10.262C3.344,11.403 4.013,12.828 4.013,12.828L0,12.543Z" style="fill:rgb(41,63,92);fill-rule:nonzero;"/>
            </g>
        </g>
        <g opacity="0.28">
            <g transform="matrix(1,0,0,1,149.659,535.61)">
                <path d="M0,-10.945C0,-10.945 -0.582,-6.554 -3.237,-5.211C-5.892,-3.867 -6.621,-3.282 -6.883,-2.287C-7.145,-1.292 -7.636,0.932 -7.636,0.932C-7.636,0.932 -5.322,-2.754 -3.795,-3.455C-2.268,-4.156 -0.309,-4.681 0.751,-5.792C1.811,-6.903 2.005,-8.367 3.065,-9.478C4.124,-10.589 4.751,-11.877 4.751,-11.877L0,-10.945Z" style="fill:rgb(41,63,92);fill-rule:nonzero;"/>
            </g>
        </g>
        <g opacity="0.28">
            <g transform="matrix(1,0,0,1,264.565,535.89)">
                <path d="M0,-13.015C0.327,-11.962 0.985,-9.948 1.469,-9.122C2.138,-7.982 5.148,-6.272 5.148,-6.272L11.168,0C11.168,0 11.168,-2.281 10.499,-3.136C9.83,-3.991 8.493,-5.416 7.489,-6.272C6.486,-7.127 5.148,-8.552 4.145,-9.122C3.432,-9.527 3.395,-11.368 3.553,-13.015L0,-13.015Z" style="fill:rgb(41,63,92);fill-rule:nonzero;"/>
            </g>
        </g>
        <g opacity="0.28">
            <g transform="matrix(1,0,0,1,297.352,559.081)">
                <path d="M0,-13.113C1.003,-11.117 3.345,-8.552 4.682,-7.697C6.02,-6.841 6.02,-6.841 7.692,-5.701C9.365,-4.561 11.037,-3.135 11.037,-3.135L16.054,0C16.054,0 7.692,-0.285 6.689,-0.57C5.686,-0.855 8.696,-2.85 7.358,-3.421C6.02,-3.991 3.345,-6.271 3.345,-6.271C3.345,-6.271 -0.334,-9.407 -0.669,-10.262C-1.003,-11.117 0,-13.113 0,-13.113" style="fill:rgb(41,63,92);fill-rule:nonzero;"/>
            </g>
        </g>
        <g opacity="0.28">
            <g transform="matrix(1,0,0,1,295.521,535.023)">
                <path d="M0,-5.986C1.672,-5.416 3.01,-5.701 4.013,-4.561C5.017,-3.42 6.355,-2.85 7.358,-1.425C8.361,0 10.034,0.571 10.034,1.711C10.034,2.851 10.368,0.856 10.703,-0.285C11.037,-1.425 12.375,-1.71 12.04,-3.135C11.706,-4.561 12.375,-5.701 11.372,-6.556C10.368,-7.411 8.027,-8.837 7.024,-8.837C6.02,-8.837 0,-5.986 0,-5.986" style="fill:rgb(41,63,92);fill-rule:nonzero;"/>
            </g>
        </g>
        <g opacity="0.28">
            <g transform="matrix(1,0,0,1,114.399,531.469)">
                <path d="M0,-2.071C2.472,-1.874 4.45,-1.972 5.933,-1.578C7.417,-1.183 9.395,-0.986 10.878,-0.493C12.361,0.001 14.833,0.198 14.833,0.592C14.833,0.987 15.328,0.297 15.822,-0.098C16.317,-0.493 18.295,-0.591 17.8,-1.085C17.306,-1.578 18.295,-1.972 16.811,-2.268C15.328,-2.564 11.867,-3.058 10.383,-3.058C8.9,-3.058 0,-2.071 0,-2.071" style="fill:rgb(41,63,92);fill-rule:nonzero;"/>
            </g>
        </g>
        <g opacity="0.28">
            <g transform="matrix(1,0,0,1,309.809,544.048)">
                <path d="M0,-2.369C-1.076,-2.833 1.338,-1.799 3.01,-1.799C4.682,-1.799 6.355,-1.799 7.358,-0.659C8.361,0.482 10.703,1.907 10.703,1.907C10.703,1.907 10.702,0.837 10.536,0.269C10.369,-0.299 10.036,-0.725 9.702,-1.577C9.369,-2.43 9.036,-2.288 8.869,-3.282C8.702,-4.276 8.369,-3.992 7.369,-3.992C6.369,-3.992 6.203,-2.714 4.703,-3.282C3.203,-3.85 1.13,-1.882 0,-2.369" style="fill:rgb(41,63,92);fill-rule:nonzero;"/>
            </g>
        </g>
        <g opacity="0.28">
            <g transform="matrix(1,0,0,1,243.746,537.785)">
                <path d="M0,8.421C-2.364,7.371 -4.729,6.321 -5.645,3.392C-6.561,0.463 -9.243,-3.881 -9.243,-3.881C-9.243,-3.881 -9.714,-1.724 -9.729,-0.474C-9.743,0.776 -9.46,1.844 -9.364,3.772C-9.268,5.699 -8.734,5.622 -8.937,7.731C-9.139,9.841 -8.542,9.477 -7.129,10.105C-5.715,10.733 -4.917,8.261 -3.046,10.348C-1.296,12.302 2.118,10.136 3.685,11.231C2.846,10.408 1.329,9.012 0,8.421" style="fill:rgb(41,63,92);fill-rule:nonzero;"/>
            </g>
        </g>
        <g opacity="0.28">
            <g transform="matrix(1,0,0,1,247.75,549.721)">
                <path d="M0,-0.476C-0.089,-0.584 -0.212,-0.63 -0.319,-0.705C0.334,-0.064 0.577,0.229 0,-0.476" style="fill:rgb(41,63,92);fill-rule:nonzero;"/>
            </g>
        </g>
        <g opacity="0.28">
            <g transform="matrix(1,0,0,1,331.875,523.726)">
                <path d="M0,22.979C0,22.431 1.5,20.419 1.5,20.419C4.313,16.58 5.625,16.031 6.001,15.483C6.376,14.934 5.063,12.74 5.813,11.46C6.563,10.181 8.251,8.901 8.438,7.987C8.626,7.072 9.938,4.513 9.938,3.233C9.938,2.22 10.627,0.756 10.363,-0.267C9.054,-0.373 7.82,-0.468 6.728,-0.549C7.186,1.016 7.353,3.148 6.376,3.964C5.063,5.061 4.125,6.707 3.188,7.621C2.25,8.535 0.187,11.095 1.125,11.826C2.063,12.558 1.875,14.203 2.063,15.3C2.25,16.397 1.313,17.494 1.125,18.225C0.938,18.957 -0.938,20.785 -1.125,21.699C-1.313,22.613 0,23.528 0,22.979" style="fill:rgb(41,63,92);fill-rule:nonzero;"/>
            </g>
        </g>
        <g opacity="0.28">
            <g transform="matrix(1,0,0,1,351.116,546.415)">
                <path d="M0,-18.814C0.758,-17.51 -0.253,-15.834 1.263,-14.902C2.778,-13.971 4.294,-13.598 5.556,-12.853C6.819,-12.108 8.587,-10.99 10.102,-9.686C11.618,-8.383 14.396,-6.52 14.901,-5.216C15.406,-3.912 19.447,0 19.447,0C19.447,0 19.447,-3.726 18.69,-4.471C17.932,-5.216 16.922,-7.824 16.417,-8.755C15.911,-9.686 12.628,-10.804 11.618,-11.735C10.608,-12.667 7.072,-14.53 6.567,-15.647C6.061,-16.765 4.799,-18.069 4.041,-18.441C3.283,-18.814 0,-18.814 0,-18.814" style="fill:rgb(41,63,92);fill-rule:nonzero;"/>
            </g>
        </g>
        <g opacity="0.28">
            <g transform="matrix(1,0,0,1,129.978,542.319)">
                <path d="M0,10.346L1.243,10.346L1.243,4.288C1.243,2.703 0,0.56 -2.26,0.28C-4.52,0 -6.668,0.746 -6.894,2.517C-7.12,4.288 -7.12,4.847 -7.12,4.847C-7.12,4.847 -6.894,2.517 -5.764,1.865C-4.633,1.212 -1.13,1.026 -0.452,2.051C0.226,3.076 0,7.643 0,8.202L0,10.346Z" style="fill:rgb(41,63,92);fill-rule:nonzero;"/>
            </g>
        </g>
        <g opacity="0.28">
            <g transform="matrix(1,0,0,1,142.868,542.711)">
                <path d="M0,10.346L1.243,10.346L1.243,4.288C1.243,2.703 0,0.56 -2.26,0.28C-4.521,0 -6.668,0.746 -6.894,2.517C-7.12,4.288 -7.12,4.847 -7.12,4.847C-7.12,4.847 -6.894,2.517 -5.764,1.864C-4.633,1.212 -1.13,1.026 -0.452,2.051C0.226,3.076 0,7.643 0,8.202L0,10.346Z" style="fill:rgb(41,63,92);fill-rule:nonzero;"/>
            </g>
        </g>
        <g opacity="0.28">
            <g transform="matrix(1,0,0,1,156.517,542.457)">
                <path d="M0,10.346L1.243,10.346L1.243,4.288C1.243,2.703 0,0.56 -2.26,0.28C-4.52,0 -6.668,0.746 -6.894,2.517C-7.12,4.288 -7.12,4.847 -7.12,4.847C-7.12,4.847 -6.894,2.517 -5.764,1.864C-4.633,1.212 -1.13,1.026 -0.452,2.051C0.226,3.076 0,7.643 0,8.202L0,10.346Z" style="fill:rgb(41,63,92);fill-rule:nonzero;"/>
            </g>
        </g>
        <g opacity="0.28">
            <g transform="matrix(1,0,0,1,171.5,542.457)">
                <path d="M0,10.346L1.243,10.346L1.243,4.288C1.243,2.703 0,0.56 -2.26,0.28C-4.521,0 -6.668,0.746 -6.894,2.517C-7.12,4.288 -7.12,4.847 -7.12,4.847C-7.12,4.847 -6.894,2.517 -5.764,1.864C-4.633,1.212 -1.13,1.026 -0.452,2.051C0.226,3.076 0,7.643 0,8.202L0,10.346Z" style="fill:rgb(41,63,92);fill-rule:nonzero;"/>
            </g>
        </g>
        <g opacity="0.28">
            <g transform="matrix(1,0,0,1,186.483,542.457)">
                <path d="M0,10.346L1.243,10.346L1.243,4.288C1.243,2.703 0,0.56 -2.26,0.28C-4.52,0 -6.668,0.746 -6.894,2.517C-7.12,4.288 -7.12,4.847 -7.12,4.847C-7.12,4.847 -6.894,2.517 -5.764,1.864C-4.633,1.212 -1.13,1.026 -0.452,2.051C0.226,3.076 0,7.643 0,8.202L0,10.346Z" style="fill:rgb(41,63,92);fill-rule:nonzero;"/>
            </g>
        </g>
        <g transform="matrix(1,0,0,1,73.5776,556.462)">
            <path d="M0,3.572C0,3.572 -0.812,1.345 2.716,0.75C6.245,0.154 37.047,1.191 42.927,0.595C48.807,0 53.512,0 57.628,-0.595C61.744,-1.191 82.914,0.595 88.794,0C94.675,-0.595 107.023,-0.595 110.552,-0.595C114.08,-0.595 158.183,0 165.24,-0.595C172.296,-1.191 199.934,-2.381 204.05,-1.191C208.167,0 238.157,0.595 244.625,0C251.094,-0.595 272.263,-1.786 275.791,-1.786C279.32,-1.786 289.316,0 292.844,-0.595C296.373,-1.191 301.665,-1.191 305.193,-1.191L319.306,-1.191C323.423,-1.191 326.951,0 330.479,0C334.007,0 340.476,1.786 340.476,1.786C340.476,1.786 322.835,4.167 318.718,4.167C314.602,4.167 -1.176,5.953 -1.176,5.953L0,3.572Z" style="fill:rgb(255,252,196);fill-rule:nonzero;"/>
        </g>
        <g transform="matrix(1,0,0,1,435.277,554.529)">
            <path d="M0,4.848L54.207,4.848C54.207,4.848 53.325,2.204 49.799,1.763C46.274,1.322 41.426,2.204 38.782,2.204C36.138,2.204 25.561,1.763 22.917,1.763C20.272,1.763 16.747,0 14.543,0.441C12.34,0.882 7.933,1.322 5.729,1.322C3.526,1.322 0,4.848 0,4.848" style="fill:rgb(255,252,196);fill-rule:nonzero;"/>
        </g>
        <g transform="matrix(1,0,0,1,493.423,555.411)">
            <path d="M0,4.743L37.046,3.085C37.046,3.085 35.283,1.322 32.639,1.322C29.995,1.322 24.877,0.62 22.809,0.971C20.74,1.322 12.807,0.881 10.604,0.881C8.4,0.881 3.552,0 1.349,0.441C-0.855,0.881 -3.94,3.966 -3.94,3.966L0,4.743Z" style="fill:rgb(255,252,196);fill-rule:nonzero;"/>
        </g>
        <g opacity="0.4">
            <g transform="matrix(1,0,0,1,542.045,648.001)">
                <path d="M0,-90.1L-434.401,-90.1C-466.057,-90.1 -508.266,-88.46 -500.352,-78.619C-492.438,-68.778 -471.302,-73.924 -455.473,-75.018C-439.645,-76.111 -423.474,-67.55 -430.683,-55.193C-439.134,-40.705 -409.78,0 -334.154,-10.825C-273.714,-19.477 -283.152,-50.189 -250.616,-51.283C-218.08,-52.376 -192.578,-26.133 -149.49,-25.04C-106.402,-23.946 -103.764,-65.497 -87.056,-67.684C-70.348,-69.871 -15.667,-56.85 5.276,-69.871C21.104,-79.712 7.035,-90.1 0,-90.1" style="fill:rgb(63,98,143);fill-rule:nonzero;"/>
            </g>
        </g>
        <g transform="matrix(1,0,0,1,535.517,623.555)">
            <path d="M0,-65.654L-418.032,-65.654C-448.496,-65.654 -489.115,-64.459 -481.499,-57.288C-473.883,-50.117 -453.543,-53.867 -438.311,-54.664C-423.079,-55.461 -411.853,-47.309 -415.352,-36.494C-420.266,-21.305 -394.34,0 -321.563,-7.888C-263.401,-14.192 -272.483,-36.572 -241.173,-37.369C-209.862,-38.166 -185.322,-19.043 -143.857,-18.246C-102.393,-17.45 -99.854,-47.727 -83.776,-49.32C-67.697,-50.914 -15.076,-41.426 5.077,-50.914C20.309,-58.085 6.77,-65.654 0,-65.654" style="fill:rgb(63,98,143);fill-rule:nonzero;"/>
        </g>
        <g opacity="0.4">
            <g transform="matrix(1,0,0,1,526.831,600.187)">
                <path d="M0,-42.286L-399.199,-42.286C-426.609,-42.286 -460.872,-42.318 -454.019,-37.696C-447.167,-33.074 -436.007,-35.842 -422.302,-36.356C-408.597,-36.869 -392.818,-29.208 -395.945,-21.614C-399.749,-12.374 -377.882,0.032 -312.401,-5.052C-260.068,-9.115 -268.24,-23.541 -240.068,-24.054C-211.897,-24.568 -189.817,-12.242 -152.509,-11.728C-115.2,-11.215 -108.974,-29.688 -85.974,-33.688C-71.685,-36.173 -13.565,-26.669 4.568,-32.785C18.273,-37.407 6.091,-42.286 0,-42.286" style="fill:rgb(41,63,92);fill-rule:nonzero;"/>
            </g>
        </g>
    </g>
</svg>
