<?xml version="1.0" encoding="UTF-8" standalone="no"?>
<!DOCTYPE svg PUBLIC "-//W3C//DTD SVG 1.1//EN" "http://www.w3.org/Graphics/SVG/1.1/DTD/svg11.dtd">
<svg width="100%" height="100%" viewBox="0 0 563 577" version="1.1" xmlns="http://www.w3.org/2000/svg" xmlns:xlink="http://www.w3.org/1999/xlink" xml:space="preserve" xmlns:serif="http://www.serif.com/" style="fill-rule:evenodd;clip-rule:evenodd;stroke-linejoin:round;stroke-miterlimit:2;">
    <g transform="matrix(1,0,0,1,-839.342,-533.142)">
        <g transform="matrix(4.16667,0,0,4.16667,0,0)">
            <path d="M296.542,242.685C298.987,241.093 301.015,239.959 302.791,237.575C303.615,236.469 303.132,234.868 302.322,233.94C291.599,221.656 270.854,237.335 267.051,249.063C266.805,249.823 266.868,250.487 267.115,251.041C267.047,251.784 267.24,252.57 267.823,253.282C271.574,257.862 279.94,258.641 285.38,259.007C290.425,259.347 299.017,259.445 301.579,253.945C302.416,252.148 301.756,250.174 299.786,249.538C296.17,248.37 291.386,246.043 296.542,242.685Z" style="fill:rgb(192,223,196);fill-rule:nonzero;"/>
        </g>
        <g transform="matrix(4.16667,0,0,4.16667,0,0)">
            <path d="M320.285,165.459C315.193,157.34 307.846,151.943 299.03,148.378C289.422,144.492 278.43,141.582 268.072,140.859C257.894,140.147 248.257,142.901 239.445,147.904C230.663,152.89 221.665,159.127 215.427,167.173C208.022,176.723 205.13,188.907 203.922,200.725C202.652,213.159 205.659,223.146 212.294,233.6C213.143,234.937 214.518,235.204 215.702,234.841C216.285,235.157 217.009,235.257 217.85,234.978C220.695,234.036 222.855,232.47 224.99,230.393C225.944,229.464 226.77,228.42 227.697,227.474C229.541,225.589 229.14,226.304 231.324,226.135C235.962,225.775 237.632,220.929 239.15,217.161C241.932,210.251 245.022,204.758 249.808,198.92C254.985,192.607 260.599,185.818 267.813,181.773C270.018,180.537 272.508,179.582 274.039,177.459C275.854,174.944 275.968,171.071 279.647,170.306C283.554,169.493 286.829,174 287.101,177.471C287.285,179.818 286.29,181.796 284.369,183.154C281.573,185.129 277.924,184.039 275.144,186.286C273.172,187.88 272.402,190.135 271.387,192.374C269.442,196.664 266.814,200.656 264.536,204.776C261.453,210.35 256.898,216.544 257.334,223.233C257.471,225.343 258.094,227.233 259.992,228.348C260.905,228.884 261.933,228.987 262.925,229.284C265.656,230.103 267.828,231.368 269.988,233.221C271.008,234.096 272.411,234.4 273.623,233.69C278.672,230.729 283.989,228.215 289.885,227.597C295.198,227.04 300.364,228.352 305.653,228.448C313.435,228.59 319.964,225.604 323.762,218.595C332.322,202.799 329.589,180.296 320.285,165.459Z" style="fill:rgb(252,223,108);fill-rule:nonzero;"/>
        </g>
        <g transform="matrix(4.16667,0,0,4.16667,0,0)">
            <path d="M273.163,178.025C270.815,177.914 269.767,179.577 268.689,181.203C270.181,180.144 271.672,179.084 273.163,178.025ZM286.361,176.535C286.286,175.482 286.485,174.489 286.096,173.861C285.675,173.184 284.704,172.848 283.802,172.25C283.691,173.61 283.615,174.53 283.545,175.382C284.351,175.712 285.108,176.022 286.361,176.535ZM304.936,231.675C306.259,234.837 306.054,237.978 305.494,241.131C305.344,241.98 305.181,242.891 306.227,243.193C307.23,243.483 307.823,242.675 308.037,241.894C308.468,240.319 308.914,238.696 308.963,237.081C309.024,235.039 307.111,231.7 304.936,231.675ZM294.028,230.529C296.887,234.115 296.844,235.251 296.245,239.294C296.068,240.496 295.733,241.676 295.58,242.879C295.536,243.226 295.828,243.908 296.045,243.943C296.946,244.087 297.848,243.883 298.079,242.824C298.72,239.88 299.127,236.917 298.524,233.905C297.95,231.04 297.071,230.348 294.028,230.529ZM277.478,177.523C279.457,177.507 281.948,175.45 281.97,173.813C281.991,172.263 280.138,170.811 278.125,170.799C276.121,170.787 274.337,172.361 274.306,174.167C274.28,175.742 275.974,177.535 277.478,177.523ZM299.369,230.848C300.801,233.903 300.671,237.121 300.271,240.305C300.117,241.534 300.391,242.35 301.203,243.152C302.151,244.088 303.207,243.911 303.379,242.612C303.712,240.087 304.209,237.498 303.96,235.003C303.614,231.543 302.478,230.506 299.369,230.848ZM282.445,176.915C282.489,177.011 282.533,177.108 282.576,177.205C281.234,177.859 279.941,178.663 278.536,179.124C277.143,179.58 276.641,180.146 277.088,181.556C277.656,183.35 278.914,184.455 280.748,184.669C282.763,184.905 284.436,184.108 285.522,182.353C286.777,180.326 285.904,178.067 283.641,177.321C283.241,177.189 282.844,177.05 282.445,176.915ZM275.569,179.227C273.007,179.875 263.508,187.347 261.782,189.743C263.536,190.634 265.247,191.503 266.89,192.337C269.528,188.598 272.056,185.057 274.527,181.477C274.989,180.807 275.227,179.981 275.569,179.227ZM280.994,257.207C285.133,255.983 288.891,256.389 292.474,258.301C293.443,258.818 293.77,258.373 293.995,257.468C293.431,257.434 292.954,257.432 292.485,257.373C289.8,257.037 287.41,256.214 285.915,253.693C283.634,249.849 285.491,241.413 291.216,239.728C292.24,239.427 293.322,239.325 294.392,239.129C294.688,238.012 294.559,237.66 293.487,237.854C292.031,238.118 290.504,238.528 289.256,239.284C287.106,240.586 285.521,242.529 284.36,244.785C282.384,248.625 281.219,252.678 280.994,257.207ZM252.866,199.816C254.566,201.623 256.54,202.149 258.523,202.647C260.941,203.254 260.915,203.231 262.062,201.085C263.364,198.653 264.723,196.252 265.98,193.976C264.078,192.949 262.26,191.967 260.177,190.842C257.834,193.717 255.373,196.738 252.866,199.816ZM221.421,261.598C224.494,261.08 227.264,260.658 230.004,260.097C230.42,260.011 230.927,259.297 231.006,258.813C231.625,254.998 232.144,251.168 232.709,247.345C232.912,245.979 231.966,244.983 230.663,245.398C229.825,245.666 228.958,246.139 228.341,246.757C224.367,250.735 222.741,255.829 221.421,261.598ZM272.042,255.445C272.087,255.271 272.122,255.147 272.149,255.022C273.351,249.593 274.992,244.315 278.255,239.734C281.456,235.242 285.256,231.572 291.332,231.667C291.367,231.668 291.403,231.559 291.629,231.186C289.9,231.038 288.298,230.638 286.76,230.812C278.637,231.727 270.612,238.653 268.45,246.51C268.323,246.972 268.588,247.596 268.803,248.087C269.197,248.989 269.951,249.81 270.084,250.732C270.301,252.245 270.142,253.813 270.142,255.445L272.042,255.445ZM233.647,244.087C233.647,241.372 233.751,238.936 233.618,236.512C233.484,234.064 233.026,231.647 231.472,229.627C230.345,228.163 229.543,228.218 228.616,229.787C227.395,231.854 226.873,234.128 226.642,236.498C226.593,237.003 226.333,237.802 226.013,237.89C225.55,238.017 224.916,237.674 224.405,237.429C223.51,236.999 222.7,236.34 221.77,236.046C220.023,235.494 219.261,236.031 218.879,237.813C218.478,239.685 218.289,239.79 216.423,239.172C214.926,238.677 213.575,239.175 213.074,240.56C212.697,241.599 212.531,242.714 212.24,243.924C219.368,240.429 226.303,238.985 233.647,244.087ZM279.089,258.211C279.618,251.365 281.002,245.115 285.62,240.052C286.633,238.942 287.836,237.842 289.177,237.238C290.898,236.463 292.846,236.195 294.73,235.699C294.568,234.769 292.483,233.172 290.954,233.417C289.223,233.695 287.337,233.995 285.902,234.896C283.951,236.124 282.129,237.738 280.667,239.526C276.768,244.293 275.042,250.049 273.79,255.844C275.087,256.986 276.316,258.069 277.6,259.201C278.102,258.867 278.676,258.485 279.089,258.211ZM243.754,215.466C247.342,217.486 250.631,219.28 254.387,219.627C256.267,214.726 258.112,209.917 259.944,205.142C256.983,204.716 254.307,203.561 251.639,201.574C248.974,206.269 246.393,210.816 243.754,215.466ZM237.622,232.912C236.702,237.15 235.816,241.136 235.005,245.138C234.932,245.498 235.237,246.182 235.551,246.335C239.255,248.137 243.152,248.966 247.294,248.572C248.198,248.486 248.459,248.069 248.557,247.287C248.738,245.822 248.954,244.361 249.184,242.904C249.446,241.246 249.739,239.592 250.039,237.81C245.438,237.36 241.486,235.658 237.622,232.912ZM250.231,235.976C251.485,231.004 252.694,226.217 253.867,221.571C251.988,220.984 250.169,220.532 248.444,219.843C246.676,219.139 245,218.203 243.044,217.251C241.745,220.864 240.388,224.392 239.215,227.98C238.106,231.37 238.181,231.417 241.345,233.196C244.101,234.746 247.019,235.806 250.231,235.976ZM219.545,261.598C221.363,254.445 223.199,247.826 229.492,243.634C229.262,243.509 229.087,243.374 228.889,243.313C225.557,242.277 222.202,242.239 218.844,243.164C212.004,245.048 207.459,249.808 203.579,255.396C202.951,256.3 203.712,256.576 204.267,256.826C206.926,258.021 209.537,259.38 212.299,260.264C214.619,261.007 217.122,261.175 219.545,261.598ZM315.051,254.175C311.824,252.451 308.766,251.737 305.619,252.345C301.152,253.208 297.674,255.803 295.056,259.478C294.326,260.501 293.621,260.748 292.535,260.264C291.461,259.787 290.395,259.276 289.286,258.893C285.554,257.602 282.065,258.126 278.911,260.512C277.381,261.668 277.112,261.768 275.959,260.262C274.208,257.974 272.056,256.916 269.151,257.376C267.86,257.58 267.438,257.024 267.6,255.691C267.716,254.742 267.937,253.789 267.915,252.842C267.844,249.875 266.326,248.597 263.392,248.851C262.71,248.91 262.006,248.815 261.321,248.719C260.409,248.591 260.196,247.963 260.444,247.18C260.587,246.73 260.854,246.314 261.103,245.907C262.569,243.511 263.697,240.996 264.225,238.206C265.464,231.662 260.152,228.26 255.421,228.895C254.262,229.051 253.53,229.5 253.304,230.768C252.884,233.124 252.287,235.448 251.851,237.801C251.379,240.352 251.007,242.92 250.58,245.547C253.353,245.866 255.879,246.412 257.393,248.842C258.911,251.282 258.347,253.873 257.635,256.495C258.215,256.537 258.686,256.573 259.157,256.604C261.92,256.785 264.339,257.779 266.248,259.8C266.789,260.373 267.134,261.166 267.432,261.912C267.517,262.128 267.162,262.76 266.94,262.799C266.618,262.854 266.147,262.63 265.89,262.373C265.131,261.619 264.542,260.666 263.711,260.014C261.872,258.568 259.69,258.24 257.401,258.442C255.759,258.586 255.357,258.09 255.74,256.475C256.019,255.29 256.37,254.113 256.53,252.912C256.823,250.721 255.81,248.904 253.766,248.105C252.706,247.691 251.521,247.599 250.106,247.302C249.943,250.2 249.833,252.886 249.626,255.563C249.509,257.064 250.185,258.139 251.343,258.852C252.891,259.805 254.472,260.798 256.173,261.393C264.089,264.157 272.255,265.23 280.61,264.366C289.007,263.498 297.166,261.563 305.003,258.375C308.254,257.052 311.482,255.669 315.051,254.175ZM288.603,213.46C288.342,215.484 288.205,217.249 287.869,218.975C287.412,221.322 286.805,223.641 286.256,225.971C286.217,226.139 286.182,226.359 286.063,226.448C285.661,226.753 285.222,227.011 284.796,227.286C284.663,226.813 284.339,226.299 284.43,225.874C284.942,223.493 285.651,221.151 286.102,218.76C286.505,216.63 286.661,214.454 286.716,212.247C285.844,214.043 285.136,215.945 284.066,217.615C281.886,221.022 279.534,224.322 277.18,227.614C276.93,227.963 276.192,227.964 275.681,228.127C275.735,227.585 275.604,226.916 275.874,226.523C277.554,224.083 279.415,221.765 281.041,219.292C283.45,215.626 285.246,211.664 286.148,207.342C286.309,206.566 286.352,205.767 286.291,204.933C284.014,209.641 280.592,213.48 277.417,217.493C277.255,217.698 277.138,218.008 276.928,218.092C276.536,218.249 276.092,218.276 275.669,218.357C275.624,217.925 275.386,217.37 275.569,217.085C276.202,216.099 276.969,215.198 277.707,214.281C280.334,211.02 282.942,207.75 284.618,203.853C286.056,200.512 286.366,197.085 285.427,193.483C285.163,194.178 284.915,194.879 284.633,195.566C282.755,200.138 279.827,204.04 276.774,207.863C276.231,208.543 275.724,209.254 275.171,209.928C274.732,210.464 274.345,211.453 273.466,210.73C272.689,210.091 273.348,209.384 273.791,208.803C274.743,207.555 275.721,206.328 276.684,205.088C279.474,201.497 282.113,197.8 283.476,193.398C283.907,192.009 284.081,190.501 284.113,189.041C284.133,188.177 283.645,187.302 283.24,186.47C281.056,192.092 277.288,196.468 273.391,200.756C272.892,201.304 272.452,201.928 271.875,202.375C271.579,202.604 271.039,202.518 270.61,202.575C270.598,202.141 270.41,201.587 270.607,201.294C271.141,200.506 271.824,199.817 272.473,199.111C275.372,195.958 278.104,192.681 280.101,188.858C280.459,188.172 280.761,187.457 281.149,186.625C278.747,186.281 276.968,185.167 275.772,183.192C269.063,189.04 254.93,218.161 254.427,227.224C255.675,227.224 256.937,227.092 258.164,227.247C263.233,227.885 266.512,231.921 266.12,236.995C265.896,239.901 265.062,242.637 263.578,245.161C263.38,245.498 263.188,245.839 263.008,246.186C262.973,246.253 263.003,246.354 263.003,246.457C264.068,246.504 265.135,246.552 266.225,246.601C267.396,243.16 268.938,239.962 271.286,237.204C275.677,232.045 281.136,228.77 288.002,228.745C293.559,228.725 299.143,229.075 304.666,229.696C308.303,230.104 310.755,233.461 310.638,237.138C310.582,238.897 310.319,240.711 309.777,242.379C308.958,244.901 306.921,245.619 304.637,244.479C302.597,245.933 301.753,245.911 299.696,244.293C298.125,245.545 296.442,246.521 294.414,245.171C293.195,244.359 293.203,244.348 293.645,241.079C291.787,241.162 290.228,241.805 289.065,243.181C287.195,245.393 286.502,248.015 286.841,250.871C287.15,253.482 289.091,255.212 292.056,255.521C294.212,255.747 296.222,255.555 298.045,254.005C300.255,252.127 302.832,250.826 305.802,250.512C309.001,250.173 312.036,250.75 314.941,252.105C315.59,252.409 316.401,253.051 316.891,252.869C317.914,252.491 318.88,251.773 319.659,250.987C320.125,250.516 320.433,249.922 321.082,250.395C321.79,250.911 321.636,251.716 321.059,252.208C320.105,253.024 319.095,253.822 317.993,254.411C306.659,260.46 294.685,264.572 281.873,265.991C272.911,266.984 264.121,266.07 255.584,263.103C252.799,262.134 250.187,260.819 248.395,258.347C248.049,257.867 247.798,257.192 247.802,256.61C247.813,254.569 247.955,252.529 248.044,250.565C245.706,250.383 243.402,250.375 241.166,249.979C238.916,249.582 236.734,248.798 234.341,248.133C233.985,250.343 233.577,252.729 233.225,255.125C233.054,256.287 232.979,257.464 232.875,258.636C232.699,260.628 231.972,261.585 230.006,262.009C221.749,263.789 213.65,263.843 205.973,259.641C205.019,259.117 203.998,258.715 203.058,258.169C201.264,257.128 200.989,256.145 202.107,254.423C204.21,251.185 206.727,248.297 209.768,245.9C210.367,245.428 210.64,244.971 210.627,244.177C210.611,243.231 210.778,242.268 210.979,241.336C211.695,238.011 213.645,236.751 216.978,237.401C218.779,233.548 219.971,233.234 224.895,235.384C225.162,234.248 225.322,233.09 225.713,232.018C226.174,230.758 226.72,229.499 227.435,228.371C228.732,226.327 230.629,226.194 232.347,227.925C233.88,229.471 234.543,231.449 235.016,233.51C235.1,233.878 235.186,234.247 235.261,234.57C236.761,230.007 238.056,225.389 239.784,220.938C244.32,209.252 250.588,198.597 259.268,189.456C259.808,188.887 260.308,188.229 260.959,187.825C264.453,185.657 265.397,181.59 268.134,178.573C266.174,178.616 264.542,178.75 263.062,179.759C258.867,182.622 255.843,186.546 253.064,190.692C250.554,194.438 248.546,198.441 247.06,202.703C246.946,203.03 246.861,203.414 246.633,203.641C246.422,203.849 245.996,204.024 245.74,203.951C245.497,203.88 245.214,203.48 245.194,203.208C245.165,202.795 245.304,202.35 245.45,201.948C248.444,193.708 252.95,186.439 259.333,180.38C259.459,180.26 259.592,180.146 259.704,180.014C259.756,179.953 259.765,179.857 259.759,179.876C255.13,179.651 251.717,181.946 248.757,185.297C243.455,191.3 240.276,198.428 237.607,205.845C237.371,206.5 237.194,207.2 236.827,207.776C236.627,208.09 236.086,208.187 235.7,208.381C235.546,208.009 235.209,207.601 235.275,207.273C235.436,206.47 235.778,205.703 236.056,204.924C238.264,198.75 240.831,192.743 244.769,187.442C246.29,185.395 248.045,183.522 249.758,181.494C245.044,182.33 241.234,184.689 238.13,188.124C233.462,193.291 230.104,199.279 227.639,205.776C227.531,206.061 227.5,206.418 227.306,206.616C227.091,206.833 226.694,207.056 226.441,206.997C226.193,206.939 225.852,206.526 225.859,206.278C225.875,205.684 225.984,205.059 226.209,204.509C229.169,197.268 232.933,190.535 238.662,185.063C238.751,184.977 238.809,184.856 239.048,184.513C238.309,184.771 237.795,184.933 237.294,185.13C232.347,187.076 227.365,188.943 222.992,192.084C222.664,192.32 222.018,192.113 221.52,192.111C221.68,191.628 221.694,190.89 222.023,190.702C225.038,188.974 228.075,187.274 231.176,185.708C233.019,184.776 234.99,184.097 236.637,183.415C232.838,182.973 228.83,182.595 224.851,182.014C222.356,181.649 219.895,181.022 217.444,180.408C216.99,180.294 216.304,179.638 216.344,179.307C216.449,178.43 217.235,178.591 217.904,178.72C222.05,179.519 226.179,180.438 230.35,181.065C236.152,181.938 241.897,181.388 247.867,179.811C246.317,179.372 245.059,179.01 243.797,178.659C238.287,177.126 233.296,174.455 228.418,171.559C228.063,171.347 227.978,170.68 227.767,170.225C228.276,170.169 228.893,169.899 229.277,170.093C231.648,171.29 233.924,172.677 236.31,173.841C241.314,176.283 246.54,178.142 252.134,178.473C254.71,178.625 257.323,178.141 259.963,177.628C259.812,177.519 259.677,177.364 259.509,177.309C253.819,175.429 249.1,171.896 244.381,168.377C244.089,168.16 244.119,167.511 243.998,167.062C244.481,167.036 245.085,166.812 245.424,167.019C246.61,167.747 247.706,168.62 248.831,169.443C253.154,172.607 257.707,175.316 263.049,176.358C264.514,176.644 266.028,176.673 267.52,176.819C267.554,176.687 267.587,176.555 267.62,176.422C267.374,176.232 267.142,176.02 266.879,175.857C262.992,173.46 259.575,170.495 256.459,167.177C256.198,166.897 256.277,166.297 256.196,165.845C256.668,165.85 257.239,165.688 257.586,165.897C258.167,166.248 258.568,166.882 259.109,167.315C262.197,169.789 265.268,172.284 268.421,174.67C269.574,175.542 270.953,176.057 272.478,175.617C272.681,174.246 272.886,172.858 273.146,171.096C271.741,169.405 269.571,168.046 267.309,166.859C262.013,164.081 256.334,163.313 250.434,163.855C249.35,163.955 248.26,164.112 247.179,164.072C246.748,164.056 246.335,163.575 245.914,163.306C246.301,162.989 246.661,162.436 247.076,162.391C253.451,161.706 259.782,161.615 265.849,164.194C265.953,164.238 266.093,164.199 266.392,164.199C262.532,160.528 258.213,158.115 253.079,157.17C248.216,156.275 243.36,156.557 238.494,157.035C238.407,157.043 238.323,157.073 238.236,157.08C237.511,157.135 236.555,157.404 236.445,156.362C236.335,155.317 237.314,155.333 238.042,155.313C242.126,155.199 246.226,154.866 250.292,155.1C253.029,155.258 255.719,156.227 258.428,156.844C258.788,156.926 259.135,157.071 259.742,157.271C256.829,153.664 253.147,151.922 249.058,150.885C244.179,149.647 239.373,150.188 234.607,151.535C234.398,151.594 234.179,151.755 233.989,151.722C233.535,151.644 233.096,151.478 232.651,151.347C232.907,150.916 233.082,150.202 233.433,150.102C235.313,149.564 237.219,149.069 239.147,148.766C242.883,148.179 246.611,148.35 250.407,149.118C250.136,148.902 249.876,148.672 249.594,148.473C245.8,145.805 241.746,143.621 237.46,141.845C236.993,141.651 236.725,140.978 236.365,140.527C236.941,140.423 237.657,140.045 238.072,140.257C242.023,142.271 245.927,144.377 249.834,146.476C250.359,146.757 250.832,147.137 251.507,147.337C251.18,146.654 250.777,145.996 250.538,145.284C249.488,142.151 248.45,139.014 247.506,135.849C247.388,135.451 247.858,134.878 248.055,134.386C248.42,134.731 248.972,135.01 249.122,135.432C250.258,138.624 251.1,141.939 252.449,145.034C254.442,149.604 258.045,152.979 261.672,156.276C261.717,156.317 261.824,156.291 261.958,156.3C261.321,154.441 260.508,152.644 260.099,150.759C259.213,146.679 258.514,142.557 257.808,138.44C257.749,138.084 258.217,137.637 258.441,137.233C258.821,137.626 259.453,137.971 259.538,138.42C260.066,141.2 260.398,144.018 260.933,146.797C262.048,152.582 264.18,157.907 268.258,162.308C268.609,162.687 268.851,163.166 269.144,163.599C269.241,163.501 269.336,163.403 269.432,163.305C269.108,161.308 268.679,159.321 268.487,157.311C268.277,155.104 268.29,152.875 268.196,150.656C268.132,149.133 267.995,147.61 268.013,146.088C268.017,145.69 268.474,145.296 268.722,144.9C269.062,145.232 269.635,145.525 269.697,145.902C269.864,146.925 269.85,147.984 269.843,149.029C269.812,153.44 269.954,157.832 271.106,162.129C271.874,164.99 272.987,167.648 275.437,169.624C277.669,168.59 279.861,168.945 282.028,170.295C281.57,164.2 279.828,158.704 276.565,153.709C276.375,153.417 276.09,153.142 276.028,152.824C275.962,152.488 276,151.897 276.19,151.8C276.498,151.642 277.059,151.656 277.345,151.849C277.716,152.099 277.937,152.584 278.195,152.986C280.232,156.165 281.785,159.556 282.692,163.23C282.743,163.436 282.836,163.63 282.928,163.883C284.323,159.72 283.954,153.33 281.666,148.657C280.026,145.307 277.932,142.177 276.035,138.954C275.836,138.617 275.474,138.334 275.393,137.98C275.291,137.542 275.404,137.055 275.424,136.589C275.878,136.708 276.526,136.679 276.754,136.974C277.818,138.351 278.814,139.788 279.747,141.258C282.225,145.163 284.355,149.227 285.222,153.872C286.206,151.454 286.524,148.961 286.589,146.407C286.732,140.84 284.91,135.885 281.985,131.257C281.589,130.63 281.12,130.03 280.85,129.352C280.691,128.953 280.859,128.424 280.88,127.954C281.36,128.106 282.07,128.107 282.284,128.434C284.556,131.904 286.672,135.467 287.598,139.578C287.904,140.932 288.081,142.315 288.374,144.017C288.611,143.439 288.763,143.087 288.901,142.729C290.14,139.518 291.348,136.294 292.65,133.11C292.823,132.688 293.477,132.461 293.908,132.145C294.033,132.678 294.399,133.297 294.245,133.731C292.757,137.915 291.181,142.068 289.634,146.23C289.546,146.468 289.491,146.719 289.356,147.19C289.646,147 289.786,146.951 289.863,146.853C292.947,142.909 297.03,140.272 301.439,138.091C301.9,137.863 302.932,137.885 303.114,138.167C303.653,139.009 302.794,139.324 302.191,139.662C300.937,140.365 299.681,141.062 298.434,141.778C290.948,146.075 287.402,152.983 285.589,161.213C286.748,159.658 287.772,158.178 288.906,156.787C292.12,152.843 296.304,150.055 300.484,147.282C300.798,147.074 301.394,147.291 301.859,147.31C301.706,147.791 301.703,148.463 301.375,148.721C300.008,149.798 298.532,150.736 297.115,151.75C291.83,155.532 287.483,160.08 285.426,166.417C284.977,167.801 284.817,169.28 284.51,170.783C286.648,171.31 287.915,172.478 288.269,174.547C294.078,171.713 299.348,168.282 303.648,163.528C305.605,161.365 307.409,159.063 309.282,156.823C309.506,156.556 309.674,156.173 309.959,156.043C310.337,155.871 310.804,155.895 311.233,155.834C311.251,156.267 311.454,156.829 311.256,157.111C310.331,158.429 309.311,159.683 308.296,160.936C304.79,165.262 300.875,169.149 296.153,172.162C296.054,172.225 295.992,172.347 295.937,172.412C305.018,171.9 312.854,168.461 319.501,162.275C320.778,161.087 322.012,159.848 323.351,158.734C323.715,158.432 324.391,158.506 324.924,158.408C324.798,158.932 324.845,159.627 324.52,159.953C320.13,164.354 315.448,168.38 309.721,170.998C309.542,171.08 309.387,171.212 309.221,171.321C317.524,172.448 324.658,170.063 330.708,164.391C331.948,163.229 333.09,161.959 334.363,160.835C334.762,160.482 335.674,160.124 335.946,160.323C336.759,160.917 336.083,161.563 335.623,162.055C331.966,165.973 327.957,169.428 322.962,171.568C322.768,171.651 322.584,171.76 322.062,172.028C324.384,172.32 326.373,172.556 328.358,172.826C329.868,173.031 331.385,173.22 332.87,173.548C333.288,173.64 333.603,174.198 333.965,174.542C333.517,174.774 333.043,175.245 332.627,175.199C329.728,174.876 326.844,174.422 323.949,174.061C322.275,173.853 320.59,173.741 318.841,173.808C319.63,174.224 320.478,174.557 321.199,175.07C325.349,178.022 329.483,181 333.578,184.028C333.909,184.273 333.907,184.966 334.06,185.452C333.519,185.417 332.83,185.584 332.459,185.314C329.252,182.985 326.222,180.392 322.896,178.253C320.395,176.645 317.591,175.459 314.817,174.346C313.506,173.82 311.95,173.904 310.424,173.7C310.482,174.07 310.47,174.202 310.51,174.221C314.413,176.01 317.348,178.976 320.138,182.122C320.745,182.807 321.391,183.457 322.012,184.131C322.478,184.638 323.194,185.207 322.507,185.893C321.729,186.668 321.171,185.834 320.683,185.325C319.205,183.782 317.861,182.095 316.275,180.676C314.534,179.118 312.673,177.652 310.702,176.402C306.988,174.045 302.87,174.039 298.693,174.781C297.322,175.025 295.951,175.271 294.566,175.518C294.6,175.6 294.612,175.702 294.654,175.715C300.737,177.721 305.351,181.8 309.646,186.33C310.336,187.058 311.097,187.734 311.686,188.536C311.914,188.846 311.757,189.439 311.776,189.903C311.341,189.857 310.8,189.956 310.493,189.733C309.903,189.306 309.439,188.7 308.932,188.159C305.368,184.36 301.647,180.743 296.828,178.537C294.197,177.332 291.489,176.388 288.495,176.839C287.563,176.979 287.076,177.468 287.414,178.311C288.266,180.433 287.824,182.313 286.496,184.185C289.643,186.864 293.048,188.977 297.013,190.095C298.688,190.567 300.408,190.891 302.062,191.425C302.542,191.581 303.242,192.295 303.183,192.64C303.031,193.526 302.239,193.257 301.592,193.083C299.404,192.495 297.103,192.175 295.049,191.282C291.92,189.921 288.961,188.167 286.016,186.625C286.176,186.999 286.382,187.716 286.76,188.328C289.605,192.931 293.599,196.049 298.819,197.566C300.408,198.028 302.01,198.47 303.544,199.076C304.004,199.257 304.257,199.965 304.604,200.431C304.072,200.531 303.475,200.838 303.019,200.695C300.28,199.835 297.46,199.107 294.886,197.876C292.411,196.692 290.203,194.953 288.002,193.537C288.609,200.411 292.466,205.546 298.308,209.39C299.724,210.322 301.306,211.001 302.725,211.928C303.202,212.239 303.811,213.119 303.672,213.454C303.286,214.383 302.538,213.816 301.929,213.49C298.311,211.552 294.669,209.64 291.984,206.404C290.994,205.211 290.092,203.946 289.126,202.684C288.41,207.619 288.915,212.229 292.601,215.895C294.847,218.128 297.311,220.146 299.711,222.221C300.199,222.643 301.019,222.887 300.532,223.696C300.018,224.548 299.29,224.072 298.716,223.69C295.089,221.276 291.95,218.35 289.461,214.753C289.221,214.406 288.994,214.05 288.603,213.46Z" style="fill:rgb(35,31,32);fill-rule:nonzero;"/>
        </g>
    </g>
</svg>
