<?xml version="1.0" encoding="UTF-8" standalone="no"?>
<!DOCTYPE svg PUBLIC "-//W3C//DTD SVG 1.1//EN" "http://www.w3.org/Graphics/SVG/1.1/DTD/svg11.dtd">
<svg width="100%" height="100%" viewBox="0 0 668 355" version="1.1" xmlns="http://www.w3.org/2000/svg" xmlns:xlink="http://www.w3.org/1999/xlink" xml:space="preserve" xmlns:serif="http://www.serif.com/" style="fill-rule:evenodd;clip-rule:evenodd;stroke-linejoin:round;stroke-miterlimit:2;">
    <g transform="matrix(1,0,0,1,-1463.36,-692.459)">
        <g transform="matrix(4.16667,0,0,4.16667,0,0)">
            <path d="M421.494,215.677C419.199,211.755 417.719,208.41 417.163,203.915C418.558,202.314 417.822,198.942 414.969,198.737C405.087,198.03 401.317,204.688 399.248,212.793C393.523,211.16 388.435,208.661 382.732,212.766C378.671,215.688 376.877,220.211 377.062,224.897C373.114,224.446 369.263,223.855 366.944,228.309C364.443,233.112 367.348,238.197 371.133,241.278C375.355,244.716 381.239,246.305 386.582,246.754C392.641,247.264 396.3,245.158 399.974,241.125C404.867,243.797 409.152,244.846 412.233,238.129C413.099,236.243 412.37,234.467 410.441,233.722C405.673,231.881 411.57,229.203 413.285,228.9C415.008,228.596 416.553,228.61 418.187,227.848C420.387,226.821 422.498,224.867 423.128,222.434C423.782,219.909 422.728,217.788 421.494,215.677Z" style="fill:rgb(252,223,108);fill-rule:nonzero;"/>
        </g>
        <g transform="matrix(4.16667,0,0,4.16667,0,0)">
            <path d="M510.251,203.48C507.204,197.583 499.611,198.357 493.624,198.63C492.563,190.902 487.94,183.835 478.925,185.31C473.71,186.162 469.919,189.362 466.772,193.424C465.677,194.839 463.306,199.513 461.559,200.018C460.326,200.374 457.859,199.535 456.524,199.606C452.029,199.848 439.98,204.74 446.674,210.754C449.207,213.03 457.235,210.102 457.766,213.773C458.233,216.998 453.191,220.589 449.913,222.719C449.154,222.33 448.222,222.321 447.27,222.992C441.436,227.107 444.331,231.963 450.216,233.754C456.967,235.808 463.231,234.813 468.997,231.354C474.306,236.167 483.137,235.821 489.855,234.264C493.378,233.447 495.295,231.192 496.392,227.822C496.911,226.232 497.025,224.665 497.227,223.016C497.328,222.198 498.012,220.834 497.698,220.836C498.294,220.628 499.516,220.56 499.988,220.373C506.359,217.834 514.155,211.037 510.251,203.48Z" style="fill:rgb(192,223,196);fill-rule:nonzero;"/>
        </g>
        <g transform="matrix(4.16667,0,0,4.16667,0,0)">
            <path d="M436.651,247.882C440.237,247.265 440.302,247.123 440.752,243.987C441.647,237.741 442.594,231.503 443.607,225.276C443.724,224.56 444.259,223.725 444.853,223.307C447.023,221.778 449.414,220.547 451.506,218.926C453.338,217.505 455.004,215.814 456.506,214.042C457.425,212.96 457.072,212.168 455.927,211.278C454.099,209.858 452.011,209.934 450.07,210.655C446.61,211.94 443.165,213.335 439.895,215.034C438.302,215.861 437.228,215.816 435.759,214.956C430.233,211.723 424.651,208.584 419.057,205.471C417.231,204.456 417.184,204.54 415.781,206.071C415.638,206.228 415.507,206.396 415.335,206.6C415.556,206.91 415.739,207.199 415.953,207.463C419.108,211.357 422.261,215.253 425.431,219.135C426.442,220.375 426.478,220.781 425.284,221.864C421.801,225.022 418.279,228.138 414.792,231.292C413.94,232.062 413.134,232.095 412.209,231.447C411.473,230.931 410.685,230.486 409.769,229.916C409.314,230.986 408.934,231.879 408.487,232.932C409.892,233.593 411.145,234.315 412.487,234.777C413.807,235.231 413.971,236.031 413.711,237.208C413.349,238.848 413.056,240.503 412.74,242.108C414.07,242.709 414.889,242.452 415.393,241.22C415.839,240.134 416.46,239.115 416.851,238.012C417.208,237.009 417.822,236.414 418.805,236.092C422.362,234.925 425.906,233.718 429.471,232.573C430.88,232.12 431.36,232.353 431.852,233.777C432.678,236.162 433.375,238.59 434.184,240.98C434.975,243.313 435.84,245.619 436.651,247.882ZM424.252,220.67C420.767,216.318 417.552,212.306 414.343,208.288C413.117,206.753 413.149,206.284 414.517,204.825C416.667,202.535 417.06,202.365 419.788,203.863C425.362,206.924 430.88,210.088 436.388,213.268C437.395,213.85 438.126,213.885 439.216,213.323C443.273,211.233 447.307,208.982 451.971,208.528C453.024,208.425 454.18,208.528 455.178,208.863C458.888,210.109 459.879,213.1 457.332,216.055C455.652,218.004 453.494,219.574 451.423,221.145C449.763,222.403 447.887,223.375 446.158,224.55C445.744,224.832 445.339,225.385 445.264,225.865C444.33,231.8 443.458,237.745 442.571,243.687C442.564,243.73 442.563,243.774 442.558,243.817C442.062,248.313 442.03,248.297 437.761,249.578C436.445,249.972 435.612,249.642 435.16,248.417C433.955,245.157 432.781,241.884 431.621,238.607C431.116,237.182 430.673,235.736 430.155,234.157C426.462,235.4 422.911,236.574 419.385,237.813C419.011,237.945 418.695,238.426 418.49,238.818C417.784,240.167 417.163,241.561 416.465,242.915C415.871,244.065 414.947,244.435 413.635,244.189C410.708,243.641 410.694,243.685 411.19,240.756C411.372,239.684 411.509,238.593 411.813,237.553C412.061,236.706 411.728,236.411 411.03,236.102C409.88,235.591 408.769,234.984 407.658,234.39C406.674,233.863 406.493,233.057 406.927,232.064C407.309,231.187 407.641,230.285 408.062,229.427C408.676,228.178 409.281,227.956 410.613,228.462C411.097,228.646 411.545,228.927 411.997,229.187C412.448,229.447 412.884,229.735 413.52,230.133C417.076,226.998 420.65,223.846 424.252,220.67Z" style="fill:rgb(35,31,32);fill-rule:nonzero;"/>
        </g>
        <g transform="matrix(4.16667,0,0,4.16667,0,0)">
            <path d="M459.453,203.138C461.262,199.258 463.884,196.2 467.724,194.314C473.579,191.438 481.056,194.409 482.75,200.272C483.465,202.747 483.102,205.196 482.495,207.63C482.204,208.798 481.889,209.961 481.655,210.855C484.486,210.543 487.31,209.952 490.127,209.987C494.3,210.039 497.79,211.682 499.575,215.778C500.97,218.978 500.425,221.933 498.041,224.48C494.802,227.942 490.649,229.646 486.07,230.361C484.45,230.615 482.766,230.634 481.126,230.531C478.423,230.361 476.083,229.274 474.226,227.082C471.955,229.829 469.146,231.599 465.879,232.597C461.179,234.034 456.431,234.077 451.712,232.706C450.605,232.385 449.57,231.755 448.57,231.154C448.161,230.909 447.83,230.399 447.665,229.938C447.572,229.681 447.806,229.172 448.051,228.971C448.223,228.83 448.794,228.893 448.965,229.075C450.953,231.195 453.617,231.555 456.26,231.796C461.64,232.286 466.694,231.356 470.994,227.815C471.757,227.187 472.374,226.373 473.011,225.604C473.723,224.746 474.499,224.622 475.193,225.497C478.078,229.138 481.977,229.202 486.03,228.574C489.714,228.002 493.089,226.632 495.893,224.104C500.115,220.298 499.062,214.591 493.751,212.494C489.72,210.902 485.795,211.594 481.937,213.191C481.737,213.274 481.556,213.46 481.355,213.476C480.83,213.518 480.173,213.678 479.811,213.433C479.53,213.242 479.461,212.479 479.559,212.029C480.015,209.945 480.632,207.896 481.06,205.808C481.76,202.403 481.391,199.271 478.361,196.989C475.204,194.61 471.807,194.221 468.298,196.04C464.846,197.829 462.349,200.543 461.073,204.28C460.61,205.636 460.08,205.849 458.866,204.933C455.814,202.631 452.494,202.039 448.869,203.22C446.674,203.935 444.951,205.27 443.74,207.255C443.378,207.85 443.075,208.853 442.129,208.189C441.304,207.612 441.9,206.844 442.285,206.229C445.601,200.927 452.928,199.246 458.424,202.514C458.757,202.711 459.086,202.916 459.453,203.138Z" style="fill:rgb(35,31,32);fill-rule:nonzero;"/>
        </g>
        <g transform="matrix(4.16667,0,0,4.16667,0,0)">
            <path d="M390.285,209.544C393.671,208.956 396.954,208.384 399.932,207.866C400.631,205.888 401.032,203.787 402.056,202.052C404.465,197.966 408.2,197.413 412.531,198.667C412.976,198.795 413.239,199.552 413.587,200.017C413.069,200.117 412.482,200.429 412.044,200.286C406.725,198.544 402.147,201.878 402.228,207.486C402.261,209.682 402.192,209.781 400.022,209.865C396.778,209.991 393.614,210.461 390.575,211.688C389.06,212.299 388.299,211.675 388.427,210.063C388.627,207.545 388.912,205.033 389.049,202.512C389.212,199.502 389.156,196.488 388.193,193.587C386.842,189.513 383.358,187.048 378.951,186.969C375.039,186.899 371.93,189.203 370.34,193.204C368.498,197.842 369.124,202.035 372.245,205.941C374.107,208.272 374.032,208.332 371.228,209.003C368.667,209.616 367.257,211.232 366.916,213.945C366.555,216.825 366.555,216.825 363.792,216.097C359.525,214.974 355.071,216.887 353.52,220.508C352.223,223.538 353.309,225.964 356.465,226.981C359.165,227.85 361.87,227.774 364.562,226.899C365.182,226.698 365.81,226.453 366.447,226.411C366.768,226.389 367.259,226.706 367.405,227.002C367.503,227.199 367.215,227.764 366.951,227.936C363.811,229.976 356.838,229.799 353.745,227.642C351.39,225.998 350.618,223.284 351.664,220.317C352.875,216.881 356.636,214.142 360.283,214.12C361.836,214.11 363.39,214.25 365.051,214.326C365.372,210.77 367.071,208.175 370.919,207.239C370.249,206.16 369.627,205.131 368.979,204.119C365.541,198.743 368.695,189.398 373.224,186.734C380.329,182.555 389.69,187.173 390.438,195.585C390.821,199.893 390.398,204.272 390.336,208.619C390.331,208.961 390.299,209.304 390.285,209.544Z" style="fill:rgb(35,31,32);fill-rule:nonzero;"/>
        </g>
        <g transform="matrix(4.16667,0,0,4.16667,0,0)">
            <path d="M484.882,178.279C486.123,173.525 488.943,170.083 493.182,167.805C495.408,166.609 497.755,165.804 500.33,166.381C503.858,167.171 506.826,171.267 507.009,175.3C507.286,181.406 504.61,186.228 500.593,190.497C499.29,191.88 497.955,193.233 496.754,194.477C498.412,194.477 500.175,194.47 501.936,194.481C502.415,194.484 502.9,194.498 503.368,194.585C505.878,195.059 507.972,196.182 508.661,198.819C509.36,201.491 508.309,203.681 506.281,205.447C506.019,205.675 505.747,205.892 505.391,206.188C505.744,206.427 506.052,206.631 506.356,206.841C509.112,208.737 510.373,212.016 509.544,215.199C508.797,218.069 506.496,219.311 504.101,219.868C503.745,219.952 503.26,219.479 502.833,219.265C503.116,218.899 503.388,218.524 503.689,218.176C503.76,218.095 503.936,218.112 504.061,218.072C506.896,217.179 508.117,215.597 507.998,212.974C507.877,210.31 506.094,208.241 503.47,207.616C503.07,207.521 502.526,207.165 502.448,206.834C502.369,206.5 502.691,205.944 503.001,205.667C503.842,204.916 504.85,204.342 505.641,203.546C506.75,202.43 507.457,201.083 506.999,199.417C506.514,197.649 505.189,196.83 503.523,196.434C500.774,195.78 498.065,196.287 495.356,196.74C495.057,196.79 494.738,196.94 494.462,196.882C494.027,196.791 493.426,196.668 493.26,196.362C493.1,196.067 493.267,195.393 493.531,195.108C494.926,193.609 496.379,192.163 497.845,190.733C500.167,188.468 502.312,186.067 503.675,183.083C504.903,180.393 505.717,177.589 505.109,174.604C504.879,173.473 504.453,172.333 503.884,171.329C502.159,168.287 499.676,167.329 496.359,168.4C492.149,169.76 489.124,172.499 487.339,176.547C486.996,177.326 486.861,178.212 486.726,179.064C486.521,180.367 486.001,180.719 484.766,180.274C484.643,180.23 484.53,180.161 484.41,180.109C481.466,178.852 479.858,179.354 478.121,182.061C476.73,184.225 476.306,186.535 476.924,189.057C477.314,190.647 476.939,191.071 475.376,191.082C474.307,191.088 473.184,190.869 472.405,191.963C472.307,192.101 471.599,192.054 471.509,191.899C471.297,191.533 471.071,190.905 471.244,190.646C471.555,190.179 472.108,189.779 472.645,189.583C473.363,189.321 474.162,189.279 474.955,189.137C474.955,188.396 474.986,187.667 474.949,186.94C474.818,184.369 475.721,182.149 477.277,180.174C479.266,177.651 481.217,177.164 484.882,178.279Z" style="fill:rgb(35,31,32);fill-rule:nonzero;"/>
        </g>
        <g transform="matrix(4.16667,0,0,4.16667,0,0)">
            <path d="M389.082,228.104C389.472,226.864 389.767,225.583 390.269,224.39C392.603,218.837 398.712,215.529 404.25,216.766C406.388,217.243 408.142,218.323 409.239,220.253C409.59,220.871 409.74,221.636 409.823,222.352C409.851,222.597 409.437,223.026 409.141,223.13C408.934,223.202 408.385,222.916 408.328,222.701C407.627,220.021 405.732,218.779 403.17,218.356C400.114,217.852 397.506,218.928 395.169,220.793C392.928,222.582 391.644,224.958 391.073,227.742C391.012,228.041 390.978,228.345 390.917,228.644C390.45,230.908 390.013,231.035 388.135,229.765C385.546,228.016 382.694,227.698 379.772,228.759C377.375,229.63 376.5,231.615 376.403,234.018C376.31,236.354 376.318,236.283 374.138,235.706C371.453,234.996 368.837,235.336 366.497,236.9C364.831,238.014 364.125,239.696 364.373,241.658C364.677,244.066 366.073,245.76 368.316,246.617C371.47,247.821 374.707,247.69 377.755,246.381C379.725,245.535 381.518,244.239 383.313,243.03C384.627,242.146 385.133,242.205 385.768,243.664C388.374,249.646 394.873,251.367 399.877,247.185C401.6,245.744 402.767,243.646 404.241,241.891C404.543,241.531 405.075,241.365 405.501,241.109C405.629,241.571 406,242.144 405.848,242.479C403.547,247.538 398.133,252.458 391.364,250.894C388.528,250.238 386.519,248.419 384.98,246.025C384.725,245.628 384.492,245.217 384.195,244.724C383.764,245.032 383.382,245.295 383.01,245.571C378.782,248.709 374.089,249.839 368.936,248.685C364.177,247.618 361.473,242.972 362.992,238.653C363.968,235.879 366.996,233.854 370.394,233.747C371.779,233.703 373.167,233.74 374.558,233.74C376.379,226.395 381.204,224.517 389.082,228.104Z" style="fill:rgb(35,31,32);fill-rule:nonzero;"/>
        </g>
    </g>
</svg>
