<?xml version="1.0" encoding="UTF-8" standalone="no"?>
<!DOCTYPE svg PUBLIC "-//W3C//DTD SVG 1.1//EN" "http://www.w3.org/Graphics/SVG/1.1/DTD/svg11.dtd">
<svg width="100%" height="100%" viewBox="0 0 470 348" version="1.1" xmlns="http://www.w3.org/2000/svg" xmlns:xlink="http://www.w3.org/1999/xlink" xml:space="preserve" xmlns:serif="http://www.serif.com/" style="fill-rule:evenodd;clip-rule:evenodd;stroke-linejoin:round;stroke-miterlimit:2;">
    <g transform="matrix(1,0,0,1,-15.191,-129.723)">
        <g opacity="0.76">
            <g transform="matrix(1,0,0,1,152.426,434.472)">
                <path d="M0,-130.368C-15.924,-129.416 -31.84,-131.889 -47.786,-132.332C-68.216,-132.9 -88.736,-130.106 -108.27,-124.096C-117.178,-121.355 -127.247,-116.32 -128.434,-107.077C-129.941,-95.342 -116.489,-87.924 -105.335,-83.98C-90.468,-78.723 -75.601,-73.465 -60.734,-68.208C-55.284,-66.281 -48.867,-63.127 -48.595,-57.353C-48.38,-52.8 -52.284,-49.176 -56.109,-46.697C-73.333,-35.533 -94.857,-33.495 -113.57,-25.06C-125.031,-19.894 -136.372,-10.625 -137.189,1.919C-138.039,14.963 -126.897,26.051 -114.774,30.938C-89.501,41.126 -60.966,32.182 -33.735,33.155C-16.212,33.781 0.883,38.571 18.296,40.627C54.32,44.879 90.598,37.364 126.856,36.297C191.68,34.389 258.423,52.897 320.351,33.642C325.3,32.104 331.306,28.131 329.462,23.288C328.707,21.304 326.779,20.037 324.881,19.085C314.568,13.915 302.504,14.269 291.024,13.12C279.545,11.97 267.029,8.37 261.049,-1.496C259.093,-4.723 257.989,-8.727 259.202,-12.301C260.872,-17.225 266.211,-19.775 271.134,-21.449C288.265,-27.271 306.996,-29.093 322.525,-38.378C327.74,-41.495 332.938,-46.353 332.689,-52.423C332.336,-61.001 322.013,-65.07 313.501,-66.188C284.931,-69.942 255.08,-64.464 227.615,-73.181C220.098,-75.567 211.737,-80.753 211.987,-88.635C212.206,-95.527 218.928,-100.177 225.035,-103.378C252.862,-117.969 283.611,-126.96 314.915,-129.659C319.103,-130.02 323.781,-130.503 326.489,-133.718C330.463,-138.437 327.307,-146.16 322.058,-149.402C316.809,-152.645 310.336,-152.9 304.25,-153.912C281.297,-157.728 261.826,-173.1 239.31,-178.968C222.822,-183.265 205.431,-182.274 188.52,-180.183C156.169,-176.183 124.305,-168.257 93.85,-156.634C84.957,-153.24 76.114,-149.544 66.879,-147.16C58.931,-145.109 50.869,-145.972 43.04,-144.377C36.21,-142.985 30.717,-137.961 24.248,-135.405C16.546,-132.361 8.244,-130.861 0,-130.368" style="fill:rgb(0,182,191);fill-rule:nonzero;"/>
            </g>
        </g>
        <g transform="matrix(1,0,0,1,370.956,452.259)">
            <path d="M0,-203.701C-24.123,-216.036 -52.766,-220.552 -80.362,-214.169C-99.471,-209.748 -117.037,-200.012 -136.014,-195.042C-174.446,-184.98 -217.597,-194.641 -252.821,-176.042C-270.474,-166.721 -284.536,-150.566 -291.498,-131.609C-298.46,-112.652 -298.255,-91.072 -290.936,-72.254C-282.738,-51.176 -266.14,-34.214 -246.929,-22.737C-227.718,-11.261 -201.443,-2.02 -179.771,3.229C-123.526,16.851 -71.03,6.889 -33.651,-8.544C-0.071,-22.408 67.53,-68.466 52.041,-139.098C44.666,-172.73 27.079,-189.855 0,-203.701" style="fill:rgb(255,95,109);fill-rule:nonzero;"/>
        </g>
        <g opacity="0.26">
            <g transform="matrix(1,0,0,1,80.0193,298.407)">
                <path d="M0,81.598C0,81.598 3.639,94.543 17.477,98.899C31.314,103.256 64.971,75.185 64.971,75.185C64.971,75.185 68.126,110.68 54.846,116.521C41.566,122.363 40.651,130.723 40.651,130.723C40.651,130.723 68.719,141.644 81.706,128.974C94.693,116.304 125.45,79.926 125.45,79.926C125.45,79.926 140.865,93.516 191.177,92.328C241.488,91.139 241.632,69.772 258.104,64.378C274.576,58.984 314.707,49.786 310.486,17.803C310.486,17.803 329.745,25.087 342.471,17.803C342.471,17.803 324.144,-26.542 302.035,-41.765C275.486,-60.046 255.309,-58.298 237.015,-45.113C218.721,-31.927 186.029,14.414 163.65,11.808C141.27,9.203 120.684,-16.076 100.698,-4.177C80.712,7.722 45.568,63.364 24.228,70.261C2.887,77.159 0,81.598 0,81.598" style="fill:rgb(140,48,146);fill-rule:nonzero;"/>
            </g>
        </g>
        <g transform="matrix(1,0,0,1,250.59,171.22)">
            <path d="M0,-1.94C-1.08,-0.32 -2.14,1.31 -3.18,2.95C-4.41,2.63 -5.7,2.25 -7.02,1.82C-7.83,1.56 -8.62,1.28 -9.38,1.01C-9.13,-0.96 -8.88,-2.92 -8.64,-4.89C-7.52,-4.59 -6.36,-4.25 -5.17,-3.86C-3.32,-3.25 -1.58,-2.61 0,-1.94" style="fill:rgb(86,138,142);fill-rule:nonzero;"/>
        </g>
        <g transform="matrix(1,0,0,1,247.41,176.53)">
            <path d="M0,-2.36C-0.92,-0.94 -1.82,0.49 -2.71,1.92L-2.72,1.94C-3.08,1.69 -3.26,1.23 -3.46,0.83C-4.08,-0.37 -5.23,-1.28 -6.52,-1.66C-6.41,-2.54 -6.3,-3.42 -6.2,-4.3C-5.44,-4.03 -4.65,-3.75 -3.84,-3.49C-2.52,-3.06 -1.23,-2.68 0,-2.36" style="fill:rgb(136,209,213);fill-rule:nonzero;"/>
        </g>
        <g transform="matrix(-0.0266335,0.999645,0.999645,0.0266335,238.749,162.763)">
            <path d="M3.48,-7.969C3.371,-7.992 3.271,-7.985 3.18,-7.957C1.849,-7.562 2.032,-2.806 3.48,3.295C5.456,3.108 7.422,2.91 9.398,2.712C7.378,-3.324 4.945,-7.75 3.48,-7.969" style="fill:rgb(86,138,142);fill-rule:nonzero;"/>
        </g>
        <g transform="matrix(1,0,0,1,226.19,172.23)">
            <path d="M0,7.98C1.44,3.24 2.94,-1.49 4.5,-6.2C4.68,-4.73 9.04,-2.18 15.02,-0C14.92,0.88 14.81,1.76 14.7,2.64C14.31,2.52 13.91,2.45 13.51,2.44C12.1,2.38 10.61,2.91 9.32,2.35C8.01,1.78 7.39,0.31 6.51,-0.81C6.26,-1.12 5.94,-1.44 5.54,-1.46C4.81,-1.51 4.42,-0.63 4.23,0.08C3,4.78 1.78,9.48 0.54,14.18C-0.15,13.23 -0.69,12.24 -0.97,11.23C-0.65,10.15 -0.32,9.06 0,7.98" style="fill:rgb(136,209,213);fill-rule:nonzero;"/>
        </g>
        <g transform="matrix(1,0,0,1,272.52,159.81)">
            <path d="M0,-1.79C0.35,-1.38 0.13,-0.81 -0.15,-0.34C-0.35,-0.02 -0.73,0.13 -1.09,0.02C-1.14,0 -1.19,-0.01 -1.24,-0.03C-1.38,-0.31 -1.33,-0.67 -1.2,-0.97C-1.1,-1.2 -0.96,-1.41 -0.79,-1.6C-0.7,-1.7 -0.59,-1.8 -0.46,-1.86C-0.37,-1.9 -0.27,-1.92 -0.18,-1.92L-0.17,-1.92C-0.07,-1.85 -0.01,-1.8 0,-1.79" style="fill:rgb(212,213,214);fill-rule:nonzero;"/>
        </g>
        <g transform="matrix(1,0,0,1,272.34,165.29)">
            <path d="M0,-7.4C-0.09,-7.4 -0.19,-7.38 -0.28,-7.34C-0.41,-7.28 -0.52,-7.18 -0.61,-7.08C-0.78,-6.89 -0.92,-6.68 -1.02,-6.45C-1.15,-6.15 -1.2,-5.79 -1.06,-5.51C-3.11,-6.22 -7.95,-9.1 -9.33,-8.9C-10.23,-8.77 -15.38,-1.27 -19.51,5C-19.68,4.91 -19.85,4.83 -20.03,4.75L-21.43,4.12C-21.54,4.07 -21.64,4.03 -21.75,3.99C-19.54,0.65 -17.28,-2.65 -14.96,-5.92C-14.2,-6.99 -11.48,-10.86 -9.91,-11.51C-7.74,-12.4 -1.18,-8.24 0,-7.4" style="fill:white;fill-rule:nonzero;"/>
        </g>
        <g transform="matrix(1,0,0,1,252.83,175.79)">
            <path d="M0,-5.5C3.58,-3.78 5.77,-2.1 5.45,-1.11C5.1,0 1.72,-0.04 -2.92,-1.02C-2.08,-2.33 -1.08,-3.87 0,-5.5" style="fill:rgb(86,138,142);fill-rule:nonzero;"/>
        </g>
        <g transform="matrix(1,0,0,1,249.91,195.28)">
            <path d="M0,-20.51C4.64,-19.53 8.02,-19.49 8.37,-20.6C5.97,-14.31 2.92,-6.98 -0.11,0.09C-0.5,-0.09 -0.89,-0.26 -1.29,-0.41C-1.13,-0.76 -0.96,-1.11 -0.8,-1.46C0.7,-4.7 2.21,-7.97 3,-11.45C3.2,-12.31 3.19,-13.48 2.35,-13.75C2.1,-13.84 1.81,-13.81 1.56,-13.93C1.18,-14.12 1.05,-14.6 0.89,-15C0.39,-16.2 -0.85,-17.02 -2.13,-17.1L-2.12,-17.17C-1.71,-17.84 -0.96,-19.03 0,-20.51" style="fill:rgb(136,209,213);fill-rule:nonzero;"/>
        </g>
        <g transform="matrix(1,0,0,1,252.31,174.01)">
            <path d="M0,-3.97C0.18,-3.89 0.35,-3.81 0.52,-3.72C-0.56,-2.09 -1.56,-0.55 -2.4,0.76C-3.2,0.59 -4.04,0.39 -4.9,0.16C-3.86,-1.48 -2.8,-3.11 -1.72,-4.73C-1.61,-4.69 -1.51,-4.65 -1.4,-4.6L0,-3.97Z" style="fill:white;fill-rule:nonzero;"/>
        </g>
        <g transform="matrix(1,0,0,1,247.41,178.8)">
            <path d="M0,-4.63C0.86,-4.4 1.7,-4.2 2.5,-4.03C1.54,-2.55 0.79,-1.36 0.38,-0.69L0.37,-0.62C-0.03,-0.66 -0.44,-0.62 -0.83,-0.5C-1.39,-0.33 -2,0 -2.54,-0.23C-2.6,-0.26 -2.66,-0.29 -2.72,-0.33L-2.71,-0.35C-1.82,-1.78 -0.92,-3.21 0,-4.63" style="fill:rgb(108,169,173);fill-rule:nonzero;"/>
        </g>
        <g transform="matrix(1,0,0,1,240.88,157.713)">
            <path d="M0,17.704L-0.001,17.704C-0.277,17.704 -0.5,17.483 -0.5,17.207C-0.5,17.17 -0.494,17.123 -0.483,17.077C-0.374,16.205 -0.266,15.332 -0.167,14.46L-0.086,13.829C0.137,12.07 0.359,10.317 0.574,8.557C0.879,6.14 1.176,3.719 1.473,1.303L1.574,0.476C1.607,0.202 1.851,0 2.131,0.041C2.405,0.074 2.6,0.324 2.566,0.598L2.465,1.425C2.169,3.841 1.872,6.265 1.566,8.68C1.352,10.44 1.129,12.194 0.905,13.955L0.826,14.58C0.727,15.455 0.617,16.337 0.506,17.219C0.503,17.243 0.499,17.267 0.492,17.29C0.45,17.525 0.246,17.704 0,17.704" style="fill:rgb(10,10,10);fill-rule:nonzero;"/>
        </g>
        <g transform="matrix(1,0,0,1,245.5,213.63)">
            <path d="M0,-12.02C0.37,-11.65 0.75,-11.3 1.15,-10.97C0.25,-8.9 -0.63,-6.89 -1.46,-4.99C-1.82,-4.18 -2.19,-3.35 -2.78,-2.7C-3.53,-1.86 -4.58,-1.36 -5.66,-1.07C-9.56,0 -13.7,-1.39 -17.3,-3.22C-18.75,-3.96 -20.21,-4.84 -21.44,-5.92C-22.9,-7.2 -24.03,-8.74 -24.42,-10.63L-24.4,-10.66C-23.85,-10.19 -23.32,-9.81 -22.87,-9.56C-22.53,-9.37 -22.16,-9.24 -21.76,-9.17C-20.55,-7.86 -18.87,-6.86 -17.26,-6.08C-14.06,-4.53 -10.62,-3.3 -7.06,-3.24C-6.15,-3.22 -5.18,-3.3 -4.44,-3.84C-3.87,-4.26 -3.51,-4.89 -3.17,-5.51C-2.04,-7.64 -1.02,-9.83 0,-12.02" style="fill:rgb(136,209,213);fill-rule:nonzero;"/>
        </g>
        <g transform="matrix(1,0,0,1,240.89,206.26)">
            <path d="M0,-31.39C1.29,-31.01 2.44,-30.1 3.06,-28.9C3.26,-28.5 3.44,-28.04 3.8,-27.79C3.86,-27.75 3.92,-27.72 3.98,-27.69C4.52,-27.46 5.13,-27.79 5.69,-27.96C6.08,-28.08 6.49,-28.12 6.89,-28.08C8.17,-28 9.41,-27.18 9.91,-25.98C10.07,-25.58 10.2,-25.1 10.58,-24.91C10.83,-24.79 11.12,-24.82 11.37,-24.73C12.21,-24.46 12.22,-23.29 12.02,-22.43C11.23,-18.95 9.72,-15.68 8.22,-12.44C8.06,-12.09 7.89,-11.74 7.73,-11.39C6.8,-11.74 5.83,-12 4.84,-12.14C3.8,-12.3 2.61,-12.29 1.87,-11.55C0.63,-10.33 1.52,-8.22 2.6,-6.86C3.22,-6.08 3.89,-5.34 4.61,-4.65C3.59,-2.46 2.57,-0.27 1.44,1.86C1.1,2.48 0.74,3.11 0.17,3.53C-0.57,4.07 -1.54,4.15 -2.45,4.13C-6.01,4.07 -9.45,2.84 -12.65,1.29C-14.26,0.51 -15.94,-0.49 -17.15,-1.8C-16.1,-1.58 -14.97,-1.77 -14.31,-2.43C-13.51,-3.25 -13.74,-4.49 -14.05,-5.6C-12.84,-5.29 -11.4,-5.25 -10.57,-6.01C-9.58,-6.93 -10.2,-8.94 -10.63,-10.22C-10.36,-10.17 -10.09,-10.13 -9.81,-10.11C-9.13,-10.06 -8.39,-10.14 -7.91,-10.53C-7.16,-11.14 -7.3,-12.25 -7.69,-13.14C-8.14,-14.13 -11.91,-16.73 -14.16,-19.85C-12.92,-24.55 -11.7,-29.25 -10.47,-33.95C-10.28,-34.66 -9.89,-35.54 -9.16,-35.49C-8.76,-35.47 -8.44,-35.15 -8.19,-34.84C-7.31,-33.72 -6.69,-32.25 -5.38,-31.68C-4.09,-31.12 -2.6,-31.65 -1.19,-31.59C-0.79,-31.58 -0.39,-31.51 0,-31.39" style="fill:rgb(255,121,150);fill-rule:nonzero;"/>
        </g>
        <g opacity="0.26">
            <g transform="matrix(1,0,0,1,251.038,208.601)">
                <path d="M0,-29.026C-1.747,-27.686 -4.548,-20.171 -5.986,-17.288C-7.424,-14.404 -9.241,-15.204 -10.148,-13.231C-11.054,-11.258 -16.039,-15.278 -20.187,-16.414C-24.336,-17.55 -29.153,-4.982 -28.011,-3.533C-26.87,-2.084 -19.529,2.897 -13.195,3.159C-6.86,3.421 -5.148,-6.715 -4.388,-8.288C-3.627,-9.86 3.419,-26.567 4.45,-28.996C5.914,-32.447 1.259,-29.992 0,-29.026" style="fill:rgb(140,48,146);fill-rule:nonzero;"/>
            </g>
        </g>
        <g transform="matrix(1,0,0,1,248.62,279.03)">
            <path d="M0,-84.16C0.4,-84.01 0.79,-83.84 1.18,-83.66C2.44,-83.04 3.61,-82.24 4.63,-81.29C5.79,-80.21 6.81,-78.82 6.86,-77.23C6.93,-75.25 6.51,-73.23 5.02,-70.89C3.85,-69.05 -1.35,-64.41 -4.63,-62.93C-4.63,-46.88 5.242,-33.607 10.6,-31.7C24.08,-26.901 44.551,-35.079 53.466,-33.833C57.66,-33.247 60.14,-31.5 62.64,-29.11C55.36,-25.21 39.24,-13.7 37.34,-12.71C34.09,-11.03 25.4,-10.37 21.76,-5.4C21.12,-4.52 20.56,-2.44 20.4,0.17L20.32,0.16C18.34,0.56 0.09,0.91 -11.37,-10.55C-25.33,-24.51 -27.24,-42.68 -24.56,-71.32C-23.33,-70.24 -21.87,-69.36 -20.42,-68.62C-16.82,-66.79 -12.68,-65.4 -8.78,-66.47C-7.7,-66.76 -6.65,-67.26 -5.9,-68.1C-5.31,-68.75 -4.94,-69.58 -4.58,-70.39C-3.75,-72.29 -2.87,-74.3 -1.97,-76.37C-2.37,-76.7 -2.75,-77.05 -3.12,-77.42C-3.84,-78.11 -4.51,-78.85 -5.13,-79.63C-6.21,-80.99 -7.1,-83.1 -5.86,-84.32C-5.12,-85.06 -3.93,-85.07 -2.89,-84.91C-1.9,-84.77 -0.93,-84.51 0,-84.16" style="fill:rgb(192,99,77);fill-rule:nonzero;"/>
        </g>
        <g transform="matrix(1,0,0,1,226.73,189.82)">
            <path d="M0,-3.41C2.25,-0.29 6.02,2.31 6.47,3.3C6.86,4.19 7,5.3 6.25,5.91C5.77,6.3 5.03,6.38 4.35,6.33C4.07,6.31 3.8,6.27 3.53,6.22C1.92,5.91 0.42,5.07 -0.75,4C-2.13,2.75 -3.1,1.2 -3.89,-0.37C-4.33,-1.25 -4.67,-2.14 -4.83,-3.04C-5.05,-4.16 -5,-5.29 -4.58,-6.41C-3.49,-9.29 -0.91,-9.79 -0.54,-9.61C-0.86,-8.53 -1.19,-7.44 -1.51,-6.36C-1.23,-5.35 -0.69,-4.36 0,-3.41" style="fill:rgb(192,99,77);fill-rule:nonzero;"/>
        </g>
        <g transform="matrix(1,0,0,1,226.84,187.13)">
            <path d="M0,13.53C-0.01,13.53 -0.03,13.52 -0.04,13.52C-3.67,12.54 -6.46,9.6 -7.64,6.42C-7.74,6.14 -7.84,5.85 -7.92,5.55C-8.22,4.46 -8.3,3.33 -7.97,2.29C-7.57,1 -6.43,-0.12 -4.94,-0.35C-4.78,0.55 -4.44,1.44 -4,2.32C-3.21,3.89 -2.24,5.44 -0.86,6.69C0.31,7.76 1.81,8.6 3.42,8.91C3.85,10.19 4.47,12.2 3.48,13.12C2.65,13.88 1.21,13.84 0,13.53" style="fill:rgb(192,99,77);fill-rule:nonzero;"/>
        </g>
        <g transform="matrix(1,0,0,1,223.74,192.9)">
            <path d="M0,11.56C-0.4,11.49 -0.77,11.36 -1.11,11.17C-1.56,10.92 -2.09,10.54 -2.64,10.07C-5.4,7.73 -8.64,3.04 -4.82,-0.22C-4.74,0.08 -4.64,0.37 -4.54,0.65C-3.36,3.83 -0.57,6.77 3.06,7.75C3.07,7.75 3.09,7.76 3.1,7.76C3.41,8.87 3.64,10.11 2.84,10.93C2.18,11.59 1.05,11.78 0,11.56" style="fill:rgb(192,99,77);fill-rule:nonzero;"/>
        </g>
        <g transform="matrix(1,0,0,1,413.17,140.41)">
            <path d="M0,158.46C1.52,161.36 4.41,163.57 7.67,163.63C11.77,163.7 15.66,159.6 14.69,155.62C14.05,152.98 11.76,151.15 10.09,149.02C5.38,143 3.588,117.2 4.358,109.59C7.798,75.58 18.365,48.408 17.81,25.13C17.62,17.162 17.19,8.81 13.08,1.98C7.58,-7.17 -3.93,-11.97 -14.49,-10.39C-24.52,-8.89 -33.39,-2.11 -38.37,6.75C-37.99,7.2 -37.62,7.65 -37.15,8C-35.22,9.46 -32.11,8.92 -30.56,10.78C-29.73,11.79 -29.62,13.23 -28.89,14.31C-28.07,15.52 -26.62,16.1 -25.53,17.07L-25.44,17.16C-25.02,16.8 -24.44,16.5 -23.61,16.5C-17.83,16.5 -18.56,29.49 -20.24,33.75L-20.25,33.76C-16.63,39.54 -15.01,46.58 -15.24,53.44C-15.54,62.07 -18.54,70.44 -22.77,77.98C-21.57,78.24 -20.44,78.77 -19.49,79.58C-17.64,81.17 -16.72,83.67 -16.69,86.11C-16.67,88.55 -17.45,90.94 -18.55,93.12C-20.4,96.8 -23.24,100.07 -26.92,101.91C-28.96,102.93 -31.84,103.44 -34.59,103.19L-34.6,103.25C-37.75,117.85 -37.09,126.32 -35.8,138.3C-34.5,150.29 -27.74,162.37 -16.52,166.81C-14.14,167.75 -11.12,168.22 -9.25,166.46C-9.16,166.37 -9.07,166.28 -8.99,166.18C-8,167.32 -6.94,168.31 -5.87,169.04C-4.77,169.79 -3.43,170.43 -2.16,170.06C-0.51,169.59 0.25,167.69 0.51,166C0.91,163.49 0.73,160.89 0,158.46" style="fill:rgb(22,136,194);fill-rule:nonzero;"/>
        </g>
        <g transform="matrix(1,0,0,1,309.31,189.83)">
            <path d="M0,-13.61C-3.49,-14.35 -6.98,-17.5 -8.77,-19.41C-9.12,-19.8 -9.49,-20.21 -9.6,-20.72C-9.74,-21.41 -9.38,-22.1 -9.03,-22.71C-4.59,-30.36 1.55,-37.1 9.1,-41.71C16.64,-46.32 25.62,-48.72 34.42,-47.88C42.05,-47.16 49.26,-44.08 55.95,-40.28C56.6,-39.91 57.24,-39.54 57.87,-39.16C61.37,-37.08 65,-34.51 66.12,-29.86C69.65,-27.91 73.23,-25.94 76.41,-23.48C77.76,-22.45 79.04,-21.32 80.21,-20.08C81.49,-18.72 82.63,-17.24 83.61,-15.66C87.23,-9.88 88.85,-2.84 88.62,4.02C88.32,12.65 85.32,21.02 81.09,28.56C79.26,28.14 77.25,28.34 75.48,29.03C72.56,30.18 70.25,32.52 68.47,35.11C73.67,22.68 67.03,18.08 67.2,11.02C67.37,3.96 69.18,-2.97 71.56,-9.62C68.47,-3.38 66.67,4.42 66.22,11.33C57.91,6.71 55.89,3.64 55.51,2.37C53.39,-4.79 56.53,-14.75 57.98,-20.14C52.81,-12.7 52.23,-10.6 48.23,1.02C42.03,0 34.6,-3.63 29.43,-7.2C30.48,-15.25 33.63,-22.47 36.73,-29.51C32.28,-23.21 27.84,-16.9 23.39,-10.59C23.13,-10.21 22.85,-9.82 22.44,-9.61C21.95,-9.36 21.36,-9.41 20.81,-9.48C14.77,-10.24 8.93,-12.52 3.97,-16.06C6.35,-22.42 9.27,-27.75 12.73,-32.72C6.75,-27.22 4.59,-20.62 0.69,-13.5C0.46,-13.53 0.23,-13.56 0,-13.61" style="fill:rgb(22,136,194);fill-rule:nonzero;"/>
        </g>
        <g transform="matrix(1,0,0,1,316.6,202.77)">
            <path d="M0,43.02C-12.09,36.32 -20.93,23.85 -24.13,14.35C-25.43,10.49 -26.09,4.81 -24.96,0.89C-24.23,-1.63 -22.71,-3.86 -20.97,-5.83C-19.69,-7.27 -16.33,-8.28 -15.33,-9.92C-14.62,-11.08 -11.06,-18.65 -7.29,-26.55C-7.06,-26.5 -6.83,-26.47 -6.6,-26.44C-2.7,-33.56 -0.54,-40.16 5.44,-45.66C1.98,-40.69 -0.94,-35.36 -3.32,-29C1.64,-25.46 7.48,-23.18 13.52,-22.42C14.07,-22.35 14.66,-22.3 15.15,-22.55C15.56,-22.76 15.84,-23.15 16.1,-23.53C20.55,-29.84 24.99,-36.15 29.44,-42.45C26.34,-35.41 23.19,-28.19 22.14,-20.14C27.31,-16.57 34.74,-12.94 40.94,-11.92C44.94,-23.54 45.52,-25.64 50.69,-33.08C49.24,-27.69 46.1,-17.73 48.22,-10.57C48.6,-9.3 50.62,-6.23 58.93,-1.61C59.38,-8.52 61.18,-16.32 64.27,-22.56C61.89,-15.91 60.08,-8.98 59.91,-1.92C59.74,5.14 66.38,9.74 61.18,22.17C62.96,19.58 65.27,17.24 68.19,16.09C69.96,15.4 71.97,15.2 73.8,15.62C75,15.88 76.13,16.41 77.08,17.22C78.93,18.81 79.85,21.31 79.88,23.75C79.9,26.19 79.12,28.58 78.02,30.76C76.17,34.44 73.33,37.71 69.65,39.55C67.61,40.57 64.73,41.08 61.98,40.83C59.98,40.63 58.03,40.03 56.52,38.92L56.46,39C46.71,46.45 32.93,50.45 20.63,50.09L20.63,50.11C19.62,53.9 19.37,57.58 19.65,58.95C19.76,59.49 20.68,59.89 21.82,60.17C14.43,65.91 10.48,74.99 4.71,82.4C3.55,83.88 2.29,85.34 0.66,86.28C-0.92,87.2 -2.75,87.6 -4.56,87.87C-9.83,88.68 -15.24,88.62 -20.53,87.6C-21.48,86.82 -22.02,85.65 -22.48,84.51C-24.28,79.99 -25.08,75.09 -24.82,70.24C-24.79,69.67 -24.74,69.08 -24.49,68.57C-24.28,68.13 -23.93,67.77 -23.58,67.42C-17.23,60.93 -10.8,54.37 -3.15,49.46L-3.08,49.39C-2.99,49.49 -2.89,49.58 -2.8,49.68C-1.84,47.52 -0.92,45.27 0,43.02" style="fill:rgb(192,99,77);fill-rule:nonzero;"/>
        </g>
        <g opacity="0.26">
            <g transform="matrix(1,0,0,1,334.261,247.253)">
                <path d="M0,5.051C-9.083,3.303 -18.042,-1.674 -17.661,-1.463C-18.549,0.71 -19.439,2.88 -20.364,4.972C-13.663,6.725 -6.701,6.008 0,5.051" style="fill:rgb(140,48,146);fill-rule:nonzero;"/>
            </g>
        </g>
        <g transform="matrix(1,0,0,1,387.73,153.14)">
            <path d="M0,4.43C1.35,5.67 2.09,7.6 1.75,9.41C1.41,11.25 -0.12,12.87 -1.97,13.16L-2.01,13.21C-5.19,10.75 -8.77,8.78 -12.3,6.83C-13.42,2.18 -17.05,-0.39 -20.55,-2.47C-21.18,-2.85 -21.82,-3.22 -22.47,-3.59C-22.35,-5.47 -21.12,-7.25 -19.39,-8C-17.57,-8.78 -15.29,-8.38 -13.85,-7.02C-13.51,-6.7 -13.22,-6.34 -12.93,-5.98C-12.55,-5.53 -12.18,-5.08 -11.71,-4.73C-9.78,-3.27 -6.67,-3.81 -5.12,-1.95C-4.29,-0.94 -4.18,0.5 -3.45,1.58C-2.63,2.79 -1.18,3.37 -0.09,4.34L0,4.43Z" style="fill:rgb(255,95,109);fill-rule:nonzero;"/>
        </g>
        <g transform="matrix(1,0,0,1,295.48,274.06)">
            <path d="M0,89.07C0.93,85.72 2.12,82.45 3.99,79.53C5.76,76.78 8.08,74.43 10.45,72.18C12.05,70.66 13.69,69.17 15.35,67.72C15.79,67.33 16.23,66.94 16.68,66.56C18.03,65.4 19.41,64.27 20.8,63.15C26.87,58.31 33.28,53.91 39.98,49.99C45.26,46.92 50.71,44.13 55.94,41C52.73,34.12 48.19,27.88 42.65,22.7L42.64,22.71C41.45,28.94 39.46,35 36.76,40.73C29.22,34.42 29.89,23 32.8,14.68C36.44,4.27 42.64,-4.02 48.11,-10.5C66.8,-8.65 77.33,24.57 81.02,34.31C82.68,38.54 83.71,43.18 84.17,47.87C84.48,51 84.49,54.32 82.95,57.06C81.45,59.75 78.68,61.46 75.99,62.97C61.98,70.8 46.67,76.29 30.88,79.13C30.39,79.22 29.89,79.31 29.46,79.56C28.84,79.92 28.44,80.56 28,81.13C26.68,82.82 24.72,83.99 22.61,84.36C19.81,89.18 16.96,93.66 14.03,98.09C13.57,98.79 12.95,99.57 12.11,99.53C11.35,99.5 10.79,98.75 10.69,98C10.59,97.24 10.85,96.5 11.11,95.78C12.42,92.14 13.85,88.53 15.39,84.97C12.9,88.92 10.41,92.86 7.92,96.81C7.15,98.03 5.5,99.38 4.51,98.32C3.97,97.74 4.13,96.82 4.34,96.05C5.51,91.76 7.06,87.58 8.96,83.57C6.54,87.31 4.12,91.04 1.7,94.78C1.04,95.79 -0.37,96.9 -1.17,95.98C-1.57,95.52 -1.45,94.81 -1.31,94.2C-0.9,92.49 -0.49,90.77 0,89.07" style="fill:rgb(192,99,77);fill-rule:nonzero;"/>
        </g>
        <g opacity="0.26">
            <g transform="matrix(1,0,0,1,335,312.251)">
                <path d="M0,-18.251C-1.188,-12.31 -0.612,-6.017 -1.625,0C0.501,-4.97 2.104,-10.163 3.12,-15.481L3.13,-15.491C3.405,-15.234 3.666,-14.963 3.936,-14.7C3.515,-16.26 0.918,-16.415 0,-18.251" style="fill:rgb(140,48,146);fill-rule:nonzero;"/>
            </g>
        </g>
        <g opacity="0.26">
            <g transform="matrix(1,0,0,1,332.24,319.18)">
                <path d="M0,-4.39C2.7,-10.12 4.69,-16.18 5.88,-22.41L5.89,-22.42C11.43,-17.24 15.97,-11 19.18,-4.12C13.95,-0.99 8.5,1.8 3.22,4.87C-3.48,8.79 -9.89,13.19 -15.96,18.03C-9.34,11.61 -3.92,3.96 0,-4.39" style="fill:rgb(140,48,146);fill-rule:nonzero;"/>
            </g>
        </g>
        <g transform="matrix(1,0,0,1,271.13,299.69)">
            <path d="M0,-8.84C-1.87,-12.63 -2.33,-17.03 -2.11,-20.49C-1.95,-23.1 -1.39,-25.18 -0.75,-26.06C2.89,-31.03 11.58,-31.69 14.83,-33.37C16.73,-34.36 32.85,-45.87 40.13,-49.77C40.9,-49.04 41.65,-48.28 42.39,-47.53L42.32,-47.46C34.67,-42.55 28.24,-35.99 21.89,-29.5C21.54,-29.15 21.19,-28.79 20.98,-28.35C20.73,-27.84 20.68,-27.25 20.65,-26.68C20.39,-21.83 21.19,-16.93 22.99,-12.41C23.45,-11.27 23.99,-10.1 24.94,-9.32C30.23,-8.3 35.64,-8.24 40.91,-9.05C42.72,-9.32 44.55,-9.72 46.13,-10.64C47.76,-11.58 49.02,-13.04 50.18,-14.52C55.95,-21.93 59.9,-31.01 67.29,-36.75C68.74,-36.4 70.53,-36.23 71.44,-36.2C71.78,-36.19 72.12,-36.16 72.46,-36.13C66.99,-29.65 60.79,-21.36 57.15,-10.95C54.24,-2.63 53.57,8.79 61.11,15.1C57.19,23.45 51.77,31.1 45.15,37.52C43.76,38.64 42.38,39.77 41.03,40.93C23.93,28.62 9.96,11.96 0.81,-7.03C0.52,-7.62 0.24,-8.22 -0.04,-8.82L0,-8.84Z" style="fill:rgb(255,221,51);fill-rule:nonzero;"/>
        </g>
        <g transform="matrix(1,0,0,1,312.16,293.95)">
            <path d="M0,46.67C-0.45,47.05 -0.89,47.44 -1.33,47.83C-11.66,47.96 -21.6,43.4 -30.27,37.7C-42.59,29.6 -52.32,21.22 -60.49,8.99C-55.92,8.11 -49.16,5.53 -40.22,-1.29C-31.07,17.7 -17.1,34.36 0,46.67" style="fill:rgb(192,99,77);fill-rule:nonzero;"/>
        </g>
        <g transform="matrix(1,0,0,1,281.89,337.67)">
            <path d="M0,-6.02C8.67,-0.32 18.61,4.24 28.94,4.11C27.28,5.56 25.64,7.05 24.04,8.57C21.67,10.82 19.35,13.17 17.58,15.92C15.71,18.84 14.52,22.11 13.59,25.46C7.85,26.79 2.04,27.87 -3.8,28.71C0.95,26.17 3.45,20.31 2.85,14.92C2.23,9.41 -1.17,4.48 -5.52,1.03C-9.83,-2.4 -15.02,-4.52 -20.24,-6.25C-25.43,-10.13 -32.57,-14.96 -40.45,-19.61C-38.21,-24.24 -37.01,-29.35 -36.94,-34.49L-36.91,-34.62C-35.99,-34.42 -33.76,-34.07 -30.22,-34.73C-22.05,-22.5 -12.32,-14.12 0,-6.02" style="fill:rgb(255,221,51);fill-rule:nonzero;"/>
        </g>
        <g opacity="0.26">
            <g transform="matrix(1,0,0,1,237.205,261.133)">
                <path d="M0,7.301C0.015,7.316 0.029,7.332 0.045,7.347C11.505,18.807 29.755,18.457 31.735,18.057L31.814,18.067C31.975,15.457 32.535,13.377 33.175,12.497C36.814,7.527 45.505,6.867 48.755,5.187C50.654,4.197 66.775,-7.313 74.055,-11.213C73.949,-11.314 73.842,-11.407 73.736,-11.506C52.686,2.962 24.894,14.142 0,7.301" style="fill:rgb(140,48,146);fill-rule:nonzero;"/>
            </g>
        </g>
        <g transform="matrix(1,0,0,1,115.86,301.94)">
            <path d="M0,123.76L-0.56,121.49C-2.16,121.18 -3.74,120.81 -4.57,121.78C-4.7,121.93 -4.79,122.08 -4.85,122.23C-6.18,122.33 -7.63,120.94 -7.81,120.22C-7.83,120.1 -7.85,119.99 -7.86,119.87C-7.89,119.22 -7.59,118.55 -7.06,118.16C-6.66,117.87 -6.17,117.74 -5.67,117.74L-6.02,115.07C-0.66,114.4 5.92,110.74 7.26,109.39C11.31,105.34 13.75,99.97 16.25,94.81C23.19,80.5 33.17,60.79 43.21,43.04C55.32,21.65 67.54,3.11 74.65,0.33C86,-4.12 107.69,5.55 125.58,16.12C133.46,20.77 140.6,25.6 145.79,29.48C151.01,31.21 156.2,33.33 160.51,36.76C164.86,40.21 168.26,45.14 168.88,50.65C169.48,56.04 166.98,61.9 162.23,64.44C142.89,67.24 123.12,67.5 103.66,65.62C102.45,65.5 101.24,65.38 100.03,65.24C95.21,63.19 90.8,60.19 87.11,56.45C85.72,58.59 84.3,60.68 82.86,62.7C60.15,94.66 32.89,111.59 29.13,117.73C28.09,119.43 26.98,123.55 22.39,124.33C18.34,125.01 15.38,125.04 8.23,126.55L8.21,126.55C6.82,126.8 5.81,126.91 4.81,127.19C4.17,127.36 -0.93,127.88 -1.64,125.54C-1.67,125.44 -1.69,125.33 -1.69,125.23C-1.69,124.57 -1,124 0,123.76" style="fill:rgb(192,99,77);fill-rule:nonzero;"/>
        </g>
        <g opacity="0.26">
            <g transform="matrix(1,0,0,1,202.446,358.828)">
                <path d="M0,0.351C0.174,0.086 0.351,-0.172 0.524,-0.438C4.214,3.302 8.624,6.302 13.444,8.352C14.654,8.492 15.864,8.612 17.074,8.732C28.216,9.808 39.46,10.179 50.666,9.777C34.103,7.631 18.275,1.365 5.554,-9.828C4.625,-6.11 1.976,-3.246 0,0.351" style="fill:rgb(140,48,146);fill-rule:nonzero;"/>
            </g>
        </g>
        <g transform="matrix(1,0,0,1,76.46,285.33)">
            <path d="M0,89.75L0.27,87.29C-3.23,85.39 -4.96,86.68 -5.33,87.69C-5.79,87.4 -6.78,86.46 -6.48,84.88C-6.35,84.17 -5.97,83.77 -5.47,83.59L-5.5,83.49C-6.83,82.29 -5.84,80.72 -4.33,80.73C-2.62,80.73 -1.26,81.45 -0.57,81.38C5.39,81.53 11.8,81.37 17.04,78.26C19.63,76.73 21.77,74.55 23.87,72.39C45.72,49.94 82.89,-1.99 99.72,-7.78C108.9,-10.94 117.43,-7.32 122.87,-5.57C139.05,-0.37 153.67,8.67 168.11,17.63C168.19,17.65 168.33,17.68 168.52,17.72L168.49,17.85C168.42,22.99 167.22,28.1 164.98,32.73C147.09,22.16 125.4,12.49 114.05,16.94C106.94,19.72 94.72,38.26 82.61,59.65C67.97,78.54 50.39,84.72 32.88,95.64C31.42,96.96 29.04,100.32 25.63,100.58C24.15,100.69 22.67,100.39 21.24,100C16.99,98.85 12.97,96.87 8.62,96.2C6.94,95.95 3.66,96.01 1.99,95.7C0.92,95.51 -4.04,93.94 -2.85,91.13C-2.32,89.87 -1.13,89.65 0,89.75" style="fill:rgb(192,99,77);fill-rule:nonzero;"/>
        </g>
        <g opacity="0.26">
            <g transform="matrix(1,0,0,1,119.116,301.663)">
                <path d="M0,73.584C14.184,65.643 28.042,58.687 39.954,43.317C52.064,21.927 64.284,3.387 71.394,0.607C72.025,0.36 72.694,0.163 73.386,0C70.484,0.399 67.829,1.393 65.884,3.337C42.728,26.494 24.665,53.468 0,73.584" style="fill:rgb(140,48,146);fill-rule:nonzero;"/>
            </g>
        </g>
        <g transform="matrix(1,0,0,1,244.57,357.45)">
            <path d="M0,-54.49C-14.44,-63.45 -29.06,-72.49 -45.24,-77.69C-50.68,-79.44 -59.21,-83.06 -68.39,-79.9C-85.22,-74.11 -122.39,-22.18 -144.24,0.27C-146.34,2.43 -148.48,4.61 -151.07,6.14C-156.31,9.25 -162.72,9.41 -168.68,9.26C-169.37,9.33 -170.73,8.61 -172.44,8.61C-173.95,8.6 -174.94,10.17 -173.61,11.37L-173.58,11.47C-174.08,11.65 -174.46,12.05 -174.59,12.76C-174.89,14.34 -173.9,15.28 -173.44,15.57C-173.07,14.56 -171.34,13.27 -167.84,15.17L-168.11,17.63C-169.24,17.53 -170.43,17.75 -170.96,19.01C-172.15,21.82 -167.19,23.39 -166.12,23.58C-164.45,23.89 -161.17,23.83 -159.49,24.08C-155.14,24.75 -151.12,26.73 -146.87,27.88C-145.44,28.27 -143.96,28.57 -142.48,28.46C-139.07,28.2 -136.69,24.84 -135.23,23.52C-131.967,21.485 -128.702,19.615 -125.454,17.797C-100.79,-2.319 -82.727,-29.294 -59.57,-52.45C-57.626,-54.394 -54.971,-55.388 -52.068,-55.787C-40.304,-58.545 -20.025,-49.372 -3.13,-39.39C-0.89,-44.02 0.31,-49.13 0.38,-54.27L0.41,-54.4C0.22,-54.44 0.08,-54.47 0,-54.49" style="fill:rgb(192,99,77);fill-rule:nonzero;"/>
        </g>
        <g opacity="0.26">
            <g transform="matrix(1,0,0,1,202.97,367.18)">
                <path d="M0,-8.79C3.69,-5.05 8.1,-2.05 12.92,0C7.18,-0.64 1.44,-1.47 -4.25,-2.54C-2.81,-4.56 -1.39,-6.65 0,-8.79" style="fill:rgb(140,48,146);fill-rule:nonzero;"/>
            </g>
        </g>
        <g transform="matrix(1,0,0,1,111.01,425.75)">
            <path d="M0,-1.58C0.06,-1.73 0.15,-1.88 0.28,-2.03C1.11,-3 2.69,-2.63 4.29,-2.32L4.85,-0.05C3.85,0.19 3.16,0.76 3.16,1.42L3.03,1.42C2.17,1.38 -0.62,-0.06 0,-1.58" style="fill:rgb(192,99,77);fill-rule:nonzero;"/>
        </g>
        <g transform="matrix(1,0,0,1,109.84,421.09)">
            <path d="M0,-4.08L0.35,-1.41C-0.15,-1.41 -0.64,-1.28 -1.04,-0.99C-1.57,-0.6 -1.87,0.07 -1.84,0.72C-4.34,0.16 -5.24,-1.36 -5.53,-2.29C-5.77,-3.1 -5.3,-4.05 -4.57,-4.47C-4.05,-4.77 -3.39,-4.8 -2.8,-4.66C-2.21,-4.53 -1.65,-4.25 -1.11,-3.98C-0.75,-4 -0.38,-4.03 0,-4.08" style="fill:rgb(192,99,77);fill-rule:nonzero;"/>
        </g>
        <g transform="matrix(1,0,0,1,71.13,374.22)">
            <path d="M0,-1.2C0.37,-2.21 2.1,-3.5 5.6,-1.6L5.33,0.86C4.2,0.76 3.01,0.98 2.48,2.24C2.06,2.3 -0.51,0.31 -0.02,-1.16C-0.02,-1.17 -0.01,-1.19 0,-1.2" style="fill:rgb(192,99,77);fill-rule:nonzero;"/>
        </g>
        <g transform="matrix(1,0,0,1,375.545,218.862)">
            <path d="M0,-59.101C5.08,-56.405 10.294,-53.62 14.369,-49.335C27.004,-35.779 24.014,-15.058 15.066,-0.354C15.114,-0.432 14.915,-0.089 14.923,-0.096C14.859,0.019 14.714,0.06 14.599,-0.003C14.355,-0.145 14.544,-0.398 14.633,-0.571C15.995,-3.115 17.247,-5.72 18.275,-8.41C23.649,-21.399 23.682,-37.925 13.725,-48.733C9.822,-52.952 4.726,-55.837 -0.231,-58.684C-0.345,-58.749 -0.385,-58.895 -0.319,-59.009C-0.255,-59.121 -0.113,-59.161 0,-59.101" style="fill:rgb(0,91,136);fill-rule:nonzero;"/>
        </g>
        <g transform="matrix(1,0,0,1,313.057,157.284)">
            <path d="M0,16.402C1.865,10.364 4.886,4.655 8.788,-0.311C8.87,-0.414 9.021,-0.43 9.124,-0.348C9.218,-0.272 9.24,-0.139 9.179,-0.038C6.729,3.985 4.408,8.041 2.415,12.3C1.738,13.71 1.1,15.14 0.447,16.569C0.334,16.832 -0.09,16.679 0,16.402" style="fill:rgb(0,91,136);fill-rule:nonzero;"/>
        </g>
        <g transform="matrix(1,0,0,1,338.504,160.311)">
            <path d="M0,22.288C0.653,14.39 3.828,6.928 7.318,-0.087C7.444,-0.346 7.865,-0.171 7.755,0.105C5.649,5.603 3.316,10.971 1.784,16.648C1.263,18.526 0.835,20.428 0.473,22.35C0.426,22.634 -0.029,22.582 0,22.288" style="fill:rgb(0,91,136);fill-rule:nonzero;"/>
        </g>
        <g transform="matrix(1,0,0,1,375.414,169.494)">
            <path d="M0,31.874C-4.054,29.576 -8.602,27.416 -10.948,23.136C-12.802,16.994 -11.292,10.572 -9.691,4.58L-8.354,0.134C-8.273,-0.148 -7.819,-0.041 -7.894,0.258C-9.316,6.206 -11.033,12.236 -10.78,18.375C-10.702,19.87 -10.475,21.417 -10.062,22.781C-9.521,24.056 -8.376,25.154 -7.285,26.174C-5.003,28.183 -2.402,29.862 0.232,31.457C0.492,31.599 0.269,32.022 0,31.874" style="fill:rgb(0,91,136);fill-rule:nonzero;"/>
        </g>
        <g transform="matrix(1,0,0,1,311.198,373.33)">
            <path d="M0,-14.158C-0.704,-11.546 -1.621,-9.026 -2.604,-6.517C-2.992,-4.901 -5.857,-0.987 -3.594,-0.097C-3.172,-0.049 -3.204,0.605 -3.622,0.617C-4.532,0.66 -5.245,-0.095 -5.511,-0.901C-5.965,-3.143 -4.629,-5.029 -4.004,-7.052C-2.999,-9.563 -1.933,-12.054 -0.656,-14.442C-0.462,-14.818 0.142,-14.559 0,-14.158" style="fill:rgb(109,41,48);fill-rule:nonzero;"/>
        </g>
        <g transform="matrix(1,0,0,1,304.763,372.24)">
            <path d="M0,-14.457C-0.717,-12.311 -1.849,-9.267 -2.605,-7.104L-3.891,-3.433C-4.159,-2.391 -5.026,-1.051 -4.495,-0.078C-4.268,0.256 -4.744,0.658 -5.035,0.384C-5.667,-0.172 -5.679,-1.102 -5.577,-1.842C-4.947,-5.114 -3.926,-8.258 -2.523,-11.272C-1.96,-12.468 -1.358,-13.645 -0.646,-14.763C-0.434,-15.115 0.14,-14.845 0,-14.457" style="fill:rgb(109,41,48);fill-rule:nonzero;"/>
        </g>
        <g transform="matrix(1,0,0,1,356.029,369.733)">
            <path d="M0,-57.166C-5.986,-53.044 -12.626,-49.493 -18.886,-45.888C-28.336,-40.387 -37.28,-33.994 -45.467,-26.745C-55.134,-18.238 -58.107,-15.024 -61.244,-2.243C-61.469,-1.388 -61.834,-0.394 -61.449,0.072C-61.317,0.223 -61.336,0.455 -61.491,0.583C-61.641,0.707 -61.862,0.687 -61.989,0.541C-62.727,-0.417 -62.209,-1.463 -62.031,-2.434C-60.999,-6.911 -59.958,-11.53 -57.624,-15.551C-54.844,-20.431 -50.459,-24.081 -46.415,-27.811C-43.689,-30.286 -40.843,-32.617 -37.945,-34.886C-32.095,-39.349 -25.959,-43.44 -19.541,-47.038C-13.221,-50.549 -6.522,-53.89 -0.398,-57.761C-0.23,-57.873 0.005,-57.827 0.11,-57.65C0.21,-57.485 0.16,-57.271 0,-57.166" style="fill:rgb(109,41,48);fill-rule:nonzero;"/>
        </g>
        <g transform="matrix(1,0,0,1,243.863,193.774)">
            <path d="M0,22.043C1.719,21.15 3.29,19.921 4.789,18.652C7.699,16.207 10.676,13.329 10.961,9.349C11.255,7.479 10.468,5.801 9.055,4.545C7.012,2.569 4.299,1.253 1.473,0.901C0.572,0.797 -0.331,0.879 -0.786,1.437C-2.585,4.028 3.005,8.556 4.865,10.111C5.215,10.339 4.842,10.875 4.51,10.62C2.849,9.461 1.273,8.182 -0.074,6.657C-1.167,5.581 -2.198,4.101 -2.246,2.445C-2.358,0.396 -0.16,-0.632 1.607,-0.296C5.686,0.247 9.947,2.402 11.843,6.221C12.947,9.262 11.713,12.768 9.844,15.244C8.488,16.831 6.967,18.127 5.393,19.393C3.784,20.602 2.15,21.802 0.255,22.608C0.098,22.675 -0.084,22.602 -0.152,22.444C-0.217,22.29 -0.148,22.114 0,22.043" style="fill:rgb(109,41,48);fill-rule:nonzero;"/>
        </g>
        <g transform="matrix(1,0,0,1,109.887,420.389)">
            <path d="M0,-3.024C-0.445,-2.961 -0.939,-2.694 -1.381,-2.83C-2.751,-3.411 -4.556,-3.829 -4.892,-2.121C-4.74,-0.514 -3.253,0.479 -1.805,1.057C-1.329,1.122 -1.318,1.775 -1.812,1.785C-3.218,1.777 -5.086,0.93 -5.883,-0.512C-7.096,-2.13 -5.886,-4.648 -3.891,-4.722C-2.66,-4.809 -1.702,-4.225 -0.932,-3.727L-1.184,-3.779C-0.824,-3.769 -0.462,-3.764 -0.093,-3.733C0.319,-3.741 0.398,-3.118 0,-3.024" style="fill:rgb(109,41,48);fill-rule:nonzero;"/>
        </g>
        <g transform="matrix(1,0,0,1,268.687,315.183)">
            <path d="M0,22.5C-4.681,18.188 -10.059,14.589 -15.344,11.038C-25.998,3.978 -37.147,-2.463 -48.91,-7.474C-54.797,-9.898 -60.862,-12.059 -67.117,-12.928C-70.223,-13.347 -73.412,-13.465 -76.386,-12.704C-79.378,-12.057 -81.705,-9.849 -83.908,-7.588C-88.232,-2.949 -91.921,2.319 -95.486,7.624C-102.555,18.314 -108.907,29.471 -115.208,40.632C-115.303,40.808 -115.526,40.872 -115.699,40.773C-115.869,40.676 -115.929,40.462 -115.837,40.291C-112.772,34.649 -109.768,28.971 -106.567,23.4C-100.025,12.315 -93.531,1.132 -84.898,-8.525C-83.875,-9.578 -82.441,-10.986 -81.281,-11.862C-72.362,-18.372 -57.484,-12.412 -48.374,-8.739C-36.549,-3.601 -25.403,2.934 -14.728,10.123C-9.451,13.827 -4.168,17.511 0.506,21.994C0.646,22.133 0.648,22.359 0.509,22.5C0.369,22.642 0.14,22.641 0,22.5" style="fill:rgb(109,41,48);fill-rule:nonzero;"/>
        </g>
        <g transform="matrix(1,0,0,1,112.122,423.054)">
            <path d="M0,-2.404C-1.316,-2.986 -3.636,-2.931 -3.348,-1.015C-3.145,-0.488 -1.993,0.654 -1.141,0.726C-1.021,0.706 -0.877,0.826 -0.778,0.88C-0.533,1.015 -0.603,1.41 -0.873,1.459C-2.186,1.844 -4.194,0.908 -4.784,-0.716C-5.153,-2.067 -4.266,-3.626 -2.904,-3.929C-1.706,-4.248 -0.5,-3.771 0.356,-3.024C0.663,-2.777 0.362,-2.264 0,-2.404" style="fill:rgb(109,41,48);fill-rule:nonzero;"/>
        </g>
        <g transform="matrix(1,0,0,1,115.232,425.845)">
            <path d="M0,-2.064C-0.805,-2.061 -1.601,-2.132 -2.277,-2.084C-5.216,-1.685 -2.315,0.558 -1.077,1.008C-0.898,1.081 -0.812,1.285 -0.885,1.464C-0.94,1.6 -1.071,1.682 -1.209,1.682C-2.207,1.683 -2.962,1.347 -3.726,0.853C-5.319,-0.102 -5.596,-2.24 -3.753,-3.178C-2.425,-3.747 -1.035,-3.224 0.136,-2.766C0.507,-2.631 0.388,-2.052 0,-2.064" style="fill:rgb(109,41,48);fill-rule:nonzero;"/>
        </g>
        <g transform="matrix(1,0,0,1,117.145,428.704)">
            <path d="M0,-2.777C-1.177,-2.484 -3.255,-1.815 -1.566,-0.624C-1.148,-0.338 -0.601,-0.092 -0.028,0.142C0.159,0.219 0.249,0.433 0.172,0.62C0.118,0.752 -0.005,0.836 -0.139,0.846C-0.805,0.898 -1.504,0.847 -2.198,0.536C-4.113,-0.275 -4.316,-2.763 -2.082,-3.444C-1.366,-3.675 -0.642,-3.674 0.03,-3.492C0.226,-3.439 0.341,-3.237 0.288,-3.042C0.25,-2.901 0.135,-2.802 0,-2.777" style="fill:rgb(109,41,48);fill-rule:nonzero;"/>
        </g>
        <g transform="matrix(1,0,0,1,209.001,419.523)">
            <path d="M0,-70.377C-7.72,-56.376 -17.361,-43.394 -28.432,-31.861C-33.977,-26.091 -39.812,-20.606 -45.871,-15.396C-51.437,-10.43 -57.557,-6.075 -62.816,-0.795L-63.706,0.334C-63.816,0.518 -64.075,0.598 -64.25,0.45C-64.401,0.331 -64.429,0.114 -64.316,-0.04C-63.776,-0.824 -63.026,-1.759 -62.367,-2.41C-57.44,-7.373 -51.898,-11.683 -46.735,-16.383C-34.812,-26.915 -23.653,-38.329 -13.992,-50.98C-9.164,-57.154 -4.75,-64.077 -0.623,-70.729C-0.526,-70.907 -0.289,-70.975 -0.115,-70.86C0.048,-70.757 0.098,-70.542 0,-70.377" style="fill:rgb(109,41,48);fill-rule:nonzero;"/>
        </g>
        <g transform="matrix(-0.806149,0.591713,0.591713,0.806149,355.975,308.674)">
            <path d="M7.815,-23.996C5.106,-15.449 4.822,-6.075 7.115,2.597C7.22,3.011 7.878,2.889 7.815,2.459C6.587,-6.303 6.885,-15.136 8.508,-23.818C8.605,-24.245 7.936,-24.426 7.815,-23.996" style="fill:rgb(109,41,48);fill-rule:nonzero;"/>
        </g>
        <g transform="matrix(1,0,0,1,74.5812,371.615)">
            <path d="M0,-1.841C-1.089,-1.97 -2.816,-2.473 -3.611,-1.821C-4.271,-1.077 -3.939,0.541 -3.083,1.231C-2.941,1.368 -2.936,1.594 -3.072,1.736C-3.173,1.841 -3.322,1.871 -3.451,1.825C-4.3,1.52 -4.974,0.821 -5.235,-0.098C-5.482,-1.078 -5.408,-2.074 -4.668,-2.883C-3.754,-3.712 -2.716,-3.604 -1.924,-3.45C-1.109,-3.272 -0.398,-2.923 0.258,-2.508C0.428,-2.401 0.479,-2.176 0.371,-2.005C0.29,-1.877 0.141,-1.816 0,-1.841" style="fill:rgb(109,41,48);fill-rule:nonzero;"/>
        </g>
        <g transform="matrix(1,0,0,1,76.5594,374.789)">
            <path d="M0,-1.855C-1.571,-2.357 -4.044,-3.125 -4.907,-1.248C-4.786,-1.353 -4.698,-1.568 -4.712,-1.728C-5.015,-0.672 -3.937,0.365 -3.227,1.073L-3.042,1.225C-2.992,1.274 -2.92,1.29 -3,1.317C-2.542,1.243 -2.438,1.967 -2.899,2.025C-4.477,1.907 -6.697,-0.23 -6.149,-1.962C-6.148,-1.962 -6.186,-1.731 -6.186,-1.731C-6.187,-1.917 -6.086,-2.159 -5.952,-2.29L-6.122,-2.023C-5.847,-2.754 -5.289,-3.263 -4.667,-3.54C-4.045,-3.827 -3.38,-3.88 -2.775,-3.824C-1.553,-3.694 -0.529,-3.143 0.341,-2.484C0.5,-2.363 0.532,-2.136 0.411,-1.977C0.313,-1.847 0.145,-1.804 0,-1.855" style="fill:rgb(109,41,48);fill-rule:nonzero;"/>
        </g>
        <g transform="matrix(1,0,0,1,78.4972,377.002)">
            <path d="M0,-1.089C-1.369,-1.113 -3.519,-1.735 -4.294,-0.244C-4.517,0.17 -4.617,0.597 -4.474,1.153C-4.416,1.352 -4.535,1.56 -4.736,1.612C-5.285,1.654 -5.471,0.927 -5.611,0.474C-5.828,-0.76 -5.071,-2.066 -3.853,-2.477C-3.068,-2.743 -2.318,-2.698 -1.637,-2.544C-0.955,-2.394 -0.34,-2.101 0.215,-1.768C0.389,-1.665 0.445,-1.44 0.342,-1.266C0.268,-1.143 0.134,-1.079 0,-1.089" style="fill:rgb(109,41,48);fill-rule:nonzero;"/>
        </g>
        <g transform="matrix(1,0,0,1,380.888,280.517)">
            <path d="M0,-134.957C8.751,-143.01 23.209,-144.768 32.516,-136.622C41.831,-128.48 42.126,-114.885 40.221,-103.583C36.438,-81.566 32.433,-57.299 29.482,-35.286C27.445,-20.416 26.661,-4.07 35.138,9.007C35.283,9.227 35.223,9.523 35.003,9.668C34.786,9.811 34.494,9.752 34.346,9.54C25.363,-3.589 25.81,-20.408 27.746,-35.506C30.61,-58.384 34.311,-81.191 38.335,-103.873C40.148,-114.635 40.134,-127.554 31.451,-135.403C22.806,-143.134 9.024,-141.675 0.624,-134.236C0.164,-133.825 -0.465,-134.556 0,-134.957" style="fill:rgb(0,91,136);fill-rule:nonzero;"/>
        </g>
        <g transform="matrix(1,0,0,1,389.453,220.057)">
            <path d="M0,-67.314C7.075,-69.642 14.567,-64.67 17.31,-58.201C20.31,-51.77 19.825,-44.417 18.859,-37.632C17.836,-30.879 16.553,-24.162 14.852,-17.55C13.158,-10.937 11.132,-4.41 8.698,1.959C8.604,2.205 8.328,2.328 8.082,2.234C7.845,2.144 7.723,1.885 7.797,1.646C9.817,-4.832 11.632,-11.364 13.152,-17.963C14.666,-24.562 15.958,-31.212 16.885,-37.916C17.871,-44.443 18.367,-51.33 15.701,-57.478C13.324,-63.462 6.802,-68.072 0.274,-66.4C-0.301,-66.234 -0.573,-67.129 0,-67.314" style="fill:rgb(0,91,136);fill-rule:nonzero;"/>
        </g>
        <g transform="matrix(1,0,0,1,394.137,293.604)">
            <path d="M0,-53.417C-2.982,-35.93 -6.678,-16.876 1.462,-0.222C1.721,0.288 0.937,0.759 0.624,0.234C-7.81,-13.983 -6.063,-31.501 -2.557,-46.953C-2.03,-49.181 -1.515,-51.407 -0.932,-53.616C-0.784,-54.176 0.098,-54.018 0,-53.417" style="fill:rgb(0,91,136);fill-rule:nonzero;"/>
        </g>
        <g transform="matrix(1,0,0,1,255.624,163.121)">
            <path d="M0,12.898C-1.72,12.898 -3.88,12.548 -5.817,12.139C-6.651,11.961 -7.501,11.758 -8.343,11.532C-9.573,11.212 -10.875,10.83 -12.209,10.395C-13.022,10.134 -13.816,9.852 -14.582,9.581C-19.431,7.813 -25.179,5.022 -25.43,2.97C-25.46,2.813 -25.447,2.629 -25.389,2.452C-24.589,0 -16.122,2.043 -13.545,2.726C-12.353,3.045 -11.177,3.395 -10.048,3.764C-8.116,4.402 -6.363,5.053 -4.839,5.699L-5.23,6.62C-6.729,5.984 -8.455,5.343 -10.361,4.714C-11.471,4.351 -12.629,4.007 -13.803,3.692C-20.917,1.802 -24.241,2.155 -24.439,2.764C-24.327,3.75 -21.091,6.143 -14.243,8.64C-13.491,8.907 -12.707,9.185 -11.901,9.443C-10.584,9.873 -9.302,10.25 -8.088,10.565C-7.259,10.787 -6.427,10.987 -5.61,11.16C-0.035,12.338 2.045,11.836 2.18,11.409C2.274,11.116 1.521,9.797 -3.011,7.62L-2.577,6.719C0.314,8.108 3.651,10.102 3.132,11.713C2.856,12.585 1.625,12.898 0,12.898" style="fill:rgb(166,234,235);fill-rule:nonzero;"/>
        </g>
        <g transform="matrix(1,0,0,1,226.2,198.476)">
            <path d="M0,-17.956C-1.523,-18.009 -2.96,-16.544 -3.483,-15.174C-4.791,-12.073 -2.745,-8.706 -0.89,-6.263C0.148,-5.002 1.466,-3.989 2.959,-3.426C4.624,-2.752 7.69,-2.408 6.422,-5.141C3.544,-8.429 -0.947,-11.161 -1.459,-15.937C-1.486,-16.323 -0.89,-16.38 -0.841,-15.995C-0.238,-12.671 2.654,-10.315 5.059,-8.119C5.869,-7.365 6.851,-6.697 7.494,-5.71C8.14,-4.538 8.179,-2.679 6.784,-2.009C-1.152,0.721 -10.525,-15.567 -0.719,-18.575C-0.46,-18.596 -0.287,-18.677 0.126,-18.545C0.131,-18.545 -0.042,-18.581 0,-18.576C0.389,-18.563 0.384,-17.967 0,-17.956" style="fill:rgb(109,41,48);fill-rule:nonzero;"/>
        </g>
        <g transform="matrix(1,0,0,1,222.095,201.125)">
            <path d="M0,-14.064C-5.392,-12.551 -2.111,-5.622 0.919,-3.218C2.735,-1.726 4.562,-0.803 6.685,-0.824C8.995,-0.883 8.285,-3.473 7.871,-4.986C7.827,-5.152 7.925,-5.322 8.091,-5.366C8.244,-5.407 8.4,-5.326 8.459,-5.183C8.715,-4.556 8.949,-3.904 9.094,-3.205C9.897,0.261 6.521,0.65 4.549,0.103C0.426,-0.977 -2.874,-4.491 -3.825,-8.624C-4.55,-11.253 -3.051,-14.43 -0.272,-14.653C-0.239,-14.666 -0.134,-14.66 -0.101,-14.671C0.275,-14.714 0.366,-14.142 0,-14.064" style="fill:rgb(109,41,48);fill-rule:nonzero;"/>
        </g>
        <g transform="matrix(1,0,0,1,219.121,205.272)">
            <path d="M0,-12.356C-3.73,-8.765 0.874,-3.169 4.423,-1.474C6.877,-0.813 8.081,-2.028 7.41,-4.525C7.207,-5.032 7.81,-5.289 7.983,-4.813C8.532,-3.604 8.833,-1.354 7.126,-0.567C4.69,0.703 2.187,-1.046 0.539,-2.762C-2.117,-5.352 -4.124,-10.176 -0.402,-12.828C-0.1,-13.059 0.274,-12.617 0,-12.356" style="fill:rgb(109,41,48);fill-rule:nonzero;"/>
        </g>
        <g transform="matrix(1,0,0,1,392.425,235.598)">
            <path d="M0,-8.492C-5.732,-9.736 -10.819,-5.479 -13.212,-0.601C-13.213,-0.601 -14.351,-1.439 -14.351,-1.439C-12.988,-2.795 -11.036,-4.324 -8.903,-3.719C-6.267,-3.062 -6.274,-0.295 -7.587,1.526C-7.691,1.694 -7.912,1.746 -8.08,1.642C-8.237,1.546 -8.293,1.347 -8.216,1.185C-7.481,-0.235 -7.303,-2.188 -9.182,-2.534C-10.862,-2.845 -12.185,-1.542 -13.355,-0.408C-13.904,0.168 -14.878,-0.561 -14.493,-1.246C-13.18,-3.964 -11.213,-6.429 -8.613,-8.037C-6.016,-9.618 -2.689,-10.238 0.203,-9.178C0.612,-9.032 0.424,-8.39 0,-8.492" style="fill:rgb(109,41,48);fill-rule:nonzero;"/>
        </g>
        <g transform="matrix(1,0,0,1,314.819,177.237)">
            <path d="M0,1.713C5.841,0.969 12.467,2.629 17.836,4.756C18.207,4.903 18.599,4.995 18.997,4.976C20.557,4.902 20.829,3.479 20.943,2.284C21.033,1.345 21.081,0.291 20.467,-0.426C20.137,-0.813 19.661,-1.039 19.193,-1.239C16.001,-2.606 12.47,-3.282 9.023,-2.855C5.847,-2.462 2.128,-1.269 -0.262,1.184C-0.466,1.394 -0.29,1.75 0,1.713" style="fill:rgb(0,110,168);fill-rule:nonzero;"/>
        </g>
        <g transform="matrix(1,0,0,1,333.42,181.993)">
            <path d="M0,-6.099C-0.15,-6.246 -0.426,-6.12 -0.411,-5.909C-0.257,-4.749 -0.274,-3.567 -0.332,-2.4C-0.353,-1.604 -0.433,-0.795 -0.366,-0.003C-0.305,0.147 -0.062,0.088 -0.074,-0.074C-0.091,-2.135 0.452,-4.061 0,-6.099" style="fill:rgb(0,67,108);fill-rule:nonzero;"/>
        </g>
        <g transform="matrix(1,0,0,1,330.932,181.57)">
            <path d="M0,-6.24C-0.24,-6.432 -0.465,-6.163 -0.395,-5.91C-0.187,-4.788 -0.007,-3.961 0.005,-2.767C0.071,-1.861 0.071,-0.938 0.192,-0.042C0.286,0.192 0.665,0.1 0.646,-0.152C0.522,-2.138 0.69,-4.529 0,-6.24" style="fill:rgb(0,67,108);fill-rule:nonzero;"/>
        </g>
        <g transform="matrix(1,0,0,1,328.373,179.522)">
            <path d="M0,-3.437C-0.122,-3.804 -0.254,-4.169 -0.42,-4.518C-0.465,-4.605 -0.499,-4.718 -0.607,-4.739C-0.876,-4.772 -0.87,-4.492 -0.745,-4.329C-0.274,-3.276 0.062,-1.699 0.395,-0.441C0.582,0.112 0.618,0.767 0.894,1.267C1.014,1.335 1.168,1.209 1.121,1.078C0.742,-0.425 0.468,-1.957 0,-3.437" style="fill:rgb(0,67,108);fill-rule:nonzero;"/>
        </g>
        <g transform="matrix(1,0,0,1,326.598,178.397)">
            <path d="M0,-1.978C-0.213,-2.558 -0.368,-3.19 -0.735,-3.693C-0.928,-3.789 -1.061,-3.616 -0.858,-3.323C-0.663,-2.946 -0.503,-2.318 -0.353,-1.811C-0.138,-1.118 0.196,-0.469 0.425,0.219C0.646,0.708 0.732,1.297 1.029,1.733C1.165,1.811 1.341,1.666 1.288,1.516C0.885,0.341 0.463,-0.825 0,-1.978" style="fill:rgb(0,67,108);fill-rule:nonzero;"/>
        </g>
        <g transform="matrix(1,0,0,1,323.963,179.422)">
            <path d="M0,-4.372C-0.073,-4.696 -0.451,-4.763 -0.495,-4.408C-0.34,-3.975 -0.027,-3.602 0.168,-3.182C0.617,-2.152 1.137,-0.873 1.599,0.245C1.643,0.391 1.876,0.32 1.827,0.172C1.263,-1.295 0.651,-3.145 0,-4.372" style="fill:rgb(0,67,108);fill-rule:nonzero;"/>
        </g>
        <g transform="matrix(1,0,0,1,324.496,175.27)">
            <path d="M0,4.08C-1.121,2.678 -2.045,1.08 -3.453,-0.066C-3.549,-0.114 -3.631,-0.207 -3.739,-0.22C-3.876,-0.241 -3.992,-0.092 -3.947,0.038C-2.992,1.116 -1.862,2.031 -1.047,3.213C-0.759,3.57 -0.487,3.96 -0.156,4.272C-0.045,4.321 0.07,4.18 0,4.08" style="fill:rgb(0,67,108);fill-rule:nonzero;"/>
        </g>
        <g transform="matrix(1,0,0,1,323.066,176.194)">
            <path d="M0,2.743C-1.151,1.837 -2.299,0.936 -3.603,0.254C-3.959,0.098 -4.489,-0.371 -4.869,-0.252C-5.062,-0.123 -4.967,0.139 -4.765,0.198C-3.764,0.689 -2.623,1.368 -1.777,1.928C-1.343,2.226 -0.705,2.797 -0.154,3.086C0.028,3.114 0.14,2.863 0,2.743" style="fill:rgb(0,67,108);fill-rule:nonzero;"/>
        </g>
        <g transform="matrix(1,0,0,1,320.894,176.96)">
            <path d="M0,1.767C-0.71,1.302 -1.476,0.937 -2.22,0.533C-2.82,0.215 -3.428,-0.18 -4.103,-0.295C-4.321,-0.233 -4.213,-0.003 -4.036,0.035C-3.018,0.391 -1.883,1.091 -0.825,1.632C-0.573,1.758 -0.344,1.948 -0.087,2.055C-0.047,2.062 -0.003,2.048 0.026,2.02C0.11,1.957 0.094,1.813 0,1.767" style="fill:rgb(0,67,108);fill-rule:nonzero;"/>
        </g>
        <g transform="matrix(1,0,0,1,318.542,177.904)">
            <path d="M0,0.669C-1.026,0.289 -2.083,-0.424 -3.176,-0.463C-3.458,-0.192 -3.065,-0.072 -2.843,-0.012C-2.573,0.089 -2.377,0.153 -2.047,0.3C-1.423,0.598 -0.774,0.857 -0.128,1.095C0.11,1.132 0.217,0.774 0,0.669" style="fill:rgb(0,67,108);fill-rule:nonzero;"/>
        </g>
        <g transform="matrix(1,0,0,1,348.919,198.844)">
            <path d="M0,-9.456C0.454,-11.338 3.283,-13.761 4.896,-13.725C7.345,-13.67 13.249,-8.903 14.36,-7.813C17.357,-4.875 19.758,-1.461 20.983,2.565C21.086,2.903 21.177,3.259 21.108,3.605C21.039,3.95 20.763,4.28 20.41,4.295C20.155,4.305 19.923,4.157 19.713,4.011C16.591,1.848 16.1,0.369 10.699,-2.95C6.487,-5.539 -0.307,-8.184 0,-9.456" style="fill:rgb(0,110,168);fill-rule:nonzero;"/>
        </g>
        <g transform="matrix(1,0,0,1,354.844,189.921)">
            <path d="M0,-4.475C-1.743,-3.949 -3.477,-2.562 -4.816,-1.211C-5.116,-0.864 -5.414,-0.497 -5.641,-0.102C-5.667,0.021 -5.501,0.109 -5.412,0.018C-3.822,-1.831 -2.011,-3.059 0.119,-4.162C0.348,-4.241 0.226,-4.584 0,-4.475" style="fill:rgb(0,67,108);fill-rule:nonzero;"/>
        </g>
        <g transform="matrix(1,0,0,1,357.17,190.682)">
            <path d="M0,-3.851C-0.208,-4.126 -0.687,-3.754 -0.955,-3.696C-2.76,-2.996 -4.396,-1.96 -6.02,-0.923C-6.42,-0.631 -6.919,-0.41 -7.245,-0.046C-7.299,0.117 -7.107,0.275 -6.958,0.185C-4.892,-1.236 -2.223,-2.797 -0.204,-3.517C-0.089,-3.547 0.09,-3.633 0,-3.851" style="fill:rgb(0,67,108);fill-rule:nonzero;"/>
        </g>
        <g transform="matrix(1,0,0,1,359.457,191.821)">
            <path d="M0,-3.548C-1.589,-3.241 -3.16,-2.692 -4.671,-2.104C-5.808,-1.559 -6.941,-1.003 -8.062,-0.423C-8.261,-0.316 -8.091,0 -7.891,-0.114C-6.778,-0.672 -5.293,-1.382 -4.341,-1.813C-2.992,-2.277 -1.654,-2.783 -0.287,-3.193C-0.179,-3.231 -0.055,-3.233 0.045,-3.288C0.144,-3.352 0.113,-3.518 0,-3.548" style="fill:rgb(0,67,108);fill-rule:nonzero;"/>
        </g>
        <g transform="matrix(1,0,0,1,360.899,192.712)">
            <path d="M0,-3.319C-1.253,-3.125 -2.487,-2.742 -3.647,-2.23C-4.914,-1.672 -6.409,-1.158 -7.693,-0.317C-7.831,-0.165 -7.627,0.079 -7.45,-0.027C-6.278,-0.71 -5.101,-1.181 -3.943,-1.631C-2.662,-2.254 -1.362,-2.625 0.105,-2.979C0.392,-3.093 0.15,-3.398 0,-3.319" style="fill:rgb(0,67,108);fill-rule:nonzero;"/>
        </g>
        <g transform="matrix(1,0,0,1,362.923,193.418)">
            <path d="M0,-2.735C-0.101,-2.905 -0.307,-2.781 -0.455,-2.759C-1.957,-2.506 -3.472,-1.801 -4.755,-1.27C-4.96,-1.18 -8.552,0.054 -7.593,0.17C-6.564,-0.389 -5.566,-0.685 -4.449,-1.11C-3.046,-1.699 -1.647,-2.269 -0.155,-2.473C-0.142,-2.474 -0.121,-2.476 -0.111,-2.478C-0.001,-2.503 0.056,-2.637 0,-2.735" style="fill:rgb(0,67,108);fill-rule:nonzero;"/>
        </g>
        <g transform="matrix(1,0,0,1,363.898,194.454)">
            <path d="M0,-2.619C-1.337,-2.618 -2.648,-2.239 -3.921,-1.861C-4.956,-1.52 -5.998,-1.178 -6.964,-0.666C-7.109,-0.59 -7.304,-0.497 -7.268,-0.302C-7.26,-0.114 -7.026,0.002 -6.867,-0.094C-4.826,-1.147 -2.416,-1.764 0.024,-2.142C0.066,-2.154 0.202,-2.198 0.211,-2.283C0.288,-2.429 0.164,-2.621 0,-2.619" style="fill:rgb(0,67,108);fill-rule:nonzero;"/>
        </g>
        <g transform="matrix(1,0,0,1,363.933,192.314)">
            <path d="M0,-0.004C-0.004,-0.004 -0.007,-0.003 -0.011,-0.002C-0.013,-0.002 -0.017,0 -0.019,0C-0.015,-0.001 -0.01,-0.002 0,-0.004" style="fill:rgb(0,67,108);fill-rule:nonzero;"/>
        </g>
        <g transform="matrix(1,0,0,1,363.915,192.316)">
            <path d="M0,-0.002C-0.006,-0.001 -0.007,0 0,-0.002" style="fill:rgb(0,67,108);fill-rule:nonzero;"/>
        </g>
        <g transform="matrix(1,0,0,1,360.428,193.756)">
            <path d="M0,0.702C-0.546,0.9 -1.25,1.127 -1.689,1.482C-1.731,1.608 -1.582,1.729 -1.467,1.66C-0.2,1.059 1.262,0.832 2.713,0.481C3.557,0.292 4.184,0.296 4.934,0.116C6.087,-1.027 0.423,0.556 0,0.702" style="fill:rgb(0,67,108);fill-rule:nonzero;"/>
        </g>
        <g transform="matrix(-0.253885,-0.967234,-0.967234,0.253885,362.115,193.03)">
            <path d="M-3.086,-4.017C-2.688,-1.976 -2.399,0.127 -2.573,2.208C-2.565,2.538 -3.086,2.547 -3.086,2.214C-2.909,0.195 -3.163,-2.229 -3.457,-3.945C-3.529,-4.199 -3.124,-4.279 -3.086,-4.017" style="fill:rgb(0,67,108);fill-rule:nonzero;"/>
        </g>
        <g transform="matrix(1,0,0,1,367.571,197.624)">
            <path d="M0,-1.227C-1.363,-1.275 -2.688,-0.853 -4.035,-0.7C-4.498,-0.586 -5.232,-0.584 -5.602,-0.317C-5.702,-0.165 -5.548,0.048 -5.371,-0.003C-3.511,-0.379 -1.525,-0.539 0.081,-0.8C0.306,-0.875 0.237,-1.237 0,-1.227" style="fill:rgb(0,67,108);fill-rule:nonzero;"/>
        </g>
        <g transform="matrix(1,0,0,1,367.99,198.894)">
            <path d="M0,-1C-1.196,-0.99 -2.417,-0.918 -3.575,-0.606C-3.834,-0.51 -4.173,-0.478 -4.361,-0.269C-4.43,-0.134 -4.24,0 -4.134,-0.108C-2.73,-0.456 -1.261,-0.559 -0.032,-0.669C0.193,-0.637 0.232,-0.993 0,-1" style="fill:rgb(0,67,108);fill-rule:nonzero;"/>
        </g>
        <g transform="matrix(1,0,0,1,368.273,199.78)">
            <path d="M0,-0.718C-0.862,-0.701 -1.716,-0.573 -2.57,-0.459C-2.828,-0.432 -3.087,-0.407 -3.346,-0.376C-3.59,-0.321 -3.549,0.062 -3.296,0.061C-2.286,0.016 -1.281,-0.127 -0.268,-0.123C0.079,-0.164 0.866,0.094 0.815,-0.479C0.709,-0.812 0.27,-0.693 0,-0.718" style="fill:rgb(0,67,108);fill-rule:nonzero;"/>
        </g>
        <g transform="matrix(1,0,0,1,369.708,200.81)">
            <path d="M0,-0.217C-0.039,-0.374 -0.225,-0.361 -0.352,-0.378C-1.112,-0.393 -1.868,-0.289 -2.626,-0.252C-2.9,-0.204 -3.223,-0.283 -3.472,-0.16C-3.596,-0.049 -3.509,0.176 -3.342,0.174C-2.287,0.135 -1.236,0.016 -0.181,0.01C-0.063,0.015 0.03,-0.104 0,-0.217" style="fill:rgb(0,67,108);fill-rule:nonzero;"/>
        </g>
        <g transform="matrix(1,0,0,1,369.474,202.072)">
            <path d="M0,-0.602C-0.439,-0.563 -1.19,-0.51 -1.745,-0.422C-1.855,-0.398 -1.997,-0.407 -2.062,-0.298C-2.157,-0.154 -2.01,0.047 -1.843,0C-1.119,-0.16 -0.579,-0.094 0.133,-0.32C0.275,-0.413 0.162,-0.649 0,-0.602" style="fill:rgb(0,67,108);fill-rule:nonzero;"/>
        </g>
        <g opacity="0.46">
            <g transform="matrix(-0.109947,0.993937,0.993937,0.109947,304.533,199.364)">
                <path d="M9.903,-11.059C3.729,-11.059 -1.276,-6.598 -1.276,-1.095C-1.276,4.407 3.729,8.869 9.903,8.868C16.078,8.868 21.083,4.407 21.083,-1.096C21.083,-6.598 16.078,-11.06 9.903,-11.059" style="fill:rgb(178,39,55);fill-rule:nonzero;"/>
            </g>
        </g>
        <g opacity="0.46">
            <g transform="matrix(-0.109959,0.993936,0.993936,0.109959,355.155,218.387)">
                <path d="M11.891,-13.278C5.331,-13.279 0.011,-7.922 0.012,-1.315C0.011,5.292 5.33,10.648 11.891,10.649C18.452,10.648 23.771,5.292 23.771,-1.315C23.771,-7.922 18.452,-13.278 11.891,-13.278" style="fill:rgb(178,39,55);fill-rule:nonzero;"/>
            </g>
        </g>
        <g transform="matrix(-0.394056,0.919086,0.919086,0.394056,358.594,211.081)">
            <path d="M-1.852,-11.161C4.217,-9.695 5.084,-2.296 -1.806,-1.509C-2.361,-1.486 -2.397,-0.629 -1.852,-0.556C7.479,0.474 7.075,-12.108 -1.741,-12.108C-2.291,-12.114 -2.383,-11.278 -1.852,-11.161" style="fill:rgb(10,10,10);fill-rule:nonzero;"/>
        </g>
        <g transform="matrix(0.641489,0.767133,0.767133,-0.641489,346.793,210.899)">
            <path d="M1.19,-0.923C0.879,0.117 0.798,1.181 0.711,2.251C0.7,2.527 0.914,2.759 1.19,2.77C2.084,2.682 1.63,1.332 1.748,0.715C1.74,0.386 1.821,-1.676 1.19,-0.923" style="fill:rgb(10,10,10);fill-rule:nonzero;"/>
        </g>
        <g transform="matrix(1,0,0,1,350.035,212.129)">
            <path d="M0,3.118C0.257,2.013 0.734,0.989 1.203,-0.035C1.328,-0.28 1.629,-0.378 1.875,-0.253C2.113,-0.132 2.212,0.154 2.104,0.396C1.875,0.91 1.587,1.394 1.32,1.89C1.061,2.384 0.759,2.858 0.398,3.308C0.257,3.496 -0.058,3.341 0,3.118" style="fill:rgb(10,10,10);fill-rule:nonzero;"/>
        </g>
        <g transform="matrix(0.998266,0.0588721,0.0588721,-0.998266,354.379,215.627)">
            <path d="M0.075,-0.011C-0.236,0.968 -0.316,1.974 -0.405,2.985C-0.415,3.261 -0.201,3.494 0.075,3.505C0.342,3.516 0.568,3.314 0.594,3.052C0.596,2.679 0.88,-0.943 0.075,-0.011" style="fill:rgb(10,10,10);fill-rule:nonzero;"/>
        </g>
        <g transform="matrix(1,0,0,1,315.78,199.369)">
            <path d="M0,-9.944C-1.359,-6.477 0.678,-1.378 4.935,-2.472C6.11,-2.81 7.24,-3.62 8.097,-4.686C8.263,-4.892 8.565,-4.924 8.772,-4.757C8.943,-4.619 8.994,-4.387 8.911,-4.194C8.288,-2.745 7.119,-1.453 5.521,-0.81C2.134,0.702 -1.8,-2.23 -2.021,-5.759C-2.202,-7.432 -1.719,-9.064 -0.856,-10.364C-0.709,-10.585 -0.411,-10.646 -0.19,-10.499C-0.004,-10.375 0.068,-10.145 0,-9.944" style="fill:rgb(10,10,10);fill-rule:nonzero;"/>
        </g>
        <g transform="matrix(1,0,0,1,312.343,195.033)">
            <path d="M0,1.326C0.363,0.842 2.691,-1.291 3.094,-0.357C3.582,0.199 -0.525,2.617 0,1.326" style="fill:rgb(10,10,10);fill-rule:nonzero;"/>
        </g>
        <g transform="matrix(0.763283,0.646064,0.646064,-0.763283,314.761,198.689)">
            <path d="M0.84,-0.614C0.442,0.455 0.295,1.588 0.385,2.719C0.414,2.941 0.618,3.1 0.84,3.071C1.002,3.05 1.131,2.936 1.177,2.789C1.386,2.433 1.771,-1.545 0.84,-0.614" style="fill:rgb(10,10,10);fill-rule:nonzero;"/>
        </g>
        <g transform="matrix(1,0,0,1,320.635,198.146)">
            <path d="M0,2.911C-0.572,1.968 -0.906,0.94 -1.011,-0.15C-1.045,-0.577 -0.425,-0.74 -0.24,-0.363C0.027,-0.05 1.073,3.651 0,2.911" style="fill:rgb(10,10,10);fill-rule:nonzero;"/>
        </g>
        <g opacity="0.46">
            <g transform="matrix(1,0,0,1,333.99,209.354)">
                <path d="M0,-6.08C-1.226,-7.006 -3.066,-7.01 -4.296,-6.089C-5.525,-5.169 -6.04,-3.402 -5.497,-1.965C-5.183,-1.133 -4.561,-0.44 -3.826,0.061C-3.248,0.455 -2.583,0.742 -1.886,0.802C-0.394,0.93 1.102,-0.098 1.572,-1.52C2.042,-2.942 1.66,-4.826 0,-6.08" style="fill:rgb(178,39,55);fill-rule:nonzero;"/>
            </g>
        </g>
        <g transform="matrix(1,0,0,1,331.758,209.836)">
            <path d="M0,0.237C0.062,0.033 0.3,-0.052 0.509,-0.1C0.679,-0.139 0.851,-0.173 1.023,-0.202C1.247,-0.239 1.481,-0.267 1.7,-0.203C1.806,-0.172 1.916,-0.108 1.945,-0.001C1.962,0.062 1.947,0.132 1.913,0.188C1.829,0.33 1.653,0.384 1.491,0.417C1.312,0.454 1.13,0.479 0.947,0.491C0.76,0.504 0.57,0.504 0.388,0.462C0.235,0.427 0.083,0.356 0,0.237" style="fill:rgb(65,22,4);fill-rule:nonzero;"/>
        </g>
        <g transform="matrix(0.792498,0.609874,0.609874,-0.792498,327.044,206.808)">
            <path d="M2.082,-0.026C-1.38,1.081 -1.346,5.301 1.782,6.843C2.011,6.986 2.266,6.666 2.082,6.474C-0.017,4.578 -0.215,2.043 2.277,0.409C2.508,0.27 2.336,-0.106 2.082,-0.026" style="fill:rgb(109,41,48);fill-rule:nonzero;"/>
        </g>
        <g transform="matrix(1,0,0,1,321.111,218.719)">
            <path d="M0,-5.727C2.448,-6.394 5.117,-7.05 7.456,-6.067C8.245,-5.734 8.952,-5.228 9.592,-4.658C10.353,-3.979 11.03,-3.201 11.572,-2.337C12.271,-1.22 12.74,0.033 13.009,1.323C8.109,0.687 3.482,-1.853 0,-5.727" style="fill:rgb(189,74,89);fill-rule:nonzero;"/>
        </g>
        <g transform="matrix(-0.479487,0.877549,0.877549,0.479487,335.171,215.058)">
            <path d="M4.716,-13.247C7.6,-12.13 10.406,-9.792 10.457,-6.699C10.533,-2.101 7.444,0.081 4.716,1.54C6.529,-1.756 6.372,-5.757 5.913,-9.491C5.749,-10.831 5.542,-12.198 4.716,-13.247" style="fill:rgb(159,46,61);fill-rule:nonzero;"/>
        </g>
        <g transform="matrix(-0.152222,0.988346,0.988346,0.152222,314.668,306.175)">
            <path d="M9.4,-17.314C14.206,-9.779 13.941,-0.039 8.676,7.193C8.334,7.643 9.004,8.222 9.4,7.814C16.283,1.26 16.666,-10.949 10.16,-17.891C9.785,-18.314 9.09,-17.789 9.4,-17.314" style="fill:rgb(227,153,55);fill-rule:nonzero;"/>
        </g>
        <g transform="matrix(1,0,0,1,296.053,277.822)">
            <path d="M0,11.779C1.133,5.875 6.069,0.704 11.902,-0.733C12.161,-0.794 12.42,-0.634 12.481,-0.375C12.532,-0.162 12.428,0.054 12.246,0.157C9.764,1.556 7.538,3.215 5.642,5.229C3.734,7.231 2.194,9.536 0.905,12.08C0.677,12.573 -0.112,12.307 0,11.779" style="fill:rgb(109,41,48);fill-rule:nonzero;"/>
        </g>
        <g transform="matrix(1,0,0,1,383.404,195.019)">
            <path d="M0,-0.148C-0.046,-4.145 0.396,-8.119 1.288,-12.014C1.419,-12.586 0.556,-12.829 0.407,-12.257C-1.602,-4.531 -2.188,4.294 0.257,11.993C0.476,12.681 1.432,12.39 1.319,11.7C0.672,7.757 0.047,3.859 0,-0.148" style="fill:rgb(0,91,136);fill-rule:nonzero;"/>
        </g>
        <g transform="matrix(-0.997528,-0.0702638,-0.0702638,0.997528,369.359,190.802)">
            <path d="M-2.117,-19.765C0.023,-13.5 0.687,-6.616 -0.979,-0.16C-1.143,0.473 -2.225,0.257 -2.117,-0.396C-1.065,-6.801 -1.056,-13.235 -2.887,-19.503C-3.015,-19.944 -2.267,-20.206 -2.117,-19.765" style="fill:rgb(0,91,136);fill-rule:nonzero;"/>
        </g>
        <g transform="matrix(-0.999984,0.0055958,0.0055958,0.999984,373.878,187.731)">
            <path d="M-0.684,-13.421C0.799,-9.119 1.31,-4.531 0.583,-0.032C0.469,0.677 -0.765,0.527 -0.684,-0.197C-0.194,-4.543 -0.461,-8.931 -1.767,-13.116C-1.984,-13.812 -0.917,-14.101 -0.684,-13.421" style="fill:rgb(0,91,136);fill-rule:nonzero;"/>
        </g>
        <g transform="matrix(1,0,0,1,360.37,183.771)">
            <path d="M0,-26.587C-4.296,-24.395 -7.698,-20.776 -9.935,-16.53C-12.451,-11.758 -14.155,-5.856 -13.964,-0.427C-13.943,0.163 -13.052,0.328 -12.905,-0.283C-12.298,-2.81 -11.991,-5.405 -11.387,-7.935C-10.759,-10.564 -9.888,-13.147 -8.654,-15.556C-6.544,-19.677 -3.496,-23.323 0.568,-25.616C1.202,-25.973 0.642,-26.915 0,-26.587" style="fill:rgb(0,91,136);fill-rule:nonzero;"/>
        </g>
        <g transform="matrix(-0.877191,-0.480142,-0.480142,0.877191,349.638,175.963)">
            <path d="M-4.725,-18.753C-0.581,-13.021 -1.321,-5.362 -3.516,0.969C-3.774,1.71 -4.901,1.48 -4.725,0.683C-3.35,-5.559 -1.866,-12.469 -5.63,-18.209C-6.006,-18.783 -5.119,-19.296 -4.725,-18.753" style="fill:rgb(0,91,136);fill-rule:nonzero;"/>
        </g>
        <g transform="matrix(1,0,0,1,355.087,174.074)">
            <path d="M0,-24.277C-5.343,-23.706 -9.939,-20.763 -13.454,-16.801C-15.435,-14.569 -17.035,-12.039 -18.436,-9.411C-19.153,-8.067 -19.843,-6.697 -20.456,-5.302C-21.081,-3.881 -21.847,-2.377 -22.126,-0.846C-22.236,-0.242 -21.522,0.042 -21.162,-0.44C-20.305,-1.59 -19.775,-3.012 -19.155,-4.301C-18.523,-5.615 -17.916,-6.939 -17.242,-8.232C-15.922,-10.764 -14.419,-13.231 -12.613,-15.448C-9.385,-19.406 -5.002,-22.64 0.093,-23.586C0.478,-23.658 0.396,-24.319 0,-24.277" style="fill:rgb(0,91,136);fill-rule:nonzero;"/>
        </g>
        <g transform="matrix(1,0,0,1,343.947,171.615)">
            <path d="M0,-22.622C-5.089,-21.118 -9.726,-18.334 -13.406,-14.506C-17.007,-10.759 -20.112,-5.939 -21.045,-0.761C-21.16,-0.123 -20.296,0.121 -20.073,-0.493C-18.317,-5.35 -16.103,-9.834 -12.529,-13.629C-9.018,-17.356 -4.667,-20.302 0.174,-21.989C0.569,-22.127 0.41,-22.743 0,-22.622" style="fill:rgb(0,91,136);fill-rule:nonzero;"/>
        </g>
        <g transform="matrix(1,0,0,1,334.317,167.02)">
            <path d="M0,-19.813C-10.243,-18.589 -20.158,-11.03 -22.739,-0.795C-22.902,-0.149 -22.007,0.058 -21.767,-0.527C-19.868,-5.16 -17.082,-9.381 -13.243,-12.632C-9.449,-15.844 -4.784,-18.103 0.115,-18.961C0.591,-19.045 0.487,-19.871 0,-19.813" style="fill:rgb(0,91,136);fill-rule:nonzero;"/>
        </g>
        <g transform="matrix(1,0,0,1,404.195,273.365)">
            <path d="M0,-50.376C1.74,-57.549 3.766,-64.643 6.242,-71.597C6.406,-72.057 5.693,-72.237 5.519,-71.797C0.551,-59.19 -2.918,-46.136 -4.88,-32.728C-5.845,-26.134 -6.443,-19.495 -6.67,-12.834C-6.865,-7.111 -6.745,-1.366 -5.784,4.29C-4.737,10.453 -2.603,16.537 1.34,21.46C1.661,21.861 2.357,21.33 2.058,20.906C-4.625,11.433 -5.572,-0.232 -5.238,-11.49C-4.849,-24.579 -3.087,-37.651 0,-50.376" style="fill:rgb(0,91,136);fill-rule:nonzero;"/>
        </g>
        <g transform="matrix(1,0,0,1,402.499,304.815)">
            <path d="M0,-1.791C-0.645,-2.786 -2.397,-5.909 -0.449,-6.327C1.429,-6.729 2.288,-3.993 2.606,-2.59C2.872,-1.413 2.992,-0.07 2.449,1.016C1.532,0.173 0.677,-0.746 0,-1.791M10.206,-5.835C10.116,-6.117 9.671,-6.078 9.677,-5.764C9.71,-4.017 9.759,-2.259 9.576,-0.518C9.423,0.937 9.15,3.014 7.618,3.689C6.302,4.268 4.836,3.113 3.746,2.164C3.753,2.153 3.763,2.143 3.771,2.131C4.902,0.374 4.689,-1.858 3.887,-3.696C3.169,-5.337 1.826,-7.273 -0.115,-7.516C-2.121,-7.766 -3.019,-5.822 -2.679,-4.098C-2.271,-2.036 -0.917,-0.191 0.508,1.298C0.787,1.59 1.089,1.896 1.403,2.204C0.388,2.906 -0.953,3.109 -2.156,3.08C-5.668,2.996 -9.126,1.055 -11.639,-1.281C-11.84,-1.468 -12.114,-1.187 -11.937,-0.983C-9.123,2.283 -5.396,5.066 -0.85,4.611C0.387,4.488 1.642,4.084 2.634,3.333C3.583,4.138 4.619,4.847 5.689,5.204C8.007,5.975 9.948,4.378 10.533,2.184C11.207,-0.344 10.999,-3.365 10.206,-5.835" style="fill:rgb(0,91,136);fill-rule:nonzero;"/>
        </g>
        <g transform="matrix(1,0,0,1,425.719,300.984)">
            <path d="M0,1.118C-1.851,2.535 -4.26,2.901 -6.464,2.137C-8.859,1.306 -10.736,-0.648 -12.285,-2.577C-12.615,-2.988 -13.338,-2.438 -13.021,-2.009C-11.332,0.274 -9.292,2.458 -6.506,3.341C-4.094,4.106 -1.085,3.775 0.513,1.631C0.732,1.338 0.293,0.893 0,1.118" style="fill:rgb(0,91,136);fill-rule:nonzero;"/>
        </g>
        <g transform="matrix(-0.462682,0.886524,0.886524,0.462682,339.53,209.722)">
            <path d="M8.948,-18.114C13.386,-11.351 13.177,-2.187 8.396,4.346C8.141,4.688 8.658,5.12 8.948,4.801C14.954,-1.379 15.233,-12.079 9.521,-18.541C9.245,-18.867 8.711,-18.474 8.948,-18.114" style="fill:rgb(65,22,4);fill-rule:nonzero;"/>
        </g>
        <g transform="matrix(-0.547839,-0.836584,-0.836584,0.547839,271.246,319.662)">
            <path d="M-1.453,-2.688C-2.066,-2.688 -2.563,-1.911 -2.563,-0.951C-2.564,0.008 -2.066,0.785 -1.453,0.785C-0.841,0.786 -0.344,0.008 -0.343,-0.952C-0.344,-1.911 -0.84,-2.688 -1.453,-2.688" style="fill:rgb(109,41,48);fill-rule:nonzero;"/>
        </g>
        <g transform="matrix(1,0,0,1,226.459,277.007)">
            <g>
                <path d="M0,-10.817C-1.839,-11.345 -4.083,-10.695 -5.897,-10.383C-10.785,-9.543 -15.677,-8.715 -20.57,-7.89C-20.777,-7.855 -20.966,-7.792 -21.145,-7.716C-22.445,-7.657 -23.744,-7.625 -25.037,-7.638C-26.948,-7.657 -27.87,-5.982 -26.575,-5.06C-21.241,-1.261 -12.504,0.528 -5.317,-1.646C-1.997,-2.65 0.748,-4.696 1.713,-7.142C2.255,-8.518 2.187,-10.189 0,-10.817" style="fill:white;fill-rule:nonzero;"/>
            </g>
        </g>
        <g transform="matrix(1,0,0,1,190.541,271.14)">
            <g>
                <path d="M0,-0.052C-0.408,-1.542 -1.959,-2.239 -3.317,-2.593C-4.564,-2.919 -5.884,-3.082 -7.174,-3.059C-7.858,-3.047 -8.535,-2.969 -9.211,-2.87C-9.87,-2.773 -10.574,-2.67 -11.169,-2.355C-11.177,-2.351 -11.182,-2.345 -11.19,-2.341C-11.212,-2.34 -11.235,-2.341 -11.257,-2.34C-11.959,-2.303 -12.815,-1.829 -12.942,-1.057C-13.062,-0.323 -13.024,0.329 -12.623,0.979C-12.285,1.526 -11.743,1.943 -11.164,2.205C-9.943,2.758 -8.555,2.813 -7.233,2.911C-5.975,3.004 -4.711,3.03 -3.45,2.986C-2.731,2.961 -1.815,3.012 -1.154,2.733C-0.084,2.281 0.29,1.007 0,-0.052" style="fill:white;fill-rule:nonzero;"/>
            </g>
        </g>
        <g transform="matrix(1,0,0,1,151.855,320.623)">
            <g>
                <path d="M0,-47.49C-1.515,-48.835 -3.594,-49.254 -5.585,-49.21C-5.752,-49.475 -6.017,-49.659 -6.392,-49.615C-24.429,-47.509 -42.313,-36.84 -49.813,-19.009C-51.498,-15.001 -53.053,-10.395 -53,-5.961C-52.975,-3.867 -52.471,-1.7 -51.074,-0.127C-49.487,1.661 -47.124,2.169 -44.89,1.767C-40.371,0.954 -37.329,-3.765 -34.498,-7.104C-31.419,-10.736 -28.348,-14.378 -25.16,-17.908C-18.834,-24.916 -12.007,-31.507 -3.961,-36.321C-2.07,-37.453 -0.009,-38.675 0.983,-40.806C2.015,-43.025 1.894,-45.808 0,-47.49" style="fill:white;fill-rule:nonzero;"/>
            </g>
        </g>
        <g transform="matrix(1,0,0,1,342.572,416.262)">
            <g>
                <path d="M0,-45.843C-6.684,-43.73 -11.495,-38.68 -16.569,-34.117C-17.438,-33.336 -18.335,-32.588 -19.243,-31.856C-20.603,-30.954 -21.988,-30.087 -23.423,-29.287C-26.772,-27.422 -30.262,-25.852 -33.838,-24.5C-35.458,-23.947 -37.089,-23.435 -38.724,-22.963C-54.639,-18.368 -71.274,-17.42 -87.659,-15.642C-91.099,-15.269 -95.068,-15.287 -98.229,-13.712C-101.25,-12.207 -102.419,-8.712 -100.596,-5.774C-99.33,-3.734 -97.251,-2.734 -95.017,-2.165C-90.396,0.464 -84.554,-0.35 -79.359,-1.358C-79.042,-1.384 -78.724,-1.398 -78.408,-1.429C-62.055,-2.991 -45.835,-7.774 -30.774,-14.218C-18.78,-19.35 -4.697,-26.152 0.831,-38.835C1.483,-40.332 2.013,-41.861 2.393,-43.45C2.724,-44.835 1.466,-46.307 0,-45.843" style="fill:white;fill-rule:nonzero;"/>
            </g>
        </g>
        <g transform="matrix(1,0,0,1,359.13,368.36)">
            <g>
                <path d="M0,-5.465C-0.353,-6.603 -1.362,-7.151 -2.49,-7.212C-3.16,-7.249 -3.9,-7.118 -4.534,-6.898C-5.197,-6.667 -5.856,-6.373 -6.43,-5.964C-7.443,-5.242 -8.345,-4.289 -8.67,-3.065C-9.25,-2.461 -9.677,-1.743 -9.7,-0.906C-9.746,0.719 -8.266,1.784 -6.742,1.711C-6.049,1.677 -5.434,1.506 -4.812,1.211C-4.65,1.134 -4.493,1.042 -4.339,0.943C-3.685,0.671 -3.143,0.19 -2.705,-0.37C-1.947,-1.078 -1.28,-1.892 -0.725,-2.763C-0.222,-3.555 0.3,-4.496 0,-5.465" style="fill:white;fill-rule:nonzero;"/>
            </g>
        </g>
        <g transform="matrix(1,0,0,1,241.457,157.713)">
            <path d="M0,13.077C-0.021,13.077 -0.042,13.076 -0.063,13.073C-0.337,13.038 -0.531,12.788 -0.496,12.514C-0.329,11.196 -0.163,9.878 -0.002,8.556C0.303,6.14 0.6,3.719 0.896,1.303L0.998,0.476C1.031,0.202 1.275,0 1.555,0.041C1.829,0.075 2.024,0.324 1.99,0.598L1.889,1.425C1.592,3.841 1.295,6.265 0.99,8.68C0.829,10 0.663,11.32 0.496,12.64C0.463,12.892 0.249,13.077 0,13.077" style="fill:rgb(10,10,10);fill-rule:nonzero;"/>
        </g>
        <g transform="matrix(1,0,0,1,254.817,151.301)">
            <path d="M0,7.645C-1.462,7.101 -3.141,7.142 -4.565,7.773C-5.944,8.369 -7.071,9.502 -7.685,10.874C-7.236,6.908 -7.81,2.829 -9.366,-0.844C-9.744,-1.731 -10.201,-2.628 -10.94,-3.229C-10.275,-3.142 -9.63,-2.987 -9.004,-2.763C-4.94,-1.293 -2.42,1.408 -0.858,4.497C-0.372,5.478 0.033,6.55 0,7.645" style="fill:rgb(255,95,109);fill-rule:nonzero;"/>
        </g>
        <g transform="matrix(1,0,0,1,241.423,150.66)">
            <path d="M0,9.062C-1.426,9.248 -2.802,9.895 -3.921,10.817C-3.934,10.685 -3.957,10.55 -3.99,10.415C-2.588,5.798 -0.466,1.386 2.247,-2.615C2.316,-2.606 2.385,-2.597 2.455,-2.588C3.193,-1.987 3.65,-1.09 4.028,-0.203C5.584,3.47 6.159,7.55 5.71,11.515C5.682,11.572 5.666,11.62 5.638,11.677C4.769,10.07 2.952,9.086 1.117,9.007C0.746,8.988 0.37,9.01 0,9.062" style="fill:rgb(22,136,194);fill-rule:nonzero;"/>
        </g>
        <g transform="matrix(1,0,0,1,243.669,160.813)">
            <path d="M0,-12.768C-2.713,-8.767 -4.834,-4.355 -6.236,0.262C-6.522,-1.248 -7.345,-2.667 -8.614,-3.529C-10.005,-4.458 -11.92,-4.618 -13.354,-3.757C-11.944,-6.668 -9.89,-9.334 -7.146,-11.032C-5.027,-12.348 -2.457,-13.03 0,-12.768" style="fill:rgb(255,95,109);fill-rule:nonzero;"/>
        </g>
        <g opacity="0.45">
            <g transform="matrix(1,0,0,1,230.502,185.059)">
                <path d="M0,-13.414C-0.653,-13.038 -1.001,-12.172 -1.279,-11.359C-1.551,-10.564 -1.77,-9.736 -2.003,-8.921C-2.302,-8.034 -2.587,-7.139 -2.856,-6.232C-3.171,-5.176 -3.441,-4.106 -3.693,-3.023C-3.926,-2.018 -4.25,-0.838 -3.63,0.007C-3.346,0.394 -2.968,0.468 -2.585,0.259C-1.979,-0.072 -1.67,-0.821 -1.379,-1.543C-1.028,-2.415 -0.692,-3.296 -0.383,-4.192C0.196,-5.866 0.687,-7.588 1.095,-9.339C1.287,-10.163 1.573,-11.1 1.612,-11.956C1.664,-13.105 0.813,-13.882 0,-13.414" style="fill:white;fill-rule:nonzero;"/>
            </g>
        </g>
        <g opacity="0.45">
            <g transform="matrix(1,0,0,1,232.846,170.317)">
                <path d="M0,-0.219C-0.03,-0.344 -0.087,-0.453 -0.172,-0.546C-0.24,-0.651 -0.33,-0.733 -0.442,-0.794L-0.648,-0.949C-0.68,-0.973 -0.712,-1 -0.745,-1.022C-0.75,-1.025 -0.754,-1.027 -0.759,-1.029C-0.837,-1.062 -0.915,-1.095 -0.993,-1.128C-1.084,-1.158 -1.173,-1.165 -1.262,-1.16C-1.269,-1.162 -1.276,-1.165 -1.283,-1.166C-1.319,-1.173 -1.356,-1.175 -1.393,-1.181L-1.394,-1.181C-1.392,-1.181 -1.389,-1.181 -1.387,-1.18L-1.396,-1.182C-1.478,-1.207 -1.563,-1.224 -1.653,-1.224C-1.811,-1.223 -1.959,-1.183 -2.096,-1.104C-2.366,-0.946 -2.526,-0.656 -2.531,-0.345C-2.531,-0.326 -2.531,-0.307 -2.529,-0.288C-2.526,-0.241 -2.518,-0.195 -2.511,-0.148C-2.506,-0.027 -2.47,0.087 -2.403,0.192L-2.398,0.201C-2.343,0.299 -2.262,0.392 -2.195,0.475C-2.17,0.505 -2.144,0.534 -2.114,0.559C-2.042,0.623 -1.962,0.681 -1.885,0.738C-1.869,0.75 -1.853,0.761 -1.836,0.771C-1.77,0.813 -1.697,0.84 -1.625,0.87C-1.553,0.901 -1.483,0.934 -1.406,0.952C-1.387,0.957 -1.368,0.96 -1.349,0.963C-1.25,0.979 -1.149,0.996 -1.049,1.002C-1.008,1.005 -0.967,1.003 -0.927,0.998C-0.842,0.986 -0.757,0.975 -0.671,0.963C-0.546,0.934 -0.437,0.876 -0.345,0.791C-0.272,0.749 -0.215,0.691 -0.172,0.619C-0.087,0.526 -0.03,0.417 0,0.292C0.011,0.207 0.023,0.122 0.034,0.036C0.023,-0.049 0.011,-0.134 0,-0.219" style="fill:white;fill-rule:nonzero;"/>
            </g>
        </g>
        <g opacity="0.78">
            <g transform="matrix(1,0,0,1,356.032,213.532)">
                <path d="M0,-11.163C0.792,-14.248 -0.534,-17.666 -2.954,-19.737C-4.537,-21.093 -6.614,-21.941 -8.693,-21.788C-11.549,-21.578 -14.039,-19.487 -15.297,-16.913C-16.554,-14.34 -17.041,-9.906 -16.562,-7.082C-15.23,0.77 -11.778,7.783 -6.12,9.478C-1.785,10.778 8.102,7.315 13.691,1.203C19.727,-5.399 17.799,-10.705 15.438,-13.066C13.335,-15.17 10.179,-16.111 7.224,-15.765C4.27,-15.419 1.502,-13.719 0,-11.163" style="fill:rgb(255,95,109);fill-rule:nonzero;"/>
            </g>
        </g>
        <g opacity="0.78">
            <g transform="matrix(1,0,0,1,319.277,195.056)">
                <path d="M0,-9.809C1.131,-12.772 0.362,-16.32 -1.586,-18.668C-2.86,-20.204 -4.655,-21.296 -6.581,-21.396C-9.23,-21.535 -11.787,-19.764 -13.278,-17.365C-14.769,-14.966 -15.797,-10.629 -15.727,-7.771C-15.534,0.174 -13.287,7.545 -8.319,9.912C-4.513,11.726 5.01,9.492 10.938,4.11C17.34,-1.702 16.267,-7.197 14.411,-9.824C12.757,-12.164 9.986,-13.481 7.23,-13.496C4.475,-13.511 1.713,-12.161 0,-9.809" style="fill:rgb(255,95,109);fill-rule:nonzero;"/>
            </g>
        </g>
        <g transform="matrix(1,0,0,1,347.82,222.654)">
            <path d="M0,-30.428C-0.148,-30.428 -0.297,-30.423 -0.444,-30.412C-2.931,-30.229 -5.36,-28.425 -6.636,-25.816C-7.798,-23.439 -8.346,-19.164 -7.857,-16.288C-6.387,-7.619 -2.614,-1.576 2.234,-0.123C6.425,1.133 16.154,-2.373 21.533,-8.257C26.941,-14.172 25.862,-19.268 23.296,-21.835C21.379,-23.751 18.387,-24.731 15.494,-24.391C12.652,-24.058 10.027,-22.388 8.642,-20.032C8.516,-19.817 8.246,-19.73 8.021,-19.823C7.79,-19.918 7.665,-20.169 7.727,-20.41C8.442,-23.193 7.319,-26.436 4.933,-28.48C3.471,-29.732 1.696,-30.428 0,-30.428M4.211,1.123C3.36,1.123 2.596,1.029 1.947,0.835C-3.352,-0.753 -7.285,-6.933 -8.844,-16.121C-9.361,-19.172 -8.774,-23.718 -7.534,-26.256C-6.106,-29.178 -3.352,-31.201 -0.518,-31.409C1.577,-31.561 3.794,-30.772 5.583,-29.24C7.714,-27.415 8.94,-24.722 8.939,-22.111C10.565,-23.903 12.861,-25.09 15.377,-25.385C18.572,-25.756 21.876,-24.669 24.003,-22.542C26.882,-19.664 28.155,-14.018 22.271,-7.582C17.337,-2.185 9.255,1.123 4.211,1.123" style="fill:rgb(255,95,109);fill-rule:nonzero;"/>
        </g>
        <g transform="matrix(1,0,0,1,312.412,205.141)">
            <path d="M0,-30.988C-2.212,-30.988 -4.538,-29.52 -5.988,-27.186C-7.369,-24.964 -8.435,-20.784 -8.362,-17.868C-8.15,-9.094 -5.487,-2.648 -1.24,-0.624C2.423,1.121 11.773,-1.176 17.467,-6.344C23.214,-11.562 22.891,-16.757 20.867,-19.62C19.369,-21.739 16.773,-23.066 14.092,-23.08C11.418,-23.066 8.842,-21.76 7.269,-19.599C7.12,-19.396 6.846,-19.335 6.626,-19.454C6.405,-19.574 6.308,-19.838 6.397,-20.072C7.422,-22.755 6.818,-26.114 4.895,-28.433C3.623,-29.966 1.933,-30.894 0.257,-30.981C0.172,-30.986 0.086,-30.988 0,-30.988M1.965,0.941C0.515,0.941 -0.737,0.723 -1.67,0.279C-6.333,-1.943 -9.137,-8.549 -9.362,-17.843C-9.438,-20.924 -8.306,-25.352 -6.838,-27.714C-5.143,-30.443 -2.34,-32.109 0.31,-31.98C2.263,-31.879 4.215,-30.819 5.664,-29.071C7.363,-27.023 8.138,-24.239 7.815,-21.675C9.529,-23.191 11.781,-24.08 14.05,-24.08L14.098,-24.08C17.097,-24.064 20.003,-22.576 21.684,-20.197C23.942,-17.001 24.369,-11.261 18.139,-5.604C13.453,-1.349 6.67,0.941 1.965,0.941" style="fill:rgb(255,95,109);fill-rule:nonzero;"/>
        </g>
        <g transform="matrix(1,0,0,1,371.589,219.96)">
            <path d="M0,-7.299C4.032,-5.722 7.86,-3.641 11.076,-0.695C11.471,-0.336 11.005,0.332 10.535,0.089C8.615,-0.828 6.734,-1.778 4.85,-2.752C2.975,-3.736 1.093,-4.727 -0.705,-5.865C-1.508,-6.365 -0.88,-7.631 0,-7.299" style="fill:rgb(255,95,109);fill-rule:nonzero;"/>
        </g>
        <g transform="matrix(1,0,0,1,330.985,199.455)">
            <path d="M0,-1.49C2.036,-4.232 6.519,-3.471 8.106,-0.635C8.547,-0.015 9.466,2.712 8.262,2.742C8.067,2.72 7.914,2.586 7.854,2.412C7.256,0.85 6.249,-0.297 4.915,-0.919C3.52,-1.627 2.057,-1.47 0.646,-0.788C0.192,-0.499 -0.337,-1.071 0,-1.49" style="fill:rgb(255,95,109);fill-rule:nonzero;"/>
        </g>
        <g opacity="0.58">
            <g transform="matrix(1,0,0,1,351.139,198.062)">
                <path d="M0,-1.936C-0.774,-3.184 -2.683,-2.767 -3.866,-2.481C-4.503,-2.327 -5.12,-2.105 -5.724,-1.853C-6.391,-1.574 -7.126,-1.312 -7.686,-0.849C-7.752,-0.795 -7.803,-0.726 -7.839,-0.649C-7.842,-0.648 -7.845,-0.647 -7.848,-0.645C-8.422,-0.37 -8.43,0.609 -7.848,0.882C-7.141,1.214 -6.46,1.248 -5.7,1.1C-5.066,0.977 -4.441,0.791 -3.815,0.631C-2.618,0.325 -1.361,0.053 -0.332,-0.668C0.069,-0.95 0.282,-1.482 0,-1.936" style="fill:rgb(242,137,183);fill-rule:nonzero;"/>
            </g>
        </g>
        <g opacity="0.58">
            <g transform="matrix(1,0,0,1,312.367,180.395)">
                <path d="M0,-1.975C0.001,-1.99 0.009,-2.004 0.009,-2.019C0.009,-2.466 -0.346,-2.758 -0.764,-2.792C-1.747,-2.873 -2.736,-2.678 -3.672,-2.392C-4.594,-2.111 -5.585,-1.814 -6.342,-1.196C-6.79,-0.83 -7.046,-0.262 -6.756,0.289C-6.494,0.788 -5.887,0.898 -5.38,0.81C-4.913,0.728 -4.454,0.559 -3.995,0.438C-3.521,0.313 -3.045,0.192 -2.57,0.069C-2.061,-0.064 -1.577,-0.21 -1.106,-0.451C-0.892,-0.56 -0.683,-0.682 -0.487,-0.822C-0.241,-0.997 -0.082,-1.191 0.061,-1.454C0.146,-1.612 0.12,-1.836 0,-1.975" style="fill:rgb(242,137,183);fill-rule:nonzero;"/>
            </g>
        </g>
        <g opacity="0.58">
            <g transform="matrix(1,0,0,1,316.514,178.323)">
                <path d="M0,-1.018C-0.07,-1.137 -0.164,-1.231 -0.283,-1.301C-0.384,-1.378 -0.512,-1.425 -0.628,-1.469C-0.75,-1.516 -0.887,-1.527 -1.015,-1.541C-1.074,-1.547 -1.132,-1.547 -1.191,-1.541C-1.319,-1.527 -1.462,-1.515 -1.586,-1.47C-1.833,-1.382 -2.069,-1.261 -2.249,-1.063C-2.42,-0.875 -2.554,-0.651 -2.54,-0.385C-2.53,-0.307 -2.52,-0.228 -2.509,-0.15C-2.467,-0.001 -2.391,0.129 -2.282,0.239C-2.173,0.348 -2.04,0.426 -1.892,0.466C-1.664,0.529 -1.431,0.485 -1.232,0.376C-1.202,0.378 -1.176,0.387 -1.145,0.387C-0.909,0.386 -0.714,0.327 -0.503,0.229C-0.46,0.209 -0.42,0.186 -0.382,0.158C-0.293,0.093 -0.195,0.025 -0.123,-0.062C-0.026,-0.16 0.042,-0.276 0.08,-0.41C0.112,-0.515 0.117,-0.62 0.094,-0.725C0.089,-0.83 0.058,-0.928 0,-1.018" style="fill:rgb(242,137,183);fill-rule:nonzero;"/>
            </g>
        </g>
        <g opacity="0.58">
            <g transform="matrix(1,0,0,1,353.706,196.459)">
                <path d="M0,-0.819C-0.042,-0.873 -0.083,-0.926 -0.124,-0.98C-0.174,-1.033 -0.238,-1.061 -0.299,-1.093C-0.315,-1.103 -0.323,-1.123 -0.339,-1.133C-0.435,-1.193 -0.538,-1.226 -0.649,-1.231C-0.759,-1.256 -0.87,-1.251 -0.981,-1.216C-1.121,-1.177 -1.244,-1.106 -1.348,-1.003C-1.451,-0.899 -1.522,-0.776 -1.562,-0.635C-1.601,-0.488 -1.601,-0.34 -1.562,-0.193C-1.541,-0.075 -1.431,0.104 -1.343,0.185C-1.343,0.185 -1.342,0.186 -1.341,0.187C-1.337,0.19 -1.175,0.316 -1.172,0.318C-1.171,0.318 -1.17,0.318 -1.169,0.319C-1.165,0.321 -0.974,0.402 -0.97,0.403C-0.895,0.424 -0.815,0.437 -0.737,0.434C-0.716,0.433 -0.663,0.426 -0.634,0.421C-0.606,0.418 -0.535,0.409 -0.513,0.404C-0.511,0.403 -0.508,0.402 -0.505,0.401C-0.445,0.381 -0.359,0.355 -0.298,0.312C-0.285,0.303 -0.143,0.194 -0.132,0.184C-0.132,0.183 -0.131,0.182 -0.13,0.182C-0.08,0.132 -0.033,0.075 0,0.013C0.017,-0.018 0.031,-0.06 0.042,-0.085C0.056,-0.118 0.069,-0.15 0.083,-0.183L0.083,-0.184C0.084,-0.185 0.084,-0.186 0.084,-0.188C0.086,-0.196 0.113,-0.395 0.113,-0.403C0.119,-0.537 0.069,-0.704 0,-0.819" style="fill:rgb(242,137,183);fill-rule:nonzero;"/>
            </g>
        </g>
    </g>
</svg>
