<?xml version="1.0" encoding="UTF-8" standalone="no"?>
<!DOCTYPE svg PUBLIC "-//W3C//DTD SVG 1.1//EN" "http://www.w3.org/Graphics/SVG/1.1/DTD/svg11.dtd">
<svg width="100%" height="100%" viewBox="0 0 555 403" version="1.1" xmlns="http://www.w3.org/2000/svg" xmlns:xlink="http://www.w3.org/1999/xlink" xml:space="preserve" xmlns:serif="http://www.serif.com/" style="fill-rule:evenodd;clip-rule:evenodd;stroke-linejoin:round;stroke-miterlimit:10;">
    <g transform="matrix(1,0,0,1,22.381,-31.0281)">
        <g transform="matrix(1,0,0,1,224.579,266.783)">
            <path d="M0,115.449L-20.82,117.179C-28.03,117.779 -31.34,115.25 -34.36,111.119C-49.76,90.119 -65.81,56.079 -78.74,16.26C-80.72,10.189 -82.61,3.989 -84.42,-2.33C-83.75,-1.87 -56.15,16.939 -20.28,12.199L-12.74,50.569L0,115.449Z" style="fill:rgb(17,5,63);fill-rule:nonzero;"/>
        </g>
        <g transform="matrix(1,0,0,1,204.299,37.8818)">
            <path d="M0,241.1C-35.87,245.84 -63.47,227.031 -64.14,226.571L-64.149,226.571C-68.62,211.04 -72.56,194.84 -75.8,178.38C-87.59,118.36 -81.04,69.04 -70.92,36.69C-64.47,16.11 -54.14,-2.819 -48.279,-4.74L0,241.1Z" style="fill:rgb(231,129,0);fill-rule:nonzero;"/>
        </g>
        <g transform="matrix(1,0,0,1,251.911,210.276)">
            <path d="M0,-4.257C13.522,64.597 14.438,130.952 3.12,165.085C2.207,167.839 -0.245,169.708 -3.266,169.958L-48.271,173.695C-51.291,173.946 -54.387,172.538 -56.335,170.022C-80.481,138.834 -105.243,74.459 -118.767,5.605C-139.9,-101.996 -108.206,-160.082 -97.883,-175.492C-96.265,-177.908 -92.72,-178.203 -90.22,-176.129C-74.27,-162.901 -21.134,-111.859 0,-4.257" style="fill:rgb(255,192,0);fill-rule:nonzero;"/>
        </g>
        <g transform="matrix(-1,0,0,1,195.539,46.8423)">
            <path d="M54.89,147.7L54.901,147.7C66.68,66.91 46.94,19.17 36.031,0C25.09,10.01 6.01,30.39 -11.79,63.78C37.821,59.08 54.89,147.7 54.89,147.7" style="fill:rgb(255,226,58);fill-rule:nonzero;"/>
        </g>
        <g transform="matrix(-0.996575,0.0826884,0.0826884,0.996575,161.793,278.783)">
            <path d="M-75.781,97.288L-34.058,97.288C-19.803,74.983 -6.444,36.448 2.841,-7.17C2.841,-7.17 -22.491,27.965 -87.952,25.821C-86.472,55.269 -82.328,80.543 -75.781,97.288" style="fill:rgb(255,147,0);fill-rule:nonzero;"/>
        </g>
        <g transform="matrix(1,0,0,1,249.959,42.4422)">
            <path d="M0,332.27C-0.27,333.09 -1,333.64 -1.9,333.72L-47.35,337.49C-48.25,337.57 -49.17,337.15 -49.74,336.4C-73.939,305.16 -98.21,241.02 -111.56,173.04C-132.24,67.73 -102.01,10.54 -91.58,-5.3C-75.37,8.33 -24,58.73 -3.31,164.05C10.04,232.04 11.33,298.08 0,332.27Z" style="fill:none;fill-rule:nonzero;stroke:white;stroke-width:1.5px;"/>
        </g>
        <g transform="matrix(1,0,0,1,158.366,372.709)">
            <path d="M0,-335.691C3.005,-321.754 5.863,-307.789 8.799,-293.839L17.357,-251.94C23.04,-224.003 28.518,-196.024 34.107,-168.069C39.512,-140.077 45.016,-112.105 50.328,-84.094L58.25,-42.071C60.808,-28.046 63.444,-14.037 65.932,0C62.926,-13.935 60.067,-27.901 57.131,-41.85L48.57,-83.75C42.895,-111.688 37.409,-139.664 31.825,-167.621C26.427,-195.614 20.915,-223.585 15.608,-251.596L7.686,-293.62C5.126,-307.644 2.49,-321.653 0,-335.691" style="fill:rgb(17,5,63);fill-rule:nonzero;"/>
        </g>
        <g transform="matrix(1,0,0,1,226.136,55.8537)">
            <path d="M0,68.129C-4.135,59.257 -8.499,50.487 -13.379,42C-18.274,33.525 -23.539,25.263 -29.254,17.319C-34.967,9.376 -41.13,1.754 -47.763,-5.437C-51.066,-9.044 -54.516,-12.517 -58.094,-15.849C-58.984,-16.686 -59.883,-17.516 -60.804,-18.319C-61.713,-19.136 -62.633,-19.94 -63.572,-20.722C-64.041,-21.107 -64.498,-21.537 -64.979,-21.872C-65.467,-22.208 -66.004,-22.471 -66.569,-22.645C-67.7,-22.988 -68.947,-22.954 -70.032,-22.496L-70.034,-22.496L-70.041,-22.494C-70.143,-22.454 -70.257,-22.506 -70.296,-22.608L-70.305,-22.64L-70.312,-22.673L-70.056,-22.523C-71.213,-22.099 -72.218,-21.27 -73.119,-20.384C-74.023,-19.489 -74.85,-18.509 -75.623,-17.49C-77.171,-15.451 -78.554,-13.284 -79.843,-11.065C-82.422,-6.625 -84.655,-1.987 -86.688,2.731C-88.715,7.453 -90.526,12.268 -92.123,17.153C-93.697,22.046 -95.099,26.995 -96.328,31.987C-98.803,41.968 -100.596,52.113 -101.846,62.321C-103.09,72.531 -103.746,82.81 -103.918,93.095C-103.916,82.808 -103.431,72.51 -102.353,62.26C-101.27,52.013 -99.64,41.809 -97.32,31.744C-96.168,26.709 -94.843,21.714 -93.337,16.759C-91.81,11.811 -90.064,6.928 -88.097,2.129C-86.122,-2.669 -83.944,-7.392 -81.389,-11.962C-80.11,-14.246 -78.732,-16.49 -77.146,-18.65C-76.353,-19.73 -75.495,-20.786 -74.509,-21.792C-73.511,-22.783 -72.415,-23.795 -70.675,-24.411C-69.762,-24.733 -68.761,-24.256 -68.438,-23.343C-68.405,-23.252 -68.38,-23.149 -68.363,-23.057L-68.357,-23.023L-70.807,-24.325L-70.804,-24.326C-69.243,-24.959 -67.527,-24.966 -66.01,-24.485C-65.251,-24.241 -64.538,-23.88 -63.9,-23.427C-63.736,-23.319 -63.59,-23.19 -63.437,-23.071L-63.069,-22.755L-62.37,-22.142C-61.431,-21.333 -60.513,-20.503 -59.606,-19.662C-58.688,-18.832 -57.794,-17.979 -56.909,-17.119C-53.351,-13.692 -49.934,-10.133 -46.668,-6.446C-40.111,0.906 -34.048,8.671 -28.448,16.74C-22.846,24.81 -17.708,33.183 -12.948,41.754C-8.203,50.337 -3.984,59.189 0,68.129" style="fill:white;fill-rule:nonzero;"/>
        </g>
        <g transform="matrix(1,0,0,1,5.68434e-14,-1.39162)">
            <clipPath id="_clip1">
                <rect x="0" y="342.335" width="520" height="98.988" clip-rule="nonzero"/>
            </clipPath>
            <g clip-path="url(#_clip1)">
                <g transform="matrix(0.00175981,-0.999998,-0.999998,-0.00175981,256.832,182.285)">
                    <path d="M-195.675,-201.74C-213.315,-162.211 -225.255,-88.332 -225.404,-3.692C-225.555,82.078 -213.556,156.838 -195.675,196.031C-182.375,144.994 -172.505,76.802 -172.367,-1.478C-172.227,-81.138 -182.205,-150.376 -195.675,-201.74" style="fill:rgb(242,198,123);fill-rule:nonzero;"/>
                </g>
                <g transform="matrix(1,0,0,1,-22.3806,435.298)">
                    <path d="M0,-35.131C0.848,-32.669 8.677,-31.312 10.488,-30.946C15.281,-29.98 20.145,-29.344 25,-28.788C34.817,-27.664 44.683,-26.961 54.548,-26.421C64.098,-25.899 73.913,-26.224 83.383,-24.831C87.214,-24.269 91.977,-23.507 94.446,-20.196C97.034,-16.727 99.747,-15.371 103.997,-13.997C122.292,-8.08 142.676,-7.046 161.747,-5.911C181.322,-4.746 200.944,-4.499 220.546,-4.92C240.434,-5.347 260.384,-6.421 280.109,-9.09C289.481,-10.359 298.625,-12.81 307.977,-14.092C317.277,-15.366 326.621,-15.277 335.941,-14.313C355.021,-12.338 374.223,-11.76 393.395,-12.251C412.707,-12.745 432.589,-13.871 451.388,-18.608C461.313,-21.108 470.961,-23.818 481.165,-25.062C488.147,-25.912 495.178,-26.141 502.198,-26.523C511.187,-27.012 520.177,-27.684 529.125,-28.688C534.245,-29.263 539.425,-29.707 544.431,-30.941C553.45,-33.164 554.415,-34.798 554.888,-35.395C555.515,-32.788 549.26,-31.273 547.487,-30.767C542.577,-29.367 537.512,-28.501 532.471,-27.733C522.899,-26.276 513.249,-25.264 503.602,-24.448C489.337,-23.242 475.237,-22.021 461.375,-18.152C422.532,-7.308 381.466,-5.765 341.363,-9.011C334.7,-9.551 328.119,-10.348 321.413,-10.242C312.179,-10.097 303.489,-8.255 294.491,-6.437C274.391,-2.375 253.664,-1.184 233.21,-0.454C213.065,0.264 192.893,0.085 172.76,-0.945C152.757,-1.969 132.517,-3.668 112.942,-8.089C107.754,-9.261 102.335,-10.566 97.579,-13.013C94.643,-14.524 93.784,-16.257 91.803,-18.529C88.984,-21.765 82.987,-22.051 79.014,-22.454C74.043,-22.958 69.027,-23.091 64.043,-23.445C52.547,-24.263 41.057,-25.274 29.624,-26.74C24.124,-27.446 18.619,-28.226 13.192,-29.378C10.673,-29.912 -0.078,-31.983 0,-35.131" style="fill:white;fill-rule:nonzero;"/>
                </g>
            </g>
        </g>
        <g transform="matrix(-0.101593,-0.994826,-0.994826,0.101593,123.782,297.224)">
            <path d="M-45.822,-50.74C-71.262,-50.74 -91.884,-30.118 -91.884,-4.678C-91.884,20.759 -71.261,41.382 -45.822,41.382C-20.384,41.381 0.239,20.76 0.238,-4.679C0.239,-30.118 -20.384,-50.741 -45.822,-50.74" style="fill:white;fill-rule:nonzero;"/>
        </g>
        <g transform="matrix(1,0,0,1,87.1697,294.603)">
            <path d="M0,52.421C-0.868,47.2 -0.675,41.796 0.326,36.525C1.439,31.277 3.457,26.183 6.32,21.572C9.177,16.952 12.965,12.926 17.258,9.575C21.586,6.256 26.505,3.709 31.71,2.028L35.684,1.021C37.013,0.71 38.379,0.585 39.724,0.362C42.424,-0.033 45.165,-0.094 47.89,0.015C49.251,0.085 50.605,0.269 51.96,0.4C53.299,0.657 54.651,0.837 55.973,1.162C58.618,1.796 61.228,2.606 63.692,3.744C68.652,5.925 73.252,8.901 77.124,12.627C80.936,16.402 84.182,20.734 86.41,25.535L86.413,25.541C86.437,25.591 86.414,25.65 86.364,25.674C86.316,25.696 86.261,25.677 86.235,25.632C81.13,16.463 72.882,9.04 63.11,5.182C58.248,3.236 53.057,2.054 47.814,1.894C45.197,1.836 42.565,1.887 39.976,2.293C38.687,2.517 37.376,2.641 36.104,2.947L32.302,3.938C22.292,7.07 13.449,13.697 7.62,22.432C1.8,31.188 -0.785,41.942 0.199,52.4C0.204,52.456 0.164,52.505 0.109,52.51C0.057,52.515 0.01,52.478 0.001,52.427L0,52.421Z" style="fill:white;fill-rule:nonzero;"/>
        </g>
        <g transform="matrix(-0.369527,-0.92922,-0.92922,0.369527,97.5751,306.571)">
            <path d="M-33.768,-39.533C-17.576,-11.48 -28.695,15.413 -42.31,26.099C-39.47,25.852 -36.611,25.33 -33.768,24.522C-23.616,21.636 -15.229,15.556 -9.382,7.689C-6.116,-12.13 -18.879,-32.916 -33.768,-39.533" style="fill:rgb(255,192,0);fill-rule:nonzero;"/>
        </g>
        <g transform="matrix(0.825126,-0.564948,-0.564948,-0.825126,152.163,313.347)">
            <path d="M-10.081,-5.21C-7.041,7.567 -10.399,23.391 -20.297,31.38C-16.816,30.463 -13.382,29.106 -10.081,27.306C-5.525,24.828 -1.563,21.693 1.761,18.07C0.575,11.381 -3.626,0.344 -10.081,-5.21" style="fill:rgb(255,42,42);fill-rule:nonzero;"/>
        </g>
        <g transform="matrix(1,0,0,1,173.557,307.711)">
            <path d="M0,12.59C-7.81,12.08 -17.51,12.21 -26.77,15.63C-20.52,10.92 -15.56,2.38 -13.96,-3.04C-8.22,1 -3.41,6.34 0,12.59" style="fill:rgb(0,199,238);fill-rule:nonzero;"/>
        </g>
        <g transform="matrix(-1,0,0,1,118.897,324.24)">
            <path d="M-17.87,64.001L-17.86,64.001C-6.82,64.9 3.66,61.801 12.13,55.891C4.359,25.411 -13.5,8.071 -27.891,-0.899C-30,17.761 -28.52,42.781 -17.87,64.001" style="fill:rgb(255,96,38);fill-rule:nonzero;"/>
        </g>
        <g transform="matrix(0,1,1,0,168.868,366.001)">
            <path d="M-22.08,10.26L-22.07,10.26C-9.41,9.84 2.16,4.22 10.32,-4.69C-9.36,0.659 -33.28,-7.85 -42.66,-22.08C-41.87,-8.82 -34.229,4.15 -22.08,10.26" style="fill:rgb(255,192,0);fill-rule:nonzero;"/>
        </g>
        <g transform="matrix(-0.101583,-0.994827,-0.994827,0.101583,145.293,318.602)">
            <path d="M-5.068,-5.612C-7.826,-5.922 -10.062,-3.893 -10.062,-1.08C-10.062,1.734 -7.826,4.266 -5.068,4.576C-2.31,4.886 -0.074,2.857 -0.073,0.044C-0.074,-2.77 -2.31,-5.302 -5.068,-5.612" style="fill:white;fill-rule:nonzero;"/>
        </g>
        <g transform="matrix(1,0,0,1,141.219,318)">
            <path d="M0,6.116C-0.281,5.493 -0.366,4.782 -0.317,4.064C-0.229,3.352 0.038,2.649 0.455,2.033C1.305,0.786 2.817,0.093 4.288,-0.008C5.773,-0.032 7.255,0.459 8.347,1.408C8.887,1.887 9.347,2.446 9.684,3.066C9.985,3.705 10.205,4.381 10.208,5.065L10.208,5.073C10.208,5.094 10.191,5.11 10.171,5.11C10.153,5.11 10.139,5.098 10.135,5.081C9.565,2.482 6.943,0.581 4.324,0.74C3.024,0.785 1.729,1.368 0.912,2.396C0.078,3.411 -0.213,4.818 0.073,6.1C0.078,6.12 0.065,6.14 0.045,6.144C0.027,6.148 0.011,6.139 0.003,6.124L0,6.116Z" style="fill:rgb(17,5,63);fill-rule:nonzero;"/>
        </g>
        <g transform="matrix(1,0,0,1,151.485,326.842)">
            <path d="M0,-3.156C0.211,-0.695 -1.505,1.4 -4.092,1.664C-6.897,1.95 -9.642,-0.02 -10.23,-2.735C-10.416,-3.57 -10.368,-4.38 -10.141,-5.106C-10.119,-4.897 -10.088,-4.689 -10.046,-4.472C-9.457,-1.759 -6.714,0.203 -3.918,-0.083C-1.979,-0.28 -0.517,-1.515 0,-3.156" style="fill:rgb(17,5,63);fill-rule:nonzero;"/>
        </g>
        <g transform="matrix(0.105694,-0.994399,-0.994399,-0.105694,129.39,338.83)">
            <path d="M-28.937,-42.165C-38.473,-35.711 -45.601,-25.696 -48.162,-13.543C-52.132,5.303 -43.96,23.896 -28.937,34.083C-41.106,22.087 -47.057,3.623 -43.089,-15.214C-40.855,-25.811 -35.792,-35.044 -28.937,-42.165" style="fill:rgb(17,5,63);fill-rule:nonzero;"/>
        </g>
        <g transform="matrix(-0.0199414,0.999801,0.999801,0.0199414,125.486,364.047)">
            <path d="M22.138,-20.166C22.138,-20.166 15.184,-14.203 16.653,-4.506C17.121,-1.421 19.283,1.292 22.138,5.46C22.138,5.46 18.975,13.609 26.599,21.837L22.138,-20.166Z" style="fill:rgb(242,198,123);fill-rule:nonzero;"/>
        </g>
        <g transform="matrix(1,0,0,1,387.78,376.011)">
            <path d="M0,-32.559C-4.434,-32.717 -8.284,-25.657 -8.6,-16.79C-8.915,-7.923 -5.577,-0.607 -1.145,-0.45L11.472,0C15.905,0.158 19.755,-6.902 20.07,-15.769C20.387,-24.636 17.049,-31.952 12.615,-32.11L0,-32.559Z" style="fill:rgb(76,76,157);fill-rule:nonzero;"/>
        </g>
        <g transform="matrix(-0.999366,-0.0356065,-0.0356065,0.999366,380.086,342.84)">
            <path d="M-27.866,10.807L-0.175,10.807C-1.31,4.696 -4.254,0.338 -7.709,0.338L-20.333,0.338C-23.787,0.338 -26.731,4.697 -27.866,10.807" style="fill:rgb(17,5,63);fill-rule:nonzero;"/>
        </g>
        <g transform="matrix(0.0356049,-0.999366,-0.999366,-0.0356049,400.395,351.945)">
            <path d="M-8.027,-7.746C-16.9,-7.747 -24.092,-4.151 -24.092,0.286C-24.092,4.722 -16.9,8.318 -8.027,8.319C0.845,8.318 8.038,4.723 8.038,0.286C8.038,-4.151 0.846,-7.746 -8.027,-7.746" style="fill:rgb(17,5,63);fill-rule:nonzero;"/>
        </g>
        <g transform="matrix(0.035545,-0.999368,-0.999368,-0.035545,400.022,357.164)">
            <path d="M-2.798,-2.7C-5.89,-2.7 -8.396,-1.446 -8.396,0.1C-8.395,1.645 -5.89,2.898 -2.798,2.898C0.294,2.897 2.8,1.644 2.799,0.099C2.8,-1.446 0.294,-2.699 -2.798,-2.7" style="fill:rgb(76,76,157);fill-rule:nonzero;"/>
        </g>
        <g transform="matrix(1,0,0,1,315.632,373.442)">
            <path d="M0,-32.559C-4.433,-32.717 -8.283,-25.657 -8.599,-16.79C-8.914,-7.923 -5.576,-0.608 -1.144,-0.45L11.473,0C15.906,0.158 19.756,-6.903 20.071,-15.769C20.388,-24.636 17.05,-31.952 12.616,-32.11L0,-32.559Z" style="fill:rgb(76,76,157);fill-rule:nonzero;"/>
        </g>
        <g transform="matrix(-0.999366,-0.0356065,-0.0356065,0.999366,307.938,340.271)">
            <path d="M-27.866,10.807L-0.175,10.807C-1.31,4.696 -4.254,0.338 -7.709,0.338L-20.333,0.338C-23.787,0.338 -26.731,4.697 -27.866,10.807" style="fill:rgb(17,5,63);fill-rule:nonzero;"/>
        </g>
        <g transform="matrix(0.0356049,-0.999366,-0.999366,-0.0356049,328.248,349.375)">
            <path d="M-8.027,-7.746C-16.899,-7.747 -24.092,-4.151 -24.092,0.286C-24.091,4.722 -16.9,8.318 -8.027,8.319C0.845,8.318 8.038,4.723 8.038,0.286C8.038,-4.151 0.846,-7.746 -8.027,-7.746" style="fill:rgb(17,5,63);fill-rule:nonzero;"/>
        </g>
        <g transform="matrix(0.035545,-0.999368,-0.999368,-0.035545,327.874,354.594)">
            <path d="M-2.798,-2.7C-5.89,-2.7 -8.396,-1.446 -8.396,0.1C-8.395,1.645 -5.89,2.898 -2.798,2.898C0.294,2.897 2.8,1.644 2.799,0.099C2.8,-1.446 0.294,-2.699 -2.798,-2.7" style="fill:rgb(76,76,157);fill-rule:nonzero;"/>
        </g>
        <g transform="matrix(-0.999368,-0.0355433,-0.0355433,0.999368,332.144,112.313)">
            <rect x="-4.198" y="0.075" width="4.809" height="34.293" style="fill:rgb(125,156,194);"/>
        </g>
        <g transform="matrix(-0.999368,-0.0355359,-0.0355359,0.999368,392.271,114.454)">
            <rect x="-4.199" y="0.075" width="4.81" height="34.293" style="fill:rgb(125,156,194);"/>
        </g>
        <g transform="matrix(1,0,0,1,337.411,96.2535)">
            <path d="M0,16.321C1.159,16.363 2.261,15.669 2.608,14.563C3.525,11.646 6.306,9.573 9.506,9.687L44.166,10.921C47.365,11.035 49.991,13.301 50.698,16.275C50.967,17.404 52.017,18.174 53.175,18.215L59.556,18.442C61.166,18.5 62.487,17.11 62.281,15.511C61.146,6.69 53.75,-0.291 44.577,-0.618L9.916,-1.852C0.743,-2.179 -7.131,4.258 -8.891,12.976C-9.21,14.556 -7.991,16.037 -6.38,16.094L0,16.321Z" style="fill:rgb(17,5,63);fill-rule:nonzero;"/>
        </g>
        <g transform="matrix(1,0,0,1,395.259,102.502)">
            <path d="M0,-0.548C-2.179,-2.993 -4.991,-4.88 -8.106,-5.881C-11.219,-6.992 -14.559,-6.776 -17.82,-6.928L-37.475,-7.529L-47.299,-7.929C-48.119,-7.976 -48.927,-7.949 -49.741,-7.936C-50.551,-7.856 -51.364,-7.804 -52.159,-7.622C-53.758,-7.324 -55.321,-6.81 -56.774,-6.072C-59.707,-4.651 -62.234,-2.403 -64.037,0.319C-64.918,1.689 -65.691,3.149 -66.172,4.717C-66.323,5.098 -66.409,5.499 -66.512,5.895C-66.601,6.293 -66.745,6.684 -66.772,7.091C-66.828,7.91 -66.451,8.732 -65.814,9.25C-66.508,8.808 -67.021,7.994 -67.055,7.076C-67.062,6.599 -66.947,6.223 -66.893,5.8C-66.822,5.386 -66.768,4.966 -66.646,4.563C-66.289,2.91 -65.619,1.327 -64.813,-0.19C-63.112,-3.173 -60.556,-5.75 -57.443,-7.414C-56.681,-7.862 -55.86,-8.194 -55.045,-8.545C-54.206,-8.824 -53.364,-9.125 -52.489,-9.287C-51.624,-9.508 -50.737,-9.596 -49.852,-9.706C-48.985,-9.75 -48.016,-9.798 -47.232,-9.777L-37.403,-9.526L-27.582,-9.082C-24.31,-8.865 -21.036,-8.716 -17.767,-8.432C-16.122,-8.293 -14.519,-8.2 -12.84,-8.022C-11.107,-7.826 -9.405,-7.419 -7.812,-6.766C-6.223,-6.102 -4.746,-5.219 -3.424,-4.173C-2.082,-3.151 -0.944,-1.898 0,-0.548" style="fill:white;fill-rule:nonzero;"/>
        </g>
        <g transform="matrix(1,0,0,1,392.992,349.033)">
            <path d="M0,-204.094L18.376,-203.44C32.011,-202.954 42.768,-191.402 42.282,-177.767L36.82,-24.403C36.334,-10.758 24.782,0 11.147,-0.487L-7.229,-1.141L0,-204.094Z" style="fill:rgb(0,116,216);fill-rule:nonzero;"/>
        </g>
        <g transform="matrix(1,0,0,1,430.736,349.032)">
            <path d="M0,-50.327L-0.924,-24.402C-1.41,-10.758 -12.962,0 -26.597,-0.486L-44.973,-1.14C-31.338,-0.655 -19.776,-11.412 -19.29,-25.056L-18.536,-46.23C-18.536,-46.23 -7.051,-44.041 0,-50.327" style="fill:rgb(17,5,63);fill-rule:nonzero;"/>
        </g>
        <g transform="matrix(1,0,0,1,402.484,348.406)">
            <path d="M0,-203.133C2.412,-203.167 4.852,-202.869 7.212,-202.199C9.566,-201.513 11.821,-200.452 13.895,-199.094C18.041,-196.376 21.425,-192.401 23.445,-187.742C24.462,-185.415 25.087,-182.913 25.36,-180.369C25.494,-179.12 25.523,-177.761 25.506,-176.582L25.487,-172.966C25.483,-168.142 25.375,-163.323 25.322,-158.502C25.229,-148.859 24.954,-139.222 24.754,-129.583L23.879,-100.675L22.708,-71.778C22.215,-62.149 21.823,-52.516 21.229,-42.891L20.378,-28.453L20.14,-24.843C20.074,-23.667 19.945,-22.31 19.723,-21.072C19.27,-18.55 18.451,-16.102 17.288,-13.843C14.933,-9.336 11.265,-5.612 6.929,-3.2C4.761,-1.993 2.433,-1.102 0.035,-0.582C-2.369,-0.085 -4.824,0.034 -7.229,-0.175C-2.408,-0.01 2.442,-1.305 6.535,-3.841C10.636,-6.363 13.98,-10.091 16.023,-14.443C17.043,-16.619 17.749,-18.939 18.096,-21.316C18.269,-22.506 18.35,-23.7 18.377,-24.906L18.496,-28.519L18.974,-42.972L20.884,-100.782L23.094,-158.581L23.646,-173.031L23.784,-176.643C23.843,-177.849 23.847,-179.046 23.759,-180.245C23.582,-182.64 23.043,-185.006 22.181,-187.249C20.452,-191.736 17.379,-195.692 13.468,-198.498C9.565,-201.319 4.82,-202.955 0,-203.133" style="fill:rgb(17,5,63);fill-rule:nonzero;"/>
        </g>
        <g transform="matrix(1,0,0,1,416.908,319.462)">
            <path d="M0,-148.85L-5.462,4.514C-5.948,18.159 -17.5,28.917 -31.145,28.43L-103.86,25.84C-122.227,25.186 -136.711,9.622 -136.058,-8.735L-131.207,-144.915C-130.554,-163.282 -114.998,-177.767 -96.632,-177.113L-23.916,-174.523C-10.271,-174.037 0.485,-162.485 0,-148.85" style="fill:rgb(0,152,240);fill-rule:nonzero;"/>
        </g>
        <g transform="matrix(1,0,0,1,412.2,348.377)">
            <path d="M0,-45.575L-0.754,-24.401C-1.24,-10.757 -12.802,0 -26.437,-0.485L-99.152,-3.075C-115.576,-3.66 -128.898,-16.17 -131.062,-31.93C-109.574,-24.849 -52.979,-11.627 0,-45.575" style="fill:rgb(0,116,216);fill-rule:nonzero;"/>
        </g>
        <g transform="matrix(-0.33091,-0.943662,-0.943662,0.33091,300.207,146.845)">
            <path d="M-32.295,-65.759C-16.915,-9.653 -27.738,6.847 -48.764,23.648L-32.295,17.206C-16.81,11.148 -9.105,-6.474 -15.159,-21.95L-32.295,-65.759Z" style="fill:white;fill-rule:nonzero;"/>
        </g>
        <g transform="matrix(1,0,0,1,359.234,198.649)">
            <path d="M0,17.022C0,17.022 9.771,14.913 11.626,14.447L17.174,24.095L17.826,25.23L18.56,24.114L24.996,14.317L36.082,16.465L37.438,16.719L37.146,15.384L34.765,4.526L44.674,-2.033L45.418,-2.525L44.655,-2.936C42.946,-3.855 34.261,-8.208 34.261,-8.208L0,17.022Z" style="fill:rgb(17,5,63);fill-rule:nonzero;"/>
        </g>
        <g transform="matrix(1,0,0,1,393.079,191.661)">
            <path d="M0,11.142L10.549,4.51L0.442,-1.266L3.675,-12.92L-8.207,-9.67L-14.186,-19.517L-20.882,-9.144L-32.567,-11.419L-30.157,0.001L-40.706,6.632L-30.599,12.409L-33.831,24.061L-21.95,20.811L-15.972,30.659L-9.273,20.287L2.411,22.56L0,11.142Z" style="fill:white;fill-rule:nonzero;"/>
        </g>
        <g transform="matrix(-0.0413672,-0.999144,-0.999144,0.0413672,376.963,184.717)">
            <path d="M-12.547,-13.077C-19.315,-12.556 -24.802,-6.51 -24.802,0.425C-24.802,7.361 -19.315,12.561 -12.547,12.039C-5.779,11.517 -0.292,5.471 -0.292,-1.465C-0.292,-8.4 -5.779,-13.6 -12.547,-13.077" style="fill:rgb(255,192,0);fill-rule:nonzero;"/>
        </g>
        <g transform="matrix(1,0,0,1,388.558,203.15)">
            <path d="M0,-6.359C-0.203,-0.645 -5.092,4.175 -10.929,4.417C-16.105,4.631 -20.285,1.159 -21.004,-3.623C-19.374,-0.356 -15.9,1.786 -11.806,1.616C-5.977,1.374 -1.08,-3.453 -0.877,-9.16C-0.854,-9.79 -0.888,-10.403 -0.979,-10.99C-0.297,-9.619 0.061,-8.04 0,-6.359" style="fill:rgb(255,96,38);fill-rule:nonzero;"/>
        </g>
        <g transform="matrix(1,0,0,1,383.016,176.239)">
            <path d="M0,6.636L-9.022,7.01L-4.255,-0.374L0,6.636Z" style="fill:rgb(255,192,0);fill-rule:nonzero;"/>
        </g>
        <g transform="matrix(1,0,0,1,371.424,189.272)">
            <path d="M0,-4.891L-6.603,1.619L-8.318,-6.51L0,-4.891Z" style="fill:rgb(255,192,0);fill-rule:nonzero;"/>
        </g>
        <g transform="matrix(1,0,0,1,363.683,202.248)">
            <path d="M0,-8.833L-0.314,0L-7.509,-4.112L0,-8.833Z" style="fill:rgb(255,192,0);fill-rule:nonzero;"/>
        </g>
        <g transform="matrix(1,0,0,1,364.33,212.98)">
            <path d="M0,-8.295L6.157,-2.314L-2.301,0L0,-8.295Z" style="fill:rgb(255,192,0);fill-rule:nonzero;"/>
        </g>
        <g transform="matrix(1,0,0,1,372.985,218.225)">
            <path d="M0,-6.636L9.022,-7.01L4.255,0.374L0,-6.636Z" style="fill:rgb(255,192,0);fill-rule:nonzero;"/>
        </g>
        <g transform="matrix(1,0,0,1,384.578,205.192)">
            <path d="M0,4.891L6.602,-1.619L8.318,6.51L0,4.891Z" style="fill:rgb(255,192,0);fill-rule:nonzero;"/>
        </g>
        <g transform="matrix(1,0,0,1,392.318,192.216)">
            <path d="M0,8.833L0.314,0L7.509,4.112L0,8.833Z" style="fill:rgb(255,192,0);fill-rule:nonzero;"/>
        </g>
        <g transform="matrix(1,0,0,1,391.672,181.484)">
            <path d="M0,8.295L-6.158,2.314L2.301,0L0,8.295Z" style="fill:rgb(255,192,0);fill-rule:nonzero;"/>
        </g>
        <g transform="matrix(1,0,0,1,306.921,269.034)">
            <path d="M0,-12.504L5.799,-10.214L1.532,-7.041L2.512,-5.562C5.872,-0.48 11.647,3.06 17.96,3.908C20.027,4.186 22.14,4.184 24.251,3.903C25.689,4.838 27.674,5.804 30.036,6.121C30.437,6.175 30.851,6.21 31.272,6.224L33.714,6.299L32.738,1.283C35.96,-0.278 38.67,-2.246 40.71,-3.982C43.418,-0.755 47.32,2.487 52.142,2.683L54.606,2.783L52.507,-8.004L57.777,-18.803L42.108,-9.199L0,-12.504Z" style="fill:rgb(17,5,63);fill-rule:nonzero;"/>
        </g>
        <g transform="matrix(1,0,0,1,364.698,258.819)">
            <path d="M0,-8.588L-2.396,-9.141C-7.148,-10.239 -11.928,-8.087 -15.529,-5.647C-17.028,-7.824 -19.092,-10.423 -21.689,-12.777L-19.085,-23.143L-21.271,-23.354C-29.036,-24.103 -34.613,-21.762 -38.053,-19.512C-47.517,-19.391 -56.628,-13.121 -57.742,-5.843C-57.847,-5.159 -57.882,-4.442 -57.847,-3.711L-57.777,-2.289L-51.958,-0.999L-56.224,2.174L-55.245,3.653C-51.884,8.735 -46.109,12.275 -39.797,13.124C-37.729,13.401 -35.617,13.399 -33.506,13.118C-32.066,14.053 -30.083,15.018 -27.72,15.336C-27.318,15.39 -26.906,15.425 -26.483,15.438L-24.043,15.515L-25.019,10.498C-21.796,8.936 -19.087,6.969 -17.047,5.233C-14.339,8.46 -10.436,11.702 -5.615,11.897L-3.15,11.998L-5.25,1.211L0,-8.588Z" style="fill:white;fill-rule:nonzero;"/>
        </g>
        <g transform="matrix(-0.98849,-0.151288,-0.151288,0.98849,344.884,265.772)">
            <path d="M-14.603,-16.647C-6.8,-17.232 0.071,-7.631 0.071,-7.631C0.071,-7.631 -6.8,1.721 -14.603,0.849L-11.489,-7.842L-14.603,-16.647Z" style="fill:rgb(255,192,0);fill-rule:nonzero;"/>
        </g>
        <g transform="matrix(1,0,0,1,340.48,236.187)">
            <path d="M0,12.036L2.731,1.166C-9.36,0 -15.632,6.996 -15.632,6.996L0,12.036Z" style="fill:rgb(255,192,0);fill-rule:nonzero;"/>
        </g>
        <g transform="matrix(1,0,0,1,350.291,253.184)">
            <path d="M0,5.616C0,5.616 -10.827,18.797 -25.102,16.878C-31.353,16.038 -36.441,12.434 -39.217,8.237L-33.084,3.675L-41.513,1.805C-41.542,1.209 -41.516,0.619 -41.428,0.049C-40.436,-6.436 -30.939,-13.181 -20.712,-11.807C-7.499,-10.031 0,5.616 0,5.616" style="fill:rgb(255,96,38);fill-rule:nonzero;"/>
        </g>
        <g transform="matrix(1,0,0,1,338.303,263.3)">
            <path d="M0,9.061C-4.745,8.913 -8.724,5.394 -10.27,2.803C-7.408,2.478 -3.826,1.214 -1.763,0L0,9.061Z" style="fill:rgb(255,192,0);fill-rule:nonzero;"/>
        </g>
        <g transform="matrix(1,0,0,1,327.636,268.612)">
            <path d="M0,-26.256C0.999,-25.483 1.788,-24.462 2.49,-23.387C3.139,-22.28 3.638,-21.083 4.012,-19.846C4.757,-17.361 4.826,-14.708 4.452,-12.153C4.028,-9.605 3.142,-7.107 1.687,-4.965C0.959,-3.9 0.131,-2.906 -0.812,-2.039C-1.795,-1.217 -2.84,-0.465 -4.014,0L-4.072,-0.096C-1.979,-1.395 -0.301,-3.29 0.93,-5.409C2.161,-7.536 2.963,-9.902 3.336,-12.329C3.718,-14.752 3.689,-17.251 3.153,-19.65C2.617,-22.04 1.566,-24.35 -0.083,-26.179L0,-26.256Z" style="fill:rgb(17,5,63);fill-rule:nonzero;"/>
        </g>
        <g transform="matrix(1,0,0,1,327.52,255.39)">
            <path d="M0,-2.867C-0.363,-0.49 -2.612,1.174 -5.023,0.85C-7.435,0.527 -9.094,-1.664 -8.73,-4.041L0,-2.867Z" style="fill:rgb(17,5,63);fill-rule:nonzero;"/>
        </g>
        <g transform="matrix(0.133279,-0.991079,-0.991079,-0.133279,324.424,247)">
            <path d="M-4.365,-3.817C-6.769,-3.774 -8.718,-1.766 -8.718,0.665C-8.72,3.099 -6.769,5.035 -4.365,4.991C-1.961,4.947 -0.012,2.94 -0.012,0.508C-0.011,-1.924 -1.961,-3.861 -4.365,-3.817" style="fill:white;fill-rule:nonzero;"/>
        </g>
        <g transform="matrix(0.133085,-0.991105,-0.991105,-0.133085,323.946,248.744)">
            <path d="M-2.573,-2.251C-3.99,-2.224 -5.139,-1.041 -5.139,0.392C-5.138,1.826 -3.99,2.967 -2.573,2.942C-1.156,2.916 -0.007,1.731 -0.007,0.299C-0.008,-1.135 -1.156,-2.276 -2.573,-2.251" style="fill:rgb(17,5,63);fill-rule:nonzero;"/>
        </g>
        <g transform="matrix(1,0,0,1,435.274,160.415)">
            <path d="M0,10.851C0.103,6.709 -0.811,2.548 -2.67,-1.152C-4.598,-4.802 -7.334,-8.074 -10.772,-10.383C-14.183,-12.71 -18.16,-14.25 -22.283,-14.606L-23.826,-14.736L-25.379,-14.793L-28.484,-14.897L-34.697,-15.106L-84.393,-16.776L-109.236,-17.711C-113.374,-17.816 -117.531,-18.241 -121.615,-17.512C-125.688,-16.833 -129.63,-15.382 -133.176,-13.265C-140.286,-9.053 -145.751,-2.125 -148.115,5.81L-148.56,7.297C-148.69,7.796 -148.765,8.31 -148.869,8.816C-149.063,9.832 -149.294,10.844 -149.341,11.88C-149.568,13.938 -149.608,16.012 -149.689,18.082L-150.157,30.504C-150.202,26.356 -150.218,22.209 -150.188,18.064C-150.178,15.989 -150.212,13.933 -150.051,11.807C-150.036,10.745 -149.838,9.704 -149.674,8.656C-149.584,8.134 -149.524,7.603 -149.407,7.086L-149.003,5.544C-146.763,-2.672 -141.262,-9.978 -133.935,-14.534C-130.283,-16.829 -126.173,-18.439 -121.891,-19.168L-118.66,-19.567C-117.578,-19.623 -116.492,-19.625 -115.407,-19.653C-113.293,-19.637 -111.254,-19.545 -109.173,-19.495L-84.321,-18.773L-59.48,-17.728L-47.061,-17.204L-40.851,-16.935L-34.644,-16.589L-28.437,-16.245L-25.333,-16.072L-23.778,-15.982L-22.16,-15.811C-17.845,-15.343 -13.72,-13.651 -10.242,-11.15C-6.757,-8.634 -4.06,-5.169 -2.223,-1.378C-0.437,2.456 0.307,6.716 0,10.851" style="fill:white;fill-rule:nonzero;"/>
        </g>
        <g transform="matrix(1,0,0,1,379.876,365.483)">
            <path d="M0,11.051C0,11.051 16.555,0 27.674,10.53L0,11.051Z" style="fill:rgb(242,198,123);fill-rule:nonzero;"/>
        </g>
        <g transform="matrix(1,0,0,1,289.071,321.638)">
            <path d="M0,-4.808C0,-3.242 -1.45,2.129 -3.017,7.452C-4.743,13.352 -5.659,19.464 -5.776,25.671L-37.013,30.453C-37.034,27.073 -37.29,23.692 -37.791,20.331C-39.112,11.459 -41.639,-5.649 -41.639,-6.959C-41.639,-18.458 -32.143,-31.567 -20.814,-32.963C-2.175,-35.261 0,-16.307 0,-4.808" style="fill:rgb(232,62,6);fill-rule:nonzero;"/>
        </g>
        <g transform="matrix(1,0,0,1,284.445,361.76)">
            <path d="M0,8.16C-0.128,16.339 -7.247,22.61 -16.188,22.148C-25.13,21.686 -32.387,14.672 -32.387,6.487L-32.387,-9.669L-1.15,-14.45C-1.193,-11.927 -1.108,-9.397 -0.885,-6.859C-0.384,-1.131 0.043,4.955 0,8.16" style="fill:rgb(17,5,63);fill-rule:nonzero;"/>
        </g>
        <g transform="matrix(1,0,0,1,279.888,315.656)">
            <path d="M0,39.056C-0.756,30.29 0.062,21.537 2.494,13.248C4.056,7.922 5.507,2.551 5.507,0.98C5.507,-10.516 3.33,-29.472 -15.309,-27.17C-26.633,-25.771 -36.124,-12.668 -36.124,-1.172C-36.124,0.148 -33.605,17.247 -32.285,26.118C-31.761,29.641 -31.499,33.177 -31.499,36.712L-31.499,52.4C-31.499,60.589 -24.25,67.603 -15.309,68.066C-6.367,68.528 0.756,62.255 0.882,54.073C0.931,50.87 0.494,44.784 0,39.056" style="fill:rgb(255,96,38);fill-rule:nonzero;"/>
        </g>
        <g transform="matrix(1,0,0,1,285.32,300.831)">
            <path d="M0,15.805C-0.295,11.994 -0.646,8.192 -1.556,4.533C-2.376,0.879 -3.655,-2.713 -5.836,-5.591C-6.917,-7.026 -8.22,-8.247 -9.692,-9.18C-11.169,-10.112 -12.834,-10.724 -14.577,-11.022C-16.321,-11.323 -18.135,-11.318 -19.937,-11.119C-20.396,-11.089 -20.834,-11.014 -21.262,-10.916L-22.556,-10.653L-23.817,-10.235C-24.026,-10.164 -24.239,-10.102 -24.446,-10.023L-25.054,-9.745L-26.279,-9.212L-27.45,-8.548L-28.038,-8.217L-28.594,-7.831L-29.705,-7.054C-31.116,-5.92 -32.483,-4.701 -33.653,-3.289C-34.879,-1.927 -35.89,-0.383 -36.847,1.183C-37.722,2.794 -38.573,4.433 -39.191,6.166C-39.88,7.881 -40.258,9.688 -40.563,11.501L-40.683,12.873L-40.739,13.561C-40.754,13.694 -40.743,13.741 -40.743,13.853L-40.723,14.191L-40.466,17.023C-40.168,20.829 -39.743,24.629 -39.48,28.45L-39.48,28.455C-39.478,28.496 -39.509,28.533 -39.55,28.535C-39.589,28.538 -39.623,28.51 -39.629,28.471L-41.249,17.126C-41.375,16.18 -41.502,15.234 -41.605,14.282C-41.68,13.805 -41.641,13.312 -41.615,12.838L-41.539,11.402C-41.286,9.504 -40.949,7.603 -40.295,5.797C-39.103,2.151 -37.164,-1.236 -34.695,-4.17C-33.487,-5.662 -32.065,-6.966 -30.585,-8.184L-29.414,-9.024L-28.827,-9.442L-28.204,-9.804L-26.957,-10.528L-25.643,-11.123L-24.984,-11.417C-24.759,-11.5 -24.526,-11.565 -24.298,-11.639L-22.921,-12.075L-21.503,-12.346C-21.03,-12.447 -20.556,-12.52 -20.076,-12.547C-18.168,-12.733 -16.227,-12.717 -14.331,-12.367C-10.53,-11.712 -7.037,-9.462 -4.883,-6.266C-2.663,-3.106 -1.483,0.639 -0.775,4.384C-0.068,8.15 0.149,11.985 0.15,15.805C0.15,15.846 0.117,15.88 0.075,15.88C0.036,15.88 0.004,15.85 0.001,15.811L0,15.805Z" style="fill:white;fill-rule:nonzero;"/>
        </g>
        <g transform="matrix(1,0,0,1,280.997,316.738)">
            <path d="M0,17.797C-0.799,21.709 -1.247,25.694 -1.354,29.712C-2.771,32.536 -4.306,34.562 -4.423,34.71C-4.689,35.073 -5.104,35.265 -5.521,35.265C-5.818,35.265 -6.117,35.169 -6.373,34.977C-6.98,34.508 -7.098,33.634 -6.629,33.016C-6.586,32.963 -2.27,27.261 -1.812,22.082C-1.514,18.629 -5.67,14.526 -9.688,10.562C-11.605,8.664 -13.566,6.703 -15.165,4.721C-26.078,8.653 -30.928,14.515 -33.059,18.788C-34.199,21.08 -30.661,28.551 -27.783,33.122C-27.379,33.773 -27.57,34.636 -28.221,35.041C-28.455,35.191 -28.711,35.265 -28.967,35.265C-29.425,35.265 -29.883,35.03 -30.149,34.604C-30.607,33.868 -31.716,32.057 -32.846,29.818C-32.974,28.22 -33.154,26.622 -33.389,25.033C-33.762,22.519 -34.231,19.332 -34.722,16.039C-32.025,11.499 -26.664,5.904 -16.093,2.1C-15.985,-1.162 -15.325,-11.574 -11.03,-16.785C-10.54,-17.382 -9.655,-17.468 -9.069,-16.977C-8.473,-16.487 -8.388,-15.602 -8.877,-15.016C-12.778,-10.273 -13.258,0.235 -13.311,2.59C-11.766,4.571 -9.72,6.608 -7.727,8.579C-4.572,11.712 -1.514,14.718 0,17.797" style="fill:rgb(232,62,6);fill-rule:nonzero;"/>
        </g>
        <g transform="matrix(1,0,0,1,273.556,331.814)">
            <path d="M0,-14.165C-2.012,-16.78 -4.074,-19.479 -5.631,-22.114C-5.45,-23.728 -4.632,-29.078 -1.529,-31.491C-0.832,-32.032 -0.707,-33.036 -1.249,-33.733C-1.791,-34.431 -2.797,-34.556 -3.492,-34.014C-7.381,-30.989 -8.483,-25.099 -8.773,-22.786C-20.676,-17.183 -26.001,-8.669 -28.36,-2.436C-30.541,3.332 -23.749,17.845 -22.968,19.481C-22.693,20.056 -22.121,20.391 -21.524,20.391C-21.293,20.391 -21.059,20.341 -20.836,20.234C-20.04,19.854 -19.702,18.899 -20.083,18.103C-22.808,12.398 -26.651,2.086 -25.369,-1.303C-23.252,-6.899 -18.489,-14.52 -7.88,-19.671C-6.306,-17.147 -4.403,-14.645 -2.534,-12.215C1.721,-6.686 5.739,-1.462 5.417,3.329C4.948,10.308 0.578,17.913 0.534,17.989C0.091,18.752 0.352,19.731 1.114,20.174C1.367,20.32 1.643,20.391 1.915,20.391C2.466,20.391 3.002,20.106 3.299,19.595C3.494,19.259 8.087,11.278 8.607,3.544C9.01,-2.454 4.43,-8.407 0,-14.165" style="fill:white;fill-rule:nonzero;"/>
        </g>
        <g transform="matrix(0,1,1,0,268.864,404.463)">
            <path d="M-26.531,17.962L-10.172,17.962L-10.172,-26.531L-30.623,-26.531C-32.914,-14.392 -34.321,3.884 -26.531,17.962" style="fill:rgb(242,198,123);fill-rule:nonzero;"/>
        </g>
        <g transform="matrix(1,0,0,1,304.995,331.838)">
            <path d="M0,-8.856C0,-7.29 1.449,-1.769 3.017,3.715C4.742,9.794 5.659,16.001 5.776,22.221L37.013,30.229C37.034,26.852 37.29,23.498 37.791,20.187C39.112,11.453 41.638,-5.394 41.638,-6.705C41.638,-18.204 32.143,-32.293 20.813,-34.861C2.174,-39.085 0,-20.355 0,-8.856" style="fill:rgb(232,62,6);fill-rule:nonzero;"/>
        </g>
        <g transform="matrix(1,0,0,1,309.62,370.181)">
            <path d="M0,6.369C0.128,14.56 7.247,21.567 16.188,22.029C25.13,22.491 32.388,16.226 32.388,8.042L32.388,-8.114L1.151,-16.122C1.194,-13.595 1.108,-11.073 0.885,-8.559C0.384,-2.883 -0.042,3.159 0,6.369" style="fill:rgb(17,5,63);fill-rule:nonzero;"/>
        </g>
        <g transform="matrix(1,0,0,1,306.745,323.609)">
            <path d="M0,37.82C0.757,29.132 -0.062,20.295 -2.493,11.754C-4.056,6.267 -5.507,0.746 -5.507,-0.826C-5.507,-12.323 -3.33,-31.053 15.309,-26.825C26.633,-24.255 36.124,-10.171 36.124,1.325C36.124,2.644 33.605,19.483 32.285,28.217C31.761,31.686 31.499,35.195 31.499,38.73L31.499,54.418C31.499,62.608 24.25,68.873 15.309,68.411C6.367,67.949 -0.756,60.94 -0.881,52.745C-0.931,49.538 -0.494,43.496 0,37.82" style="fill:rgb(255,96,38);fill-rule:nonzero;"/>
        </g>
        <g transform="matrix(1,0,0,1,304.18,295.989)">
            <path d="M0,39.394C-1.018,35.779 -2.065,32.169 -2.817,28.48C-2.905,28.017 -2.982,27.552 -3.023,27.077C-3.053,26.594 -3.028,26.133 -3.032,25.661C-3.018,24.72 -2.997,23.781 -2.947,22.841C-2.854,20.963 -2.69,19.087 -2.414,17.225C-1.838,13.521 -0.889,9.788 1.097,6.546C2.098,4.95 3.345,3.465 4.913,2.383C6.468,1.29 8.276,0.573 10.146,0.256C12.021,-0.061 13.937,0 15.801,0.277C16.272,0.322 16.73,0.44 17.195,0.523C17.661,0.601 18.12,0.709 18.57,0.858L19.932,1.257C20.374,1.422 20.804,1.621 21.241,1.8C24.727,3.289 27.724,5.725 30.232,8.522C35.211,14.126 38.611,21.372 38.765,28.945C38.766,28.986 38.733,29.02 38.691,29.021C38.652,29.022 38.619,28.992 38.615,28.954L38.615,28.945C38.276,25.206 37.219,21.609 35.58,18.307C33.999,14.984 31.88,11.929 29.368,9.301C28.127,7.97 26.728,6.818 25.321,5.703C24.584,5.196 23.851,4.675 23.081,4.23C22.291,3.824 21.532,3.344 20.699,3.052C20.29,2.89 19.887,2.708 19.474,2.56L18.21,2.207L17.579,2.031L16.919,1.911C16.479,1.837 16.04,1.729 15.6,1.694C13.841,1.455 12.071,1.426 10.396,1.734C8.715,2.004 7.125,2.61 5.739,3.556C4.342,4.489 3.202,5.806 2.259,7.267C0.363,10.227 -0.543,13.818 -1.259,17.399C-1.59,19.206 -1.812,21.043 -1.965,22.891C-2.045,23.815 -2.096,24.743 -2.142,25.672C-2.153,26.115 -2.19,26.652 -2.181,27.018C-2.163,27.427 -2.099,27.881 -2.036,28.334C-1.513,31.998 -0.587,35.667 0.145,39.353L0.146,39.359C0.153,39.4 0.127,39.439 0.087,39.448C0.048,39.455 0.011,39.431 0,39.394" style="fill:white;fill-rule:nonzero;"/>
        </g>
        <g transform="matrix(1,0,0,1,335.626,307.904)">
            <path d="M0,52.199C-0.256,52.668 -0.735,52.924 -1.226,52.924C-1.449,52.924 -1.684,52.87 -1.896,52.753C-2.568,52.38 -2.813,51.538 -2.451,50.867C-2.387,50.761 0.757,44.77 -1.172,37.215C-2.515,31.971 -5.914,29.104 -10.625,25.14C-12.117,23.883 -13.79,22.466 -15.506,20.867C-16.54,21.751 -17.584,22.646 -18.607,23.51C-23.573,27.677 -28.316,31.652 -29.542,35.691C-29.787,34.199 -30.074,32.718 -30.416,31.236C-28.113,27.857 -24.33,24.661 -20.408,21.367C-19.332,20.472 -18.245,19.545 -17.18,18.618C-18.532,15.581 -22.434,6.213 -21.612,0.553C-21.506,-0.203 -20.803,-0.725 -20.035,-0.618C-19.278,-0.512 -18.746,0.191 -18.863,0.959C-19.641,6.341 -15.08,16.518 -14.323,18.16C-12.404,19.993 -10.582,21.527 -8.824,23.009C-3.922,27.143 -0.042,30.416 1.524,36.522C3.741,45.208 0.149,51.922 0,52.199" style="fill:rgb(232,62,6);fill-rule:nonzero;"/>
        </g>
        <g transform="matrix(1,0,0,1,337.362,325.995)">
            <path d="M0,14.403C-1.667,6.655 -6.02,1.987 -11.53,-3.923C-12.959,-5.455 -14.436,-7.04 -15.969,-8.789C-17.228,-10.488 -20.376,-15.5 -20.376,-19.036C-20.376,-19.918 -21.092,-20.635 -21.975,-20.635C-22.857,-20.635 -23.573,-19.918 -23.573,-19.036C-23.573,-14.909 -20.698,-10.083 -19.271,-7.943C-19.733,-7.46 -20.19,-6.98 -20.659,-6.493C-27.753,0.884 -35.087,8.513 -34.552,16.507C-34.032,24.254 -29.337,32.658 -29.137,33.011C-28.844,33.532 -28.301,33.825 -27.743,33.825C-27.477,33.825 -27.207,33.757 -26.959,33.619C-26.189,33.184 -25.918,32.21 -26.352,31.44C-26.397,31.36 -30.891,23.323 -31.361,16.292C-31.802,9.711 -24.966,2.599 -18.354,-4.278C-17.983,-4.662 -17.623,-5.041 -17.258,-5.424C-16.093,-4.128 -14.967,-2.92 -13.869,-1.743C-8.694,3.806 -4.607,8.19 -3.126,15.076C-1.146,24.276 -4.415,32.769 -4.448,32.853C-4.771,33.674 -4.367,34.603 -3.547,34.925C-3.354,35.002 -3.155,35.038 -2.961,35.038C-2.324,35.038 -1.723,34.655 -1.475,34.027C-1.324,33.645 2.188,24.578 0,14.403" style="fill:white;fill-rule:nonzero;"/>
        </g>
        <g transform="matrix(0,1,1,0,329.62,413.65)">
            <path d="M-31.582,16.45L-14.147,16.45L-11.515,-31.582L-32.712,-31.582C-35.142,-17.387 -36.517,1.157 -31.582,16.45" style="fill:rgb(242,198,123);fill-rule:nonzero;"/>
        </g>
        <g transform="matrix(0.103647,0.994614,0.994614,-0.103647,206.964,280.496)">
            <path d="M-15.461,-5.894L7.714,-5.894L5.738,-17.278L-15.461,-17.278L-15.461,-5.894Z" style="fill:rgb(0,45,62);fill-rule:nonzero;"/>
        </g>
        <g transform="matrix(-0.10365,-0.994614,-0.994614,0.10365,182.492,161.013)">
            <path d="M-3.526,-3.914C-5.485,-3.914 -7.071,-2.326 -7.072,-0.368C-7.072,1.59 -5.485,3.178 -3.526,3.178C-1.568,3.178 0.02,1.59 0.02,-0.368C0.019,-2.326 -1.568,-3.914 -3.526,-3.914" style="fill:rgb(100,192,157);fill-rule:nonzero;"/>
        </g>
        <g transform="matrix(1,0,0,1,186.747,167.173)">
            <path d="M0,-3.061C0.202,-1.115 -1.204,0.63 -3.16,0.834C-5.106,1.037 -6.843,-0.38 -7.045,-2.327C-7.11,-2.955 -7.01,-3.56 -6.769,-4.098C-6.789,-3.9 -6.789,-3.706 -6.77,-3.513C-6.578,-1.679 -4.933,-0.344 -3.098,-0.535C-1.456,-0.706 -0.212,-2.045 -0.112,-3.644C-0.062,-3.454 -0.021,-3.264 0,-3.061" style="fill:rgb(0,45,62);fill-rule:nonzero;"/>
        </g>
        <g transform="matrix(1,0,0,1,226.134,361.958)">
            <path d="M0,17.734C-13.788,-1.995 -44.343,19.729 -44.343,19.729L0,17.734Z" style="fill:rgb(242,198,123);fill-rule:nonzero;"/>
        </g>
        <g opacity="0.8">
            <g transform="matrix(0,-1,-1,0,473.627,103.167)">
                <path d="M-4.713,-4.713C-7.316,-4.713 -9.426,-2.603 -9.426,0C-9.426,2.603 -7.316,4.713 -4.713,4.713C-2.11,4.713 0,2.603 0,0C0,-2.603 -2.11,-4.713 -4.713,-4.713" style="fill:white;fill-rule:nonzero;"/>
            </g>
            <g transform="matrix(0,-1,-1,0,292.096,98.4543)">
                <path d="M-4.713,-4.713C-7.316,-4.713 -9.426,-2.603 -9.426,0C-9.426,2.602 -7.316,4.713 -4.713,4.713C-2.11,4.713 0,2.602 0,0C0,-2.603 -2.11,-4.713 -4.713,-4.713" style="fill:white;fill-rule:nonzero;"/>
            </g>
            <g transform="matrix(0,-1,-1,0,48.3371,42.4118)">
                <path d="M-4.713,-4.713C-7.316,-4.713 -9.426,-2.603 -9.426,0C-9.426,2.603 -7.316,4.713 -4.713,4.713C-2.11,4.713 0,2.603 0,0C0,-2.603 -2.11,-4.713 -4.713,-4.713" style="fill:white;fill-rule:nonzero;"/>
            </g>
            <g transform="matrix(0,-1,-1,0,466.376,299.958)">
                <path d="M-4.713,-4.713C-7.317,-4.713 -9.426,-2.603 -9.426,0C-9.426,2.603 -7.317,4.713 -4.713,4.713C-2.11,4.713 0,2.603 0,0C0,-2.603 -2.11,-4.713 -4.713,-4.713" style="fill:white;fill-rule:nonzero;"/>
            </g>
            <g transform="matrix(0,-1,-1,0,355.56,37.6989)">
                <path d="M-4.713,-4.713C-7.316,-4.713 -9.426,-2.604 -9.426,0C-9.426,2.602 -7.316,4.713 -4.713,4.713C-2.11,4.713 0,2.602 0,0C0,-2.604 -2.11,-4.713 -4.713,-4.713" style="fill:white;fill-rule:nonzero;"/>
            </g>
            <g transform="matrix(0,-1,-1,0,43.6242,225.167)">
                <path d="M-4.713,-4.713C-7.316,-4.713 -9.426,-2.603 -9.426,0C-9.426,2.603 -7.316,4.713 -4.713,4.713C-2.11,4.713 0,2.603 0,0C0,-2.603 -2.11,-4.713 -4.713,-4.713" style="fill:white;fill-rule:nonzero;"/>
            </g>
            <g transform="matrix(0,-1,-1,0,97.7087,86.1525)">
                <path d="M-4.713,-4.713C-7.316,-4.713 -9.426,-2.603 -9.426,0C-9.426,2.602 -7.316,4.713 -4.713,4.713C-2.11,4.713 0,2.602 0,0C0,-2.603 -2.11,-4.713 -4.713,-4.713" style="fill:white;fill-rule:nonzero;"/>
            </g>
            <g transform="matrix(0,-1,-1,0,454.893,39.6629)">
                <path d="M-2.749,-2.749C-4.267,-2.749 -5.498,-1.519 -5.498,0C-5.498,1.519 -4.267,2.749 -2.749,2.749C-1.23,2.749 0,1.519 0,0C0,-1.519 -1.23,-2.749 -2.749,-2.749" style="fill:white;fill-rule:nonzero;"/>
            </g>
            <g transform="matrix(0,-1,-1,0,53.0506,144.057)">
                <path d="M-2.75,-2.749C-4.268,-2.749 -5.499,-1.518 -5.499,0.001C-5.499,1.519 -4.268,2.75 -2.75,2.75C-1.231,2.75 -0,1.519 -0,0.001C-0,-1.518 -1.231,-2.749 -2.75,-2.749" style="fill:white;fill-rule:nonzero;"/>
            </g>
            <g transform="matrix(0,-1,-1,0,239.72,54.3157)">
                <path d="M-2.75,-2.749C-4.268,-2.749 -5.499,-1.518 -5.499,0C-5.499,1.519 -4.268,2.75 -2.75,2.75C-1.231,2.75 -0,1.519 -0,0C-0,-1.518 -1.231,-2.749 -2.75,-2.749" style="fill:white;fill-rule:nonzero;"/>
            </g>
            <g transform="matrix(0,-1,-1,0,476.376,177.395)">
                <path d="M-2.749,-2.749C-4.268,-2.749 -5.498,-1.518 -5.498,0C-5.498,1.519 -4.268,2.749 -2.749,2.749C-1.23,2.749 0,1.519 0,0C0,-1.518 -1.23,-2.749 -2.749,-2.749" style="fill:white;fill-rule:nonzero;"/>
            </g>
            <g transform="matrix(0,-1,-1,0,468.913,234.474)">
                <path d="M-2.749,-2.75C-4.268,-2.75 -5.499,-1.519 -5.499,-0.001C-5.499,1.518 -4.268,2.749 -2.749,2.749C-1.231,2.749 -0,1.518 -0,-0.001C-0,-1.519 -1.231,-2.75 -2.749,-2.75" style="fill:white;fill-rule:nonzero;"/>
            </g>
            <g transform="matrix(0,-1,-1,0,73.3568,285.546)">
                <path d="M-2.749,-2.75C-4.268,-2.75 -5.499,-1.519 -5.499,-0C-5.499,1.519 -4.268,2.749 -2.749,2.749C-1.231,2.749 0,1.519 0,-0C0,-1.519 -1.231,-2.75 -2.749,-2.75" style="fill:white;fill-rule:nonzero;"/>
            </g>
        </g>
    </g>
</svg>
