<?xml version="1.0" encoding="UTF-8" standalone="no"?>
<!DOCTYPE svg PUBLIC "-//W3C//DTD SVG 1.1//EN" "http://www.w3.org/Graphics/SVG/1.1/DTD/svg11.dtd">
<svg width="100%" height="100%" viewBox="0 0 535 316" version="1.1" xmlns="http://www.w3.org/2000/svg" xmlns:xlink="http://www.w3.org/1999/xlink" xml:space="preserve" xmlns:serif="http://www.serif.com/" style="fill-rule:evenodd;clip-rule:evenodd;stroke-linejoin:round;stroke-miterlimit:2;">
    <g transform="matrix(1,0,0,1,-105.487,-688.426)">
        <g transform="matrix(4.16667,0,0,4.16667,0,0)">
            <path d="M89.061,203.056C84.642,203.271 81.706,199.804 80.484,195.89C79.524,192.813 78.954,187.743 81.426,185.159C84.162,182.3 87.417,185.631 89.295,188.108C90.22,185.469 91.927,182.634 94.601,182.379C97.837,182.071 99.089,186.248 99.091,188.79C99.095,194.487 95.602,202.736 89.061,203.056ZM107.785,175.372C106.779,174.202 105.66,173.292 104.465,172.59C96.078,165.553 82.681,169.16 76.173,177.39C67.665,188.147 71.801,205.221 74.169,217.418C74.957,221.479 75.997,225.394 77.371,229.292C78.176,231.576 78.945,234.288 80.909,235.875C84.962,239.149 90.206,234.058 93.113,231.383C103.348,221.966 111.266,207.104 112.404,193.159C112.899,187.083 111.884,180.143 107.785,175.372Z" style="fill:rgb(252,223,108);fill-rule:nonzero;"/>
        </g>
        <g transform="matrix(4.16667,0,0,4.16667,0,0)">
            <path d="M82.966,239.16C82.698,238.708 82.536,238.419 82.358,238.14C75.272,227.023 69.768,215.252 67.749,202.097C66.983,197.103 66.509,192.062 67.042,186.997C67.314,184.412 67.68,181.837 68,179.289C68.002,179.288 67.898,179.289 67.853,179.341C67.711,179.504 67.592,179.688 67.463,179.863C64.476,183.963 63.903,188.785 63.489,193.61C63.006,199.238 64.281,204.675 66.262,209.842C68.752,216.335 71.686,222.661 74.539,229.01C75.66,231.505 77.008,233.908 78.386,236.274C79.338,237.908 80.799,238.956 82.966,239.16ZM62.298,203.76C59.605,204.243 58.036,206.124 57.036,208.654C56.462,210.107 55.658,210.265 54.672,209.06C53.348,207.441 51.611,206.657 49.601,206.396C46.226,205.957 44.104,207.125 43.021,210.363C42.495,211.935 42.42,213.678 42.291,215.356C42.169,216.945 41.911,217.267 40.317,217.132C39.233,217.041 38.15,216.872 37.066,216.868C33.457,216.853 30.426,218.247 28.089,220.959C26.224,223.124 26.977,225.121 29.727,225.786C31.537,226.223 33.181,225.813 34.755,224.959C36.65,223.931 36.67,223.93 37.596,225.918C37.779,226.312 37.998,226.692 38.24,227.053C40.547,230.493 45.754,232.932 49.505,227.403C50.743,225.579 51.692,223.551 52.689,221.574C53.477,220.01 54.031,219.825 55.326,220.911C59.715,224.594 64.529,224.1 68.028,219.805C66.11,214.433 64.24,209.197 62.298,203.76ZM104.044,213.622C104.819,213.738 105.494,213.903 106.174,213.93C110.611,214.104 114.33,212.476 117.453,209.375C118.82,208.018 119.38,208.086 120.343,209.708C122.129,212.714 125.473,213.969 128.644,212.536C130.235,211.816 131.797,210.779 133.001,209.529C134.28,208.202 135.347,207.879 137.103,208.51C140.636,209.777 144.266,209.894 147.832,208.488C149.681,207.758 150.917,206.386 151.579,204.533C152.542,201.834 151.379,199.259 148.604,198.561C146.876,198.126 144.952,197.968 143.202,198.238C140.553,198.647 137.964,199.486 135.379,200.243C133.624,200.757 132.979,200.456 132.65,198.629C132.543,198.032 132.526,197.418 132.475,196.812C132.198,193.506 130.38,191.82 127.082,191.946C124.014,192.063 121.194,192.997 118.643,194.743C118.293,194.982 117.685,195.178 117.365,195.03C117.056,194.888 116.841,194.287 116.799,193.865C116.66,192.48 116.714,191.072 116.519,189.698C116.122,186.911 113.128,185.542 110.91,187.13C110.508,187.419 110.156,188.114 110.176,188.604C110.393,193.839 109.847,198.969 108.026,203.895C106.838,207.107 105.437,210.241 104.044,213.622ZM84.661,238.39C84.943,238.279 85.04,238.268 85.097,238.213C85.285,238.033 85.468,237.845 85.636,237.646C93.37,228.523 99.898,218.644 104.694,207.646C108.244,199.503 109.606,191.157 107.356,182.432C106.275,178.24 104.677,174.23 101.15,171.487C95.455,167.058 89.086,166.117 82.143,168.103C74.35,170.333 70.285,175.535 69.163,183.391C68.16,190.419 68.596,197.396 69.898,204.312C71.871,214.792 76.268,224.347 81.543,233.529C82.508,235.208 83.633,236.796 84.661,238.39ZM118.312,211.099C114.316,214.803 109.254,216.619 103.162,215.232C101.916,217.382 100.672,219.615 99.346,221.799C95.768,227.7 91.699,233.249 87.232,238.509C84.624,241.581 81.362,241.841 78.408,239.006C77.36,237.999 76.451,236.748 75.795,235.449C73.696,231.291 71.744,227.057 69.736,222.852C69.53,222.421 69.329,221.988 69.054,221.406C64.438,225.801 59.557,226.493 54.438,222.571C53.403,224.372 52.391,226.141 51.367,227.904C51.215,228.166 51.006,228.396 50.83,228.645C46.626,234.625 39.9,232.653 36.934,228.279C36.545,227.706 36.183,227.115 35.824,226.896C33.96,227.139 32.099,227.554 30.232,227.578C28.329,227.603 26.576,226.872 25.735,224.985C24.912,223.136 25.348,221.356 26.659,219.876C29.745,216.392 33.627,214.77 38.297,215.121C39.021,215.176 39.744,215.246 40.61,215.322C40.385,211.189 41.173,207.383 44.916,205.366C48.662,203.348 52.258,204.718 55.594,207.196C57.079,204.665 58.871,202.415 62.222,202.047C62.08,200.689 61.914,199.326 61.797,197.958C60.848,186.941 64.6,177.756 73.08,170.768C78.08,166.647 84.213,164.557 90.653,165.411C100.352,166.698 106.283,170.953 109.185,182.367C109.441,183.374 109.628,184.397 109.848,185.416C115.742,183.7 117.641,185.237 118.543,192.486C119.762,192.01 120.928,191.403 122.169,191.107C124.019,190.667 125.918,190.214 127.804,190.18C131.279,190.117 133.692,192.453 134.116,195.921C134.22,196.778 134.325,197.635 134.439,198.574C136.144,198.066 137.733,197.411 139.385,197.145C141.859,196.746 144.384,196.368 146.874,196.438C150.419,196.539 152.824,198.431 153.432,201.045C154.168,204.215 152.751,207.584 149.898,209.403C146.842,211.351 143.444,211.277 140.024,211.036C139.591,211.005 139.156,210.937 138.734,210.836C137.558,210.554 136.275,209.808 135.246,210.071C134.206,210.337 133.47,211.659 132.512,212.404C128.705,215.362 124.658,215.664 121.137,213.269C120.173,212.613 119.283,211.849 118.312,211.099Z" style="fill:rgb(35,31,32);fill-rule:nonzero;"/>
        </g>
        <g transform="matrix(4.16667,0,0,4.16667,0,0)">
            <path d="M89.075,201.021C91.456,198.541 95.218,192.02 95.792,189.259C96.032,188.107 96.014,186.834 95.802,185.674C95.58,184.461 94.527,183.996 93.38,184.435C91.964,184.978 90.785,185.841 90.18,187.319C89.737,188.404 89.018,188.5 88.262,187.604C87.76,187.008 87.32,186.319 86.708,185.866C85.668,185.094 84.57,184.326 83.125,185.031C81.57,185.791 80.713,187.083 80.961,188.705C81.205,190.295 81.602,192.052 82.518,193.309C84.475,195.994 86.81,198.402 89.075,201.021ZM88.907,185.334C90.102,184.479 91.109,183.538 92.293,182.955C94.877,181.683 97.35,183.156 97.744,186.012C98.121,188.74 97.318,191.219 96.037,193.518C94.514,196.25 92.823,198.892 91.114,201.514C90.124,203.031 89.219,203.197 87.948,201.917C85.535,199.484 83.127,197.013 81.02,194.32C79.511,192.392 78.7,190.022 79.263,187.442C80.165,183.31 83.967,181.793 87.456,184.177C87.991,184.543 88.474,184.986 88.907,185.334Z" style="fill:rgb(35,31,32);fill-rule:nonzero;"/>
        </g>
    </g>
</svg>
